<?xml version="1.0" encoding="utf-8"?>
<!-- Generator: Adobe Illustrator 16.0.0, SVG Export Plug-In . SVG Version: 6.00 Build 0)  -->
<!DOCTYPE svg PUBLIC "-//W3C//DTD SVG 1.1//EN" "http://www.w3.org/Graphics/SVG/1.1/DTD/svg11.dtd">
<svg version="1.1" id="Calque_1" xmlns="http://www.w3.org/2000/svg" xmlns:xlink="http://www.w3.org/1999/xlink" x="0px" y="0px"
	 width="405.74px" height="419.53px" viewBox="0 0 405.74 419.53" enable-background="new 0 0 405.74 419.53" xml:space="preserve">
<g>
	<path fill-rule="evenodd" clip-rule="evenodd" fill="#FFFFFF" d="M402.951,321.722c-1.061-2.674-3.53-4.372-5.908-5.909
		c-4.356-2.824-9.06-4.245-14.305-2.924c-1.054,0.271-2.146,0.393-3.3,0.593c-0.776-1.281-1.423-2.584-2.269-3.74
		c-4.385-5.99-10.093-9.507-17.702-9.835c-2.663-0.116-5.264-0.102-7.844,0.514c-1.416,0.333-2.659-0.102-3.502-1.062
		c-1.674-1.899-3.134-3.974-4.806-6.139c4.435-3.251,5.815-8.066,8.019-12.394c1.665-3.267,3.27-6.516,3.719-10.192
		c0.472-3.78,0.894-7.562,1.26-11.358c0.131-1.331,0.294-2.438,1.767-3.054c2.69-1.133,3.746-3.824,5.374-5.968
		c2.26-2.98,3.33-6.438,3.933-10.073c0.105-0.633,0.136-1.303,0.383-1.876c1.335-3.065,1.06-6.245,0.623-9.404
		c-0.468-3.427-1.398-6.822-1.547-10.25c-0.153-3.486-1.313-6.574-2.405-9.766c-1.759-5.121-4.884-9.316-8.413-13.291
		c-3.752-4.22-8.128-7.525-13.554-9.302c-0.852-0.285-1.729-0.484-2.604-0.7c-0.861-0.215-1.731-0.401-2.758-0.637
		c0.981-4.968,0.412-9.681-1.27-14.117c-1.084-2.854-2.885-5.479-4.644-8.01c-1.845-2.641-3.952-5.052-6.254-7.325
		c0.524-0.721,1.063-1.429,1.679-2.085c0.267-0.288,0.354-0.803,0.423-1.229c0.285-1.783,1.108-3.423,0.854-5.377
		c-0.213-1.618,0.562-3.367,0.341-4.984c-0.407-2.967-1.18-5.894-1.896-8.813c-0.521-2.14-1.058-4.098,0.369-6.25
		c1.451-2.184,2.432-4.684,3.571-7.067c0.685-1.438,1.43-2.874,1.875-4.391c0.773-2.648,1.497-5.328,1.938-8.044
		c0.344-2.159,0.561-4.435,0.267-6.582c-0.978-7.086-3.702-13.423-8.942-18.482c-0.618-0.596-0.746-1.18-0.474-1.979
		c0.519-1.528,1.006-3.073,1.429-4.628c0.782-2.848,1.552-5.736,0.565-8.67c-1.134-3.381-3.217-6.273-5.055-9.29
		c-0.186-0.299-0.513-0.533-0.816-0.74c-1.207-0.83-2.618-1.455-3.606-2.492c-1.265-1.326-2.754-1.559-4.378-1.665
		c-2.121-0.139-4.23-0.417-6.36,0.021c-0.899,0.188-1.851,0.126-2.653,0.169c-0.226-3.24-0.5-6.229-0.61-9.222
		c-0.061-1.718-0.78-3.09-1.673-4.473c-1.337-2.076-3.052-3.864-4.321-6.016c-1.032-1.747-2.484-3.216-4.628-3.889
		c-2.967-0.929-5.951-1.65-9.062-1.787c-0.644-0.03-1.285-0.118-2.044-0.194c-0.141-0.83-0.35-1.541-0.376-2.257
		c-0.219-5.831-1.79-11.291-4.743-16.293c-1.633-2.764-3.794-5.032-7.178-5.797c-1.788-0.404-3.466-1.275-5.253-1.669
		c-2.771-0.607-5.587-1.311-8.398-1.387c-5.32-0.146-10.373,1.233-15.059,3.79c-1.075,0.59-2.126,1.338-2.985,2.211
		c-1.475,1.495-2.792,3.149-4.124,4.673c-1.106-0.278-2.161-0.628-3.245-0.8c-4.446-0.702-8.883-0.677-13.355-0.015
		c-6.592,0.972-12.446,3.444-16.609,8.697c-1.889,2.393-3.882,3.257-6.661,3.075c-0.145-0.01-0.294,0.009-0.439-0.004
		c-3.477-0.335-6.895,0.04-10.309,0.714c-2.812,0.559-5.397,1.425-7.008,4.038c-0.384,0.624-0.711,1.336-1.236,1.808
		c-3.392,3.008-5.341,6.963-7.342,10.898c-1.117,2.188-2.085,4.38-2.033,6.91c0.015,0.632-0.222,1.271-0.441,2.419
		c-1.134-0.969-1.929-1.694-2.771-2.361c-4.321-3.429-9.287-5.579-14.497-7.215c-1.104-0.348-2.341-0.563-3.483-0.461
		c-4.479,0.39-8.908,1.087-13.179,2.609c-4.391,1.562-8.552,3.49-11.762,7.022c-0.443,0.482-0.906,0.99-1.193,1.57
		c-1.381,2.808-2.302,5.734-2.15,8.923c0.067,1.446,0.029,2.898,0.04,4.311c-0.437,0.168-0.702,0.303-0.98,0.369
		c-2.222,0.508-4.469,0.91-6.657,1.528c-2.56,0.723-5.053,1.692-6.933,3.685c-1.61,1.709-3.193,3.457-4.627,5.312
		c-0.63,0.816-1.189,1.263-2.188,1.001c-0.712-0.187-1.408-0.427-2.125-0.583c-1.001-0.215-2.063-0.666-3.014-0.504
		c-2.318,0.39-4.728,0.765-6.853,1.707c-4.713,2.098-9.129,4.687-12.908,8.362c-3.417,3.323-6.719,6.609-8.137,11.331
		c-0.27,0.902-1.001,1.693-1.151,2.599c-0.891,5.373-0.537,10.745,0.563,16.035c0.404,1.966,1.395,3.812,2.189,5.892
		c0.052-0.114,0.023,0.057-0.074,0.143c-3.851,3.371-7.496,6.896-9.498,11.756c-0.137,0.335-0.405,0.613-0.603,0.929
		c-2.39,3.815-3.651,7.949-4.072,12.462c-0.291,3.188-0.31,6.334,0.076,9.471c0.308,2.473,0.641,5.025,1.53,7.323
		c1.167,3.011,2.951,5.685,5.428,7.934c-4.184,2.918-7.913,6.28-11.127,10.234c-0.86,1.052-1.539,2.247-2.327,3.417
		c-2.491-0.303-5.065-0.739-7.66-0.896c-1.516-0.099-3.097,0.086-4.579,0.43c-6.43,1.518-12.217,4.425-16.999,8.958
		c-2.525,2.393-4.536,5.364-6.587,8.214c-1.324,1.84-2.148,4.029-3.459,5.875c-2.479,3.499-2.596,7.375-1.817,11.27
		c1.415,7.049,4.479,13.372,9.094,18.925c0.567,0.68,0.961,1.502,1.522,2.392c-0.645,0.691-1.155,1.303-1.725,1.862
		c-2.753,2.697-4.903,5.823-6.863,9.14c-1.421,2.388-1.547,4.942-1.052,7.405c0.613,3.026,0.51,6.085,0.988,9.105
		c0.325,2.017,0.792,3.868,2.163,5.502c2.369,2.85,4.582,5.826,7.054,8.999c-0.772,0.625-1.599,1.463-2.581,2.035
		c-2.323,1.355-4.042,3.358-5.877,5.238c-1.404,1.434-2.587,2.884-2.658,5.15c-0.051,1.772-0.835,3.514-1.259,5.276
		c-0.111,0.44-0.215,0.925-0.137,1.356c0.794,4.288,1.269,8.678,3.019,12.732c1.517,3.515,4.609,5.537,7.679,7.515
		c1.682,1.081,3.409,2.099,5.143,3.08c0.911,0.512,1.278,1.155,1.202,2.211c-0.643,8.993,2.079,17.08,7.039,24.414
		c1.499,2.221,3.577,4.131,5.685,5.839c2.65,2.14,5.532,4.009,8.432,5.807c1.661,1.026,3.537,1.733,5.352,2.492
		c3.021,1.258,5.987,2.75,9.129,3.558c3.093,0.804,4.216,3.05,5.509,5.453c1.751,3.281,3.461,6.608,5.535,9.684
		c1.134,1.67,3.291,2.641,4.431,4.308c1.378,2.007,3.495,2.835,5.228,4.24c0.416,0.331,0.921,0.744,1.409,0.781
		c3.235,0.285,6.286,1.533,9.582,1.574c2.159,0.019,4.326,0.606,6.453,1.047c2.314,0.479,4.511,0.214,6.667-0.657
		c0.68-0.269,1.382-0.705,2.065-0.694c2.688,0.034,4.652-1.435,6.592-2.968c3.126-2.466,6.201-4.99,9.58-7.719
		c2.351,1.325,4.868,2.922,7.549,4.194c1.686,0.808,3.598,1.18,5.43,1.66c4.426,1.149,9.009,0.598,13.491,1.189
		c0.712,0.089,1.484,0,2.165-0.205c3.728-1.122,7.392-2.481,11.157-3.418c2.581-0.631,4.654-1.837,6.481-3.681
		c0.306-0.314,1.103-0.471,1.507-0.299c1.4,0.589,2.918,1.133,4.039,2.092c3.299,2.82,7.215,4.545,10.898,6.691
		c3.164,1.846,6.583,2.911,10.092,3.651c2.188,0.47,4.465,0.547,6.698,0.798c0.605,0.068,1.226,0.221,1.823,0.176
		c1.603-0.122,3.216-0.245,4.802-0.523c2.392-0.432,4.762-0.973,7.133-1.509c0.876-0.2,1.743-0.445,2.569-0.788
		c5.926-2.456,11.72-5.202,16.854-9.09c4.022-3.045,7.048-6.946,9.013-11.635c0.905-2.154,0.928-2.102,3.277-1.333
		c2.198,0.72,4.464,0.408,6.701,0.23c1.172-0.084,2.333-0.348,3.501-0.367c4.164-0.041,7.342-2.291,10.574-4.494
		c2.52-1.714,4.718-3.897,7.67-4.986c0.954-0.355,1.681-1.338,2.462-2.077c1.385-1.317,2.938-2.505,4.046-4.027
		c1.376-1.926,3.078-3.158,5.358-3.266c3.326-0.167,6.537-1.221,9.964-0.848c2.58,0.277,5.341,0.078,7.859-0.555
		c3.161-0.796,6.28-0.542,9.424-0.626c0.548-0.008,1.101,0.039,1.638-0.015c5.986-0.574,11.797,0.19,17.471,2.165
		c3.436,1.177,6.924,2.207,10.337,3.449c5.522,1.998,10.092,5.381,13.394,10.237c3.898,5.751,4.814,12.032,2.784,18.764
		c-1.828,6.07-5.375,11.004-10.202,14.877c-3.914,3.138-8.461,4.146-13.61,2.81c-10.209-2.648-19.094,0.2-26.66,7.377
		c-0.591,0.567-0.939,1.547-1.089,2.393c-0.179,1.028,0.386,1.698,1.541,1.807c2.087,0.203,4.176,0.683,6.254,0.644
		c4.583-0.085,8.899,1.34,13.345,1.958c1.842,0.254,3.481,0.674,5.138,1.407c0.548,0.247,1.246,0.138,1.884,0.192
		c3.227,0.264,6.455,0.489,9.683,0.886c3.311,0.406,6.781,0.616,10.037,0.059c3.175-0.534,6.417-0.896,9.519-1.78
		c2.062-0.594,4.198-1.366,5.921-2.585c3.023-2.135,6.543-3.373,9.298-6.071c2.826-2.769,5.505-5.601,7.55-8.954
		c2.309-3.812,4.326-7.76,5.487-12.14c1.237-4.641,1.035-9.311,0.723-13.99c-0.076-1.109,0.144-1.743,0.867-2.613
		c1.433-1.729,3.016-3.169,5.046-4.09c2.323-1.056,3.37-3.239,3.914-5.349c0.838-3.233,1.095-6.629,1.405-9.967
		c0.104-1.112-0.15-2.384-0.645-3.388c-0.701-1.421-0.315-2.37,0.873-2.977c4.74-2.394,5.494-6.712,5.545-11.339
		C405.78,328.893,404.356,325.26,402.951,321.722z"/>
	<g>
		<path fill-rule="evenodd" clip-rule="evenodd" d="M278.099,120.346c-0.503,0.293-0.856,0.872-0.536,1.884
			c1.967-1.492,3.658-2.98,5.068-4.747c0.927-1.16,1.943-2.348,2.463-3.698c0.892-2.304,1.921-4.555,2.294-7.089
			c0.244-1.623,0.201-3.013-0.426-4.714c-1.069,0.631-1.129,1.451-1.11,2.404c0.023,1.055,0.098,2.197-0.247,3.161
			c-0.907,2.546-1.752,5.184-3.154,7.461C281.271,116.928,280.228,119.112,278.099,120.346z"/>
		<path fill-rule="evenodd" clip-rule="evenodd" d="M308.924,115.152c0.463-0.412,0.924-0.908,1.166-1.466
			c1.496-3.464,2.588-6.965,3.057-10.812c0.464-3.819-0.547-7.187-1.313-10.708c-0.054-0.224-0.326-0.4-0.499-0.599
			c-0.203,0.06-0.406,0.12-0.61,0.177c0.127,0.935,0.162,1.89,0.401,2.796c0.619,2.327,1.309,4.614,0.867,7.092
			c-0.283,1.603-0.024,3.366-0.573,4.848c-0.965,2.624-1.249,5.6-3.481,7.67c-0.157,0.145-0.115,0.754,0.056,0.924
			C308.171,115.251,308.754,115.306,308.924,115.152z"/>
		<path fill-rule="evenodd" clip-rule="evenodd" d="M181.259,109.459c1.095,0.152,1.761-0.432,2.207-1.328
			c1.146-2.286,3.12-3.569,5.357-4.613c0.764-0.359,1.375-1.049,2.058-1.586c-0.091-0.127-0.183-0.254-0.276-0.379
			C186.6,102.46,181.643,106.655,181.259,109.459z"/>
		<path fill-rule="evenodd" clip-rule="evenodd" d="M292.745,109.816c-1.089-0.133-1.029,0.683-1.159,1.373
			c-0.398,2.071-1.161,3.958-2.646,5.524c-0.584,0.613-1.17,1.316-0.541,2.45C291.205,117.161,293.407,112.352,292.745,109.816z"/>
		<path fill-rule="evenodd" clip-rule="evenodd" d="M283.18,123.7c-0.832,1.306-1.343,2.361-2.088,3.206
			c-0.691,0.783-1.635,1.344-2.639,2.138c2.492,0.19,6.259-3.173,5.501-4.901C283.797,124.055,283.5,123.882,283.18,123.7z"/>
		<path fill-rule="evenodd" clip-rule="evenodd" d="M189.897,120.651c1.017-0.43,1.954-0.963,2.747-1.662
			c0.254-0.228,0.133-0.881,0.185-1.341c-0.15-0.065-0.297-0.133-0.445-0.201C191.555,118.498,190.149,119.045,189.897,120.651z"/>
		<path fill-rule="evenodd" clip-rule="evenodd" d="M105.064,90.249c0.122-0.424,0.377-0.861,0.336-1.269
			c-0.146-1.418-0.404-2.822-0.601-4.232c-0.055-0.415-0.217-0.974-0.022-1.24c0.872-1.197,0.974-2.767,2.204-3.844
			c1.758-1.537,3.288-3.337,4.876-5.063c0.461-0.502,0.773-0.972,1.589-1.172c0.822-0.201,1.486-1.073,2.293-1.71
			c-1.045-1.002-1.823-0.634-2.54-0.138c-1.341,0.927-2.702,1.839-3.952,2.882c-2.554,2.122-4.719,4.623-5.904,7.749
			c-1.066,2.812-0.668,5.557,1.081,7.996C104.64,90.224,104.851,90.237,105.064,90.249z"/>
		<path fill-rule="evenodd" clip-rule="evenodd" d="M139.355,62.344c1.323-0.625,2.164-0.135,3.031,0.703
			c0.511,0.488,1.025,0.972,1.562,1.474c0.532-1.497,0.415-2.224-1.02-3.27c-2.017-1.466-4.147-0.861-6.303-0.125
			C137.412,62.59,138.036,62.967,139.355,62.344z"/>
		<path fill-rule="evenodd" clip-rule="evenodd" d="M139.262,68.232c1.271,2.247,1.896,2.488,3.549,1.385
			C140.987,67.444,140.987,67.444,139.262,68.232z"/>
		<path fill-rule="evenodd" clip-rule="evenodd" d="M111.154,79.798c-0.58,0.685,0.01,1.227,0.498,1.898
			c0.902-1.31,1.68-2.439,2.665-3.878C112.405,77.728,111.866,78.96,111.154,79.798z"/>
		<path fill-rule="evenodd" clip-rule="evenodd" d="M183.573,60.112c-0.581,0.564-1.16,1.3-0.578,2.741
			c1.033-0.842,1.896-1.54,2.753-2.243c1.213-0.998,2.302-2.219,3.657-2.95c2.506-1.349,5.17-2.404,7.762-3.595
			c1.657-0.761,3.356-1.127,5.204-0.887c0.98,0.126,1.994,0.01,2.99,0.006c0.797,0,1.385-0.281,1.61-1.357
			c-0.42-0.129-0.922-0.468-1.252-0.349c-1.499,0.542-2.943,0.188-4.434,0.031c-1.169-0.125-2.447-0.162-3.541,0.19
			c-1.671,0.539-3.236,1.433-4.835,2.195c-1.857,0.892-3.849,1.519-5.452,2.88C186.151,57.88,184.798,58.929,183.573,60.112z"/>
		<path fill-rule="evenodd" clip-rule="evenodd" d="M197.432,57.997c-1.884,0.291-3.846,0.461-5.396,1.784
			c-3.09,2.626-6.522,4.878-8.779,8.392c-0.966,1.504-2.07,2.917-2.312,4.768c-0.084,0.644-0.03,1.158,0.773,1.216
			c0.107-0.105,0.241-0.185,0.299-0.304c2.421-4.881,5.919-8.782,10.331-11.994c2.005-1.458,3.967-2.488,6.45-2.144
			c1.171,0.162,1.412-0.57,1.959-1.714C199.369,57.988,198.379,57.853,197.432,57.997z"/>
		<path fill-rule="evenodd" clip-rule="evenodd" d="M172.146,44.865c0.167-1.476,0.671-2.728,1.799-3.764
			c1.099-1.012,2.099-2.14,3.103-3.25c0.506-0.558,0.847-1.292,1.413-1.776c0.748-0.639,1.609-1.166,2.474-1.64
			c1.489-0.814,3.037-1.527,4.522-2.345c0.273-0.15,0.384-0.592,0.647-1.027c-2.233-0.5-3.809,0.529-5.278,1.572
			c-1.273,0.902-2.212,2.322-3.544,3.089c-2.303,1.324-3.886,3.355-5.708,5.153c-0.585,0.582-1.283,1.363-1.348,2.101
			c-0.157,1.859,0.019,3.747,0.071,6.086C171.805,47.686,171.989,46.266,172.146,44.865z"/>
		<path fill-rule="evenodd" clip-rule="evenodd" d="M207.034,57.214c1.536-0.033,3.024,0.055,4.484-0.127
			c1.431-0.176,3.061,0.631,4.357-0.574c-0.114-0.246-0.126-0.347-0.17-0.365c-2.511-1.015-5.151-0.67-7.739-0.62
			C207.263,55.543,206.542,56.209,207.034,57.214z"/>
		<path fill-rule="evenodd" clip-rule="evenodd" d="M184.219,38.941c2.049-0.97,3.731-1.763,5.412-2.559
			c-0.095-0.256-0.185-0.515-0.281-0.772c-1.757,0.229-3.268,1.23-4.862,1.945C184.327,37.627,184.361,38.146,184.219,38.941z"/>
		<path fill-rule="evenodd" clip-rule="evenodd" d="M391.848,312.855c-1.031-2.601-3.434-4.252-5.746-5.747
			c-4.236-2.746-8.81-4.128-13.91-2.843c-1.024,0.263-2.087,0.382-3.209,0.576c-0.755-1.246-1.384-2.513-2.206-3.637
			c-4.264-5.825-9.814-9.245-17.214-9.564c-2.59-0.113-5.119-0.099-7.628,0.5c-1.377,0.323-2.586-0.099-3.405-1.032
			c-1.628-1.848-3.048-3.864-4.674-5.97c4.312-3.161,5.655-7.845,7.798-12.053c1.619-3.176,3.18-6.336,3.616-9.911
			c0.459-3.676,0.869-7.354,1.226-11.045c0.127-1.295,0.285-2.372,1.718-2.97c2.616-1.102,3.643-3.719,5.226-5.804
			c2.197-2.898,3.238-6.26,3.824-9.796c0.103-0.615,0.132-1.267,0.372-1.824c1.299-2.98,1.03-6.073,0.606-9.145
			c-0.455-3.333-1.36-6.635-1.505-9.968c-0.148-3.391-1.277-6.394-2.339-9.497c-1.71-4.979-4.749-9.06-8.181-12.924
			c-3.649-4.104-7.904-7.318-13.181-9.046c-0.828-0.277-1.682-0.471-2.532-0.681c-0.838-0.209-1.685-0.39-2.683-0.619
			c0.955-4.831,0.401-9.415-1.234-13.728c-1.054-2.776-2.805-5.328-4.516-7.79c-1.794-2.568-3.843-4.913-6.081-7.123
			c0.51-0.701,1.034-1.39,1.632-2.027c0.26-0.28,0.344-0.781,0.411-1.195c0.277-1.734,1.078-3.329,0.83-5.229
			c-0.207-1.573,0.546-3.274,0.332-4.846c-0.396-2.886-1.147-5.731-1.844-8.57c-0.506-2.081-1.028-3.985,0.359-6.078
			c1.411-2.124,2.364-4.555,3.473-6.873c0.666-1.398,1.391-2.794,1.823-4.27c0.752-2.575,1.456-5.181,1.884-7.822
			c0.335-2.1,0.546-4.313,0.26-6.4c-0.951-6.892-3.601-13.053-8.696-17.973c-0.601-0.58-0.726-1.147-0.46-1.925
			c0.504-1.486,0.978-2.988,1.389-4.501c0.761-2.77,1.509-5.578,0.55-8.431c-1.103-3.288-3.128-6.101-4.915-9.034
			c-0.181-0.291-0.499-0.519-0.794-0.719c-1.174-0.808-2.546-1.415-3.507-2.423c-1.23-1.29-2.679-1.516-4.258-1.619
			c-2.062-0.135-4.113-0.406-6.185,0.021c-0.875,0.183-1.8,0.123-2.58,0.164c-0.22-3.151-0.486-6.057-0.594-8.968
			c-0.06-1.671-0.759-3.005-1.627-4.35c-1.3-2.019-2.968-3.757-4.202-5.85c-1.004-1.699-2.416-3.128-4.501-3.782
			c-2.885-0.903-5.787-1.604-8.812-1.738c-0.626-0.029-1.25-0.115-1.987-0.189c-0.137-0.807-0.34-1.499-0.366-2.195
			c-0.212-5.67-1.74-10.979-4.612-15.844c-1.588-2.688-3.689-4.893-6.979-5.637c-1.739-0.393-3.37-1.24-5.108-1.623
			c-2.695-0.59-5.433-1.275-8.167-1.349c-5.174-0.141-10.087,1.199-14.644,3.686c-1.046,0.574-2.067,1.301-2.903,2.15
			c-1.434,1.453-2.715,3.062-4.011,4.544c-1.075-0.271-2.102-0.611-3.155-0.778c-4.324-0.683-8.638-0.658-12.987-0.015
			c-6.41,0.945-12.104,3.35-16.151,8.458c-1.837,2.327-3.775,3.167-6.477,2.991c-0.141-0.01-0.287,0.008-0.428-0.004
			c-3.381-0.326-6.704,0.039-10.024,0.694c-2.735,0.543-5.248,1.386-6.815,3.926c-0.374,0.606-0.691,1.299-1.202,1.758
			c-3.298,2.925-5.193,6.771-7.139,10.598c-1.086,2.128-2.028,4.26-1.978,6.72c0.015,0.615-0.215,1.236-0.429,2.353
			c-1.103-0.942-1.876-1.647-2.694-2.295c-4.202-3.335-9.031-5.426-14.097-7.017c-1.074-0.338-2.277-0.548-3.388-0.449
			c-4.356,0.379-8.663,1.057-12.815,2.538c-4.27,1.519-8.316,3.394-11.438,6.828c-0.431,0.469-0.881,0.963-1.16,1.527
			c-1.343,2.73-2.239,5.576-2.091,8.677c0.065,1.406,0.028,2.818,0.039,4.192c-0.424,0.164-0.683,0.294-0.953,0.358
			c-2.16,0.494-4.345,0.885-6.473,1.486c-2.489,0.703-4.914,1.646-6.742,3.583c-1.565,1.662-3.105,3.362-4.5,5.165
			c-0.613,0.794-1.156,1.229-2.127,0.974c-0.693-0.182-1.369-0.416-2.066-0.567c-0.974-0.209-2.006-0.648-2.931-0.49
			c-2.254,0.379-4.598,0.744-6.664,1.66c-4.583,2.04-8.877,4.557-12.553,8.131c-3.323,3.231-6.534,6.427-7.913,11.018
			c-0.263,0.877-0.974,1.646-1.12,2.528c-0.867,5.225-0.522,10.448,0.548,15.593c0.394,1.912,1.356,3.707,2.129,5.729
			c0.051-0.111,0.022,0.055-0.072,0.139c-3.745,3.278-7.289,6.706-9.236,11.432c-0.133,0.326-0.394,0.596-0.586,0.904
			c-2.324,3.71-3.551,7.73-3.96,12.119c-0.283,3.1-0.302,6.16,0.074,9.21c0.299,2.404,0.623,4.887,1.488,7.121
			c1.134,2.928,2.87,5.528,5.278,7.715c-4.069,2.837-7.695,6.107-10.821,9.952c-0.836,1.023-1.497,2.186-2.263,3.323
			c-2.422-0.295-4.926-0.719-7.449-0.871c-1.474-0.096-3.012,0.084-4.452,0.418c-6.252,1.476-11.881,4.303-16.53,8.711
			c-2.456,2.327-4.411,5.217-6.406,7.988c-1.288,1.79-2.089,3.917-3.364,5.713c-2.41,3.403-2.525,7.172-1.767,10.959
			c1.376,6.854,4.356,13.004,8.843,18.403c0.551,0.661,0.935,1.461,1.48,2.326c-0.627,0.672-1.123,1.267-1.677,1.811
			c-2.677,2.623-4.768,5.663-6.674,8.888c-1.382,2.322-1.504,4.807-1.023,7.201c0.597,2.943,0.496,5.918,0.961,8.854
			c0.315,1.962,0.771,3.762,2.103,5.351c2.304,2.771,4.456,5.666,6.859,8.751c-0.751,0.608-1.554,1.423-2.509,1.979
			c-2.259,1.318-3.93,3.266-5.715,5.094c-1.365,1.395-2.516,2.805-2.585,5.009c-0.049,1.724-0.812,3.417-1.224,5.131
			c-0.108,0.428-0.209,0.899-0.133,1.319c0.773,4.17,1.234,8.438,2.936,12.381c1.475,3.418,4.482,5.385,7.467,7.308
			c1.636,1.052,3.314,2.041,5.001,2.995c0.885,0.498,1.242,1.124,1.168,2.15c-0.625,8.745,2.021,16.609,6.845,23.741
			c1.457,2.16,3.478,4.018,5.528,5.678c2.577,2.081,5.379,3.898,8.2,5.647c1.615,0.998,3.439,1.686,5.204,2.423
			c2.938,1.224,5.822,2.675,8.877,3.46c3.007,0.781,4.1,2.966,5.357,5.303c1.703,3.19,3.366,6.427,5.383,9.417
			c1.103,1.624,3.2,2.567,4.309,4.188c1.34,1.952,3.398,2.757,5.083,4.124c0.404,0.321,0.896,0.724,1.37,0.76
			c3.146,0.277,6.112,1.49,9.318,1.53c2.1,0.019,4.207,0.59,6.275,1.019c2.25,0.466,4.387,0.208,6.484-0.64
			c0.662-0.261,1.344-0.686,2.008-0.675c2.614,0.033,4.524-1.396,6.41-2.886c3.04-2.398,6.031-4.854,9.316-7.507
			c2.286,1.289,4.733,2.842,7.341,4.079c1.64,0.785,3.499,1.147,5.28,1.614c4.305,1.118,8.761,0.581,13.12,1.157
			c0.692,0.086,1.443,0,2.105-0.2c3.625-1.091,7.188-2.413,10.849-3.323c2.51-0.613,4.526-1.786,6.303-3.579
			c0.297-0.306,1.072-0.458,1.465-0.291c1.362,0.572,2.838,1.102,3.928,2.034c3.208,2.742,7.017,4.42,10.598,6.507
			c3.077,1.795,6.401,2.831,9.813,3.551c2.128,0.457,4.342,0.532,6.513,0.776c0.588,0.066,1.192,0.214,1.773,0.171
			c1.559-0.119,3.128-0.238,4.67-0.509c2.326-0.42,4.63-0.946,6.937-1.468c0.852-0.194,1.695-0.433,2.499-0.767
			c5.763-2.388,11.396-5.059,16.389-8.839c3.912-2.961,6.854-6.755,8.765-11.314c0.881-2.095,0.902-2.044,3.188-1.296
			c2.138,0.699,4.341,0.396,6.517,0.224c1.14-0.081,2.269-0.338,3.404-0.356c4.049-0.04,7.14-2.229,10.282-4.371
			c2.45-1.666,4.588-3.79,7.459-4.849c0.928-0.346,1.635-1.301,2.395-2.02c1.346-1.281,2.857-2.437,3.934-3.917
			c1.339-1.872,2.994-3.071,5.211-3.176c3.234-0.162,6.357-1.187,9.689-0.824c2.509,0.271,5.193,0.076,7.643-0.539
			c3.074-0.774,6.107-0.527,9.164-0.608c0.533-0.008,1.07,0.038,1.593-0.015c5.821-0.559,11.472,0.186,16.989,2.105
			c3.341,1.145,6.733,2.146,10.053,3.354c5.37,1.942,9.813,5.232,13.024,9.955c3.791,5.593,4.682,11.7,2.707,18.246
			c-1.777,5.903-5.227,10.701-9.921,14.468c-3.807,3.051-8.228,4.031-13.235,2.731c-9.928-2.575-18.567,0.195-25.926,7.174
			c-0.574,0.552-0.913,1.505-1.059,2.327c-0.174,1,0.375,1.651,1.499,1.757c2.029,0.197,4.061,0.663,6.081,0.626
			c4.457-0.083,8.654,1.303,12.978,1.903c1.791,0.247,3.385,0.655,4.996,1.369c0.532,0.24,1.211,0.134,1.831,0.187
			c3.138,0.257,6.277,0.476,9.416,0.861c3.22,0.396,6.595,0.6,9.761,0.058c3.087-0.52,6.24-0.872,9.256-1.731
			c2.005-0.577,4.083-1.329,5.758-2.514c2.94-2.076,6.363-3.28,9.042-5.904c2.748-2.692,5.354-5.446,7.342-8.707
			c2.245-3.708,4.207-7.546,5.336-11.806c1.203-4.513,1.007-9.054,0.703-13.604c-0.074-1.079,0.14-1.695,0.843-2.541
			c1.394-1.682,2.933-3.082,4.907-3.978c2.259-1.026,3.277-3.15,3.807-5.201c0.814-3.145,1.064-6.446,1.366-9.692
			c0.102-1.081-0.146-2.318-0.627-3.294c-0.682-1.382-0.307-2.305,0.849-2.895c4.61-2.328,5.343-6.527,5.393-11.026
			C394.599,319.828,393.214,316.296,391.848,312.855z M281.052,33.255c0.684,0.287,1.225,0.964,1.768,1.519
			c4.342,4.442,5.784,9.913,5.668,15.954c-0.052,2.503,0.795,3.72,2.81,4.186c0.417,0.096,0.936,0.25,1.271,0.092
			c2.21-1.031,4.536-0.353,6.797-0.461c1.872-0.088,3.756,0.42,5.088,1.904c2.905,3.232,5.403,6.717,6.112,11.152
			c0.181,1.126,0.233,2.282,0.252,3.421c0.027,1.843-0.032,3.688-0.053,5.559c-1.63,0.546-2.887-0.335-4.331-0.502
			c0.078-1.396,0.253-2.67,0.185-3.934c-0.099-1.855-0.277-3.716-0.598-5.547c-0.505-2.903-2.399-4.94-4.584-6.738
			c-0.195-0.157-0.507-0.178-1.104-0.373c0.197,0.666,0.22,1.148,0.453,1.474c0.582,0.807,1.348,1.488,1.888,2.32
			c2.346,3.643,2.438,7.642,1.711,11.744c-0.06,0.334-0.256,0.643-0.438,1.082c-0.609-0.154-1.133-0.289-1.739-0.443
			c-0.014-0.933-0.199-1.82-0.004-2.613c0.614-2.493-0.428-4.481-1.71-6.426c-0.402-0.611-0.884-1.206-1.938-0.463
			c0.261,0.517,0.461,1.111,0.813,1.601c1.531,2.138,1.561,4.536,1.184,6.969c-0.06,0.4-0.732,0.89-1.202,1.006
			c-1.519,0.375-3.064,0.693-4.618,0.849c-1.199,0.119-2.225,0.449-3.111,1.263c-0.476,0.437-0.978,0.853-1.516,1.201
			c-3.513,2.278-4.602,5.549-4.85,9.649c-0.233,3.816,1.628,6.397,3.596,9.12c0.22,0.301,0.652,0.47,1.016,0.631
			c0.319,0.135,0.726,0.098,1.02,0.271c2.7,1.56,5.366,0.756,8.2,0.281c3.029-0.513,4.572-2.326,5.915-4.667
			c0.714-1.24,0.439-2.283-0.282-3.559c-0.966-1.719-2.538-2.611-3.963-3.697c-0.552-0.418-1.504-0.425-2.269-0.418
			c-1.077,0.017-1.56,0.699-1.404,1.707c0.13,0.818,0.623,1.025,1.767,0.752c0.343-0.082,0.696-0.139,1.018-0.201
			c1.526,1.989,1.58,5.133,0.129,7.013c-0.166,0.217-0.409,0.448-0.661,0.517c-2.546,0.662-5.023,1.475-7.719,0.268
			c-2.271-1.012-3.294-2.877-4.129-4.94c-1.199-2.974,0.097-5.764,0.896-8.548c0.158-0.548,0.803-1.001,1.303-1.396
			c2.386-1.886,4.857-3.499,8.161-2.939c1.116,0.188,2.311-0.148,3.427,0.032c5.712,0.943,10.182,3.579,12.551,9.2
			c1.509,3.585,2.873,7.151,2.836,11.13c-0.042,4.412-0.641,8.743-2.045,12.898c-0.658,1.935-1.952,3.657-2.963,5.471
			c-0.312,0.564-0.744,1.083-0.956,1.679c-0.62,1.718-1.85,2.834-3.33,3.796c-1.606,1.042-1.692,1.697-0.317,2.999
			c0.772,0.731,1.167,1.551,1.489,2.525c1.741,5.272,1.888,10.698,1.571,16.155c-0.028,0.49-0.086,0.97-0.164,1.443
			c-1.384-0.933-2.823-1.765-4.329-2.476c0.238-1.515,0.427-3.034,0.542-4.555c0.211-2.814-0.091-5.649-1.471-8.204
			c-0.171,0.035-0.34,0.066-0.508,0.096c0.106,0.381,0.219,0.757,0.317,1.14c0.135,0.527,0.418,1.072,0.36,1.578
			c-0.341,3.079-0.316,6.181-0.756,9.255c-1.052-0.43-2.12-0.834-3.238-1.155c-0.43-0.12-0.893-0.159-1.284-0.347
			c-5.7-2.738-11.799-2.965-17.954-2.894c-0.153,0.004-0.315-0.125-0.181-0.067c-0.961-2.499-1.556-4.946-2.771-7.042
			c-2.264-3.882-4.907-7.49-7.994-10.718c0.592-0.328,1.185-0.658,1.733-1.042c3.174-2.21,5.713-4.951,7.351-8.597
			c1.062-2.37,1.908-4.713,2.395-7.263c0.453-2.361-0.013-4.583-0.607-6.764c-0.482-1.775-1.343-3.46-2.177-5.112
			c-0.418-0.834-0.61-1.507-0.163-2.395c0.641-1.279,1.041-2.681,1.729-3.929c1.488-2.694,1.691-5.572,1.472-8.538
			c-0.076-1.016-0.188-2.029-0.28-3.05c-0.146-0.017-0.289-0.037-0.433-0.055c-0.172,0.336-0.556,0.715-0.492,0.995
			c0.381,1.705-0.281,3.347-0.201,5.032c0.108,2.343-0.366,4.501-2.079,6.301c-0.547,0.572-0.767,1.462-1.177,2.288
			c-1.163-0.654-1.549-1.402-1.272-2.556c0.32-1.313,0.643-2.644,0.757-3.982c0.319-3.86,0.271-7.712-0.584-11.516
			c-0.209-0.927-0.481-1.806-1.559-2.352c-0.026,0.318-0.09,0.564-0.055,0.798c0.438,3.091,0.895,6.182,1.34,9.271
			c0.055,0.353,0.203,0.728,0.143,1.062c-0.391,2.021-0.809,4.034-1.265,6.039c-0.07,0.318-0.378,0.574-0.688,1.019
			c-1.026-0.595-1.999-1.154-3.239-1.868c0.044-0.367,0.032-1.082,0.232-1.729c0.59-1.929,0.842-3.854,0.711-5.89
			c-0.178-2.776-0.76-5.446-2.323-7.708c-1.069-1.555-2.651-2.761-4.014-4.116c-0.285-0.281-0.607-0.527-1.195-1.033
			c0.817-0.084,1.319-0.272,1.731-0.154c2.441,0.693,4.544-0.416,6.548-1.404c2.866-1.418,4.539-4.044,5.701-6.945
			c0.814-2.034-0.575-5.618-2.478-6.697c-0.313-0.178-0.632-0.35-0.935-0.537c-2.868-1.724-2.87-1.726-6.833-0.811
			c0.604,0.924,1.088,1.871,2.232,2.134c1.338,0.303,1.819,1.281,2.075,2.469c0.012,0.072,0.033,0.142,0.033,0.211
			c-0.004,1.781-0.018,3.563-0.026,5.344c-1.575,0.84-3.082,1.847-4.737,2.47c-1.388,0.525-2.932,0.699-4.426,0.851
			c-3.353,0.338-6.816-1.876-7.888-5.061c-1.483-4.412-2.044-8.915-1.007-13.531c0.695-3.102,2.562-5.366,5.046-7.213
			c1.493-1.107,3.097-1.943,4.819-2.677C270.23,30.197,275.664,31,281.052,33.255z M266.29,116.749
			c-0.859-0.69-2.15-0.814-3.115-1.403c-4.711-2.868-9.883-3.319-15.191-3.557c0.192-1.363,0.47-2.747,1.077-3.926
			c1.057-2.035,2.598-3.9,4.996-4.421c2.027-0.439,3.891,0.33,5.715,1.502c-1.287,1.745-1.972,3.395-0.373,5.346
			c0.41-0.267,0.976-0.424,1.136-0.769c0.503-1.109,0.955-2.257,1.242-3.438c0.449-1.859-0.307-3.271-2.145-3.909
			c-1.342-0.47-2.755-0.795-4.165-1.042c-2.595-0.461-4.561,0.736-6.237,2.579c-1.613,1.763-2.938,3.7-3.437,6.088
			c-0.137,0.66-0.204,1.295-0.241,1.921c-5.889-0.058-11.528,1.121-17.048,2.905c-2.661,0.867-5.117,2.461-7.507,3.97
			c-0.979,0.629-1.576,1.88-2.296,2.876c-0.513,0.717-0.946,1.495-1.438,2.232c-0.682,1.037-1.54,1.09-2.761,0.867
			c-2.771-0.514-5.6-0.805-8.41-1.039c-3.286-0.275-6.299,0.856-9.169,2.267c-2.459,1.203-4.796,2.65-7.191,3.979
			c-0.302,0.166-0.646,0.258-1.171,0.461c-1.129-1.275-2.329-2.546-3.431-3.893c-0.418-0.515-0.888-0.956-1.35-1.406
			c-0.271-2.255-0.5-4.487,1.035-6.515c0.201-0.264,0.199-0.68,0.285-1.027c0.342-1.333,0.66-2.665,2.185-3.208
			c0.229-0.08,0.488-0.372,0.533-0.607c0.363-1.829,1.647-2.895,3.249-3.729c-1.032-0.74-1.036-0.748-1.496-0.519
			c-1.146,0.572-1.765,1.603-2.38,2.668c-0.413,0.716-1.014,1.32-1.476,2.011c-0.588,0.877-1.177,1.763-1.661,2.7
			c-0.486,0.947-0.889,1.943-1.242,2.947c-0.45,1.288-0.724,2.593-0.599,3.907c-1.408-1.099-2.947-2.011-4.587-2.77
			c0.009-0.037,0.012-0.074,0.023-0.109c0.436-1.348,0.581-2.795,0.849-4.2c-1.201,1.142-1.727,2.445-1.934,3.829
			c-0.18-0.076-0.35-0.166-0.529-0.24c-0.725-0.291-1.543-0.367-2.328-0.448c-2.216-0.226-4.367-0.113-6.473,0.226
			c0.005-0.464,0.004-0.929,0.022-1.393c0.024-0.619,0.294-1.262,0.579-1.833c0.909-1.826,2.083-3.546,2.78-5.444
			c1.228-3.361,3.656-5.659,6.224-7.918c0.855-0.752,1.572-1.668,2.307-2.548c0.677-0.804,1.15-1.827,2.538-1.531
			c0.312,0.065,0.748-0.367,1.102-0.606c1.356-0.918,2.662-1.919,4.07-2.75c0.897-0.523,1.165-1.064,0.925-2.087
			c-0.29-1.246-0.63-2.382-1.258-3.554c-0.746-1.394-0.988-3.143-1.107-4.762c-0.152-2.05,0.012-4.126,0.1-6.188
			c0.082-1.882,1.273-3.288,2.219-4.784c0.338-0.535,0.871-0.951,1.223-1.478c2.439-3.614,5.892-6.022,9.661-7.982
			c5.455-2.829,11.114-2.952,16.846-0.874c1.543,0.56,3.158,1.074,4.531,1.938c2.164,1.367,4.182,2.963,6.184,4.564
			c0.584,0.468,1.022,1.226,1.301,1.939c1.779,4.502,3.081,9.125,2.786,14.036c-0.149,2.521-0.804,4.96-1.936,7.211
			c-0.505,1.005-0.947,2.368-2.568,2.198c-0.082,1.613-1.515,1.457-2.462,1.726c-3.714,1.056-7.15,0.347-9.998-2.256
			c-1.595-1.46-2.713-3.255-2.505-5.68c0.122-1.398-0.171-2.847-0.407-4.251c-0.256-1.549-0.163-2.982,0.714-4.331
			c1.003-1.542,4.235-3.071,5.981-2.618c1.324,0.338,2.062,1.464,2.657,2.632c0.348,0.683,0.663,1.38,0.983,2.054
			c1.668-0.619,1.912-1.152,1.438-2.778c-0.541-1.858-3.483-4.232-5.422-4.382c-5.408-0.414-9.139,3.28-8.815,8.638
			c0.119,1.984,0.783,3.966,0.113,5.972c-0.063,0.19-0.049,0.455,0.033,0.637c1.067,2.386,1.688,5.065,4.135,6.582
			c1.036,0.642,2.043,1.349,3.132,1.888c2.487,1.234,5.137,1.095,7.749,0.543c2.32-0.488,4.543-1.316,6.521-2.688
			c0.057-0.042,0.122-0.082,0.19-0.102c2.729-0.756,4.262-2.728,5.317-5.206c0.134-0.314,0.417-0.57,0.642-0.845
			c1.852-2.284,2.619-4.971,2.6-7.826c-0.011-1.666-0.396-3.354-0.79-4.989c-0.481-2.013-0.815-4.173-1.813-5.924
			c-1.246-2.183-2.532-4.44-4.489-6.16c-0.464-0.405-0.797-0.959-1.25-1.521c4.713-4.066,9.917-6.108,16.017-5.688
			c3.909,0.269,7.52,1.09,10.824,3.535c1.897,1.404,3.647,2.957,5.509,4.38c2.575,1.973,3.634,4.641,3.801,7.639
			c0.146,2.623-0.233,5.276-0.297,7.916c-0.033,1.413,0.119,2.829,0.187,4.225c1.949,1.517,4.348,2.474,5.518,4.733
			c1.41,2.73,2.706,5.513,2.346,8.763c-0.166,1.488-0.14,3.012-0.05,4.514c0.14,2.245-0.786,4.206-1.503,6.226
			c-0.157,0.445-0.552,0.82-0.879,1.187c-1.002,1.121-2.005,2.25-3.05,3.335c-0.494,0.51-1.032,0.94-1.568,1.379
			C266.669,117.102,266.495,116.913,266.29,116.749z M258.41,121.111c-0.093,0.014-0.176,0.047-0.268,0.062
			c-3.271,0.481-5.981-0.925-8.086-3.451c-0.112-0.137-0.23-0.272-0.348-0.41c1.35,0.217,2.69,0.601,4.025,1.212
			C255.348,119.26,256.917,120.137,258.41,121.111z M158.563,58.921c1.728-1.248,3.645-2.283,5.592-3.169
			c1.377-0.625,1.848-1.451,1.554-2.85c-0.013-0.069,0.008-0.145-0.009-0.215c-0.848-3.559-0.241-7.088,0.31-10.598
			c0.197-1.22,0.699-2.456,1.329-3.532c1.658-2.833,3.212-5.768,5.811-7.918c0.111-0.094,0.25-0.158,0.34-0.265
			c3.491-4.178,8.166-5.957,13.403-6.375c2.409-0.194,4.856-0.078,7.268,0.123c0.938,0.081,1.802,0.836,2.742,1.163
			c2.017,0.701,4.032-0.472,4.68-2.499c0.541-1.697,1.129-3.405,1.947-4.979c0.498-0.967,1.357-1.837,2.245-2.495
			c1.422-1.056,2.945-2.021,4.538-2.779c0.918-0.437,2.061-0.404,3.104-0.575c5.116-0.838,10.189-0.412,14.988,1.396
			c3.859,1.457,6.867,3.874,8.111,8.355c1.341,4.833,1.554,9.614,0.911,14.456c-0.4,3.05-2.013,5.646-4.484,7.552
			c-0.586,0.451-1.464,0.592-2.232,0.729c-1.899,0.34-3.806,0.623-5.716,0.877c-2.018,0.271-3.51-0.82-4.594-2.258
			c-1.771-2.352-2.905-4.978-1.921-8.033c0.846-2.643,2.604-4.549,5.098-5.621c1.596-0.687,3.25-0.24,4.664,0.783
			c1.397,1.007,1.443,1.218,0.995,2.864c-0.403,1.478-0.274,1.83,1.118,2.868c1.391-1.417,1.596-3.102,1.412-4.709
			c-0.103-0.865-0.854-1.849-1.594-2.417c-2.982-2.297-7.144-2.972-10.527,0.246c-2.136,2.035-3.716,4.339-4.071,7.351
			c-0.388,3.247,1.248,5.775,2.943,8.263c0.437,0.64,1.124,1.105,1.625,1.708c0.955,1.15,2.165,1.501,3.627,1.492
			c3.842-0.028,7.539-0.769,11.158-1.996c0.404-0.138,0.812-0.288,1.229-0.375c4.148-0.87,6.637-3.666,7.84-7.445
			c1.677-5.255,1.557-10.585-0.498-15.783c-1.001-2.528-2.734-4.563-4.74-6.31c-1.663-1.441-3.327-2.95-5.504-3.69
			c-0.502-0.168-0.895-0.655-1.62-1.211c1.206-0.764,2.173-1.447,3.215-1.993c0.289-0.149,0.815,0.05,1.192,0.195
			c2.184,0.829,4.063,2.044,5.486,3.969c0.714,0.968,1.801,1.656,2.553,2.599c1.831,2.292,3.497,4.695,4.142,7.643
			c0.144,0.655,0.138,1.426,1.039,1.715c0.053-5.994-4.776-13.781-12.272-17.526c0.594-2.271,2.753-3.085,4.883-2.204
			c3.641,1.511,5.939,4.26,7.856,7.527c0.993,1.695,2.188,3.271,3.483,5.178c-0.684-1.713-0.677-3.374-2.153-4.396
			c-0.253-0.179-0.164-0.802-0.318-1.188c-1.042-2.658-2.835-4.771-4.998-6.563c-0.579-0.482-1.402-0.656-2.098-1
			c-0.347-0.174-0.658-0.42-1.313-0.844c2.542-0.693,4.692-1.358,6.986-0.845c0.366,0.083,0.729,0.423,0.979,0.736
			c2.235,2.785,4.662,5.43,6.313,8.646c0.022,0.043,0.118,0.053,0.181,0.076c0.089-0.74-0.442-2.226-1.569-4.262
			c-0.775-1.399-1.587-2.779-2.572-4.507c2.613,0.258,4.576,1.055,6.557,1.828c2.935,1.148,4.796,3.235,5.817,6.205
			c0.414,1.207,1.242,2.269,1.706,3.464c0.727,1.869,1.435,3.763,1.906,5.704c0.448,1.861,0.581,3.794,0.862,5.756
			c-1.624,0.465-3.143,0.842-4.614,1.34c-3.331,1.123-5.954,3.386-8.499,5.661c-1.186,1.06-2.239,2.341-2.58,4.192
			c-0.402,2.21-1.605,4.239-1.693,6.584c-0.128,3.45-0.246,6.862,1.134,10.156c0.39,0.941,0.412,2.038,0.656,3.337
			c-0.89-0.08-1.454-0.061-1.979-0.188c-4.383-1.051-8.766-1.203-13.214-0.348c-2.461,0.476-4.534,1.767-6.706,2.839
			c-1.336,0.66-2.565,1.572-3.761,2.485c-0.907,0.694-1.734,0.586-2.787,0.371c-5.252-1.084-10.5-2.331-15.811-2.962
			c-5.255-0.621-10.112,0.992-14.591,3.901c-2.523,1.64-4.959,3.306-6.812,5.69c-1.271,1.64-2.602,3.261-3.636,5.045
			c-0.685,1.188-1.154,2.636-1.261,4.005c-0.223,2.839-0.682,5.69-0.022,8.566c0.274,1.199-0.672,1.754-1.839,1.986
			c-1.613-1.608-1.584-3.907-2.51-5.981c-0.904,0.879-0.759,1.779-0.541,2.648c0.211,0.836,0.53,1.644,0.778,2.468
			c0.513,1.697,0.492,1.73-1.123,2.351c-0.329,0.125-0.653,0.248-1.157,0.441c-0.955-1.563-2.009-2.987-2.736-4.56
			c-0.732-1.565-1.138-3.283-1.695-4.964c-1.051,1.33-0.951,3.353,0.167,5.297c0.929,1.607,1.797,3.245,2.854,5.166
			c-0.053,0.062-0.256,0.271-0.429,0.5c-1.364,1.816-1.924,1.752-3.386-0.043c-2.651-3.261-3.769-7.185-4.984-11.079
			c-0.054-0.176-0.129-0.349-0.388-1.027c-0.174,0.915-0.421,1.388-0.312,1.759c1.133,3.882,1.893,7.888,4.536,11.203
			c1.958,2.449,1.835,2.548-0.586,5.171c-6.154-4.003-8.608-10.286-10.559-16.946c-0.811,3.81,0.918,7.054,2.387,10.302
			c1.481,3.286,3.529,6.205,6.717,7.99c-0.617,2.456-1.624,2.886-3.19,1.238c-1.913-2.017-3.743-4.166-5.273-6.479
			c-1.961-2.98-3.749-6.106-5.283-9.327c-0.814-1.693-1.231-3.71-1.31-5.6c-0.214-5.289,0.237-10.544,1.278-15.757
			C155.236,61.922,156.713,60.26,158.563,58.921z M99.155,99.212c-2.522-2.283-2.366-5.294-2.312-8.285
			c0.008-0.427,0.033-0.877-0.086-1.275c-0.874-2.946,0.024-5.836,0.333-8.729c0.105-0.981,0.708-2.077,1.415-2.798
			c1.785-1.82,3.22-3.95,5.036-5.707c1.574-1.534,3.419-2.831,5.281-4.02c2.293-1.459,4.732-2.697,7.096-4.046
			c0.482-0.272,0.914-0.633,1.495-1.037c-1.586-1.974-1.725-4.087-1.017-6.315c0.084-0.264,0.075-0.568,0.09-0.853
			c0.187-4.028,2.191-7.066,5.338-9.36c1.433-1.039,3.068-1.818,4.655-2.619c3.184-1.605,6.617-1.932,10.133-2.196
			c3.299-0.246,6.208,0.703,9.054,2.033c0.991,0.463,1.821,1.368,2.579,2.202c2.763,3.04,5.03,6.426,6.774,10.153
			c0.404,0.867,0.388,0.875-0.651,2.06c-0.449-1.015-0.715-2.064-1.312-2.872c-1.136-1.542-2.602-2.854-3.678-4.434
			c-1.363-2.001-3.602-2.499-5.529-3.378c-1.974-0.9-4.179-1.023-6.479-0.925c-2.838,0.123-5.394,1.123-7.816,2.107
			c-2.132,0.871-4.546,1.902-5.978,4.073c-0.115,0.174-0.373,0.277-0.437,0.458c-0.107,0.305-0.25,0.834-0.117,0.937
			c0.287,0.228,0.795,0.416,1.115,0.312c0.438-0.146,0.827-0.531,1.177-0.877c1.687-1.683,3.581-2.907,6-3.347
			c1.296-0.234,2.485-1.025,3.78-1.314c1.385-0.312,2.864-0.566,4.253-0.413c1.529,0.168,3.085,0.654,4.485,1.312
			c2.386,1.12,4.422,2.786,6.159,4.78c1.277,1.47,2.217,3.083,1.86,5.465c-1.277-0.935-2.435-1.566-3.051-2.833
			c-0.553-1.135-1.514-1.617-2.729-1.788c-1.62-0.223-3.219-0.662-4.841-0.769c-2.557-0.174-5.125-0.196-7.691-0.188
			c-1.403,0.008-1.831,0.479-2.231,1.989c1.972-0.092,3.953-0.062,5.899-0.306c2.946-0.371,5.648,0.693,8.442,1.215
			c0.541,0.103,1.053,0.691,1.448,1.165c0.814,0.976,1.54,2.027,2.301,3.048c0.515,0.687,0.157,1.301-0.062,1.999
			c-1.111,3.544-2.465,7.051-3.146,10.682c-1.17,6.255-0.188,12.389,2.174,18.291c0.847,2.117,2.352,3.759,3.893,5.364
			c0.992,1.029,2.105,1.95,3.034,3.034c2.579,2.997,5.736,4.914,9.678,5.478c0.13,0.019,0.243,0.13,0.557,0.303
			c-0.096,0.882-0.129,1.861-0.319,2.812c-0.34,1.726-0.943,3.417-1.121,5.153c-0.191,1.859-0.503,3.737-0.155,5.625
			c-2.166,0.583-4.294,1.353-6.405,2.216c-0.854,0.35-1.675,0.759-2.501,1.158c0.9-1.179,1.665-2.559,2.247-4.153
			c0.688-1.881,0.574-3.95-0.574-5.778c-1.521-2.417-3.013-4.876-5.408-6.545c-1.035-0.724-2.206-1.437-3.415-1.703
			c-3.339-0.736-6.691-1.663-10.157-1.374c-2.271,0.193-4.563,0.488-6.763,1.058c-1.259,0.326-2.454,1.17-3.505,2
			c-3.074,2.431-6.433,4.583-8.578,8.017c-0.06,0.098-0.242,0.12-0.506,0.24c-0.488-0.738-0.99-1.495-1.566-2.365
			c-1.214,1.463-0.429,2.591-0.029,3.668c0.406,1.099,0.549,2.081-0.373,2.962c-0.135,0.131-0.381,0.156-0.754,0.297
			c-0.968-1.349-1.964-2.725-2.948-4.114c-0.509-0.719-0.974-1.482-2.267-0.789c0.549,2.88,2.361,4.993,4.503,7.037
			c-0.806,1.338-1.601,2.667-2.495,4.149c-1.273-0.988-2.22-1.72-2.74-3.255c-0.925-2.727-2.38-5.267-3.731-8.142
			c-0.699,1.062-0.752,2.095-0.394,2.95c1.162,2.763,1.658,5.821,3.566,8.257c0.744,0.951,1.566,1.845,2.499,2.935
			c-0.051,0.674-0.115,1.579-0.193,2.638c-0.389-0.061-0.824,0-0.994-0.182c-1.958-2.076-3.855-4.178-5.151-6.774
			c-1.255-2.515-2.001-5.182-2.596-7.894c-0.209-0.961-0.537-1.56-1.783-1.763c0.102,1.494,0.03,2.931,0.324,4.29
			c1.078,4.963,2.943,9.546,6.875,13.026c0.692,0.62,1.324,1.306,1.953,1.993c0.285,0.31,0.668,0.665,0.728,1.042
			c0.258,1.72,0.417,3.454,0.639,5.426c-2.16-0.558-3.54-1.727-4.841-2.885c-1.271-1.129-2.382-2.478-3.395-3.857
			c-1.123-1.538-2.054-3.216-3.071-4.833c-0.72-1.144-1.49-2.259-2.15-3.438c-0.412-0.734-0.756-1.535-0.957-2.351
			c-0.529-2.139-1.226-4.284-1.355-6.458c-0.137-2.24,0.258-4.523,0.521-6.779c0.236-2.036,0.553-4.068,0.937-6.082
			c0.129-0.673,0.509-1.32,0.872-1.921c0.481-0.787,1.056-1.519,1.617-2.31C99.456,99.842,99.394,99.43,99.155,99.212z
			 M119.481,148.859c-0.882-1.767-1.197-3.698-1.645-5.616c-1.535-6.594-0.069-12.736,2.188-18.865
			c1.217-3.312,2.64-6.49,4.628-9.407c2.085-3.059,4.578-5.744,7.877-7.443c1.41-0.729,3.136-1.09,4.737-1.166
			c3.066-0.152,6.119,0.194,9.15,0.805c3.197,0.65,4.884,3.079,6.753,5.324c0.319,0.383,0.535,0.85,0.801,1.275
			c1.846,2.938,1.507,6.438-1.004,8.798c-1.439,1.349-2.62,3.068-4.696,3.62c-2.828,0.746-5.619,1.568-8.534,0.2
			c-1.988-0.932-2.233-2.644-2.308-4.456c-0.074-1.814,0.592-2.714,2.326-3.429c0.398-0.164,0.818-0.278,1.209-0.459
			c1.17-0.555,1.183-0.687,0.126-2.275c-1.629,0.795-3.236,1.417-4.645,2.338c-0.686,0.451-1.281,1.417-1.434,2.239
			c-0.329,1.756-0.165,3.536,0.69,5.2c0.709,1.368,1.943,2.206,3.257,2.643c2.59,0.857,5.202,1.095,7.643,0.722
			c-1.003,0.696-1.995,1.408-2.974,2.142c-1.103,0.834-2.038,2.019-2.748,3.214c-3.344,5.655-6.071,11.571-7.182,18.112
			c-0.22,1.277-0.347,2.562-0.584,4.342c-1.122-0.851-1.843-1.238-2.343-1.819c-1.985-2.304-4.613-3.488-7.372-4.55
			C122.094,149.842,120.79,149.335,119.481,148.859z M51.754,151.742c-0.451-1.124-0.457-2.468-0.478-3.713
			c-0.048-2.695,0.028-5.391,0.067-8.086c0-0.211,0.035-0.435,0.108-0.634c1.933-5.001,3.491-10.193,7.169-14.322
			c2.798-3.146,9.507-10.729,10.173-11.524c-0.822-1.212-1.542-2.438-2.421-3.538c-1.213-1.515-1.793-3.214-2.037-5.111
			c-0.478-3.716,0.422-7.264,1.25-10.811c0.384-1.654,0.958-3.288,1.636-4.846c1.888-4.339,5.797-6.567,9.556-8.931
			c3.106-1.954,6.473-3.353,9.843-4.757c1.73-0.72,3.467-0.599,5.217-0.47c0.441,2.88,0.088,3.546-2.316,4.541
			c-0.861,0.352-1.704,0.758-2.572,1.09c-0.381,0.146-0.857,0.328-1.214,0.224c-1.427-0.427-2.374,0.406-3.538,0.996
			c-3.916,1.982-6.888,5.065-9.969,8.039c-0.617,0.597-1.149,1.273-1.742,1.895c-1.023,1.074-1.167,2.228-0.306,3.724
			c0.349-0.471,0.611-0.822,0.865-1.176c2.577-3.577,5.728-6.56,9.331-9.077c0.586-0.41,1.136-0.881,1.755-1.226
			c0.804-0.449,1.633-0.915,2.509-1.162c1.008-0.283,2.103-0.256,3.122-0.522c1.017-0.265,1.98-0.726,2.993-1.111
			c0.047,0.049,0.211,0.147,0.219,0.252c0.215,3.581,0.203,3.55-3.322,4.623c-2.159,0.651-4.369,1.283-6.197,2.646
			c-1.279,0.947-2.337,2.195-3.488,3.311c0.094,0.123,0.188,0.246,0.281,0.367c1.346-0.762,2.658-1.593,4.04-2.271
			c1.412-0.699,2.865-1.337,4.356-1.835c1.519-0.512,2.993-1.467,4.809-0.818c0.105,0.513,0.261,1.06,0.326,1.622
			c0.187,1.622-0.051,1.72-1.647,1.954c-1.16,0.17-2.357,0.607-3.354,1.224c-1.443,0.894-2.731,2.044-4.063,3.11
			c-0.535,0.43-0.979,1.013-0.353,1.631c0.619,0.615,1.165,0.055,1.685-0.319c1.38-0.99,2.747-2.001,4.149-2.95
			c2.357-1.593,3.862-1.124,4.94,1.5c0.135,0.326,0.252,0.658,0.342,0.888c-0.412,0.992-1.05,1.187-1.946,1.188
			c-1.044,0.003-1.98,0.375-1.951,1.786c1.185,0.49,2.277,0.072,3.361-0.199c0.34-0.082,0.63-0.353,0.967-0.459
			c0.62-0.195,1.39-0.429,1.714,0.302c0.172,0.401-0.024,1.1-0.278,1.537c-4.328,7.529-5.793,15.493-3.651,23.992
			c0.235,0.937,0.729,1.838,1.248,2.669c2.575,4.108,5.055,8.316,8.663,11.626c1.566,1.439,3.427,2.577,5.245,3.702
			c1.51,0.935,3.192,1.599,4.731,2.494c0.506,0.296,0.905,0.896,1.176,1.445c0.127,0.259,0.265,0.511,0.394,0.767
			c-1.654-0.332-3.341-0.545-5.088-0.535c-0.842,0.006-1.711-0.375-2.552-0.619c-1.185-0.351-2.308-0.42-3.39-0.316
			c-0.441-0.211-0.874-0.433-1.22-0.746c-2.007-1.816-4.151-3.536-5.871-5.602c-2.034-2.439-4.36-4.698-5.737-7.658
			c-0.406-0.879-0.997-1.671-1.504-2.503c-0.193,0.08-0.39,0.164-0.586,0.244c0.405,1.656,0.672,3.559,1.865,4.725
			c2.034,1.986,2.863,4.94,5.416,6.442c0.592,2.024,2.293,3.081,3.855,4.143c0.653,0.443,1.326,0.861,1.991,1.29
			c-1.493,0.426-2.921,1.154-4.338,1.997c-0.516,0.308-1.017,0.633-1.523,0.953c-1.29-0.689-2.429-1.574-3.546-2.487
			c-1.191-0.971-2.362-1.976-3.538-2.962c0.942,1.7,1.912,3.368,3.273,4.606c0.733,0.668,1.611,1.187,2.517,1.667
			c-2.536,1.697-4.907,3.598-6.996,5.873c-0.117,0.124-0.26,0.228-0.39,0.357c-2.341,2.39-4.815,3.218-8.431,2.6
			c-6.656-1.144-12.804,0.44-18.555,3.572C55.839,159.045,53.351,155.688,51.754,151.742z M9.15,215.562
			c-0.564-1.49-0.679-3.146-1.297-4.604c-1.511-3.579-1.519-7.041,0.235-10.519c1.183-2.354,2.331-4.709,4.528-7.109
			c0.519,2.411,0.912,4.348,1.349,6.281c0.646,2.809,1.39,4.617,2.082,5.221c0.035-0.076,0.121-0.162,0.101-0.219
			c-1.137-4.321-1.086-8.763-1.326-13.176c-0.033-0.494,0.019-1.11,0.291-1.484c1.685-2.376,4.221-3.538,7.134-5
			c-0.255,0.933-0.347,1.414-0.517,1.861c-0.353,0.896-0.966,1.738-1.105,2.656c-0.512,3.438-0.416,6.865,0.822,10.173
			c0.176,0.486,0.774,0.979,0.687,1.357c-0.509,2.161,0.863,3.684,1.652,5.832c-0.384-2.828-0.586-5.266-1.069-7.649
			c-0.942-4.59-1.092-9.021,1.015-13.42c1.229-2.575,3.891-3.608,6.313-2.009c-3.808,9.645-1.815,20.808,3.182,26.276
			c0.588-1.004-0.049-1.713-0.462-2.437c-1.847-3.247-2.293-6.836-2.502-10.458c-0.086-1.49,0.346-3.024,0.207-4.5
			c-0.279-2.952,0.445-5.627,1.771-8.191c0.228-0.442,0.55-1.062,0.939-1.166c1.408-0.359,2.864-0.525,4.608-0.82
			c-0.211,1.115-0.17,1.886-0.494,2.458c-1.394,2.478-1.679,5.239-2.017,7.945c-0.406,3.266-0.32,6.568,0.845,9.725
			c2.402,6.484,6.699,11.498,12.582,14.947c4.237,2.481,8.835,3,13.375,0.378c0.459-0.262,0.955-0.463,1.443-0.666
			c4.347-1.868,8.363-4.237,11.923-7.39c1.349-1.199,2.179-2.523,2.107-4.37c-0.037-0.966,0.213-1.966,0.088-2.913
			c-0.5-3.69-1.081-7.37-4.117-10.044c-2.818-2.48-6.178-3.298-9.827-3.405c-5.778-0.17-9.05,3.895-9.898,8.48
			c-0.211,1.132-0.086,2.655,0.533,3.536c1.156,1.634,2.737,3.014,5.19,3.171c0.424-2.109,0.254-2.534-1.341-3.561
			c-1.775-1.144-1.908-1.382-1.453-3.462c0.461-2.109,1.613-3.888,3.651-4.573c3.179-1.077,6.381-0.773,9.337,0.961
			c3.434,1.999,4.559,5.354,4.872,8.986c0.189,2.218-0.287,4.457-2.361,5.875c-1.976,1.342-3.964,2.656-5.998,3.909
			c-0.816,0.513-1.74,1.108-2.652,1.175c-3.85,0.291-7.48-0.771-10.372-3.248c-4.592-3.925-8.343-8.507-11.106-14.062
			c-2.55-5.159-1.786-9.868,0.57-14.396c2.56-4.939,6.196-9.06,10.7-12.34l0,0c0.069-0.053,0.141-0.096,0.211-0.149
			c0.568-0.408,1.142-0.806,1.736-1.187c0.315-0.201,0.627-0.424,0.937-0.652c0.748-0.474,1.511-0.923,2.294-1.343
			c0.033-0.012,0.065-0.033,0.101-0.043c2.093-0.613,4.294-0.98,6.479-1.188c1.355-0.125,2.866-0.033,4.126,0.446
			c2.054,0.771,4.008,1.857,5.908,2.976c2.265,1.333,5.096,0.742,6.373-1.566c0.597-1.083,0.766-2.491,1.566-3.337
			c2.054-2.171,4.215-4.309,6.59-6.123c5.169-3.942,10.944-6.16,17.61-5.202c0.17,0.028,0.352-0.029,0.528-0.035
			c4.174-0.17,8.027,1.249,11.9,2.491c1.466,0.467,2.95,1.195,4.14,2.152c3.407,2.775,6.884,5.522,9.042,9.505
			c0.04,0.078,0.129,0.129,0.167,0.205c0.883,1.529,2.001,1.9,3.789,1.338c2.521-0.795,5.145-1.425,7.765-1.699
			c2.812-0.299,5.548,0.008,8.047,1.876c5.265,3.935,10.026,8.406,14.201,13.453c1.484,1.804,2.768,4.008,3.422,6.24
			c1.244,4.233,2.178,8.589,2.839,12.959c0.504,3.388,0.594,6.883,0.496,10.315c-0.078,2.813-1.359,3.25-3.955,1.5
			c1.454-4.28,0.929-8.658-0.419-12.91c-1.336-4.2-2.421-8.622-6.318-11.458c3.708,7.744,6.637,15.562,4.282,24.336
			c-4.401-0.425-4.592-0.411-4.818-4.281c-0.301-5.237-2.917-9.558-5.078-14.068c-0.206-0.433-0.823-0.666-1.737-1.365
			c0.322,0.836,0.393,1.062,0.492,1.271c2.099,4.593,4.306,9.125,4.563,14.324c0.139,2.86-0.324,3.381-3.083,2.833
			c-0.348-0.067-0.709-0.097-0.809-0.101c-0.611-2.646-1.167-4.88-1.64-7.117c-0.575-2.713-2.156-4.666-4.224-5.018
			c0.875,2.009,1.921,3.928,2.547,5.969c0.628,2.048,0.835,4.237,1.243,6.465c-0.623,0.233-1.021,0.39-1.431,0.543
			c-1.996,0.767-2.045,0.753-2.977-1.234c-0.448-0.965-0.823-1.98-1.319-2.913c-0.517-0.979-1.128-1.933-2.688-1.999
			c0.864,2.683,2.789,4.77,2.627,7.587c-1.266,0.748-2.596,1.024-3.332-0.308c-1.769-3.196-4.547-5.442-7.103-7.875
			c-1.226-1.17-2.854-2.118-4.464-2.646c-2.427-0.785-4.998-1.181-7.52-1.632c-3.677-0.672-7.295-0.197-10.979,0.379
			c-6.522,1.029-12.334,3.553-16.65,8.47c-4.375,4.965-8.181,10.448-12.119,15.79c-0.789,1.066-1.464,1.852-2.872,1.962
			c-1.857,0.151-3.743,0.324-5.522,0.818c-2.88,0.812-5.861,1.334-8.517,2.933c-4.798,2.884-8.714,6.646-11.88,11.239
			c-0.377,0.548-0.915,0.994-1.667,1.808c-0.848-1.394-1.734-2.427-2.152-3.622c-1.449-4.169-4.375-7.217-7.351-10.286
			c-2.017-2.08-4.805-2.962-6.999-4.66c-1.843-1.423-3.872-1.729-5.839-1.729c-4.223,0.004-8.509,0.09-12.506,1.808
			c-1.765,0.759-3.477,1.662-5.355,2.581c-1.365-2.038-2.841-3.936-3.96-6.012C10.94,220.206,10.024,217.88,9.15,215.562z
			 M157.948,359.716c-0.17,0.204-0.402,0.356-0.532,0.575c-2.266,3.896-5.685,6.432-9.654,8.378
			c-2.895,1.425-5.902,2.305-9.101,2.718c-4.196,0.54-8.294,0.377-12.306-1.047c-1.835-0.656-3.677-1.308-5.529-1.938
			c-2.355-0.807-4.505-1.94-6.129-3.849c-1.053,0.403-2.741,0.603-2.88,1.185c-0.459,1.913-2.171,2.531-3.214,3.779
			c-2.882,3.432-6.005,6.579-10.96,6.683c-0.34,0-0.687,0.168-1.009,0.315c-2.06,0.937-4.151,0.747-6.253,0.214
			c-1.288-0.328-2.579-0.639-3.878-0.91c-3.983-0.836-7.58-2.489-10.475-5.365c-4.799-4.764-9.151-9.878-11.901-16.179
			c-0.51-1.162-0.824-2.242-0.717-3.553c0.188-2.332-0.431-2.865-2.772-2.498c-2.156,0.338-4.21,0.328-6.202-0.748
			c-0.687-0.371-1.513-0.495-2.268-0.752c-2.435-0.833-5.047-1.348-7.25-2.59c-4.727-2.666-8.853-6.159-12.541-10.188
			c-3.323-3.636-5.016-8.048-6.586-12.6c-2.461-7.128-0.525-13.247,3.957-18.838c0.873-1.089,2.254-1.771,3.124-2.859
			c2.587-3.247,6.19-3.804,9.946-4.038c0.787-0.051,1.759-0.166,2.355,0.212c3.035,1.902,6.537,3.397,7.885,7.129
			c0.939,2.584,1.538,5.147,0.287,7.965c-1.486,3.331-4.444,4.638-7.333,6.121c-0.285,0.152-0.707,0.134-1.039,0.075
			c-2.889-0.537-5.435-3.47-5.672-6.569c0.346-0.198,0.719-0.44,1.1-0.651c1.28-0.695,1.562-1.289,1.004-2.15
			c-0.687-1.062-1.699-1.285-2.702-0.414c-0.711,0.627-1.582,1.423-1.744,2.261c-0.415,2.179-1.13,4.299-0.597,6.679
			c0.394,1.771,0.997,2.959,2.681,3.514c3.169,1.047,6.092,1.443,9.307-0.592c3.001-1.907,6.121-3.365,7.32-7.036
			c0.126-0.403,0.533-0.699,0.711-1.089c0.209-0.452,0.463-0.961,0.414-1.424c-0.435-4.132-0.857-8.046-4.223-11.367
			c-3.616-3.57-7.326-5.684-12.441-4.881c-0.781,0.13-1.588,0.158-2.388,0.148c-1.484-0.015-2.706,0.528-3.905,1.404
			c-1.56,1.148-3.249,2.134-4.954,3.037c-0.533,0.285-1.554,0.385-1.939,0.066c-2.357-1.923-4.315-4.165-4.67-7.392
			c-0.082-0.744-0.385-1.458-0.576-2.148c-1.583,0.19-1.533,1.134-1.4,2.029c0.429,2.851,1.109,5.541,3.735,7.329
			c0.836,0.566,1.399,1.539,2.156,2.409c-0.429,0.644-0.804,1.206-1.232,1.847c-0.531-0.256-0.97-0.374-1.301-0.633
			c-4.063-3.176-7.281-6.94-8.127-12.229c-0.193-1.217-0.048-2.475-0.185-3.697c-0.046-0.496-0.426-0.958-0.795-1.732
			c-0.385,0.67-0.658,0.946-0.707,1.256c-0.524,3.457-0.588,6.898,1.347,9.997c1.215,1.946,2.587,3.808,4.032,5.603
			c0.984,1.214,2.195,2.247,3.415,3.466c-1.185,1.347-1.617,3.193-3.564,4.041c-1.568-1.707-3.143-3.36-4.647-5.079
			c-0.927-1.062-1.829-2.172-2.591-3.356c-3.014-4.67-3.6-9.949-3.592-15.324c0.002-2.467,1.316-4.493,3.109-5.959
			c2.171-1.767,3.758-4.309,6.646-5.188c0.437-0.135,0.791-0.705,1.09-1.139c1.471-2.089,1.244-3.908-0.87-6.175
			c-5.1-5.459-8.287-11.696-7.965-19.375c0.043-0.961-0.019-2.031,0.375-2.855c3.098-6.526,7.441-11.762,14.606-14.205
			c2.191-0.757,4.36-1.304,6.646-1.52c3.818-0.353,7.406,0.19,10.611,2.473c4.769,3.392,7.97,8.003,10.256,13.291
			c1.64,3.82,0.279,8.725-3.087,11.182c-1.503,1.091-3.063,2.204-4.776,2.87c-2.038,0.791-4.258,1.115-6.404,1.642
			c-1.476-1.628-2.961-3.266-4.441-4.896c-0.056-0.068-0.097-0.148-0.137-0.229c-0.753-1.305-1.118-2.594-0.135-3.979
			c0.84-1.195,0.502-2.467,0.291-3.813c-4.405,2.427-4.405,2.431-5.622,6.388c-0.124,0.428-0.271,0.842-0.415,1.267
			c-0.859,2.57,0.816,7.021,3.248,8.216c3.472,1.714,7.182,2.753,10.993,1.685c2.667-0.746,5.518-1.461,7.189-4.112
			c0.285-0.452,0.904-0.694,1.722-1.295c-0.123,0.953-0.211,1.447-0.241,1.942c-0.138,2.37-0.605,4.793-0.3,7.111
			c0.43,3.372,2.103,6.308,4.231,9.018c1.562,1.976,3.386,3.542,5.522,4.832c0.716,0.428,1.295,1.098,1.64,1.399
			c-0.549,1.686-0.981,3.003-1.435,4.393c-0.653-0.151-1.15-0.133-1.478-0.361c-2.072-1.471-4.124-2.983-6.155-4.527
			c-0.328-0.252-0.503-0.714-0.744-1.084c-2.146-3.219-4.28-6.44-6.431-9.651c-0.157-0.246-0.42-0.418-0.705-0.688
			c-0.543,1.394-0.068,2.427,0.507,3.456c2.354,4.208,5.491,7.792,8.979,11.081c1.21,1.143,2.604,2.099,3.983,3.046
			c1.214,0.835,1.476,1.843,0.941,3.405c-1.06-0.424-1.993-1.062-2.974-1.134c-3.061-0.241-5.283-1.832-7.117-4.083
			c-1.318-1.615-3.286-2.585-4.346-4.471c-0.175-0.306-0.836-0.342-1.277-0.51c-0.112,0.143-0.229,0.272-0.351,0.413
			c0.761,1.016,1.492,2.037,2.263,3.039c2.249,2.913,4.815,5.393,8.409,6.645c1.666,0.58,3.191,1.542,4.841,2.185
			c1.146,0.454,1.523,1.229,1.827,2.349c0.594,2.207,1.199,4.475,2.22,6.501c1.26,2.5,2.662,4.933,5.034,6.735
			c2.554,1.943,5.27,3.399,8.201,4.704c4.524,2.006,9.126,2.435,13.877,1.848c2.165-0.267,4.356-0.846,6.371-1.685
			c1.935-0.8,3.657-2.12,5.475-3.205c5.539-3.299,9.796-7.351,10.067-14.476c0.193-5.104-1.677-8.901-5.655-11.836
			c-2.433-1.788-5.256-2.474-8.2-2.769c-3.064-0.31-5.864,0.205-7.877,2.775c-1.086,1.395-2.119,2.86-2.972,4.407
			c-1.16,2.1-0.692,4.032,1.258,5.364c1.238,0.854,2.609,1.533,3.985,2.143c0.43,0.186,1.08-0.138,1.679-0.232
			c-0.137-3.12-2.136-4.071-4.757-4.608c0.711-2.591,1.791-4.841,4.02-6.107c2.638-1.505,5.602-1.062,8.25-0.058
			c1.854,0.701,3.52,2.076,5.043,3.408c0.861,0.749,1.463,1.962,1.841,3.075c0.351,1.062,0.305,2.268,0.351,3.423
			c0.149,4.057-1.188,7.594-4.594,9.85c-4.139,2.743-8.833,4-13.853,3.647c-1.853-0.133-3.709-0.35-5.563-0.554
			c-0.607-0.066-1.277-0.09-1.792-0.365c-2.325-1.267-4.799-2.314-6.523-4.495c-1.16-1.451-2.396-2.88-3.775-4.107
			c-3.017-2.699-4.128-6.333-5.082-10.012c-0.793-3.05,0.625-5.911,1.168-8.921c-1.093-1.343-2.124-2.77-3.323-4.042
			c-2.234-2.38-4.78-4.508-6.814-7.046c-2.322-2.897-3.55-6.225-2.811-10.178c0.535-2.847,0.868-5.721,1.456-8.582
			c1.023-4.983,3.665-8.727,7.041-12.205c5.274-5.424,11.751-7.847,19.453-7.994c0.049,0.896,0.196,1.682,0.104,2.434
			c-0.383,3.204,0.3,6.34,0.953,9.382c0.533,2.443,2.009,4.704,3.229,6.955c0.99,1.833,2.033,3.708,3.396,5.247
			c2.341,2.65,5.272,4.489,8.86,5.06c0.439,0.072,0.904,0.072,1.287,0.248c3.018,1.408,6.063,1.956,9.2,0.399
			c0.082-0.039,0.172-0.051,0.264-0.061c2.952-0.378,5.685-1.452,8.224-2.92c2.86-1.646,5.414-3.704,6.682-6.897
			c0.562-1.4,0.904-2.88,1.327-4.327c1.002-3.423-0.639-6.402-1.627-9.479c-0.076-0.238-0.281-0.494-0.499-0.617
			c-2.275-1.291-3.3-3.667-4.827-5.59c-4.132-5.202-10.622-5.521-15.259-0.67c-1.66,1.736-2.408,6.354-1.371,8.515
			c0.908,1.896,1.572,2.181,3.623,1.372c-0.269-0.887-0.551-1.79-0.793-2.708c-0.42-1.566-0.67-3.21,0.269-4.614
			c1.24-1.862,5.473-3.122,7.674-2.536c1.919,0.523,3.192,1.766,4.235,3.403c0.946,1.486,1.871,3.066,3.14,4.251
			c2.193,2.06,2.652,4.637,2.382,7.297c-0.468,4.752-3.044,8.245-7.339,10.34c-1.096,0.539-2.281,1.865-3.697,0.447
			c-1.345,1.5-2.878,0.604-4.178,0.096c-2.901-1.138-5.522-2.847-7.742-5.04c-4.33-4.28-6.951-9.607-9.034-15.224
			c-0.326-0.887-0.554-1.948-0.402-2.862c0.519-3.128,1.058-6.265,1.925-9.312c0.545-1.931,1.607-3.74,2.568-5.526
			c3.561-6.649,8.88-11.221,16.235-13.119c5.092-1.314,10.261-1.948,15.495-0.634c0.757,0.191,1.588,0.138,2.349,0.353
			c2.105,0.594,4.364,0.903,5.996,2.574c1.784,1.825,3.649,3.6,5.204,5.608c1.229,1.595,2.453,3.398,2.918,5.303
			c0.391,1.599,1.016,2.928,1.773,4.313c0.629,1.138,1.319,1.418,2.58,1.162c1.98-0.406,4.009-0.558,6.018-0.835
			c0.526-0.071,1.284-0.032,1.517-0.352c1.035-1.413,2.312-0.871,3.605-0.689c1.4,0.205,2.819,0.457,4.227,0.443
			c4.229-0.05,8.361,0.069,12.274,2.15c2.209,1.172,4.719,1.78,7.06,2.713c0.733,0.291,1.511,0.663,2.047,1.21
			c1.595,1.638,3.091,3.376,4.607,5.084c1.378,1.558,2.025,3.48,2.732,5.389c0.63,1.705,1.455,3.333,2.072,5.043
			c2.092,5.768,1.007,11.838,1.449,17.76c0.271,3.585-1.067,7.036-2.562,10.245c-1.222,2.628-2.831,5.111-4.522,7.473
			c-3.139,4.39-6.423,8.665-9.727,12.925c-1.329,1.728-0.998,4,1.02,4.866c1.193,0.504,2.674,0.447,3.735,1.109
			c1.999,1.251,3.839,2.77,5.653,4.302c1.995,1.685,2.649,4.022,3.075,6.546c0.801,4.805,0.208,9.497-0.726,14.187
			c-0.747,3.703-2.405,6.815-5.792,8.82c-1.22,0.714-2.271,1.699-3.485,2.429c-4.013,2.409-8.09,4.707-13.15,4.793
			c-0.401-1.296-0.703-2.665-1.248-3.927c-0.589-1.381-1.431-2.657-2.132-3.994c-1.902-3.627-4.775-6.507-8.097-8.635
			c-4.016-2.575-8.436-4.541-12.776-6.564c-3.346-1.571-6.856-2.267-10.579-1.134c-4.637,1.404-8.773,3.571-11.098,7.988
			c-3.44,6.527-0.919,14.97,5.343,18.919c1.521,0.951,3.017,1.069,4.492,0.104c0.515-0.338,1.177-1.047,1.123-1.509
			c-0.106-0.956-1.067-1.219-1.865-0.863c-2.154,0.973-3.312-0.429-4.514-1.765c-0.41-0.456-0.668-1.057-1.078-1.511
			c-2.837-3.117-3.491-6.498-1.792-10.477c1.316-3.085,3.054-5.541,6.291-6.722c1.333-0.485,2.649-1.033,3.987-1.508
			c0.488-0.169,1.12-0.421,1.534-0.259c2.7,1.044,5.527,1.914,8,3.365c3.175,1.861,5.943,4.418,9.096,6.322
			c4.287,2.585,6.522,6.441,7.589,11.092C164.311,345.952,163.413,353.332,157.948,359.716z M272.54,307.102
			c-0.797,4.533-1.287,9.138-2.368,13.602c-1.254,5.177-3.046,10.217-7.092,14.035c-1.466,1.391-2.956,2.771-4.509,4.061
			c-1.222,1.023-2.665,1.783-3.818,2.87c-5.1,4.798-11.253,7.55-17.822,9.631c-2.005,0.637-4.512,0.414-5.713,2.856
			c-0.176,0.364-1.066,0.379-1.706,0.581c-0.112,0.285-0.271,0.604-0.364,0.941c-0.951,3.508-3.03,6.369-5.478,8.922
			c-1.133,1.188-2.73,1.937-4.124,2.869c-2.829,1.905-5.812,3.582-8.925,4.951c-2.532,1.115-5.041,2.214-7.977,2.324
			c-6.188,0.231-12.162-0.938-18.147-2.109c-1.213-0.233-2.39-0.629-3.583-0.957c-3.875-1.081-7.175-3.384-10.745-5.104
			c-1.491-0.718-2.909-1.595-4.493-2.474c0.431-0.738,0.708-1.271,1.037-1.771c0.336-0.496,0.723-0.962,1.025-1.361
			c0.341-0.005,0.526-0.053,0.692,0c0.333,0.104,0.674,0.229,0.976,0.403c6,3.533,12.485,5.962,19.266,7.241
			c3.578,0.676,7.464,0.571,11.085,0.01c3.53-0.548,7.143-0.943,10.574-2.433c2.479-1.085,4.745-2.294,6.72-4.083
			c0.635-0.587,0.981-1.311,0.723-2.03c-2.49,1.587-4.689,3.492-7.243,4.485c-2.936,1.133-6.18,1.458-9.289,2.128
			c-0.948,0.208-1.888,0.5-2.847,0.6c-3.331,0.354-6.687,0.614-9.966-0.312c-3.143-0.896-6.223-2.045-9.376-2.9
			c-3.304-0.909-6.069-2.838-9.048-4.375c-1.099-0.562-1.267-1.447-0.903-2.456c0.254-0.7,0.719-1.327,1.084-1.985
			c4.171,1.586,7.724,4.071,12.072,4.361c0.422,0.027,0.818,0.376,1.248,0.451c2.253,0.41,4.509,0.868,6.778,1.135
			c1.827,0.208,3.678,0.241,5.518,0.219c1.483-0.011,2.986-0.062,4.426-0.378c2.831-0.633,5.637-1.427,8.424-2.231
			c0.429-0.13,0.721-0.699,1.075-1.062c-2.257-0.237-4.203-0.129-6.068,0.838c-1.057,0.552-2.318,0.91-3.509,0.966
			c-2.913,0.14-5.837,0.054-8.753,0.054c-2.775,0.004-5.471-0.328-8.062-1.429c-1.041-0.437-2.23-0.523-3.343-0.81
			c-1.098-0.285-2.215-0.533-3.253-0.955c-1.375-0.572-2.696-1.281-4.018-1.969c-1.333-0.685-2.365-1.679-2.333-3.283
			c0.029-1.099,0.278-2.186,0.466-3.546c1.273,0.519,2.333,0.771,3.192,1.332c3.786,2.466,8.153,3.326,12.419,4.213
			c2.98,0.625,6.175,0.358,9.268,0.276c1.145-0.032,2.277-0.666,3.995-1.209c-1-0.5-1.433-0.915-1.833-0.886
			c-2.284,0.153-4.561,0.575-6.836,0.582c-2.195,0.008-4.426-0.206-6.566-0.658c-2.04-0.418-3.944-1.495-6.131-1.17
			c-0.208,0.032-0.475-0.104-0.663-0.244c-0.84-0.6-1.655-1.218-2.467-1.852c-0.515-0.41-1.002-0.857-1.702-1.457
			c0.67-0.267,0.976-0.423,1.302-0.499c3.47-0.853,6.604-2.281,9.602-4.355c5.858-4.047,8.869-9.842,10.542-16.383
			c1.377-5.407,1.831-10.98,0.992-16.585c-0.397-2.642-0.771-5.234-2.902-7.206c-1.611-1.484-3.03-3.165-4.587-4.818
			c0.242-0.447,0.413-0.838,0.645-1.209c2.81-4.379,5.63-8.759,8.435-13.144c0.422-0.656,1.058-1.318,1.14-2.027
			c0.766-6.679,2.351-13.259,2.075-20.069c-0.303-7.236-0.865-14.354-4.437-20.861c-0.121-2.456-2.347-4.475-1.496-7.158
			c0.023-0.078-0.599-0.358-0.974-0.576c0.522-0.478,0.901-0.824,1.7-1.548c-2.61,0.753-3.727-0.565-4.561-2.171
			c-1.221-2.347-3.282-3.917-5.153-5.618c-1.601-1.455-3.56-2.513-5.291-3.816c-0.963-0.725-1.806-1.595-2.622-2.333
			c0.148-0.41,0.157-0.608,0.26-0.738c3.167-3.77,4.488-8.15,4.386-13.032c-0.037-1.767,0.228-3.538,0.285-5.309
			c0.096-2.751,0.124-5.508-0.846-8.15c-2.702-7.388-6.861-13.847-13.109-18.642c-3.626-2.779-7.775-4.893-11.724-7.236
			c-0.778-0.461-1.617-0.733-1.711-1.789c-0.14-1.572-0.337-3.143-0.397-4.712c-0.032-0.759-0.043-1.724,0.368-2.267
			c2.14-2.79,3.749-5.999,6.769-8.093c1.992-1.385,3.79-3.05,5.686-4.598c-1.611-1.058-2.4-1.138-3.694,0.015
			c-2.373,2.113-4.716,4.255-6.93,6.531c-1.405,1.437-2.516,3.161-3.823,4.708c-0.978,1.157-1.464,2.395-1.032,3.903
			c0.474,1.67-0.067,3.208-0.471,5.126c-2.298-1.894-2.769-4.159-2.809-6.567c-0.045-3.271,0.448-6.49,1.72-9.492
			c0.75-1.761,1.78-3.496,3.051-4.91c1.15-1.293,2.72-2.279,4.254-3.14c1.433-0.806,3.185-1.058,4.571-1.915
			c2.591-1.595,5.345-2.034,8.287-1.875c0.608,0.028,1.288,0.067,1.81-0.167c0.377-0.166,0.688-0.756,0.773-1.209
			c0.037-0.205-0.536-0.573-0.887-0.763c-0.206-0.108-0.527,0.007-0.778-0.062c-3.108-0.809-6.188,0.23-8.869,1.195
			c-3.049,1.09-6.231,2.286-8.942,4.514c-2.198,1.808-4.129,3.745-5.199,6.203c-1.052,2.408-2.702,4.713-2.299,7.687
			c0.315,2.339,0.044,4.755,0.27,7.117c0.123,1.233,0.738,2.418,1.17,3.729c-1.935-0.234-1.958-0.22-2.303-1.357
			c-1.472-4.875-2.184-9.864-2.153-14.947c0.015-1.396,0.029-2.919,0.556-4.162c1.523-3.574,3.416-6.851,6.662-9.349
			c3.454-2.667,6.887-5.198,11.143-6.356c2.124-0.576,4.274-1.213,6.448-1.433c4.797-0.49,9.151,0.654,12.653,4.204
			c0.249,0.252,0.489,0.537,0.785,0.713c2.492,1.468,4.117,3.528,4.286,6.656c0.869-0.104,1.559-0.133,2.232-0.276
			c3.294-0.714,6.558-1.589,9.875-2.143c2.701-0.437,5.471-0.77,8.19-0.666c3.121,0.123,6.203,0.9,9.351,1.101
			c1.246,0.08,2.711,0.59,3.611,1.408c2.679,2.404,5.892,4.327,7.52,7.758c0.226,0.467,0.619,0.863,0.976,1.249
			c2.526,2.708,5.154,5.36,4.721,9.54c-0.044,0.396,0.24,0.824,0.383,1.286c1.168,0.267,2.308,0.461,3.396,0.789
			c0.833,0.258,1.718,0.533,2.392,1.047c2.021,1.538,3.989,3.146,5.89,4.828c2.102,1.861,4.355,3.636,6.077,5.813
			c1.681,2.109,2.812,4.656,4.09,7.064c0.492,0.918,0.836,1.947,1.062,2.952c0.37,1.638,0.578,3.298,0.861,4.946
			c0.397,2.333,0.929,4.645,1.164,6.992c0.207,2.105,0.295,4.266,0.065,6.356c-0.237,2.143-0.549,4.36-2.076,6.66
			c-1.425-2.004-2.716-3.729-3.896-5.533c-0.256-0.389-0.197-1.033-0.188-1.555c0.017-1.152,0.021-2.304,0.155-3.448
			c0.742-6.456-1.328-12.215-4.436-17.676c-0.854-1.499-2.103-2.761-3.246-4.221c-0.983,1.214-0.788,2.038-0.188,3.098
			c1.695,2.99,3.204,6.062,4.133,9.406c0.953,3.466,0.942,6.976,0.853,10.502c0,0.305-0.455,0.61-0.763,0.99
			c-0.944-0.908-1.755-1.693-2.358-2.269c-0.042-1.771-0.021-3.275-0.124-4.766c-0.254-3.816-2.324-7.045-3.538-10.558
			c-0.378-1.081-1.278-1.985-2.8-2.385c1.132,3.76,1.895,7.302,3.294,10.578c0.785,1.843,0.519,3.304,0.164,5.264
			c-2.048-0.627-3.876-1.189-5.722-1.761c0.28-3.646,0.202-7.099-1.674-10.202c-1.763,0.429-1.556,1.523-1.433,2.6
			c0.241,2.095,0.463,4.186,0.685,6.227c-0.462,0.176-0.703,0.357-0.94,0.347c-1.572-0.047-2.258-1.066-2.786-2.417
			c-0.522-1.32-0.739-3.009-3.067-3.352c0.192,1.275,0.361,2.384,0.518,3.47c-0.345,0.105-0.529,0.238-0.66,0.195
			c-4.821-1.386-9.688-0.595-14.532-0.295c-1.651,0.104-3.445,0.314-4.876,1.051c-2.497,1.3-4.854,2.919-7.105,4.623
			c-3.427,2.595-5.749,6.217-8.217,9.655c-0.892,1.242-1.377,2.866-1.732,4.389c-0.832,3.518-0.174,7.016,0.422,10.498
			c0.455,2.632,2.058,4.633,4.247,5.799c9.6,5.102,18.916,1.112,23.794-7.408c0.85-1.49,1.295-3.284,0.813-5.133
			c-0.588-2.236-1.905-4.012-3.657-5.358c-0.822-0.629-2.165-1.029-3.174-0.872c-2.062,0.308-4.05,1.066-6.208,1.685
			c0.337,2.333,0.46,2.442,1.994,1.985c0.512-0.147,0.992-0.396,1.499-0.572c2.185-0.779,3.543-0.494,4.971,1.233
			c1.43,1.732,2.618,3.508,1.562,6.013c-1.554,3.671-4.806,5.213-8.023,6.865c-2.372,1.209-4.878,0.598-7.321,0.547
			c-4.26-0.101-7.465-3.042-8.192-7.269c-0.108-0.611-0.294-1.225-0.316-1.843c-0.129-3.608-0.584-7.24,1.826-10.473
			c2.281-3.066,4.803-5.914,7.753-8.309c1.54-1.256,3.42-2.347,5.326-2.841c4.447-1.162,8.961-0.752,13.405,0.342
			c4.243,1.047,8.181,2.8,12.037,4.837c7.141,3.778,13.565,8.23,17.605,15.571c1.236,2.25,2.641,4.378,3.247,6.898
			c0.515,2.142,1.109,4.294,1.298,6.474c0.156,1.828,0.444,3.318,2.473,3.941c2.591-0.556,3.183-0.613,5.863,0.382
			c5.19,1.933,9.587,4.845,12.316,9.906c1.503,2.779,3.409,5.35,4.064,8.518c0.451,2.16,1.151,4.346,1.127,6.502
			c-0.065,4.982-1.224,9.787-3.469,14.276c-0.945,1.895-1.825,3.827-2.927,5.621c-1.634,2.66-4.429,4.023-6.883,5.756
			c-2.876,2.033-4.17,2.023-6.876,0.004c-4.111-3.064-8.625-5.178-13.72-6.131c-2.75-0.523-5.556-0.647-8.283-1.509
			c-4.479-1.423-8.924-0.867-13.157,1.246c-0.789,0.396-1.646,0.662-2.478,0.982c-4.554,1.751-7.76,4.993-9.53,9.429
			c-2.163,5.381-2.302,11.069-1.554,16.758c0.385,2.934,1.903,5.202,4.404,6.969c2.391,1.685,4.483,3.804,7.763,3.309
			c0.154-0.029,0.347,0.09,0.501,0.177c2.097,1.209,4.109,0.522,6.12-0.259c0.661-0.252,1.302-0.58,1.986-0.731
			c4.387-0.985,8.025-3.132,10.74-6.774c0.567-0.767,1.466-1.451,1.674-2.305c0.937-3.842,1.214-7.673-0.792-11.353
			c-1.11-2.032-2.562-3.224-5.017-3.26c-2.985-0.043-5.498,0.76-7.471,3.046c1.044,1.595,1.27,1.742,2.572,0.824
			c1.402-0.986,2.961-1.076,4.553-1.23c1.561-0.148,2.44,0.62,3.129,1.942c1.312,2.553,1.6,5.21,1.226,8.003
			c-0.144,1.076-0.551,1.884-1.246,2.784c-1.951,2.515-4.649,3.747-7.407,4.946c-0.64,0.281-1.402,0.504-2.067,0.425
			c-2.736-0.339-5.452-0.758-7.596-2.801c-1.346-1.278-2.857-2.395-4.168-3.723c-1.427-1.447-2.9-2.974-3.282-5.072
			c-0.475-2.69-1.196-5.371-0.636-8.165c0.128-0.673,0.07-1.423-0.083-2.1c-0.339-1.519,0.041-2.808,0.985-3.975
			c1.289-1.601,2.698-3.042,4.711-3.771c1.499-0.548,2.974-1.181,4.428-1.836c2.735-1.238,5.516-1.848,8.533-1.177
			c1.811,0.399,3.687,0.504,5.519,0.842c4.188,0.777,8.431,1.501,12.129,3.743c2.858,1.732,5.577,3.702,8.269,5.702
			c1.115,0.825,2.097,1.898,2.925,3.028c2.375,3.212,4.163,6.769,5.496,10.511C272.394,300.19,273.161,303.562,272.54,307.102z
			 M272.992,290.005c-0.973-2.332-0.715-3.509,1.875-4.658c1.662,2.797,3.377,5.581,4.993,8.418c1.381,2.433,1.714,5.165,2,7.898
			c0.136,1.338,0.173,2.793,2.184,3.542c-0.09-1.58-0.062-2.885-0.263-4.147c-0.489-3.066-0.86-6.155-2.413-8.949
			c-1.625-2.92-3.173-5.883-4.765-8.85c0.658-0.828,1.177-1.486,1.862-2.357c4.079,4.604,6.037,10.111,9.186,14.911
			c0.199-3.456-1.501-6.271-3.027-9.079c-1.539-2.833-3.372-5.508-5.177-8.406c0.507-1.023,1.112-2.257,1.917-3.895
			c2.108,2.138,3.682,4.312,5.136,6.541c1.447,2.224,2.685,4.586,4.09,7.03c1.089-1.332,0.634-2.312,0.253-3.464
			c-1.554-4.643-5.366-7.851-7.547-12.092c-0.882-1.72-1.107-1.767,0.421-3.286c3.703,1.515,4.713,6.052,8.503,7.541
			c-0.445-1.047-1.016-2.004-1.685-2.89c-0.688-0.923-1.457-1.786-2.226-2.636c-1.116-1.234-2.302-2.401-3.357-3.672
			c-0.41-0.5-0.806-1.224-0.768-1.832c0.166-2.995,0.386-5.994,0.749-8.975c0.643-5.264-0.565-10.276-2.4-15.061
			c-1.226-3.171-3.297-6.04-5.147-8.949c-2.177-3.434-5.623-5.305-9.197-6.922c-0.693-0.313-1.525-0.295-2.277-0.482
			c-1.561-0.385-3.113-0.813-4.393-1.146c-0.384-2.037-0.669-3.566-0.959-5.094c-0.062-0.335-0.251-0.676-0.218-0.996
			c0.399-3.236-0.508-6.274-1.365-9.325c-0.205-0.72-0.332-1.613-0.111-2.304c0.677-2.095,1.677-4.089,2.298-6.203
			c0.744-2.538,1.515-5.126,1.773-7.741c0.58-6.033-0.612-11.958-1.634-17.87c-0.209-1.191-0.498-2.434-1.055-3.485
			c-5.049-9.602-12.983-15.72-23.188-19.08c-0.596-0.191-1.354-0.672-1.521-1.187c-0.308-0.937,0.593-1.354,1.323-1.693
			c0.399-0.176,0.887-0.172,1.271-0.377c1.223-0.648,2.57-1.166,3.262-2.593c-1.143-1.325-2.307-0.896-3.274-0.028
			c-0.823,0.731-1.571,1.083-2.771,0.512c-0.113-0.289-0.277-0.695-0.422-1.103c-1.176-3.308-0.177-4.984,3.307-5.465
			c2.079-0.287,4.174-0.481,6.263-0.709c0.786-0.085,1.75-0.024,1.815-1.101c0.064-1.09-0.825-1.257-1.673-1.209
			c-2.112,0.119-4.244,0.125-6.316,0.496c-1.423,0.256-2.888,0.838-4.095,1.642c-1.665,1.104-1.966,1.209-3.131-0.443
			c-0.406-0.566-0.718-1.199-1.041-1.756c1.135-2.104,3.279-2.438,5.105-3.227c1.783-0.766,3.645-1.382,5.524-1.904
			c1.833-0.52,3.731-0.834,5.597-1.244c-0.015-0.189-0.029-0.386-0.044-0.577c-1.981-0.069-3.989-0.346-5.952-0.166
			c-2.806,0.258-5.359,1.504-7.888,2.685c-4.134,1.929-4.118,1.966-6.879-1.509c-0.082-0.101-0.009-0.323-0.009-0.414
			c1.248-0.482,2.524-0.853,3.677-1.447c1.154-0.601,2.146-1.53,3.308-2.1c1.008-0.496,2.155-0.752,3.268-1.004
			c0.856-0.197,1.755-0.211,2.632-0.316c5.399-0.667,10.761-0.519,16.093,0.644c0.522,0.119,1.056,0.224,1.77,0.371
			c-0.443-2.095-1.532-3.037-3.361-3.179c-1.055-0.085-2.109-0.266-3.174-0.301c-5.29-0.199-10.575-0.58-15.819,0.824
			c-1.559,0.424-3.121,0.442-4.085,2.013c-0.233,0.387-0.823,0.615-1.3,0.795c-1.074,0.415-2.185,0.738-3.269,1.12
			c-3.036,1.066-3.912,0.752-5.89-2.265c1.507-1.566,3.01-3.113,5.198-3.876c4.264-1.495,8.52-2.989,12.991-3.756
			c3.045-0.522,6.098-1.101,9.135-1.094c0.521,0.992,1.202,1.949,2.095,2.87c3.772,3.898,8.201,4.238,12.972,3.427
			c2.831,2.029,5.543,4.208,7.578,7.16c1.342,1.947,2.211,3.989,2.349,6.389c0.095,1.737,0.446,3.464,0.694,5.26
			c1.268,0.18,2.306,0.356,3.353,0.471c5.18,0.584,10.36,1.146,15.538,1.728c6.795,0.771,12.521,4.26,18.434,7.269
			c0.23,0.123,0.447,0.296,0.629,0.494c2.257,2.452,4.554,4.876,6.735,7.39c1.01,1.166,2.123,2.409,2.628,3.812
			c1.927,5.318,2.379,10.854,1.999,16.481c-0.075,1.142-0.037,2.3,0.011,3.452c0.049,0.922,0.498,1.461,1.524,1.433
			c2.021-0.049,4.06,0.09,6.068-0.078c5.44-0.455,9.583,2.119,13.207,5.694c3.075,3.027,6.317,6.022,7.502,10.443
			c2.19,1.962,2.19,4.728,2.627,7.308c0.157,0.958,0.012,1.956,0.174,2.909c0.886,5.17,1.426,10.364,0.676,15.576
			c-0.467,3.184-1.77,6.218-4.059,8.436c-3.242,3.146-7.172,5.465-11.262,7.369c-2.22,1.027-4.678,1.591-7.062,2.242
			c-5.951,1.624-12.013,2.643-18.153,1.732c-3.121-0.461-6.181-1.566-9.157-2.679c-2.177-0.82-3.156-3.001-4.298-4.899
			c-3.542-5.886-3.012-11.469,1.48-15.762c4.567-4.37,9.853-5.27,15.738-3.289c1.968,0.661,3.852,1.58,5.097,3.246
			c0.803,1.07,1.643,2.557,1.547,3.78c-0.226,2.704-0.927,5.407-2.432,7.759c-0.438,0.685-1.191,1.371-1.947,1.619
			c-1.418,0.466-1.865,1.337-1.906,2.628c2.306,0.817,3.856,0.062,5.033-1.8c2.147-3.419,3.34-7.142,3.69-11.146
			c0.16-1.886-0.536-3.509-1.854-4.816c-2.04-2.023-4.275-3.729-7.254-4.17c-1.748-0.262-3.459-0.838-5.212-0.963
			c-1.382-0.098-2.898,0.01-4.178,0.496c-4.303,1.638-8.105,4.036-10.416,8.222c-1.625,2.945-3.371,5.93-2.633,9.511
			c0.376,1.823,0.846,3.666,1.623,5.341c2.663,5.737,7.069,9.688,13.009,11.844c5.964,2.163,12.106,3.348,18.488,3.052
			c2.082-0.097,4.223-0.18,6.238,0.238c2.331,0.485,4.312,0.151,6.377-0.899c1.173-0.6,2.386-1.528,4.075-1.105
			c-0.078,0.981-0.233,1.843-0.182,2.689c0.102,1.724-0.788,2.505-2.32,3.033c-4.402,1.509-8.963,1.809-13.553,1.79
			c-4.915-0.028-9.794-0.576-14.772-1.628c0.022,0.367-0.048,0.915,0.071,0.962c1.876,0.731,3.723,1.651,5.677,2.022
			c2.476,0.472,5.046,0.671,7.576,0.662c5.29-0.024,10.627,0.296,15.818-1.172c0.097-0.023,0.253,0.182,0.437,0.319
			c-0.133,1.857-0.689,3.094-2.823,3.831c-2.493,0.863-4.963,1.191-7.524,1.32c-3.122,0.155-6.25,0.285-9.604,0.442
			c0.222,0.418,0.344,1.009,0.588,1.07c1.439,0.31,2.91,0.688,4.368,0.691c2.854,0.024,5.674-0.714,8.572-0.242
			c1.017,0.166,2.136-0.269,3.455-0.472c-0.355,1.479-0.639,2.665-0.892,3.751c-2.1,0.242-4.029,0.399-5.936,0.695
			c-3.102,0.476-4.872,1.108-5.426,1.88c2.934,1.67,6.133-0.306,9.386,0.389c-0.726,1.443-1.47,2.524-2.731,2.225
			c-2.938-0.69-4.879,1.356-7.67,2.076c1.53,1.861,3.365,0.274,4.79,1.271c-0.398,0.504-0.684,1.073-1.138,1.39
			c-1.382,0.951-2.835,1.804-4.254,2.699c-7.043,4.502-14.912,5.902-23.088,6.064c-2.237,0.042-2.188-0.059-2.848,2.151
			c-1.124,3.774-2.634,7.417-5.414,10.271c-4.286,4.399-9.038,8.233-14.911,10.393c-0.525,0.195-1.112,0.21-1.843,0.339
			c0.065-0.872,0.151-1.48,0.147-2.086c-0.038-2.828,0.421-5.788-0.282-8.439C276.559,298.534,274.764,294.25,272.992,290.005z
			 M385.242,333.257c-2.179,0.843-2.339,1.333-1.801,3.675c0.455,1.973,0.965,3.942,1.525,5.89c0.62,2.113,0.117,4.294-1.455,5.336
			c-3.202,2.128-6.437,4.504-10.434,4.985c-2.414,0.294-4.854-0.097-6.994-1.235c-2.89-1.53-5.646-3.323-8.433-5.044
			c-2.102-1.296-2.891-3.543-3.801-5.638c-0.326-0.748-0.345-1.774-0.133-2.584c1.076-4.233,3.807-6.869,8.031-8.046
			c2.125-0.591,4.077-0.177,5.922,0.771c2.865,1.477,3.468,6.185,1.203,8.423c-0.435,0.429-0.949,1.195-0.842,1.674
			c0.22,1.048,1.278,0.769,2.013,0.653c0.557-0.095,1.16-0.409,1.575-0.799c1.235-1.153,1.594-2.676,1.581-4.329
			c-0.031-5.13-2.477-9.028-7.992-9.428c-4.971-0.353-9.169,1.437-12.207,5.555c-3.279,4.425-2.919,9.32-1.51,14.209
			c0.5,1.752,1.447,3.471,2.572,4.913c1,1.286,2.531,2.165,3.812,3.237c3.15,2.621,6.554,4.842,10.523,5.988
			c1.419,0.414,2.935,0.475,4.518,0.715c0.808,3.212,1.455,6.397,1.148,9.705c-0.037,0.347,0.015,0.739-0.126,1.042
			c-1.865,4.19-2.902,8.798-5.967,12.384c-1.539,1.803-3.183,3.573-5.018,5.072c-2.179,1.777-4.88,2.976-6.888,4.91
			c-3.858,3.731-8.628,4.693-13.614,5.256c-0.361,0.047-0.763-0.188-1.527-0.4c1.863-1.433,3.671-2.043,5.536-2.301
			c1.662-0.233,2.725-1.051,3.857-2.746c-0.889-0.138-1.763-0.537-2.058-0.281c-1.935,1.725-4.53,1.391-6.729,2.286
			c-2.18,0.879-4.572,1.533-6.906,1.638c-5.314,0.242-10.597-0.391-15.761-1.811c-0.311-0.085-0.535-0.514-1.061-1.041
			c0.792-0.114,1.206-0.258,1.608-0.225c2.447,0.225,4.905,0.747,7.343,0.662c2.703-0.09,5.471-0.004,8.114-0.995
			c2.213-0.838,4.579-1.305,6.769-2.195c2.263-0.922,4.931-1.37,6.322-3.669c1.431-2.367,3.859-4.189,4.027-7.261
			c0.013-0.252,0.173-0.519,0.339-0.719c2.076-2.384,2.259-5.479,3.058-8.331c0.33-1.174,0.146-2.351-1.453-3.104
			c-0.297,5.203-2.796,9.374-4.774,13.738c-0.212,0.468-0.68,0.81-1.005,1.224c-0.536,0.695-0.988,1.462-1.586,2.1
			c-0.764,0.824-1.549,1.687-2.477,2.299c-2.847,1.887-6.249,2.405-9.377,3.604c-0.35,0.133-0.884-0.248-1.704-0.5
			c0.681-0.537,1.031-0.857,1.428-1.117c1.028-0.687,2.272-1.159,3.08-2.044c4.36-4.785,8.557-9.696,9.827-16.381
			c0.731-3.851,1.528-7.71,0.668-11.592c-1.34-6.044-3.89-11.57-7.912-16.348c-0.962-1.145-1.887-2.451-3.116-3.217
			c-6.126-3.78-12.401-7.273-19.321-9.45c-5.246-1.65-10.45-3.504-16.075-3.241c-1.935,0.09-3.869,0.123-5.805,0.271
			c-3.608,0.288-7.224,0.525-10.811,0.987c-3.319,0.423-6.599,1.122-10.176,1.752c0.468-2.62,0.927-5.176,1.408-7.88
			c3.216-0.522,6.229-1.256,9.273-1.44c2.713-0.158,5.444,0.012,8.18-0.063c3.644-0.095,7.358,0.647,10.971,1.396
			c3.172,0.647,6.24,1.808,9.363,2.722c1.063,0.31,2.144,0.504,2.279-1.252c-6.036-2.113-12.088-3.989-18.438-4.579
			c-2.359-0.214-4.754-0.058-7.138-0.065c-1.097-0.011-2.27,0.199-3.048-1.025c2.354-1.636,4.586-3.198,6.819-4.745
			c0.933-0.643,1.828-0.71,2.986-0.314c2.793,0.958,5.669,1.667,8.948,2.604c-0.296-0.774-0.343-1.333-0.572-1.423
			c-1.875-0.752-3.757-1.509-5.696-2.076c-1.203-0.347-2.436-0.48-3.206-1.761c1.561-3.023,3.127-6.074,4.873-9.45
			c4.587,1.362,8.106,4.252,12.389,6.271c-0.133-2.299-1.691-2.904-3.017-3.59c-2.901-1.51-5.858-2.907-8.967-4.438
			c0.255-1.896,0.058-3.917,1.162-5.986c0.808,0.522,1.414,1.004,2.09,1.332c3.892,1.875,7.814,3.694,11.146,6.526
			c0.977,0.828,1.709,0.48,2.912-0.429c-2.865-1.714-5.373-3.542-8.154-4.751c-1.339-0.587-1.99-1.152-2.361-2.689
			c1.207-0.267,2.349-0.385,3.392-0.767c2.663-0.951,4.752-0.147,6.787,1.642c1.628,1.425,3.53,2.549,5.301,3.79
			c0.839-1.123,0.613-1.804-0.146-2.357c-1.144-0.837-2.316-1.638-3.453-2.48c-0.865-0.645-1.699-1.347-2.696-2.146
			c1.869-0.712,3.301-1.37,4.792-1.784c0.547-0.148,1.38,0.11,1.855,0.476c1.671,1.277,3.212,2.718,4.87,4.014
			c0.38,0.299,1.225,0.528,1.525,0.313c0.658-0.473,0.609-1.232-0.034-1.819c-0.265-0.233-0.618-0.356-0.902-0.564
			c-1.525-1.116-3.043-2.238-4.891-3.604c1.759-0.78,3.087-1.361,4.504-1.986c1.741,2.686,5.301,3.362,6.622,6.565
			c-1.236,0.987-2.524,1.79-3.542,2.867c-2.005,2.107-4.12,4.193-5.726,6.606c-2.51,3.765-4.562,7.821-4.282,12.603
			c0.089,1.54,0.191,3.088,0.303,4.96c-3.979-1.173-7.415-3.034-11.366-4.925c0.598,1.981,1.677,2.639,3.055,3.244
			c2.491,1.094,4.861,2.474,7.305,3.679c2.565,1.257,4.109,3.557,5.914,5.598c2.185,2.463,4.613,4.552,7.971,5.322
			c0.594-2.074,1.489-4.046,0.365-5.851c-1.82-2.923-2.74-6.135-3.657-9.387c-0.677-2.41-0.336-4.737,0.549-7.004
			c0.521-1.313,1.231-2.557,1.762-3.863c1.466-3.595,4.059-6.041,7.779-6.94c4.189-1.015,8.412-1.995,12.779-2.105
			c5.431-0.147,9.42,3.837,10.393,8.369c0.294,1.395-0.165,2.981-0.432,4.445c-0.2,1.091-0.508,2.063,0.722,2.786
			c1.147,0.681,1.765-0.053,2.53-0.696c2.365-1.988,5.161-2.571,8.187-2.466c2.905,0.105,5.56,1.057,8.211,2.072
			c4.025,1.541,5.933,4.906,6.222,8.816C391.949,327.531,390.237,331.318,385.242,333.257z"/>
		<path fill-rule="evenodd" clip-rule="evenodd" d="M80.966,364.615c-3.321-2.61-6.049-5.817-9.177-8.611
			c-0.465-0.421-0.66-1.158-0.968-1.754c-0.223-0.427-0.43-0.87-0.647-1.303c-0.189,0.104-0.369,0.218-0.549,0.328
			c0.842,3.488,2.906,6.35,5.419,8.769c2.794,2.676,5.836,5.135,8.993,7.377c1.759,1.254,3.933,1.966,5.987,2.725
			c1.474,0.542,1.722,0.267,2.288-1.571c-1.022-0.195-2.068-0.271-3.036-0.595C86.056,368.913,83.584,366.671,80.966,364.615z"/>
		<path fill-rule="evenodd" clip-rule="evenodd" d="M65.484,316.609c2.435,2.02,5.237,3.243,7.963,4.627
			c1.599,0.82,3.518,1.072,5.332,1.372c2.753,0.456,5.537,0.434,8.585,0.186c-0.535-1.199-1.344-1.443-2.05-1.296
			c-2.98,0.623-5.748-0.528-8.421-1.317c-3.167-0.939-6.129-2.672-9.068-4.263c-1.113-0.607-1.988-1.717-2.837-2.707
			c-0.771-0.896-1.504-1.599-3.009-1.295C62.805,313.996,63.912,315.311,65.484,316.609z"/>
		<path fill-rule="evenodd" clip-rule="evenodd" d="M52.717,340.449c-3.768-0.056-6.49-2.57-9.542-4.18
			c-1.73-0.918-2.952-2.754-4.536-3.997c-2.456-1.918-3.708-4.594-5.062-7.246c-0.527-1.033-1.29-1.94-1.945-2.909
			c-0.229,0.119-0.468,0.229-0.701,0.349c-0.002,0.324-0.107,0.709,0.033,0.956c2.201,3.876,4.055,7.817,7.636,10.949
			c3.609,3.15,7.51,5.48,11.748,7.432c0.685,0.313,1.523,0.389,2.29,0.389c0.285-0.004,0.777-0.533,0.79-0.843
			C53.45,341.051,52.98,340.455,52.717,340.449z"/>
		<path fill-rule="evenodd" clip-rule="evenodd" d="M168.328,320.633c-0.574-0.215-1.129-0.934-1.36-1.547
			c-0.602-1.619-1.875-2.304-3.359-2.71c-1.519-0.414-2.75-1.052-3.454-2.594c-0.231-0.511-0.966-0.805-1.623-1.319
			c-0.765,1.777-0.302,2.919,0.85,3.78c0.836,0.625,1.786,1.133,2.733,1.587c1.301,0.607,2.499,1.231,3.113,2.679
			c0.252,0.601,0.863,1.162,1.455,1.489c1.316,0.743,2.457,1.605,3.341,2.88c0.353,0.519,1.21,0.681,1.839,1.015
			C171.432,323.312,170.574,321.462,168.328,320.633z"/>
		<path fill-rule="evenodd" clip-rule="evenodd" d="M162.142,238.702c-1.451-0.472-2.875-0.921-4.403-0.492
			c-0.612,0.168-0.608,0.182-0.947,1.71c2.167-0.552,4.229-0.628,6.072,0.752c0.237,0.181,0.715,0.229,0.993,0.118
			c1.852-0.767,3.248,0.201,4.66,1.148c0.369,0.248,0.709,0.627,1.113,0.709c3.575,0.69,5.2,3.589,7.103,6.222
			c0.978-0.314,0.833-1.048,0.6-1.704c-0.833-2.404-2.707-3.855-4.837-5.032c-1.147-0.633-2.348-1.217-3.575-1.688
			c-1.221-0.464-2.495-0.791-3.761-1.115C164.163,239.072,163.108,239.016,162.142,238.702z"/>
		<path fill-rule="evenodd" clip-rule="evenodd" d="M153.619,232.232c2.923-0.886,5.805-1.334,8.749-0.176
			c1.149,0.45,2.248,0.442,3.124-0.602c-2.667-2.265-10.696-2.033-15.134,0.439c0.02,0.19,0.037,0.385,0.061,0.58
			C151.488,232.402,152.62,232.536,153.619,232.232z"/>
		<path fill-rule="evenodd" clip-rule="evenodd" d="M74.85,328.926c-0.35-1.567-1.474-1.729-2.519-1.819
			c-2.663-0.208-4.924-1.317-6.999-2.898c-0.692-0.52-1.316-1.328-2.208-0.305C64.615,326.794,70.61,329.396,74.85,328.926z"/>
		<path fill-rule="evenodd" clip-rule="evenodd" d="M146.909,310.432c1.162,0.296,2.208,1.026,3.657,1.743
			c-0.166-2.135-2.624-4.029-4.495-4.004c-1.706,0.019-2.591,0.723-2.663,2.113C144.584,310.317,145.802,310.145,146.909,310.432z"
			/>
		<path fill-rule="evenodd" clip-rule="evenodd" d="M182.095,241.225c-2.153-2.761-4.301-5.467-8.245-5.575
			c1.409,1.072,2.734,2.279,4.249,3.165C179.453,239.602,180.09,241.576,182.095,241.225z"/>
		<path fill-rule="evenodd" clip-rule="evenodd" d="M83.055,329.836c0.734,2.218,6.982,2.199,9.122-0.029
			c-1.583,0.094-2.915,0.356-4.194,0.209c-1.386-0.161-2.733-0.713-4.575-1.228C83.264,329.22,83.135,329.619,83.055,329.836z"/>
		<path fill-rule="evenodd" clip-rule="evenodd" d="M132.899,310.544c1.229,0.568,2.343,0.32,3.52-1.08
			c-1.206-0.519-2.095-1.094-3.05-1.228c-0.464-0.065-1.043,0.676-1.575,1.057C132.154,309.722,132.431,310.335,132.899,310.544z"/>
		<path fill-rule="evenodd" clip-rule="evenodd" d="M166.787,248.894c-1.554-1.267-3.305-0.615-4.934-0.89
			c-0.081,0.181-0.16,0.364-0.243,0.551c0.429,0.382,0.855,1.081,1.276,1.081C164.196,249.621,165.5,249.341,166.787,248.894z"/>
		<path fill-rule="evenodd" clip-rule="evenodd" d="M98.611,371.397c2.691,0.229,3.071-0.048,3.292-2.261
			C100.095,368.874,99.753,370.498,98.611,371.397z"/>
		<path fill-rule="evenodd" clip-rule="evenodd" d="M205.301,246.236c1.485,6.179,0.563,12.46,0.722,18.694
			c0.051,1.924,0.396,3.838,0.485,5.761c0.048,1.048-0.121,2.109-0.263,3.157c-0.153,1.207,0.281,1.854,1.672,1.965
			c1.411-2.386,1.022-4.841,1.103-7.206c0.123-3.457,0.016-6.927,0.186-10.379c0.168-3.38,0.37-6.713-0.873-9.982
			c-0.393-1.052-0.365-2.266-0.517-3.403c-0.445-3.329-2.158-6.161-3.609-9.064c-0.959-1.929-2.721-3.232-4.68-4.165
			c-0.254-0.115-0.628,0.015-1.328,0.043c1.229,1.537,2.295,2.775,3.246,4.098C203.684,238.893,204.425,242.601,205.301,246.236z"/>
		<path fill-rule="evenodd" clip-rule="evenodd" d="M197.321,299.311c-0.555-0.561-1.288-0.952-1.939-1.429
			c-0.25,0.233-0.495,0.447-0.744,0.677c0.818,1.423,1.448,3.018,2.499,4.245c3.415,3.995,4.042,8.875,3.761,13.665
			c-0.216,3.802-1.399,7.653-3.621,10.98c-0.34,0.504-0.707,1.048-0.846,1.623c-0.266,1.087,0.009,1.952,1.413,2.063
			c1.107-1.868,2.249-3.733,3.331-5.634c2.236-3.941,2.676-8.345,2.338-12.661C203.117,307.703,201.016,303.066,197.321,299.311z"/>
		<path fill-rule="evenodd" clip-rule="evenodd" d="M198.168,142.236c0.918-0.496,1.592-0.32,2.436-0.237
			c2.887,0.274,5.784,0.674,8.668,0.637c2.025-0.028,3.414,1.329,5.205,1.713c0.398,0.09,0.717,0.738,1.011,1.167
			c0.98,1.461,1.902,2.966,2.942,4.393c0.295,0.41,0.896,0.601,1.361,0.886c0.181-0.181,0.362-0.372,0.554-0.562
			c-0.41-3.694-2.315-6.549-5.617-8.254c-3.671-1.898-7.73-2.417-11.837-2.261c-2.016,0.076-4.02,0.363-6.023,0.619
			c-1.071,0.133-2.088,0.429-2.223,2.225C195.915,142.479,197.248,142.73,198.168,142.236z"/>
		<path fill-rule="evenodd" clip-rule="evenodd" d="M213.825,265.526c1.462-4.231,3.827-8.266,3.218-12.992
			c-0.279-2.175-0.726-4.327-1.112-6.488c-0.198-1.065-0.772-1.703-1.932-1.699c0.155,3.751,0.655,7.417,0.369,11.021
			c-0.287,3.553-1.373,7.037-2.107,10.555c0.14,0.123,0.276,0.248,0.421,0.37C213.067,266.04,213.703,265.868,213.825,265.526z"/>
		<path fill-rule="evenodd" clip-rule="evenodd" d="M265.181,271.866c0.537-0.461,1.123-0.923,1.496-1.509
			c2.287-3.607,4.13-7.392,4.077-11.81c0-0.391-0.272-0.78-0.513-1.396c-1.591,0.608-1.974,1.757-2.115,2.855
			c-0.621,4.637-2.562,8.527-6.161,11.559c-0.055,0.043-0.021,0.173-0.037,0.396C263.005,272.805,264.105,272.78,265.181,271.866z"
			/>
		<path fill-rule="evenodd" clip-rule="evenodd" d="M263.26,309.322c-0.432,1.88-0.455,3.864-1.011,5.711
			c-0.531,1.742-1.179,3.419-1.305,5.219c0.176,0.124,0.357,0.242,0.529,0.366c0.537-0.448,1.376-0.786,1.566-1.352
			c0.908-2.661,1.878-5.346,2.359-8.103c0.418-2.395-0.004-4.847-1.474-7.236C262.173,305.72,263.642,307.631,263.26,309.322z"/>
		<path fill-rule="evenodd" clip-rule="evenodd" d="M208.911,311.53c-1.519,0.161-1.591,1.145-1.548,2.134
			c0.067,1.656,0.164,3.316,0.334,4.969c0.218,2.161,0.184,4.205-1.291,6.037c-0.562,0.689-0.793,1.659-1.171,2.509
			c0.214,0.119,0.437,0.237,0.656,0.36c1.861-0.962,3.022-2.531,3.512-4.564c0.448-1.88,0.917-3.748,0.388-5.756
			C209.309,315.396,209.194,313.467,208.911,311.53z"/>
		<path fill-rule="evenodd" clip-rule="evenodd" d="M160.961,155.384c-0.459,2.146,0.034,2.919,1.758,3.855
			c0.077-0.904,0.154-1.779,0.218-2.65c0.108-1.49,0.478-2.634,2.213-3.148c1.729-0.523,1.988-1.38,1.511-3.378
			C164.064,151.166,161.603,152.371,160.961,155.384z"/>
		<path fill-rule="evenodd" clip-rule="evenodd" d="M258.861,267.478c2.342-1.581,2.617-2.532,1.499-6.041
			c-0.553,0.519-1.169,0.81-1.232,1.195c-0.345,2.091-1.328,3.57-3.413,4.251c-0.375,0.129-0.633,0.586-0.955,0.896
			C256.139,268.845,256.966,268.769,258.861,267.478z"/>
		<path fill-rule="evenodd" clip-rule="evenodd" d="M255.145,331.2c-0.714,2.268-2.739,3.071-4.497,4.189
			c-0.634,0.399-1.589,0.672-0.734,1.847c2.536-0.686,4.88-1.681,6.377-4.057c0.23-0.366,0.578-0.784,0.558-1.166
			c-0.028-0.451-0.317-0.962-0.656-1.293C256.087,330.617,255.229,330.934,255.145,331.2z"/>
		<path fill-rule="evenodd" clip-rule="evenodd" d="M204.979,281.729c-2.324,0.425-2.29,2.487-3.079,3.843
			c-0.26,0.438,0.095,1.309,0.303,1.946c0.241,0.719,0.88,1.004,1.428,0.448c0.459-0.471,0.837-1.195,0.918-1.847
			C204.72,284.739,206.125,283.464,204.979,281.729z"/>
		<path fill-rule="evenodd" clip-rule="evenodd" d="M246.836,267.373c0.722-0.619,1.479-1.286,1.948-2.099
			c0.274-0.472,0.023-1.247,0.019-1.891c-0.631,0.129-1.503,0.033-1.828,0.414c-0.905,1.052-1.577,2.289-2.435,3.604
			C245.486,268.164,246.225,267.897,246.836,267.373z"/>
		<path fill-rule="evenodd" clip-rule="evenodd" d="M167.979,162.987c2.434-0.342,2.806-1.086,2.124-4.208
			C167.863,159.478,167.863,159.478,167.979,162.987z"/>
		<path fill-rule="evenodd" clip-rule="evenodd" d="M205.545,146.207c-1.352-0.183-2.862-0.877-4.552,0.789
			c2.102,0.515,3.752,0.914,5.658,1.375C206.543,147.345,206.641,146.359,205.545,146.207z"/>
		<path fill-rule="evenodd" clip-rule="evenodd" d="M270.885,195.286c0.562-2.271,1.255-4.647,0.127-6.998
			c1.106-3.495-0.57-6.902-0.335-10.411c0.134-2.06-1.194-4.032-2.187-5.893c-0.249,0.09-0.5,0.176-0.748,0.263
			c0.224,1.185,0.337,2.404,0.688,3.542c1.175,3.87,0.9,7.863,1.047,11.801c0.118,3.322-0.436,6.674-0.777,10.005
			c-0.091,0.849-0.513,1.663-0.824,2.476c-0.978,2.542-2.555,4.861-2.706,7.716c-0.026,0.546-0.519,1.082-0.91,1.847
			c1.804,0.233,2.653-0.666,2.975-1.686C268.557,203.76,269.82,199.552,270.885,195.286z"/>
		<path fill-rule="evenodd" clip-rule="evenodd" d="M285.202,200.971c-0.26,2.017-0.348,4.094-0.921,6.022
			c-0.992,3.378-2.363,6.668-4.617,9.425c-1.665,2.027-3.616,3.823-5.535,5.807c0.788,0.887,1.597,0.891,2.445,0.13
			c3.594-3.236,6.67-6.912,8.323-11.488c0.829-2.299,1.223-4.812,1.455-7.26c0.268-2.845,0.144-5.746,0.189-8.625
			c-0.2-0.004-0.405-0.015-0.606-0.022C285.698,196.967,285.472,198.965,285.202,200.971z"/>
		<path fill-rule="evenodd" clip-rule="evenodd" d="M272.343,208.286c-1.681,1.962-2.704,4.276-3.095,6.813
			c-0.267,1.689-0.443,3.26-2.823,3.741c0.808,0.695,1.291,1.113,1.722,1.484c0.336-0.127,0.565-0.142,0.641-0.257
			c0.616-0.95,1.364-1.851,1.749-2.89c0.893-2.365,1.628-4.803,2.357-7.226c0.139-0.447,0-0.985-0.017-1.486
			C272.702,208.411,272.518,208.348,272.343,208.286z"/>
		<path fill-rule="evenodd" clip-rule="evenodd" d="M278.883,198.104c0.767-1.965,1.669-3.98,1.88-6.041
			c0.228-2.261-0.254-4.6-0.788-6.941c-0.271,1.88-0.521,3.77-0.817,5.646c-0.46,3.009-0.934,6.026-3.102,8.708
			C277.559,199.628,278.491,199.117,278.883,198.104z"/>
		<path fill-rule="evenodd" clip-rule="evenodd" d="M284.594,221.92c-2.009,1.152-2.558,2.929-3.686,4.175
			c-0.083,0.097,0.125,0.453,0.229,0.8c0.771-0.295,1.48-0.565,2.132-0.813C283.673,224.811,284.062,223.597,284.594,221.92z"/>
		<path fill-rule="evenodd" clip-rule="evenodd" d="M283.026,233.321c1.245-0.285,2.23-0.728,2.353-2.262
			C282.818,231.479,282.769,231.523,283.026,233.321z"/>
		<path fill-rule="evenodd" clip-rule="evenodd" d="M96.797,199.546c0.922-0.822,1.951-1.552,2.75-2.474
			c1.502-1.749,3.368-2.814,5.523-3.48c3.374-1.052,6.694-2.28,10.124-3.107c1.849-0.449,3.862-0.224,5.799-0.306
			c1.373-0.062,2.746-0.133,4.386-0.213c-0.648-1.81-1.793-2.005-2.792-2.044c-2.107-0.08-4.219,0.076-6.334,0.133
			c-2.604,0.072-4.957,1.144-7.402,1.857c-2.109,0.615-4.286,1.084-6.27,1.976c-1.292,0.577-2.439,1.667-3.416,2.748
			c-1.238,1.385-2.279,2.894-4.104,3.636c-0.408,0.166-0.588,0.896-0.875,1.357C95.289,200.427,96.063,200.204,96.797,199.546z"/>
		<path fill-rule="evenodd" clip-rule="evenodd" d="M114.52,194.605c-2.517,0.072-4.465,1.527-6.44,2.818
			c-0.99,0.652-1.792,1.595-3.061,2.755c1.451,0.601,2.275,1.072,3.22-0.043c2.004-2.366,4.658-3.042,7.709-3.352
			c6.717-0.695,13.17,0.01,19.427,2.501c0.147,0.065,0.344,0.029,0.52,0.037c0.698-0.718,0.321-1.238-0.286-1.76
			c-1.75-1.505-3.94-1.891-6.07-2.481C124.558,193.72,119.534,194.472,114.52,194.605z"/>
		<path fill-rule="evenodd" clip-rule="evenodd" d="M103.801,162.102c1.189-0.285,2.417-0.51,3.633-0.543
			c0.916-0.015,1.838,0.377,2.769,0.472c1.841,0.201,3.689,0.404,5.542,0.428c1.895,0.025,3.397,0.756,4.77,1.98
			c1.3,1.156,2.643,2.318,5.17,2.344c-1.884-2.2-3.28-4.086-4.965-5.662c-0.671-0.631-1.954-0.775-2.975-0.828
			c-3.165-0.151-6.301-0.713-9.519-0.029c-1.857,0.396-3.898-0.137-5.813,0.086c-2.215,0.258-4.518,0.611-6.162,2.915
			c0.603,0.18,1.07,0.498,1.445,0.408C99.745,163.2,101.76,162.577,103.801,162.102z"/>
		<path fill-rule="evenodd" clip-rule="evenodd" d="M94.354,208.229c1.494-1.042,2.793-2.352,4.233-3.589
			c-0.374-1.333-1.588-1.351-2.249-0.781c-2.427,2.091-5.145,3.957-6.615,6.965c-0.024,0.054,0.045,0.152,0.146,0.476
			C92.058,211.338,92.89,209.244,94.354,208.229z"/>
		<path fill-rule="evenodd" clip-rule="evenodd" d="M97.021,170.133c0.125,0.313,0.256,0.627,0.379,0.947
			c2.205-0.662,4.411-1.318,7.101-2.124c-0.792-0.615-1.187-1.119-1.398-1.047C101.046,168.566,98.833,168.895,97.021,170.133z"/>
		<path fill-rule="evenodd" clip-rule="evenodd" d="M358.96,386.87c1.395-2.801,3.077-5.49,4.279-8.366
			c0.999-2.422,1.559-5.035,2.154-7.6c0.126-0.551-0.434-1.259-0.675-1.891c-0.221,0.008-0.439,0.026-0.658,0.037
			c0.729,1.691-0.521,2.681-1.051,3.916c-1.1,2.582-2.17,5.185-3.4,7.705c-1.151,2.347-2.508,4.593-3.755,6.893
			c-0.199,0.376-0.278,0.809-0.425,1.242C357.376,388.983,358.177,388.451,358.96,386.87z"/>
	</g>
</g>
</svg>
