<svg width="52" height="50" viewBox="0 0 52 50" fill="none" xmlns="http://www.w3.org/2000/svg">
<path d="M28.5701 22.9748L27.2323 21.9348C27.1732 21.8888 27.1442 21.814 27.1571 21.7406L27.4701 19.9579C27.4815 19.8927 27.5245 19.8374 27.5849 19.8102L29.2353 19.0675C29.3031 19.0369 29.3828 19.0466 29.442 19.0926L30.7798 20.1326C30.8387 20.1784 30.8677 20.2532 30.8549 20.3266L30.5422 22.1093C30.5309 22.1745 30.4879 22.2298 30.4274 22.257L28.7767 22.9998C28.7088 23.0302 28.629 23.0206 28.5701 22.9748ZM27.5747 21.6929L28.72 22.5833L30.1639 21.9336L30.4373 20.3744L29.292 19.484L27.8487 20.1337L27.5747 21.6929Z" fill="#979797"/>
<path d="M20.5713 31.8834C20.5225 31.8454 20.4936 31.7871 20.4931 31.7255L20.4822 30.411C20.4818 30.3707 20.4937 30.3313 20.5162 30.2978L27.5013 19.8811C27.5629 19.7892 27.6879 19.7649 27.7803 19.8271C27.8705 19.8909 27.8978 20.0144 27.836 20.1063L20.8855 30.4716L20.8937 31.4687L21.8622 31.231L30.1936 21.9392C30.2672 21.8565 30.3943 21.8523 30.4779 21.9243C30.5609 21.9985 30.5683 22.1255 30.4945 22.2081L22.1216 31.5459C22.0947 31.5758 22.0595 31.5971 22.0203 31.6068L20.7438 31.9204C20.6838 31.9349 20.6201 31.9213 20.5713 31.8834Z" fill="#979797"/>
<path d="M21.8482 31.5698C21.8021 31.534 21.7721 31.4792 21.7699 31.417L21.7351 30.3863L20.7277 30.6067C20.6196 30.63 20.5119 30.5614 20.487 30.4533C20.4627 30.3447 20.5309 30.2377 20.6394 30.214L21.8838 29.9417C22.0009 29.9163 22.1252 30.0129 22.1292 30.1324L22.1721 31.4056C22.176 31.5167 22.0891 31.6091 21.9778 31.6123C21.9293 31.6137 21.8839 31.5976 21.8482 31.5698Z" fill="#979797"/>
<path d="M22.6249 27.4903C22.6114 27.4798 22.599 27.4676 22.5882 27.4532C22.5204 27.3648 22.5371 27.2386 22.6254 27.1716L28.5706 22.6561C28.6587 22.5893 28.7853 22.6066 28.8527 22.6951C28.9205 22.7835 28.9037 22.9097 28.8155 22.9767L22.8703 27.4922C22.7963 27.5484 22.6953 27.5451 22.6249 27.4903Z" fill="#979797"/>
<path d="M24.3386 28.762C24.2681 28.7072 24.2397 28.6101 24.2763 28.5247L27.1864 21.6493C27.2297 21.5473 27.3478 21.4999 27.4502 21.5439C27.5537 21.5882 27.6007 21.7058 27.5576 21.8077L24.6473 28.683C24.6042 28.7849 24.4858 28.8323 24.3834 28.7883C24.3668 28.7813 24.3519 28.7723 24.3386 28.762Z" fill="#979797"/>
<path d="M21.805 30.2965C21.717 30.2281 21.7007 30.1018 21.7687 30.0143L25.9052 24.6936C25.9732 24.6062 26.0996 24.5907 26.1876 24.6592C26.2756 24.7276 26.2919 24.854 26.2239 24.9414L22.0875 30.2621C22.0194 30.3496 21.8929 30.3649 21.805 30.2965Z" fill="#979797"/>
<path d="M27.6569 20.1015C27.5819 20.0431 27.5562 19.9381 27.6009 19.8511L27.9462 19.1753C27.9636 19.1412 27.9905 19.1128 28.0235 19.0935L28.5616 18.7809C28.6176 18.7484 28.6863 18.7448 28.7456 18.7719L29.4008 19.0679C29.5034 19.1139 29.5479 19.2329 29.5027 19.334C29.4574 19.4351 29.3383 19.4796 29.2368 19.4339L28.6764 19.1807L28.2783 19.412L27.9598 20.0355C27.9093 20.1341 27.788 20.1727 27.6888 20.1219C27.6774 20.116 27.6669 20.1092 27.6569 20.1015Z" fill="#979797"/>
<path d="M30.2491 22.07C30.2316 22.0564 30.2159 22.0397 30.2032 22.0201C30.1427 21.9268 30.1694 21.8024 30.2625 21.7425L30.8313 21.377L30.9516 20.9537L30.5026 20.4198C30.431 20.3344 30.4417 20.2077 30.5265 20.1364C30.6118 20.0656 30.7394 20.0773 30.8104 20.1624L31.3282 20.7783C31.3714 20.8297 31.3863 20.8989 31.3684 20.9632L31.1979 21.5616C31.1846 21.6085 31.1549 21.6486 31.1138 21.6748L30.4818 22.0811C30.4081 22.1281 30.315 22.1212 30.2491 22.07Z" fill="#979797"/>
<path d="M29.549 19.6839C29.5477 19.6828 29.5462 19.6817 29.5447 19.6805L29.2756 19.4598C29.2154 19.4103 29.1886 19.3306 29.2075 19.2554L30.2028 15.2428C30.223 15.1607 30.2927 15.1003 30.3769 15.0921L31.38 14.9923C31.4501 14.9855 31.5192 15.0158 31.5617 15.0719C31.6044 15.1282 31.6145 15.2025 31.5883 15.2676L29.8592 19.6008C29.8356 19.6602 29.7849 19.7047 29.7228 19.7204C29.6624 19.7356 29.5982 19.7221 29.549 19.6839ZM30.5597 15.4782L29.7217 18.857L31.091 15.4253L30.5597 15.4782Z" fill="#979797"/>
<path d="M30.1367 20.1408C30.0876 20.1026 30.0587 20.0437 30.0584 19.9815C30.0583 19.9174 30.0889 19.8572 30.1406 19.8197L33.9137 17.0756C33.9704 17.0342 34.045 17.0258 34.1099 17.0531C34.175 17.0807 34.2213 17.1401 34.2319 17.2095L34.3825 18.2063C34.3952 18.29 34.3539 18.3723 34.2796 18.4124L30.6362 20.3662C30.5679 20.4029 30.4841 20.3968 30.4212 20.3506L30.1409 20.1442C30.1394 20.1429 30.1381 20.1419 30.1367 20.1408ZM33.8834 17.5963L30.8947 19.7699L33.9635 18.1246L33.8834 17.5963Z" fill="#979797"/>
<path d="M22.1435 28.109C22.1218 28.0922 22.1032 28.0707 22.0895 28.0448L17.3424 19.2099L12.3944 15.9972C12.3118 15.9445 12.2793 15.8379 12.3188 15.7474L15.0425 9.50356L14.7089 5.22544C14.7036 5.15755 14.733 5.09185 14.7873 5.05067L19.0906 1.79285C19.1741 1.72983 19.2921 1.74114 19.363 1.82038L24.7763 7.9009C24.798 7.92496 24.8134 7.95414 24.8214 7.98551L27.863 19.9461C27.8903 20.0541 27.8251 20.1628 27.7175 20.1897C27.6095 20.2166 27.4999 20.1508 27.4726 20.0429L24.4433 8.13015L19.187 2.22595L15.1188 5.30582L15.4479 9.52459C15.4504 9.55727 15.4449 9.59007 15.4318 9.62029L12.7562 15.7539L17.604 18.9017C17.6326 18.9192 17.6561 18.9455 17.6722 18.9758L22.4438 27.8566C22.4967 27.9546 22.4599 28.0763 22.362 28.1283C22.29 28.1665 22.2044 28.1564 22.1435 28.109Z" fill="#979797"/>
<path d="M12.3809 15.9863C12.3635 15.9728 12.348 15.9561 12.3352 15.9366C12.2746 15.8432 12.301 15.7187 12.3943 15.6586L24.146 8.10247L14.8551 5.40333C14.7485 5.37229 14.6862 5.26073 14.7167 5.1542C14.7471 5.0474 14.8585 4.98619 14.9654 5.01741L24.6821 7.84004C24.7581 7.86218 24.8142 7.9263 24.8261 8.00424C24.8378 8.0822 24.8029 8.15964 24.7366 8.20235L12.6138 15.9973C12.5401 16.0445 12.4468 16.0376 12.3809 15.9863Z" fill="#979797"/>
<path d="M27.5456 20.1521C27.5407 20.1482 27.5358 20.1442 27.5311 20.1398L18.7471 11.8959L15.1441 9.70975C15.0499 9.64964 15.0182 9.52806 15.0754 9.43334C15.1327 9.33868 15.2565 9.30851 15.3518 9.36643L18.9728 11.5636C18.985 11.571 18.9963 11.5798 19.0064 11.589L27.8059 19.8474C27.8871 19.9238 27.8916 20.0509 27.8156 20.1318C27.7441 20.208 27.6269 20.2153 27.5456 20.1521Z" fill="#979797"/>
<path d="M17.3727 19.2274C17.3205 19.1868 17.2891 19.1213 17.2951 19.0507C17.3045 18.9402 17.4019 18.8588 17.5128 18.8689L27.6856 19.7936C27.796 19.8038 27.8787 19.9012 27.8691 20.012C27.8597 20.1225 27.7623 20.2039 27.6516 20.1938L17.4788 19.2693C17.4388 19.2655 17.4024 19.2505 17.3727 19.2274Z" fill="#979797"/>
<path d="M17.3727 19.2274C17.3149 19.1825 17.2834 19.1077 17.2979 19.0309L18.6709 11.6971C18.6913 11.588 18.7964 11.5168 18.9059 11.5377C19.0148 11.5592 19.0872 11.6641 19.0668 11.7734L17.6937 19.1071C17.6732 19.2162 17.5682 19.2873 17.4588 19.2664C17.4264 19.2602 17.3973 19.2465 17.3727 19.2274Z" fill="#979797"/>
<path d="M15.1248 9.69639C15.086 9.66621 15.0579 9.62201 15.0493 9.56988C15.0309 9.46039 15.105 9.35718 15.2147 9.33959L24.5938 7.83467C24.7034 7.81701 24.8072 7.89181 24.8254 8.00125C24.8438 8.11067 24.7697 8.21394 24.6601 8.23146L15.281 9.73645C15.2236 9.74574 15.1675 9.72959 15.1248 9.69639Z" fill="#979797"/>
<path d="M16.4663 5.85637C16.3819 5.79077 16.3625 5.67033 16.4242 5.58235L19.0483 1.8366C19.1119 1.74582 19.2373 1.72424 19.3285 1.78821C19.4232 1.8502 19.4423 1.97752 19.3787 2.06839L16.7546 5.814C16.691 5.90479 16.5656 5.92636 16.4743 5.86239C16.4716 5.86051 16.4689 5.85841 16.4663 5.85637Z" fill="#979797"/>
<path d="M15.1248 9.69639C15.058 9.64449 15.0284 9.5544 15.0577 9.47086L16.3992 5.63097C16.4359 5.52626 16.5506 5.47157 16.6556 5.50881C16.7609 5.54595 16.8161 5.66101 16.7797 5.76533L15.4382 9.60522C15.4015 9.71002 15.2868 9.76463 15.1818 9.72739C15.1608 9.72003 15.1415 9.70935 15.1248 9.69639Z" fill="#979797"/>
<path d="M23.8287 29.4179C23.7678 29.3705 23.7368 29.2904 23.7561 29.2109C23.7825 29.1031 23.8913 29.0375 23.9994 29.0647L33.7824 31.4992C33.8159 31.5076 33.8468 31.5243 33.8711 31.547L38.117 35.469L43.4017 31.3637C43.4277 31.3436 43.4581 31.3302 43.4904 31.3245L47.6602 30.6033L49.6417 25.9013L42.6239 22.2631L30.3321 22.2646C30.2207 22.2647 30.13 22.1747 30.1295 22.0635C30.1287 21.9524 30.2183 21.8625 30.3295 21.8623L42.6709 21.861C42.7033 21.861 42.7352 21.8687 42.764 21.8837L49.9913 25.6304C50.0856 25.6796 50.1259 25.7914 50.0852 25.8877L47.989 30.8614C47.9628 30.9243 47.9061 30.969 47.839 30.9806L43.6109 31.7121L38.2314 35.8915C38.1534 35.952 38.0422 35.9473 37.9708 35.8799L33.6372 31.8767L23.9042 29.4544C23.876 29.4475 23.8506 29.4348 23.8287 29.4179Z" fill="#979797"/>
<path d="M37.9839 35.8909C37.918 35.8397 37.8882 35.751 37.9158 35.6679L42.4809 21.9974C42.5059 21.9225 42.5723 21.8696 42.651 21.8619C42.7292 21.854 42.8055 21.8927 42.8455 21.9609L47.9769 30.6816C48.0336 30.7776 48.0016 30.9005 47.9059 30.9565C47.81 31.0121 47.6859 30.9806 47.6303 30.8836L42.7235 22.5452L38.2981 35.7971C38.2629 35.9023 38.1489 35.9586 38.0433 35.9229C38.0212 35.9152 38.0012 35.9043 37.9839 35.8909Z" fill="#979797"/>
<path d="M30.2077 22.2217C30.1263 22.1584 30.1046 22.043 30.1607 21.955C30.2203 21.8613 30.3445 21.8343 30.4386 21.8942L40.6116 28.3857C40.623 28.3933 40.6347 28.4023 40.6448 28.4122L43.6671 31.3797C43.7467 31.4578 43.7479 31.5851 43.6704 31.6641C43.5926 31.7429 43.4647 31.7404 43.3856 31.6657L40.3782 28.7128L30.223 22.2327C30.2177 22.2292 30.2126 22.2255 30.2077 22.2217Z" fill="#979797"/>
<path d="M33.6118 31.8522C33.5823 31.8293 33.5589 31.7978 33.5452 31.7597L30.141 22.1291C30.104 22.0242 30.1586 21.9097 30.2635 21.8734C30.3687 21.8369 30.4833 21.8928 30.5204 21.9974L33.9249 31.6281C33.9618 31.7329 33.9069 31.8473 33.8022 31.8837C33.7354 31.9074 33.6641 31.8929 33.6118 31.8522Z" fill="#979797"/>
<path d="M33.6118 31.8522C33.5873 31.8332 33.567 31.8084 33.5529 31.7786C33.5058 31.6778 33.5487 31.5584 33.6495 31.5118L40.418 28.3725C40.5186 28.326 40.6386 28.3703 40.686 28.4704C40.7333 28.5714 40.6902 28.6906 40.5895 28.7374L33.8207 31.8764C33.7501 31.9091 33.6698 31.8974 33.6118 31.8522Z" fill="#979797"/>
<path d="M43.4029 31.6807C43.3602 31.6475 43.3308 31.5971 43.3257 31.5393L42.4716 22.0787C42.4616 21.9681 42.5434 21.8709 42.6539 21.8617C42.7643 21.8522 42.8626 21.9345 42.8724 22.0451L43.7267 31.5057C43.7366 31.6162 43.655 31.7135 43.5441 31.7226C43.4916 31.7272 43.4419 31.711 43.4029 31.6807Z" fill="#979797"/>
<path d="M46.7936 29.4338C46.791 29.4318 46.7886 29.4299 46.7857 29.4274C46.7013 29.3548 46.6912 29.2279 46.7636 29.144L49.7464 25.6772C49.8188 25.5932 49.9439 25.5776 50.0303 25.6567C50.1147 25.7293 50.1248 25.8562 50.0525 25.9402L47.0697 29.4071C46.9998 29.4887 46.8781 29.4995 46.7936 29.4338Z" fill="#979797"/>
<path d="M43.4029 31.6807C43.3863 31.6678 43.3714 31.6519 43.3588 31.6333C43.2966 31.5406 43.3217 31.4162 43.4141 31.3546L46.8044 29.1076C46.8967 29.0465 47.0219 29.0716 47.0838 29.1647C47.1456 29.2572 47.1212 29.382 47.0285 29.4433L43.6381 31.6903C43.5645 31.7392 43.4697 31.7326 43.4029 31.6807Z" fill="#979797"/>
<path d="M12.9088 34.0962C12.8947 34.0853 12.8817 34.0722 12.8707 34.0574L8.6884 28.4466C8.65314 28.3996 8.64023 28.3392 8.65317 28.2819L10.2528 21.1691C10.2687 21.099 10.3207 21.0429 10.3895 21.0219L17.436 18.8768C17.5423 18.8446 17.6551 18.9044 17.6881 19.0106C17.721 19.1169 17.6618 19.2293 17.5557 19.2615L10.6203 21.3728L9.06628 28.2823L13.0951 33.687L20.5983 30.2276C20.6988 30.1813 20.8191 30.2255 20.866 30.3263C20.913 30.427 20.8697 30.5464 20.7689 30.5931L13.1174 34.1205C13.0475 34.1525 12.9673 34.1417 12.9088 34.0962Z" fill="#979797"/>
<path d="M8.7265 28.4856C8.6695 28.4413 8.638 28.3679 8.65094 28.2923C8.66957 28.1832 8.77363 28.1099 8.88315 28.1293L20.7172 30.2124C20.8265 30.2314 20.9005 30.3357 20.8819 30.4453C20.8632 30.5545 20.7593 30.6276 20.6496 30.6083L8.81568 28.5252C8.78204 28.5192 8.75182 28.5053 8.7265 28.4856Z" fill="#979797"/>
<path d="M11.9095 29.0458C11.8729 29.0173 11.8456 28.976 11.8354 28.9271L10.252 21.2538C10.2297 21.1449 10.2997 21.039 10.4085 21.0174C10.5173 20.9954 10.6238 21.0661 10.6466 21.1749L12.23 28.8482C12.2524 28.9572 12.1823 29.0632 12.0735 29.0848C12.0135 29.0965 11.9544 29.0807 11.9095 29.0458Z" fill="#979797"/>
<path d="M12.9088 34.0962C12.8717 34.0674 12.8441 34.0253 12.8344 33.9756L11.8352 28.9253C11.8135 28.8163 11.8845 28.7108 11.9936 28.6901C12.1026 28.6691 12.2087 28.7403 12.2301 28.85L13.2292 33.9003C13.2507 34.0093 13.1798 34.1146 13.0709 34.1354C13.0115 34.1467 12.9532 34.1308 12.9088 34.0962Z" fill="#979797"/>
<path d="M11.9095 29.0458C11.8672 29.0129 11.838 28.9633 11.8322 28.9061C11.8213 28.7954 11.9023 28.6975 12.013 28.6875L22.2477 27.7497C22.3583 27.7394 22.457 27.8208 22.4677 27.9314C22.4785 28.042 22.3976 28.1399 22.287 28.15L12.0523 29.0877C11.9991 29.0926 11.9488 29.0764 11.9095 29.0458Z" fill="#979797"/>
<path d="M8.7265 28.4856C8.72174 28.4819 8.71714 28.4779 8.71254 28.4739C8.6311 28.3978 8.62621 28.2707 8.70189 28.1896L17.3481 18.9314C17.4236 18.8506 17.5505 18.8453 17.6327 18.9225C17.7143 18.9984 17.7191 19.1256 17.6434 19.2067L8.99717 28.4647C8.92577 28.5413 8.80794 28.5489 8.7265 28.4856Z" fill="#979797"/>
<path d="M11.2508 25.8534C11.1921 25.8078 11.1609 25.7314 11.1764 25.654C11.1984 25.5453 11.3044 25.4758 11.4134 25.4982L21.0665 27.4962L10.3503 21.3887C10.2534 21.3316 10.2194 21.2105 10.2739 21.1144C10.3286 21.0179 10.4513 20.9847 10.5482 21.0399L22.3663 27.7756C22.4519 27.8266 22.4907 27.9288 22.4561 28.0213C22.4214 28.1138 22.3247 28.1669 22.2277 28.1467L11.3342 25.8918C11.3026 25.8854 11.2745 25.8719 11.2508 25.8534Z" fill="#979797"/>
<path d="M20.3411 39.8744C20.2826 39.8288 20.2523 39.7538 20.2662 39.6782L21.7979 31.3931C21.8182 31.2838 21.9234 31.2125 22.0326 31.2332C22.142 31.2544 22.2141 31.3594 22.1941 31.4683L20.6918 39.5929L26.923 42.1646L33.2355 38.9554L33.534 31.6844C33.5385 31.5735 33.6324 31.488 33.7434 31.4934C33.8545 31.4983 33.9409 31.5926 33.9365 31.7038L33.633 39.091C33.63 39.1633 33.5883 39.2281 33.5243 39.261L27.0255 42.5651C26.9731 42.5917 26.9114 42.5941 26.857 42.5714L20.3884 39.9019C20.3712 39.8947 20.3551 39.8852 20.3411 39.8744Z" fill="#979797"/>
<path d="M26.8097 42.544C26.7844 42.5243 26.7634 42.4986 26.7493 42.4674L21.8124 31.5123C21.7668 31.4109 21.8119 31.2919 21.9134 31.2472C22.0147 31.2022 22.1336 31.248 22.1795 31.3492L27.1165 42.3045C27.1622 42.4058 27.117 42.5248 27.0158 42.5697C26.9456 42.6008 26.8666 42.5883 26.8097 42.544Z" fill="#979797"/>
<path d="M25.4821 39.5975C25.4371 39.5626 25.4071 39.5092 25.4039 39.4483C25.3978 39.3374 25.4835 39.2435 25.5946 39.2383L33.4215 38.8808C33.5323 38.8761 33.6273 38.9621 33.6326 39.0725C33.6386 39.1834 33.5533 39.2774 33.4419 39.2824L25.6153 39.64C25.5655 39.6421 25.5187 39.626 25.4821 39.5975Z" fill="#979797"/>
<path d="M20.3411 39.8744C20.2966 39.8397 20.267 39.7873 20.2633 39.7268C20.2564 39.6159 20.3413 39.5212 20.452 39.5152L25.5928 39.2382C25.7043 39.2321 25.7994 39.3171 25.8061 39.4281C25.8128 39.5389 25.7282 39.6338 25.617 39.6397L20.4763 39.9166C20.4258 39.9195 20.3784 39.9033 20.3411 39.8744Z" fill="#979797"/>
<path d="M25.4821 39.5975C25.4426 39.5668 25.4146 39.5222 25.4061 39.4694L23.7913 29.3195C23.7735 29.2095 23.8484 29.1071 23.9584 29.0903C24.0683 29.0735 24.1714 29.149 24.1887 29.2587L25.8037 39.4088C25.8213 39.5185 25.7465 39.6213 25.6363 39.6378C25.5797 39.6465 25.5244 39.6304 25.4821 39.5975Z" fill="#979797"/>
<path d="M26.8097 42.544C26.7283 42.4808 26.7069 42.3655 26.7627 42.2774L33.5649 31.5857C33.6245 31.492 33.7489 31.4652 33.8429 31.5249C33.9354 31.5863 33.965 31.7092 33.9055 31.8029L27.1032 42.4945C27.0437 42.588 26.9193 42.6152 26.8252 42.5553C26.8197 42.5514 26.8146 42.5479 26.8097 42.544Z" fill="#979797"/>
<path d="M28.7382 39.4487C28.7144 39.4302 28.6943 39.4062 28.6806 39.3773L23.8093 29.3762C23.7656 29.287 23.7932 29.1803 23.8744 29.1238C23.9554 29.0675 24.0655 29.0792 24.1346 29.1502L33.5765 38.9427C33.6539 39.023 33.6519 39.1501 33.5719 39.2268C33.492 39.3034 33.3664 39.2998 33.2873 39.2205L24.726 30.3412L29.0424 39.2036C29.0911 39.3036 29.0498 39.4234 28.9498 39.4716C28.8787 39.5057 28.797 39.4944 28.7382 39.4487Z" fill="#979797"/>
</svg>
