<?xml version="1.0" encoding="utf-8"?>
<!-- Generator: Adobe Illustrator 16.0.0, SVG Export Plug-In . SVG Version: 6.00 Build 0)  -->
<!DOCTYPE svg PUBLIC "-//W3C//DTD SVG 1.1//EN" "http://www.w3.org/Graphics/SVG/1.1/DTD/svg11.dtd">
<svg version="1.1" id="Calque_1" xmlns="http://www.w3.org/2000/svg" xmlns:xlink="http://www.w3.org/1999/xlink" x="0px" y="0px"
	 width="419.53px" height="383.07px" viewBox="0 0 419.53 383.07" enable-background="new 0 0 419.53 383.07" xml:space="preserve">
<g>
	<g>
		<g>
			<path d="M151.666,67.823c-1.19-0.452-2.492-0.625-3.745-0.839c-0.915-0.162-1.837-0.349-2.772-0.356
				c-0.059-0.313-0.547-0.555-0.774-0.26c-0.088,0.119-0.175,0.242-0.269,0.361c-0.065,0.039-0.099,0.091-0.117,0.155
				c-3.378,4.564-5.979,10.02-8.325,15.146c-2.565,5.606-4.718,11.387-6.476,17.296c-0.133,0.443,0.594,0.834,0.741,0.363
				c1.798-5.778,3.967-11.432,6.534-16.912c1.284-2.736,2.666-5.434,4.107-8.092c1.319-2.426,2.852-4.742,4.183-7.161
				c0.956,0.427,1.994,0.646,3.021,0.876c1.232,0.276,2.497,0.629,3.757,0.659C152.25,69.077,152.242,68.042,151.666,67.823z"/>
			<path d="M157.552,61.318c-1.797,2.116-3.75,4.192-5.32,6.482c-0.257,0.376,0.287,0.823,0.607,0.501
				c1.966-1.962,3.651-4.258,5.401-6.413C158.567,61.491,157.885,60.925,157.552,61.318z"/>
			<path d="M179.065,31.651c-1.941,2.48-3.79,5.03-5.698,7.539c-0.177,0.232,0.082,0.527,0.315,0.515
				c-2.026,2.5-3.957,5.111-5.904,7.666c-2.146,2.82-4.562,5.594-6.364,8.653c-0.229,0.392,0.431,0.762,0.723,0.461
				c2.52-2.601,4.586-5.757,6.773-8.642c2.205-2.905,4.498-5.81,6.562-8.818c0.269-0.393-0.227-0.894-0.594-0.719
				c1.592-2.056,3.201-4.102,4.748-6.19C179.876,31.78,179.324,31.319,179.065,31.651z"/>
			<path d="M192.834,10.4c-3.899,5.621-7.229,11.779-10.653,17.703c-0.159,0.27,0.35,0.615,0.53,0.341
				c3.74-5.729,7.724-11.475,10.985-17.495C193.936,10.503,193.136,9.966,192.834,10.4z"/>
			<path d="M224.521,34.52c-0.571,0.578-1.148,1.152-1.721,1.735c-0.012-0.079-0.041-0.163-0.094-0.256
				c-1.518-2.725-3.832-5.152-5.84-7.525c-2.058-2.427-4.199-4.775-6.429-7.047c-4.479-4.556-9.333-9.127-14.757-12.542
				c-0.38-0.245-0.638,0.312-0.346,0.58c4.613,4.197,9.433,8.089,13.809,12.557c2.268,2.322,4.457,4.732,6.543,7.219
				c1.992,2.369,3.664,5.086,5.765,7.338c0.192,0.204,0.494,0.29,0.77,0.266c-0.659,0.668-1.394,1.339-1.891,2.124
				c-0.32,0.516,0.368,1.423,0.904,0.944c1.511-1.348,2.625-3.327,3.798-4.967C225.262,34.63,224.79,34.249,224.521,34.52z"/>
			<path d="M255.959,75.325c-1.22-1.719-2.907-3.176-4.322-4.743c-1.365-1.508-2.707-3.042-4.031-4.591
				c-2.713-3.179-5.344-6.428-7.877-9.753c-5.068-6.65-9.758-13.578-14.256-20.623c-0.181-0.283-0.706-0.087-0.525,0.247
				c4.007,7.374,8.635,14.388,13.687,21.09c2.519,3.337,5.127,6.597,7.846,9.774c1.394,1.63,2.811,3.235,4.253,4.824
				c1.381,1.532,2.724,3.285,4.351,4.553C255.654,76.547,256.401,75.953,255.959,75.325z"/>
			<path d="M280.974,95.08c-3.022-4.083-6.361-7.966-9.545-11.926c-3.191-3.967-6.229-8.065-9.526-11.942
				c-0.292-0.349-0.857-0.52-1.197-0.12c-2.146,2.511-4.275,5.028-6.321,7.622c-0.273,0.342,0.269,0.764,0.57,0.473
				c2.172-2.103,4.271-4.27,6.359-6.452c2.939,3.769,6.083,7.376,9.089,11.086c3.201,3.956,6.3,8.033,9.655,11.856
				C280.546,96.229,281.458,95.734,280.974,95.08z"/>
			<path d="M287.482,108.203c-1.739-2.007-3.738-3.806-5.622-5.672c-0.281-0.283-0.758,0.116-0.484,0.431
				c1.749,1.989,3.431,4.089,5.325,5.938C287.162,109.352,287.927,108.717,287.482,108.203z"/>
			<path d="M127.4,98.793c-2.078,4.528-3.974,9.104-5.923,13.68c-0.068,0.166,0.03,0.324,0.177,0.391
				c-2.66,6.925-5.28,13.86-7.895,20.806c-0.138,0.383,0.503,0.721,0.653,0.315c0.025-0.064,0.048-0.125,0.072-0.19
				c0.041,0.021,0.087,0.033,0.14,0.033c0.354,0,0.309-0.429,0.063-0.572c2.644-7.042,5.279-14.077,7.876-21.138
				c0.035-0.104,0-0.205-0.065-0.277c2.066-4.145,4.148-8.259,6.097-12.469C128.91,98.692,127.731,98.07,127.4,98.793z"/>
			<path d="M136.05,104.673c-0.828-1.108-1.959-2.054-2.964-3c-1.097-1.039-2.193-2.071-3.318-3.074
				c-0.292-0.257-0.752,0.11-0.479,0.422c0.987,1.134,2,2.24,3.021,3.339c0.939,1.016,1.873,2.165,2.969,3.005
				C135.774,105.747,136.463,105.225,136.05,104.673z"/>
			<path d="M201.018,39.11c-1.674-8.707-3.355-17.411-5.127-26.096c-0.07-0.345-0.654-0.377-0.582,0.016
				c1.52,8.716,3.135,17.413,4.759,26.111c1.616,8.677,2.922,17.525,5.029,26.099c0.105,0.447,0.856,0.518,0.781-0.026
				C204.717,56.473,202.687,47.77,201.018,39.11z"/>
			<path d="M204.25,67.167c-4.136,6.289-8.149,12.747-11.836,19.312c-0.054-0.067-0.129-0.116-0.229-0.116
				c-0.059,0-0.099,0.014-0.133,0.035c-0.314-1.08-1.043-2.091-1.569-3.069c-0.689-1.28-1.376-2.564-2.071-3.847
				c-0.192-0.359-0.828-0.227-0.618,0.19c0.646,1.294,1.3,2.59,1.946,3.882c0.574,1.134,1.028,2.49,1.902,3.418
				c0.152,0.158,0.502,0.172,0.514-0.084c0.035,0.014,0.075,0.026,0.117,0.026c0.053,0,0.094-0.014,0.129-0.032
				c0.14,0.225,0.5,0.365,0.664,0.116c4.141-6.317,8.039-12.888,11.726-19.483C204.942,67.234,204.43,66.887,204.25,67.167z"/>
			<path d="M186.864,80.287c-6.749,10.686-13.497,21.376-20.031,32.2c-0.215,0.367,0.351,0.852,0.589,0.484
				c6.778-10.681,13.34-21.493,19.897-32.31C187.496,80.377,187.046,80,186.864,80.287z"/>
			<path d="M164.943,115.974c-0.012-0.283-0.529-0.374-0.542-0.05c-0.005,0.117-0.01,0.233-0.01,0.354
				c-0.019,0.382,0.589,0.483,0.57,0.055C164.956,116.212,164.949,116.093,164.943,115.974z"/>
			<path d="M179.818,145.165c-4.52-8.946-9.805-17.591-14.747-26.318c-0.157-0.289-0.68-0.178-0.502,0.152
				c4.54,8.374,8.851,16.964,13.71,25.166c-0.14-0.014-0.297,0.035-0.379,0.137c-0.142,0.168-0.095,0.379,0.01,0.545
				c0.168,0.28,0.427,0.596,0.794,0.565c0.093-0.005,0.18-0.04,0.25-0.098c0.04,0.064,0.076,0.134,0.117,0.199
				C179.324,145.923,180.063,145.64,179.818,145.165z"/>
			<path d="M110.989,139.071c-1.191,2.628-2.462,5.209-3.693,7.815c-0.246,0.507,0.661,0.982,0.893,0.434
				c1.133-2.653,2.223-5.319,3.401-7.959C111.741,139.016,111.157,138.709,110.989,139.071z"/>
			<path d="M295.562,150.108c-24.769-0.091-49.538-0.014-74.302-0.018c-24.762,0-49.531-0.006-74.302,0.006
				c-7.025,0.006-14.046,0.009-21.07,0.012c-6.995,0.002-14.048-0.164-21.036,0.228c-0.509,0.026-0.309,0.697,0.117,0.717
				c12.344,0.68,24.822,0.23,37.183,0.236c12.385,0.006,24.769,0.012,37.154,0.012c24.764-0.002,49.532-0.002,74.297-0.006
				c14.046,0,28.099,0.038,42.146-0.014C296.555,151.278,296.272,150.111,295.562,150.108z"/>
			<path d="M289.062,105.788c-2.215-4.01-5.121-7.747-7.764-11.483c-0.297-0.417-0.881-0.053-0.612,0.397
				c2.347,3.865,4.572,7.986,7.334,11.57C288.411,106.78,289.437,106.465,289.062,105.788z"/>
			<path d="M310.187,148.706c-0.111,0.018-0.227,0.038-0.337,0.053c-1.074-3.568-2.613-7.047-3.92-10.537
				c-1.255-3.342-2.516-6.687-3.764-10.03c-1.255-3.345-2.516-6.688-3.775-10.031c-1.333-3.546-2.497-7.25-4.152-10.657
				c-0.069-0.146-0.257-0.222-0.409-0.212c0.012-0.009,0.023-0.015,0.03-0.027c0.391-0.359-0.222-0.992-0.636-0.846
				c-1.072,0.376-2.018,1.103-2.963,1.721c-1.053,0.68-2.079,1.395-3.11,2.097c-0.374,0.254,0.082,0.776,0.442,0.59
				c1.938-1.006,4.312-1.911,6.005-3.339c-0.007,0.035-0.007,0.072,0.005,0.12c0.887,3.465,2.305,6.837,3.511,10.199
				c1.249,3.471,2.49,6.942,3.74,10.41c1.256,3.471,2.502,6.942,3.752,10.41c1.237,3.438,2.302,7.018,3.756,10.375
				c-1.551,0.265-3.093,0.569-4.637,0.836c-0.416,0.073-0.153,0.691,0.197,0.679c2.176-0.075,4.346-0.081,6.522-0.216
				C311.54,150.234,311.149,148.563,310.187,148.706z"/>
			<path d="M252.913,138.039c-4.079-6.855-8.523-13.426-12.298-20.471c-3.674-6.852-7.099-13.857-10.261-20.957
				c-0.155-0.35-0.735-0.219-0.571,0.172c3.138,7.364,6.604,14.555,10.43,21.589c3.697,6.799,7.421,13.86,11.942,20.158
				C252.522,139.045,253.247,138.596,252.913,138.039z"/>
			<path d="M224.213,90.924c-3.921-6.965-7.596-14.068-11.632-20.965c-0.333-0.574-1.39-0.161-1.025,0.478
				c3.906,6.992,8.171,13.776,12.189,20.704C223.896,91.399,224.376,91.21,224.213,90.924z"/>
			<path d="M211.046,70.822c-1.073,1.828-2.333,3.619-3.138,5.588c-0.177,0.428,0.524,0.948,0.805,0.518
				c1.195-1.807,1.976-3.878,2.898-5.831C211.769,70.766,211.232,70.5,211.046,70.822z"/>
			<path d="M207.097,78.169c-0.118-0.122-0.234-0.242-0.35-0.364c-0.124-0.126-0.368-0.118-0.478,0.017
				c-0.124,0.152-0.049,0.347,0.075,0.467c0.122,0.12,0.245,0.236,0.36,0.353c0.123,0.12,0.355,0.12,0.467-0.014
				C207.294,78.476,207.219,78.292,207.097,78.169z"/>
			<path d="M215.603,50.08c-0.875,3.562-1.989,7.1-2.696,10.697c-0.094,0.46,0.753,0.813,0.894,0.308
				c0.974-3.573,1.552-7.268,2.361-10.882C216.238,49.875,215.688,49.73,215.603,50.08z"/>
			<path d="M210.562,55.891c-3.548-6.134-6.866-12.408-10.629-18.417c-0.292-0.457-1.143-0.136-0.852,0.394
				c3.437,6.219,7.317,12.175,10.967,18.263C210.218,56.412,210.749,56.205,210.562,55.891z"/>
			<path d="M167.395,74.651c-5.136-2.348-10.606-4.399-15.992-6.079c-0.412-0.128-0.5,0.482-0.162,0.642
				c5.122,2.404,10.552,4.585,15.935,6.318C167.736,75.713,167.865,74.87,167.395,74.651z"/>
			<path d="M197.105,91.505c-0.72-0.957-1.437-1.911-2.148-2.864c-0.222-0.29-0.67-0.021-0.444,0.285
				c0.718,0.957,1.429,1.911,2.146,2.864C196.876,92.079,197.331,91.81,197.105,91.505z"/>
			<path d="M216.57,115.739c-3.027-3.987-6.266-7.839-9.386-11.762c-0.22-0.281-0.671-0.018-0.437,0.288
				c3.069,3.952,6.037,8.004,9.188,11.887C216.262,116.554,216.904,116.18,216.57,115.739z"/>
			<path d="M162.674,118.665c-2.51,3.425-4.983,6.866-7.398,10.367c-2.392,3.471-4.654,7.158-7.348,10.401
				c-0.633,0.755,0.791,1.783,1.312,0.843c2.081-3.742,4.755-7.236,7.156-10.776c2.334-3.431,4.586-6.896,6.821-10.39
				C163.428,118.778,162.918,118.336,162.674,118.665z"/>
			<path d="M146.573,141c-4.386-1.94-9.473,0.254-11.771,4.278c-0.273,0.476,0.594,1.056,0.923,0.596
				c2.443-3.503,6.567-4.871,10.704-4.282C146.806,141.645,146.911,141.147,146.573,141z"/>
			<path d="M134.061,145.068c-2.048,1.681-4.096,3.381-5.932,5.293c-0.374,0.383,0.312,1.086,0.709,0.75
				c2.031-1.715,3.857-3.637,5.666-5.576C134.731,145.293,134.311,144.861,134.061,145.068z"/>
			<path d="M100.569,154.364c-1.056,2.013-2.106,4.031-3.156,6.05c0.311-0.02,0.618-0.047,0.928-0.076
				c0.957-1.888,1.907-3.778,2.853-5.67C101.371,154.314,100.763,154,100.569,154.364z"/>
			<path d="M82.521,191.137c4.77-9.244,9.566-18.478,14.272-27.751c-0.307,0.008-0.623,0.018-0.938,0.027
				c-4.737,9.164-9.4,18.369-14.083,27.562C82.024,191.028,82.276,191.084,82.521,191.137z"/>
			<path d="M75.567,261.751c-3.051-6.521-6.445-12.916-9.835-19.273c-0.168-0.312-0.722-0.206-0.547,0.168
				c3.044,6.504,6.113,13.038,9.491,19.379C74.949,262.539,75.847,262.363,75.567,261.751z"/>
			<path d="M84.736,263.758c-2.501,0-5.003,0-7.512,0.006c-0.379,0-0.244,0.547,0.087,0.547c2.508,0.007,5.012,0.007,7.52,0.007
				C85.215,264.318,85.082,263.758,84.736,263.758z"/>
			<path d="M125.761,294.035c-8.233-8.954-16.558-17.823-24.836-26.729c-0.292-0.314-0.845,0-0.53,0.338
				c8.225,8.948,16.403,17.932,24.677,26.841C125.45,294.886,126.168,294.478,125.761,294.035z"/>
			<path d="M167.655,333.592c-3.16-2.924-6.458-5.712-9.688-8.559c-0.285-0.256-0.624,0.152-0.338,0.408
				c3.203,2.883,6.365,5.822,9.638,8.621C167.603,334.355,167.977,333.889,167.655,333.592z"/>
			<path d="M211.145,374.747c-7.192-5.706-14.413-11.328-21.152-17.57c-6.843-6.335-13.178-13.254-19.111-20.439
				c-0.351-0.428-1.05-0.025-0.681,0.442c5.756,7.235,12.017,13.966,18.644,20.406c6.709,6.517,13.831,12.775,21.636,17.968
				C211.093,375.956,211.747,375.226,211.145,374.747z"/>
			<path d="M285.46,347.51c-11.988,5.257-23.86,10.786-35.744,16.282c-5.665,2.625-11.315,5.271-16.975,7.916
				c-5.974,2.788-12.28,5.292-17.985,8.604c-0.378,0.222,0.03,0.806,0.396,0.677c6.239-2.2,12.252-5.367,18.271-8.109
				c5.846-2.66,11.702-5.32,17.543-7.996c11.725-5.385,23.462-10.752,35.069-16.375C286.602,348.239,285.991,347.282,285.46,347.51z
				"/>
			<path d="M340.143,209.734c0.402-0.1,0.807-0.205,1.209-0.298c-0.146-0.27-0.292-0.537-0.439-0.806
				c-0.351-0.641-1.481-0.437-1.126,0.345C339.904,209.226,340.025,209.482,340.143,209.734z"/>
			<path d="M377.297,282.087c-1.594-5.828-5.034-11.294-7.719-16.66c-2.882-5.753-5.763-11.504-8.652-17.245
				c-5.119-10.185-10.026-20.522-15.275-30.661c-0.556,0.104-1.115,0.198-1.675,0.28c4.125,8.406,8.516,16.695,12.712,25.044
				c5.682,11.305,11.561,22.529,17.073,33.916c2.584,5.332,4.016,10.752,1.441,16.374c-2.159,4.708-5.961,8.482-9.603,12.064
				c-9.06,8.914-18.132,17.816-27.156,26.777c-9.968,9.892-19.821,19.908-29.941,29.648c-6.891-4.52-13.786-9.04-20.938-13.129
				c-0.447-0.258-0.821,0.404-0.414,0.701c6.883,4.957,14.07,9.484,21.246,14.011c0.28,0.175,0.659,0.069,0.875-0.15
				c18.195-18.576,36.984-36.589,55.396-54.953C371.638,301.145,380.265,292.948,377.297,282.087z"/>
			<path d="M326.83,169.779c-2.357-3.409-4.714-6.817-7.075-10.227c-4.039-5.842-7.906-11.877-12.315-17.448
				c-0.233-0.294-0.646-0.041-0.45,0.295c3.176,5.413,6.886,10.532,10.402,15.724c2.69,3.973,5.396,7.934,8.108,11.898
				C325.943,169.936,326.388,169.858,326.83,169.779z"/>
			<path d="M357.476,214.534c-0.416,0.129-0.835,0.257-1.256,0.374c1.722,2.515,3.446,5.017,5.199,7.502
				c0.436,0.617,1.356,0.064,0.915-0.596C360.725,219.381,359.096,216.961,357.476,214.534z"/>
			<path d="M351.278,207.668c0.475-0.069,0.953-0.141,1.423-0.204c-6.83-10.096-13.743-20.141-20.674-30.166
				c-0.442,0.108-0.892,0.216-1.334,0.317c6.2,9.072,12.419,18.137,18.638,27.199C349.979,205.766,350.631,206.717,351.278,207.668z
				"/>
			<path d="M367.462,255.357c-0.444-3.015-0.91-6.031-1.364-9.042c-0.959-6.264-1.898-12.536-3.023-18.778
				c-0.063-0.379-0.688-0.414-0.642,0.023c0.677,6.284,1.547,12.537,2.397,18.796c0.414,3.017,0.823,6.033,1.249,9.048
				c0.455,3.221,0.717,6.568,1.446,9.742c0.176,0.752,1.353,0.852,1.3-0.047C368.634,261.855,367.933,258.577,367.462,255.357z"/>
			<path d="M311.249,147.743c-2.771,0.223-6.025,0.889-8.592,1.932c-0.386,0.154-0.154,0.615,0.18,0.635
				c2.833,0.185,6.165-0.139,8.931-0.784C312.841,149.277,312.188,147.667,311.249,147.743z"/>
			<path d="M107.552,151.467c-9.076-5.434-19.909-5.649-30.129-4.328c-11.242,1.45-22.18,4.795-33.491,5.74
				c-6.761,0.563-13.534,0.228-20.009-1.944c-0.333-0.112-0.438,0.429-0.135,0.539c21.707,7.768,43.636-4.765,65.616-3.625
				c6.16,0.319,12.25,1.779,17.688,4.746C107.884,153.022,108.253,151.884,107.552,151.467z"/>
			<path d="M410.637,152.063c-9.486-0.312-19.014-0.081-28.504-0.085c-4.62,0-9.245,0.048-13.873,0.08
				c-4.823,0.029-9.742-0.135-14.548,0.309c-0.238,0.024-0.311,0.175-0.28,0.333c-1.318-0.273-2.624-0.56-3.938-0.846
				c-10.768-2.349-21.685-4.789-32.767-3.561c-6.015,0.665-12.403,2.015-17.747,4.961c-0.36,0.201,0.029,0.749,0.373,0.642
				c5.607-1.817,11.021-3.649,16.924-4.302c5.683-0.627,11.44-0.322,17.087,0.496c11.008,1.586,21.713,4.932,32.809,5.994
				c5.671,0.539,11.749,0.644,17.272-0.963c0.73-0.209,0.164-1.159-0.456-1.056c-5.815,0.965-11.429,1.315-17.308,0.686
				c-3.308-0.356-6.586-0.917-9.852-1.561c4.077,0.204,8.201,0.073,12.267,0.067c4.749-0.009,9.493,0.003,14.239-0.035
				c9.47-0.076,18.978,0.082,28.434-0.31C411.359,152.886,411.138,152.081,410.637,152.063z"/>
			<path d="M103.854,151.526c-10.606,0.586-21.199,1.613-31.787,2.392c-0.454,0.031-0.304,0.688,0.105,0.661
				c10.611-0.679,21.257-1.111,31.85-1.983C104.758,152.538,104.513,151.488,103.854,151.526z"/>
			<path d="M292.826,345.231c-15.108-24.684-30.831-49.015-46.424-73.399c-4.475-6.995-8.947-13.989-13.423-20.989
				c-0.22-0.351-0.739-0.035-0.508,0.332c15.378,24.531,30.749,49.062,46.288,73.486c4.458,7.011,8.887,14.035,13.438,20.982
				C292.481,346.081,293.113,345.696,292.826,345.231z"/>
			<path d="M292.418,349.325c-12.776-16.604-25.37-33.345-38.151-49.947c-0.229-0.292-0.688-0.017-0.449,0.298
				c12.582,16.742,25.363,33.338,37.959,50.069C292.093,350.169,292.763,349.768,292.418,349.325z"/>
			<path d="M289.262,212.108c-5.828-9.347-12.122-18.414-18.219-27.582c-6.102-9.172-12.255-18.314-18.38-27.469
				c-0.198-0.296-0.631-0.033-0.433,0.279c6.008,9.235,11.993,18.487,18.026,27.701c6.03,9.208,11.895,18.566,18.189,27.596
				C288.83,213.192,289.631,212.704,289.262,212.108z"/>
			<path d="M127.875,152.514c-3.505,3.405-6.964,6.85-10.411,10.31c-0.037,0.075-0.093,0.139-0.175,0.174
				c-1.971,1.98-3.944,3.964-5.91,5.951c-0.327,0.326,0.292,0.834,0.617,0.51c5.515-5.464,11.02-10.924,16.43-16.489
				C128.709,152.673,128.167,152.232,127.875,152.514z"/>
			<path d="M126.091,176.315c-5.688-0.904-11.468-1.381-17.197-1.98c-0.397-0.04-0.426,0.511-0.057,0.566
				c5.738,0.834,11.502,1.794,17.279,2.322C126.68,177.275,126.575,176.395,126.091,176.315z"/>
			<path d="M132.123,186.122c-1.918-2.856-3.844-5.711-5.763-8.566c-0.197-0.292-0.636-0.029-0.426,0.279
				c1.908,2.865,3.815,5.726,5.728,8.587C131.873,186.741,132.351,186.454,132.123,186.122z"/>
			<path d="M154.36,254.319v2.147c0,0.314,0.544,0.467,0.544,0.116v-2.146C154.904,254.115,154.36,253.963,154.36,254.319z"/>
			<path d="M143.83,258.805c-11.661-5.076-23.292-10.226-35.024-15.15c-0.43-0.175-0.647,0.42-0.237,0.606
				c11.619,5.164,23.339,10.105,35.029,15.121C144.012,259.557,144.228,258.974,143.83,258.805z"/>
			<path d="M99.194,241.473c-0.047-0.373-0.666-0.396-0.612,0.018c0.914,6.925,1.795,13.85,2.758,20.762
				c0.063,0.468,0.84,0.496,0.77-0.023C101.184,255.305,100.172,248.392,99.194,241.473z"/>
			<path d="M238.721,217.649c-6.288-10.453-12.659-20.834-19.158-31.154c-0.233-0.373-0.764-0.046-0.531,0.348
				c6.235,10.479,12.583,20.885,19.028,31.238C238.347,218.536,239.013,218.133,238.721,217.649z"/>
			<path d="M255.078,242.051c-2.146-3.104-4.294-6.201-6.44-9.304c-0.228-0.327-0.725-0.035-0.484,0.313
				c2.146,3.104,4.293,6.208,6.44,9.305C254.821,242.699,255.324,242.395,255.078,242.051z"/>
			<path d="M256.406,202.786c-6.076-8.051-12.533-15.836-18.824-23.719c-6.277-7.873-12.29-16.078-18.924-23.655
				c-0.484-0.554-1.394-0.058-0.915,0.598c5.934,8.135,12.618,15.803,18.923,23.656c6.319,7.871,12.498,15.883,19.019,23.587
				C256.062,203.702,256.794,203.293,256.406,202.786z"/>
			<path d="M212.848,146.856c-3.721-5.434-7.495-10.828-11.275-16.217c-3.764-5.364-7.247-11.073-11.331-16.191
				c-0.412-0.516-1.173-0.067-0.804,0.525c3.448,5.568,7.659,10.766,11.445,16.113c3.809,5.375,7.624,10.746,11.494,16.083
				C212.604,147.484,213.081,147.197,212.848,146.856z"/>
			<path d="M292.074,141.297c-5.367-7.945-11.166-15.625-16.865-23.334c-0.269-0.364-0.829-0.032-0.548,0.362
				c5.507,7.843,10.956,15.771,16.795,23.377C291.765,142.108,292.376,141.743,292.074,141.297z"/>
			<path d="M331.183,204.668c-3.955-5.863-8.359-11.462-12.547-17.158c-4.201-5.711-8.466-11.375-12.701-17.06
				c-0.27-0.357-0.816-0.03-0.543,0.355c4.154,5.737,8.288,11.492,12.478,17.2c4.188,5.702,8.215,11.583,12.631,17.101
				C330.851,205.545,331.508,205.16,331.183,204.668z"/>
			<path d="M211.197,262.942c-6.61-11.026-13.469-21.906-20.13-32.901c-6.604-10.892-13.18-21.801-19.857-32.645
				c-3.81-6.185-7.62-12.366-11.429-18.545c-0.215-0.35-0.717-0.041-0.495,0.323c13.229,21.908,26.73,43.656,39.943,65.579
				c3.75,6.219,7.477,12.449,11.311,18.615C210.824,263.828,211.483,263.42,211.197,262.942z"/>
			<path d="M199.973,274.375c-3.662-6.644-7.385-13.247-11.112-19.852c-0.199-0.344-0.828-0.216-0.612,0.188
				c3.64,6.645,7.28,13.281,10.985,19.886C199.472,275.023,200.241,274.854,199.973,274.375z"/>
			<path d="M220.857,355.053c-5.285-5.804-10.863-11.329-16.012-17.257c-5.075-5.843-9.999-11.817-14.765-17.908
				c-9.533-12.198-18.387-24.916-26.59-38.04c-4.76-7.625-9.323-15.36-13.617-23.253c-0.162-0.309-0.716-0.187-0.53,0.164
				c14.787,27.737,32.587,53.784,53.178,77.545c5.699,6.581,11.376,13.312,17.659,19.351
				C220.584,356.039,221.248,355.486,220.857,355.053z"/>
			<path d="M243.002,353.67c-7.699-9.452-15.786-18.616-23.654-27.926c-0.258-0.309-0.771-0.012-0.497,0.327
				c7.754,9.38,15.318,18.948,23.234,28.192C242.569,354.83,243.509,354.295,243.002,353.67z"/>
			<path d="M162.324,88.296c-0.157-0.208-0.321-0.414-0.479-0.621c-0.11-0.14-0.32-0.213-0.479-0.111
				c-0.162,0.108-0.152,0.312-0.057,0.459c0.152,0.216,0.297,0.432,0.442,0.647c0.105,0.16,0.352,0.227,0.514,0.119
				C162.434,88.681,162.441,88.445,162.324,88.296z"/>
			<path d="M165.7,105.167c-3.189-3.564-6.048-7.473-9.035-11.212c-2.991-3.749-5.957-7.52-8.924-11.285
				c-0.252-0.319-0.766-0.018-0.497,0.326c2.94,3.78,5.893,7.557,8.815,11.356c2.905,3.781,6.013,7.483,8.704,11.427
				C165.207,106.427,166.238,105.765,165.7,105.167z"/>
			<path d="M140.419,134.792c-4.229-4.349-9.002-8.267-13.552-12.269c-0.355-0.314-0.751,0.184-0.414,0.506
				c4.388,4.188,8.71,8.601,13.412,12.434C140.36,135.869,140.845,135.229,140.419,134.792z"/>
			<path d="M78.88,205.539c-1.055,1.745-1.731,3.729-2.519,5.6c-0.8,1.892-1.821,3.804-2.282,5.811
				c-0.192,0.858,1.127,1.262,1.541,0.531c1.032-1.814,1.562-4.03,2.256-5.996c0.648-1.826,1.436-3.647,1.809-5.548
				C79.766,205.562,79.108,205.167,78.88,205.539z"/>
			<path d="M104.525,150.487c-0.98,0.266-2.104,0.526-3.081,0.961c-0.583-0.823-1.738-1.292-2.333-0.315
				c-1.774,2.92-3.103,6.208-4.468,9.392c1.278-0.021,2.548-0.075,3.82-0.198c1.208-2.415,2.38-4.865,3.209-7.356
				c1.195-0.116,2.439-0.537,3.547-0.872C106.292,151.776,105.493,150.226,104.525,150.487z"/>
			<path d="M193.766,5.068c-0.663,0.767-1.06,1.783-1.487,2.707c-0.349,0-0.699,0.137-0.986,0.47c-1.218,1.391-1.94,3.29-2.799,4.92
				c-0.928,1.764-1.873,3.523-2.789,5.296c-0.863,1.669-1.697,3.352-2.55,5.027c-0.728,1.44-1.994,3.091-1.766,4.76
				c-0.578-0.237-1.238-0.202-1.634,0.359c-4.62,6.495-9.229,12.994-13.803,19.521c-2.258,3.221-4.439,6.49-6.632,9.751
				c-2.071,3.075-4.218,6.164-5.938,9.451c-0.182-0.175-0.397-0.31-0.652-0.367c-1.739-0.42-3.601-0.38-5.381-0.486
				c-1.16-0.067-2.333-0.174-3.505-0.142c-0.689-0.584-1.809-0.68-2.3,0.314c-2.707,5.513-4.957,11.294-7.367,16.944
				c-1.208,2.835-2.368,5.69-3.542,8.541c-0.858,2.097-1.791,4.244-2.514,6.423c-0.596-0.427-1.512-0.472-2.06,0.053
				c-1.489,1.417-2.333,3.931-3.25,5.757c-1.038,2.054-2.036,4.125-3.009,6.21c-1.944,4.171-3.74,8.409-5.408,12.699
				c-1.629,4.195-3.127,8.433-4.446,12.736c-1.337,4.333-2.829,8.823-3.343,13.343c-0.082,0.712,1.026,1.205,1.354,0.47
				c1.849-4.156,3.021-8.646,4.561-12.927c1.522-4.217,3.111-8.415,4.818-12.561c1.71-4.15,3.537-8.253,5.459-12.308
				c0.94-1.98,1.908-3.944,2.901-5.896c0.712-1.39,1.699-2.856,2.356-4.361c0.117,0.097,0.24,0.193,0.362,0.277
				c0.467,0.318,1.061,0.455,1.522,0.044c0.416-0.37,0.425-1.039,0.077-1.467c-0.168-0.204-0.355-0.402-0.549-0.592
				c1.148-1.989,2.116-4.119,3.102-6.175c1.384-2.881,2.743-5.773,4.074-8.68c2.548-5.601,5.296-11.177,7.563-16.9
				c1.063,0.24,2.142,0.385,3.216,0.561c1.772,0.292,3.58,0.735,5.384,0.701c0.765-0.016,1.085-0.493,1.08-1.04
				c0.092-0.019,0.173-0.064,0.246-0.137c2.707-2.808,5.033-6.02,7.378-9.135c2.363-3.129,4.725-6.254,7.029-9.427
				c4.183-5.778,8.337-11.579,12.484-17.387c0.933,0.491,2.461-0.014,2.113-1.259c-0.187-0.68-0.427-1.296-0.707-1.946
				c-0.105-0.247-0.304-0.478-0.543-0.667c1.447-0.59,2.118-2.305,2.917-3.58c1.062-1.68,2.13-3.351,3.172-5.037
				c0.987-1.592,1.948-3.2,2.924-4.799c1.003-1.653,2.374-3.374,2.981-5.221c0.068-0.221,0.075-0.445,0.045-0.662
				c0.018-0.026,0.037-0.053,0.06-0.076c0.641-0.877,1.434-1.759,1.831-2.779C196.269,5.25,194.607,4.091,193.766,5.068z"/>
			<path d="M326.579,169.823c1.033-0.187,2.06-0.353,3.098-0.501c-1.37-2.062-2.735-4.122-4.112-6.175
				c-4.007-5.988-7.876-12.285-12.455-17.859c-2.281-6.839-5.464-13.516-8.68-19.945c-1.657-3.325-3.401-6.609-5.257-9.83
				c-1.837-3.202-3.663-6.629-6.003-9.497c-0.402-0.484-1.312-0.922-1.889-0.434c-0.176,0.145-0.357,0.29-0.536,0.437
				c-0.023-0.073-0.054-0.149-0.101-0.23c-1.236-2.287-2.875-4.378-4.375-6.501c-1.494-2.109-2.871-4.4-4.674-6.256
				c-0.565-0.581-1.41-0.353-1.825,0.213c-0.974-1.315-2.053-2.564-3.073-3.838c-1.57-1.951-3.134-3.902-4.701-5.853
				c-3.209-4.002-6.372-8.071-9.889-11.809c-0.217-0.224-0.485-0.297-0.717-0.256c-0.444-0.621-1.39-0.921-2.048-0.256
				c-1.134,1.149-2.175,2.488-3.162,3.859c-0.019-0.061-0.048-0.123-0.076-0.184c-2.008-3.57-4.864-6.793-7.333-10.057
				c-2.649-3.506-5.291-7.009-7.946-10.509c-2.579-3.407-5.162-6.811-7.751-10.212c-2.031-2.663-4.03-5.503-6.312-8.006
				c0.006-0.058,0.023-0.114,0.023-0.178c0.082-0.711-0.583-1.35-1.283-1.33c-0.064,0.003-0.118,0.015-0.182,0.02
				c-0.095-0.089-0.182-0.186-0.278-0.276c-0.352-0.333-1,0.027-0.762,0.502c0.037,0.072,0.077,0.143,0.112,0.215
				c-0.007,0.007-0.012,0.013-0.017,0.019c-0.005-0.009-0.005-0.019-0.019-0.027c-1.807-2.92-4.626-5.47-6.896-8.059
				c-2.331-2.668-4.688-5.314-7.032-7.972c-2.358-2.66-4.75-5.282-7.16-7.893c-2.246-2.435-4.491-5.294-7.285-7.108
				c-0.302-0.194-0.818-0.023-0.617,0.408c1.352,2.955,3.839,5.525,5.892,8.016c2.321,2.814,4.661,5.617,7.04,8.386
				c2.305,2.68,4.609,5.369,6.931,8.039c2.279,2.619,4.451,5.76,7.121,7.98c0.096,0.079,0.188,0.14,0.287,0.193
				c-0.039,0.047-0.081,0.09-0.121,0.134c-0.349,0.384-0.982,0.916-1.15,1.435c-0.089,0.28-0.017,0.805,0.309,0.927
				c0.976,0.362,1.867-0.626,2.602-1.169c0.469-0.344,0.928-0.686,1.414-1.003c1.62,2.649,3.586,5.148,5.383,7.628
				c2.578,3.552,5.156,7.099,7.748,10.64c2.52,3.448,5.039,6.893,7.559,10.34c2.492,3.403,4.832,7.169,7.754,10.218
				c0.291,0.303,0.682,0.385,1.056,0.317c-0.391,0.578-0.771,1.15-1.144,1.709c-0.596,0.904,0.664,1.934,1.44,1.188
				c2.053-1.969,4.294-4.143,5.929-6.473c2.699,4.084,5.763,7.928,8.748,11.801c1.529,1.978,3.053,3.955,4.581,5.933
				c1.219,1.579,2.378,3.238,3.715,4.723c-0.297,0.583-0.514,1.19-0.523,1.837c-0.009,0.288,0.261,0.559,0.565,0.465
				c0.605-0.189,1.113-0.547,1.581-0.979c0.308,0.029,0.628-0.067,0.862-0.251c0.875,1.388,1.879,2.715,2.771,4.053
				c1.436,2.145,2.782,4.443,4.463,6.407c0.211,0.242,0.484,0.399,0.782,0.484c-1.18,0.933-2.345,1.918-3.169,3.067
				c-0.315,0.441,0.183,1.059,0.689,0.904c1.814-0.554,3.535-1.718,5.197-2.776c1.47,2.741,3.221,5.37,4.731,8.074
				c1.821,3.238,3.569,6.513,5.222,9.844c0.092,0.192,0.188,0.389,0.279,0.583c0.882,2.266,1.797,4.521,2.712,6.775l2.783,6.85
				c0.922,2.28,1.727,4.654,2.998,6.77c0.315,0.519,1.027,0.668,1.594,0.499c0.231,0.023,0.466-0.004,0.671-0.073
				c3.049,5.551,6.744,10.842,10.167,16.139C324.077,165.993,325.331,167.909,326.579,169.823z"/>
			<path d="M351.196,207.686c1.227-0.188,2.445-0.361,3.67-0.549c-5.692-8.646-11.558-17.192-17.262-25.813
				c-1.031-1.561-2.06-3.121-3.091-4.684c-0.986,0.274-1.966,0.537-2.958,0.775c1.137,1.732,2.275,3.466,3.412,5.201
				C340.416,190.932,345.742,199.356,351.196,207.686z"/>
			<path d="M379.437,284.875c-1.267-3.289-3.155-6.451-4.718-9.601c-1.273-2.549-2.573-5.075-3.881-7.607
				c0.239-0.162,0.409-0.432,0.426-0.841c0.096-2.018-0.431-3.995-0.804-5.967l-1.137-5.956c-0.806-4.212-1.61-8.423-2.434-12.624
				c-1.464-7.513-2.562-15.301-4.743-22.663c0.169-0.334,0.188-0.76-0.051-1.242c-0.479-0.98-0.959-1.95-1.443-2.929
				c-0.209-0.432-0.561-0.719-0.944-0.864c-0.133-0.21-0.269-0.413-0.397-0.618c-1.09,0.345-2.186,0.683-3.283,1.003
				c1.069,1.587,2.142,3.156,3.22,4.726c0.256,0.368,0.62,0.584,1.004,0.677c0.326,3.372,0.968,6.737,1.517,10.081
				c0.665,4.095,1.429,8.184,2.148,12.273c0.703,3.979,1.415,7.957,2.14,11.93c0.344,1.931,0.693,3.862,1.044,5.792
				c-2.584-4.923-5.233-9.817-8.009-14.635c-0.292-0.509-1.185-0.381-0.916,0.273c2.823,6.931,5.91,13.755,9.063,20.546
				c1.587,3.394,3.163,6.807,4.792,10.186c1.578,3.278,2.967,6.79,4.903,9.863c0.036,0.053,0.071,0.094,0.106,0.134
				c-15.682,21.376-33.402,41.116-52.338,59.645c-5.17,5.062-10.625,9.846-15.746,14.955c-3.688-2.671-7.648-4.976-11.515-7.379
				c-2.912-1.814-5.87-3.799-8.926-5.454c-0.035-0.081-0.075-0.161-0.122-0.243c-1.396-2.347-3.799-4.376-5.652-6.366l-6.067-6.511
				c-3.955-4.251-7.927-8.487-11.774-12.833c-0.273-0.309-0.791-0.017-0.513,0.333c3.752,4.52,7.357,9.153,10.986,13.766
				c1.743,2.219,3.482,4.433,5.222,6.646c1.771,2.258,3.47,5.01,5.687,6.84c0.38,0.316,0.764,0.435,1.114,0.411
				c2.766,2.095,5.756,3.959,8.594,5.856c3.797,2.542,7.535,5.216,11.502,7.484c0.526,0.297,1.022,0.251,1.406,0.023
				c0.158,0,0.31-0.04,0.449-0.146c5.432-3.99,10.448-8.646,15.407-13.195c4.987-4.582,9.842-9.301,14.585-14.129
				c9.548-9.731,18.649-19.894,27.288-30.44c4.9-5.974,9.654-12.074,14.285-18.259C381.816,286.614,380.651,285.074,379.437,284.875
				z"/>
			<path d="M282.315,348.618c-12.106,4.873-23.925,10.588-35.836,15.927c-11.737,5.256-23.667,10.39-34.973,16.538
				c-0.689,0.374,0.054,1.446,0.706,1.214c12.304-4.341,24.257-9.836,36.19-15.098c11.842-5.222,23.895-10.127,35.528-15.803
				C285.507,350.625,283.803,348.019,282.315,348.618z"/>
			<path d="M164.908,332.373h-0.559c-0.409,0-0.269,0.596,0.094,0.596h0.565C165.41,332.968,165.27,332.373,164.908,332.373z"/>
			<path d="M213.117,380.324c-8.668-6.516-16.86-13.71-24.292-21.606c-3.635-3.862-7.109-7.864-10.431-12
				c-1.658-2.064-3.283-4.161-4.889-6.271c-1.557-2.043-2.98-4.703-5.01-6.302c-0.117-0.092-0.292-0.092-0.402-0.017
				c-4.446-3.018-8.972-5.856-13.57-8.652c-5.162-3.132-10.291-6.521-15.633-9.326c-0.425-0.229-0.834-0.217-1.177-0.076
				c-0.579-1.482-1.39-2.953-1.998-4.306c-1.001-2.264-2.064-4.504-3.119-6.737c-1.062-2.247-2.113-4.486-3.193-6.721
				c-1.06-2.198-1.941-4.754-3.428-6.691c-0.467-0.606-1.484-0.788-2.142-0.489c-0.198-0.223-0.392-0.443-0.579-0.666
				c-1.137-1.364-2.303-2.7-3.481-4.037c-2.199-2.49-4.433-4.952-6.674-7.414c-2.24-2.463-4.503-4.912-6.768-7.355
				c-1.598-1.721-3.145-3.612-4.807-5.345c0.229-0.303-0.122-0.92-0.496-1.014c-0.234-0.07-0.473-0.129-0.713-0.187
				c-0.389-0.362-0.781-0.724-1.183-1.057c-0.908-0.757-2.029-0.355-2.396,0.438c-3.021-0.362-6.132-0.422-9.101-0.631
				c-2.253-0.163-4.503-0.315-6.75-0.478c-1.797-0.128-3.663-0.396-5.494-0.443c-0.991-3.751-2.662-7.368-4.154-10.922
				c-1.786-4.27-3.396-8.797-5.594-12.88c-0.975-1.81-3.956-1.295-3.139,0.957c1.58,4.375,3.901,8.593,5.909,12.786
				c1.615,3.384,3.173,6.907,5.192,10.099c-1.657,0.275-1.318,2.725,0.269,2.986c2.21,0.362,4.538,0.246,6.771,0.321
				c2.358,0.081,4.715,0.164,7.072,0.245c3.214,0.116,6.579,0.426,9.858,0.303c1.978,2.497,4.48,4.738,6.646,7.036
				c2.233,2.361,4.473,4.713,6.731,7.059c2.303,2.404,4.615,4.796,6.958,7.163c1.168,1.179,2.347,2.356,3.542,3.507
				c0.701,0.671,1.395,1.476,2.218,2.036c0.729,1.925,1.889,3.755,2.817,5.559c1.19,2.327,2.408,4.639,3.623,6.953
				c1.218,2.316,2.427,4.65,3.715,6.925c1.085,1.931,2.031,4.223,3.582,5.822c0.201,0.197,0.474,0.197,0.671,0.082
				c4.802,3.051,9.912,5.717,14.871,8.504c5.11,2.871,10.228,5.659,15.488,8.237c0.776,1.855,2.16,3.61,3.203,5.216
				c1.435,2.224,2.946,4.393,4.508,6.522c3.31,4.504,6.88,8.819,10.635,12.948c7.429,8.168,15.56,15.647,24.39,22.273
				C212.925,383.999,214.891,381.653,213.117,380.324z"/>
			<path d="M188.068,79.784c-4.154-2.764-8.542-5.197-12.828-7.746c-0.21-0.125-0.392,0.195-0.193,0.327
				c4.154,2.769,8.249,5.673,12.542,8.225C188.101,80.896,188.557,80.108,188.068,79.784z"/>
			<path d="M133.01,102.387c-0.875-0.621-1.762-1.234-2.662-1.824c-0.068-0.045-0.133-0.07-0.202-0.082
				c-0.076-0.058-0.153-0.117-0.229-0.178c-0.227-0.178-0.472-0.099-0.583,0.067c-0.484-0.271-0.975-0.537-1.465-0.784
				c-0.233-0.117-0.412,0.195-0.202,0.347c1.125,0.826,2.302,1.593,3.493,2.336c0.054,0.044,0.105,0.088,0.164,0.128
				c0.063,0.053,0.127,0.082,0.192,0.096c0.04,0.029,0.086,0.056,0.128,0.082c0.158,0.098,0.297,0.066,0.396-0.023
				c0.215,0.131,0.426,0.263,0.636,0.391C133.032,103.16,133.338,102.624,133.01,102.387z"/>
			<path d="M102.138,161.91c-1.37-1.342-2.793-2.742-4.316-3.906c-0.128-0.099-0.332,0.043-0.204,0.18
				c1.3,1.433,2.829,2.736,4.299,3.996C102.11,162.347,102.315,162.085,102.138,161.91z"/>
			<path d="M104.945,162.333c-2.188-1.995-4.399-3.969-6.656-5.883c-0.123-0.104-0.259,0.064-0.14,0.172
				c2.163,2.022,4.381,3.991,6.614,5.933C104.922,162.689,105.096,162.47,104.945,162.333z"/>
			<path d="M106.748,162.321c-2.502-2.392-4.989-4.798-7.543-7.131c-0.116-0.111-0.25,0.061-0.139,0.172
				c2.46,2.43,4.994,4.792,7.507,7.167C106.72,162.662,106.881,162.452,106.748,162.321z"/>
			<path d="M111.741,163.77c-3.733-3.31-7.637-6.442-11.474-9.631c-0.133-0.11-0.287,0.074-0.158,0.188
				c3.799,3.244,7.548,6.557,11.44,9.678C111.718,164.141,111.905,163.914,111.741,163.77z"/>
			<path d="M117.039,164.218c-4.727-3.997-9.498-7.932-14.276-11.864c-0.122-0.102-0.26,0.071-0.14,0.172
				c4.727,3.993,9.452,7.986,14.229,11.915C117.015,164.576,117.196,164.354,117.039,164.218z"/>
			<path d="M118.519,162.003c-3.243-3.08-6.672-5.982-10.004-8.959c-0.133-0.121-0.292,0.069-0.157,0.189
				c3.308,3.01,6.544,6.122,9.945,9.03C118.491,162.423,118.696,162.169,118.519,162.003z"/>
			<path d="M118.573,159.083c-2.761-2.5-5.705-4.806-8.565-7.192c-0.128-0.111-0.279,0.073-0.15,0.183
				c2.806,2.448,5.553,4.994,8.458,7.322C118.542,159.579,118.783,159.279,118.573,159.083z"/>
			<path d="M120.066,157.938c-2.422-2.237-5.031-4.288-7.561-6.392c-0.13-0.107-0.275,0.068-0.145,0.181
				c2.448,2.199,4.858,4.483,7.419,6.548C120.03,158.477,120.293,158.15,120.066,157.938z"/>
			<path d="M123.625,156.531c-1.885-1.918-4.014-3.655-6.055-5.396c-0.147-0.122-0.297,0.07-0.17,0.198
				c1.936,1.865,3.875,3.819,5.969,5.501C123.594,157.015,123.816,156.729,123.625,156.531z"/>
			<path d="M125.048,156.181c-2.321-1.866-4.794-3.566-7.2-5.317c-0.133-0.096-0.279,0.074-0.145,0.176
				c2.35,1.823,4.673,3.715,7.109,5.419C125.023,156.607,125.251,156.348,125.048,156.181z"/>
			<path d="M125.403,154.752c-1.487-1.263-3.127-2.372-4.69-3.538c-0.142-0.105-0.297,0.078-0.158,0.188
				c1.529,1.211,3.021,2.512,4.622,3.623C125.387,155.169,125.602,154.921,125.403,154.752z"/>
			<path d="M125.794,152.923c-0.823-0.731-1.676-1.43-2.509-2.144c-0.127-0.114-0.281,0.07-0.152,0.187
				c0.822,0.728,1.627,1.479,2.468,2.19C125.771,153.299,125.958,153.069,125.794,152.923z"/>
			<path d="M97.442,178.063l-0.711-0.715c-0.115-0.113-0.257,0.062-0.146,0.172c0.239,0.24,0.478,0.479,0.718,0.714
				C97.42,178.349,97.561,178.177,97.442,178.063z"/>
			<path d="M99.583,178.841c-1.955-2.447-4.082-4.754-6.106-7.143c-0.117-0.132-0.339-0.003-0.215,0.14
				c2.013,2.389,3.93,4.874,6.02,7.202C99.444,179.224,99.752,179.054,99.583,178.841z"/>
			<path d="M101.025,178.112c-2.275-3.299-4.807-6.422-7.175-9.657c-0.1-0.137-0.315-0.011-0.205,0.134
				c2.363,3.232,4.568,6.59,7.018,9.757C100.843,178.577,101.207,178.369,101.025,178.112z"/>
			<path d="M103.293,176.555c-0.244-0.34-0.494-0.68-0.74-1.021c-0.06-0.08-0.133-0.105-0.21-0.094
				c-2.697-3.176-5.449-6.303-8.132-9.485c-0.111-0.131-0.337-0.002-0.215,0.141c2.999,3.549,5.91,7.168,8.918,10.71
				C103.114,177.042,103.494,176.829,103.293,176.555z"/>
			<path d="M103.999,174.453c-2.339-2.984-5.057-5.721-7.589-8.541c-0.115-0.131-0.344-0.006-0.215,0.143
				c2.467,2.894,4.831,5.961,7.486,8.684C103.866,174.927,104.164,174.668,103.999,174.453z"/>
			<path d="M105.441,172.653c-2.147-2.719-4.498-5.292-6.796-7.885c-0.145-0.169-0.438-0.009-0.28,0.184
				c2.193,2.671,4.362,5.398,6.703,7.948C105.272,173.118,105.651,172.917,105.441,172.653z"/>
			<path d="M107.43,171.372c-1.821-2.124-3.798-4.132-5.746-6.14c-0.105-0.107-0.285,0.041-0.187,0.164
				c1.809,2.132,3.622,4.291,5.566,6.307C107.272,171.922,107.641,171.617,107.43,171.372z"/>
			<path d="M109.724,169.8c-1.489-1.625-3.157-3.113-4.75-4.637c-0.138-0.137-0.297,0.072-0.17,0.21
				c1.512,1.577,2.989,3.234,4.6,4.712C109.6,170.261,109.911,170.007,109.724,169.8z"/>
			<path d="M112.539,167.685c-0.699-0.749-1.48-1.429-2.205-2.155c-0.127-0.125-0.279,0.066-0.155,0.189
				c0.716,0.715,1.387,1.485,2.128,2.173C112.447,168.024,112.674,167.833,112.539,167.685z"/>
			<path d="M92.794,185.568c-2.06-2.088-4.252-4.122-6.487-6.026c-0.124-0.107-0.326,0.049-0.204,0.18
				c2.041,2.136,4.201,4.227,6.417,6.178C92.759,186.11,93.004,185.783,92.794,185.568z"/>
			<path d="M93.822,183.421c-0.095-0.039-0.165-0.023-0.217,0.014c-1.745-2.077-3.565-4.098-5.361-6.128
				c-0.117-0.131-0.34-0.006-0.217,0.144c1.866,2.281,3.722,4.59,5.664,6.81c0.089,0.096,0.309,0.192,0.397,0.041
				C94.327,183.912,94.257,183.604,93.822,183.421z"/>
			<path d="M95.845,182.625c-1.903-2.515-3.897-4.956-5.81-7.458c-0.105-0.141-0.329-0.009-0.215,0.137
				c1.913,2.5,3.744,5.063,5.67,7.551C95.669,183.086,96.031,182.869,95.845,182.625z"/>
			<path d="M98.294,182.666c-1.913-2.818-4.102-5.466-6.137-8.199c-0.105-0.14-0.32-0.009-0.21,0.139
				c2.007,2.751,3.883,5.618,6.01,8.282C98.131,183.109,98.47,182.914,98.294,182.666z"/>
			<path d="M97.547,179.107c-0.962-1.539-1.948-3.071-2.928-4.608c-0.094-0.151-0.309-0.018-0.217,0.144
				c0.929,1.565,1.851,3.138,2.795,4.695C97.35,179.588,97.71,179.367,97.547,179.107z"/>
			<path d="M136.831,169.147c-2.823-3.968-5.665-7.922-8.634-11.782c-0.105-0.135-0.309-0.011-0.208,0.137
				c2.77,4.002,5.669,7.918,8.585,11.813C136.702,169.485,136.961,169.33,136.831,169.147z"/>
			<path d="M141.347,170.331c-3.885-5.049-7.904-10-11.866-14.99c-0.105-0.131-0.315-0.009-0.205,0.131
				c3.927,5.014,7.806,10.075,11.803,15.031C141.218,170.672,141.492,170.515,141.347,170.331z"/>
			<path d="M144.87,169.657c-4.381-5.957-8.996-11.751-13.541-17.586c-0.115-0.142-0.344-0.008-0.227,0.146
				c4.444,5.906,8.83,11.875,13.44,17.652C144.707,170.077,145.039,169.887,144.87,169.657z"/>
			<path d="M150.411,170.954c-4.631-6.901-10.051-13.391-15.107-19.985c-0.117-0.143-0.34-0.012-0.229,0.146
				c4.925,6.697,9.643,13.706,14.971,20.079C150.238,171.424,150.593,171.223,150.411,170.954z"/>
			<path d="M155.254,171.089c-2.405-3.389-5.065-6.622-7.614-9.903c-2.55-3.29-5.029-6.656-7.694-9.85
				c-0.14-0.169-0.407-0.021-0.269,0.175c2.403,3.392,5.017,6.65,7.537,9.955c2.515,3.304,4.958,6.708,7.614,9.902
				C155.049,171.635,155.476,171.395,155.254,171.089z"/>
			<path d="M160.539,171.591c-4.678-6.762-10.062-13.138-15.121-19.621c-0.11-0.141-0.333-0.013-0.215,0.142
				c4.917,6.581,9.649,13.453,14.934,19.744C160.347,172.109,160.749,171.886,160.539,171.591z"/>
			<path d="M166.151,171.685c-2.229-3.204-4.771-6.219-7.17-9.299c-2.403-3.092-4.776-6.209-7.251-9.244
				c-0.104-0.128-0.309-0.012-0.204,0.132c2.298,3.164,4.702,6.253,7.07,9.363c2.363,3.104,4.626,6.332,7.151,9.307
				C165.958,172.188,166.35,171.972,166.151,171.685z"/>
			<path d="M170.123,172.366c-5.226-7.56-11.043-14.776-16.584-22.107c-0.1-0.133-0.315-0.008-0.21,0.139
				c5.425,7.414,10.658,15.056,16.393,22.234C169.926,172.885,170.32,172.659,170.123,172.366z"/>
			<path d="M172.643,169.487c-3.693-5.442-7.672-10.721-11.544-16.039c-0.112-0.149-0.337-0.015-0.222,0.145
				c3.746,5.403,7.42,10.892,11.352,16.167C172.433,170.036,172.848,169.788,172.643,169.487z"/>
			<path d="M178.371,169.131c-4.473-5.696-9.134-11.421-14.006-16.782c-0.128-0.137-0.362-0.015-0.234,0.151
				c4.365,5.776,9.136,11.405,13.903,16.854C178.214,169.558,178.558,169.368,178.371,169.131z"/>
			<path d="M181.044,167.839c-1.954-2.977-4.266-5.766-6.407-8.612c-2.146-2.859-4.223-5.799-6.504-8.553
				c-0.1-0.125-0.292-0.014-0.197,0.131c1.99,2.966,4.213,5.79,6.335,8.66c2.123,2.865,4.129,5.875,6.427,8.598
				C180.881,168.28,181.213,168.093,181.044,167.839z"/>
			<path d="M185.017,166.028c-4.212-5.671-8.6-11.212-12.94-16.783c-0.11-0.137-0.325-0.009-0.21,0.14
				c4.252,5.633,8.47,11.303,12.857,16.836C184.87,166.407,185.167,166.235,185.017,166.028z"/>
			<path d="M191.306,169.45c-4.313-5.878-9.101-11.455-13.646-17.151c-0.105-0.134-0.326-0.009-0.21,0.14
				c4.493,5.731,8.815,11.673,13.541,17.215C191.154,169.85,191.469,169.674,191.306,169.45z"/>
			<path d="M195.505,168.8c-2.712-4.262-5.751-8.345-8.632-12.499c-0.105-0.158-0.341-0.015-0.229,0.152
				c2.817,4.191,5.513,8.508,8.5,12.583C195.318,169.28,195.673,169.064,195.505,168.8z"/>
			<path d="M200.423,168.52c-4.311-5.951-8.704-12.047-13.445-17.659c-0.119-0.137-0.334-0.017-0.224,0.146
				c4.103,6.089,8.781,11.967,13.337,17.73C200.259,168.951,200.592,168.755,200.423,168.52z"/>
			<path d="M205.234,168.752c-4.462-6.519-9.461-12.732-14.216-19.044c-0.099-0.131-0.297-0.012-0.197,0.128
				c4.66,6.376,9.159,12.959,14.099,19.121C205.084,169.159,205.393,168.98,205.234,168.752z"/>
			<path d="M208.795,169.482c-4.573-6.601-9.241-13.19-14.06-19.609c-0.098-0.129-0.29-0.015-0.198,0.125
				c4.509,6.645,9.218,13.201,13.971,19.67C208.647,169.858,208.935,169.686,208.795,169.482z"/>
			<path d="M210.468,167.417c-3.576-5.21-7.343-10.303-11.013-15.447c-0.1-0.134-0.309-0.013-0.206,0.133
				c3.641,5.166,7.193,10.404,10.927,15.503C210.315,167.799,210.615,167.626,210.468,167.417z"/>
			<path d="M214.744,168.86c-3.955-5.792-8.079-11.48-12.128-17.206c-0.105-0.151-0.334-0.014-0.222,0.144
				c4.014,5.752,7.964,11.558,12.076,17.241C214.604,169.22,214.872,169.056,214.744,168.86z"/>
			<path d="M218.729,168.476c-3.637-4.938-7.415-9.771-11.132-14.648c-0.117-0.152-0.355-0.012-0.231,0.151
				c3.68,4.903,7.297,9.856,11.054,14.694C218.576,168.871,218.886,168.691,218.729,168.476z"/>
			<path d="M221.203,166.005c-4.025-5.127-8.269-10.1-12.403-15.135c-0.129-0.155-0.384-0.007-0.25,0.161
				c4.095,5.068,8.108,10.221,12.32,15.193C221.039,166.431,221.382,166.238,221.203,166.005z"/>
			<path d="M223.892,164.786c-3.313-4.673-6.721-9.278-10.104-13.901c-0.119-0.158-0.357-0.014-0.233,0.155
				c3.296,4.679,6.569,9.378,9.939,14.003C223.687,165.309,224.089,165.065,223.892,164.786z"/>
			<path d="M228.67,164.956c-3.216-4.663-6.69-9.297-10.273-13.684c-0.105-0.131-0.309-0.014-0.211,0.137
				c3.175,4.688,6.616,9.343,10.163,13.758C228.512,165.375,228.832,165.188,228.67,164.956z"/>
			<path d="M231.125,163.211c-2.812-3.824-5.858-7.491-8.797-11.219c-0.105-0.125-0.304-0.006-0.198,0.131
				c2.889,3.76,5.692,7.613,8.715,11.271C230.985,163.569,231.271,163.408,231.125,163.211z"/>
			<path d="M232.76,161.624c-2.685-3.702-5.724-7.187-8.605-10.734c-0.094-0.113-0.286-0.006-0.188,0.123
				c2.806,3.602,5.52,7.344,8.519,10.785C232.631,161.965,232.897,161.817,232.76,161.624z"/>
			<path d="M235.64,161.965c-2.934-3.733-5.969-7.398-8.959-11.09c-0.104-0.13-0.32-0.005-0.21,0.138
				c2.938,3.728,5.843,7.486,8.836,11.171C235.482,162.395,235.826,162.196,235.64,161.965z"/>
			<path d="M239.63,162.642c-3.018-3.771-6.182-7.423-9.292-11.116c-0.11-0.128-0.326-0.006-0.211,0.137
				c3.04,3.739,6.033,7.535,9.17,11.194C239.473,163.059,239.805,162.869,239.63,162.642z"/>
			<path d="M241.683,161.635c-2.319-3.266-4.764-6.452-7.216-9.625c-0.092-0.122-0.279-0.012-0.186,0.123
				c2.326,3.261,4.66,6.524,7.11,9.692C241.544,162.011,241.83,161.843,241.683,161.635z"/>
			<path d="M244.198,161.985c-2.51-3.538-5.231-6.938-7.853-10.396c-0.099-0.13-0.304-0.008-0.204,0.129
				c2.584,3.488,5.081,7.052,7.769,10.453C244.058,162.356,244.343,162.19,244.198,161.985z"/>
			<path d="M246.047,161.227c-2.42-3.165-5.034-6.194-7.56-9.275c-0.117-0.14-0.346-0.006-0.223,0.146
				c2.474,3.118,4.884,6.307,7.467,9.336C245.896,161.627,246.216,161.448,246.047,161.227z"/>
			<path d="M248.911,162.66c-2.474-3.562-5.298-6.898-7.915-10.352c-0.117-0.151-0.358-0.012-0.234,0.151
				c2.619,3.451,5.075,7.067,7.834,10.404C248.762,163.062,249.068,162.887,248.911,162.66z"/>
			<path d="M251.688,163.441c-2.845-4.028-5.984-7.875-9-11.778c-0.111-0.146-0.344-0.009-0.229,0.148
				c2.935,3.961,5.781,8.024,8.886,11.854C251.519,163.885,251.856,163.688,251.688,163.441z"/>
			<path d="M253.216,163.009c-2.743-4.016-5.704-7.896-8.562-11.83c-0.11-0.151-0.347-0.015-0.229,0.148
				c2.807,3.967,5.524,8.021,8.449,11.907C253.042,163.458,253.386,163.257,253.216,163.009z"/>
			<path d="M254.22,160.916c-2.404-3.293-5.005-6.453-7.494-9.684c-0.119-0.149-0.356-0.009-0.236,0.151
				c2.474,3.24,4.842,6.578,7.392,9.753C254.052,161.352,254.394,161.158,254.22,160.916z"/>
			<path d="M257.154,161.936c-2.182-3.509-4.555-6.916-6.864-10.335c-0.114-0.16-0.341-0.02-0.236,0.153
				c2.207,3.488,4.377,7.029,6.717,10.43C256.951,162.447,257.33,162.217,257.154,161.936z"/>
			<path d="M260.083,161.968c-2.013-3.546-4.362-6.938-6.552-10.383c-0.098-0.158-0.325-0.018-0.227,0.148
				c2.11,3.468,4.095,7.062,6.37,10.424C259.82,162.374,260.235,162.224,260.083,161.968z"/>
			<path d="M262.439,162.399c-1.86-3.771-4.014-7.489-6.195-11.086c-0.082-0.131-0.316-0.041-0.24,0.108
				c1.879,3.763,3.886,7.561,6.085,11.145C262.206,162.758,262.55,162.627,262.439,162.399z"/>
			<path d="M265.019,161.647c-2.242-3.967-4.655-7.846-6.988-11.76c-0.082-0.134-0.328-0.035-0.24,0.114
				c2.281,3.941,4.486,7.933,6.859,11.818C264.772,162.021,265.152,161.877,265.019,161.647z"/>
			<path d="M268.052,162.42c-2.481-4.022-5.187-7.919-7.794-11.86c-0.117-0.178-0.38-0.021-0.257,0.166
				c2.561,3.971,5.041,8.015,7.725,11.906C267.881,162.855,268.197,162.656,268.052,162.42z"/>
			<path d="M270.391,161.936c-2.21-3.372-4.567-6.656-6.861-9.979c-0.098-0.143-0.309-0.014-0.208,0.134
				c2.24,3.357,4.421,6.761,6.736,10.063C270.215,162.383,270.549,162.178,270.391,161.936z"/>
			<path d="M273.257,161.936c-2.319-3.386-4.77-6.688-7.166-10.02c-0.1-0.137-0.31-0.012-0.209,0.138
				c2.339,3.368,4.63,6.778,7.052,10.091C273.091,162.358,273.411,162.167,273.257,161.936z"/>
			<path d="M274.694,160.854c-2.109-2.888-4.304-5.72-6.48-8.564c-0.11-0.146-0.338-0.011-0.22,0.146
				c2.109,2.884,4.21,5.786,6.386,8.621C274.538,161.266,274.858,161.076,274.694,160.854z"/>
			<path d="M276.831,161.938c-1.751-2.885-3.606-5.71-5.414-8.56c-0.105-0.164-0.344-0.018-0.238,0.154
				c1.771,2.876,3.498,5.781,5.325,8.622C276.65,162.383,276.977,162.181,276.831,161.938z"/>
			<path d="M279.363,160.197c-1.389-2.529-2.876-5.008-4.318-7.508c-0.109-0.19-0.461-0.114-0.337,0.103
				c1.43,2.526,2.815,5.075,4.3,7.572C279.124,160.556,279.484,160.419,279.363,160.197z"/>
			<path d="M282.758,162.758c-2.212-3.374-4.492-6.707-6.744-10.057c-0.115-0.168-0.365-0.016-0.25,0.162
				c2.216,3.374,4.41,6.764,6.667,10.112C282.584,163.199,282.914,162.998,282.758,162.758z"/>
			<path d="M285.435,161.571c-2.298-3.395-4.795-6.67-7.203-9.99c-0.128-0.178-0.401-0.017-0.269,0.173
				c2.362,3.354,4.649,6.775,7.118,10.05C285.254,162.035,285.605,161.829,285.435,161.571z"/>
			<path d="M289.792,162.598c-2.263-3.416-4.778-6.685-7.169-10.011c-0.14-0.195-0.437-0.018-0.292,0.19
				c2.353,3.351,4.615,6.801,7.096,10.062C289.612,163.08,289.975,162.867,289.792,162.598z"/>
			<path d="M293.713,162.965c-2.589-3.683-5.489-7.169-8.248-10.727c-0.141-0.181-0.426-0.012-0.278,0.183
				c2.705,3.593,5.308,7.306,8.183,10.771C293.544,163.408,293.895,163.214,293.713,162.965z"/>
			<path d="M296.542,161.922c-2.42-3.402-5.022-6.68-7.55-10c-0.154-0.204-0.477-0.014-0.313,0.204
				c2.479,3.355,4.896,6.771,7.479,10.043C296.35,162.418,296.734,162.192,296.542,161.922z"/>
			<path d="M298.701,161.913c-2.473-3.25-5.04-6.425-7.562-9.634c-0.139-0.178-0.417-0.012-0.272,0.178
				c2.468,3.247,4.895,6.525,7.415,9.73C298.496,162.458,298.928,162.205,298.701,161.913z"/>
			<path d="M303.725,164.847c-2.627-4.675-5.326-9.308-8.022-13.945c-0.092-0.164-0.397-0.047-0.297,0.137
				c2.597,4.661,5.186,9.328,7.845,13.95C303.409,165.258,303.898,165.153,303.725,164.847z"/>
			<path d="M307.957,165.042c-3.096-4.92-6.49-9.674-9.758-14.487c-0.115-0.175-0.374-0.018-0.256,0.166
				c3.189,4.862,6.275,9.827,9.63,14.575C307.76,165.559,308.139,165.328,307.957,165.042z"/>
			<path d="M311.58,166.212c-3.172-4.688-6.48-9.284-9.748-13.904c-0.139-0.198-0.436-0.02-0.288,0.192
				c3.172,4.683,6.312,9.396,9.582,14.01C311.342,166.815,311.804,166.539,311.58,166.212z"/>
			<path d="M313.955,166.956c-0.18-0.351-0.362-0.697-0.542-1.046c-0.059-0.109-0.163-0.16-0.263-0.164
				c-2.783-4.147-5.577-8.284-8.365-12.419c-0.134-0.193-0.414-0.021-0.285,0.181c2.981,4.564,5.949,9.135,8.947,13.686
				C313.623,167.46,314.126,167.28,313.955,166.956z"/>
			<path d="M315.933,166.171c-2.887-4.589-6.008-9.045-9.041-13.537c-0.117-0.18-0.387-0.02-0.263,0.169
				c2.929,4.565,5.786,9.191,8.854,13.66C315.692,166.772,316.144,166.498,315.933,166.171z"/>
			<path d="M318.203,165.608c-3.268-5.241-6.843-10.319-10.291-15.444c-0.129-0.183-0.397-0.02-0.273,0.178
				c3.325,5.209,6.558,10.509,10.057,15.599C317.934,166.288,318.435,165.982,318.203,165.608z"/>
			<path d="M320.484,165.235c-3.239-5.261-6.709-10.48-10.263-15.538c-0.121-0.174-0.367-0.02-0.252,0.169
				c2.977,4.984,6.115,9.955,9.383,14.771c0.005,0.023,0.011,0.043,0.022,0.067c0.197,0.285,0.396,0.575,0.596,0.863
				C320.209,165.917,320.712,165.608,320.484,165.235z"/>
			<path d="M323.055,164.404c-3.604-5.075-7.449-9.993-11.178-14.979c-0.109-0.154-0.349-0.011-0.231,0.152
				c3.658,5.031,7.223,10.154,11.002,15.091C322.853,164.935,323.26,164.692,323.055,164.404z"/>
		</g>
		<g>
			<path d="M295.154,173.877c-27.85-7.406-58.055-7.021-85.946-0.108c-8.016,1.987-15.878,4.512-23.551,7.572
				c-0.385,0.151-0.093,0.731,0.257,0.594c26.915-10.438,56.356-14.263,85.069-11.255c8.114,0.849,16.119,2.33,24.069,4.133
				C295.716,174.962,295.73,174.032,295.154,173.877z"/>
			<path d="M386.695,169.417c-15.495,0.601-30.947,2.477-46.157,5.524c-5.114,1.371-10.214,3.173-15.522,3.547
				c-3.948,1.009-7.881,2.091-11.783,3.258c-6.79,2.028-13.486,4.329-20.104,6.849c-0.436,0.166-0.11,0.823,0.292,0.677
				c23.437-8.481,47.831-14.327,72.612-17.093c6.919-0.772,13.872-1.329,20.832-1.688
				C387.603,170.453,387.348,169.392,386.695,169.417z"/>
			<path d="M394.378,163.024c-13.704-0.589-27.547,0.25-41.169,1.723c-13.469,1.455-26.81,3.81-39.966,7.059
				c-0.384,0.094-0.099,0.646,0.244,0.569c13.383-2.978,26.945-5.229,40.58-6.645c13.468-1.4,26.933-1.7,40.46-1.762
				C395.188,163.969,394.943,163.05,394.378,163.024z"/>
			<path d="M344.739,217.678c-13.091,4.188-26.291,7.98-39.941,9.865c-11.066,1.527-22.309,1.691-33.327-0.292
				c-0.456-0.082-0.486,0.571-0.072,0.652c30.031,5.543,58.763-4.415,87.189-13.719C354.032,215.613,349.429,216.89,344.739,217.678
				z"/>
			<path d="M419.071,200.136c-17.689,0.152-35.036,4.884-51.824,10.221c0.22,0.42,0.144,0.975-0.423,1.167
				c6.312-2.006,12.607-3.902,18.913-5.506c10.997-2.812,22.115-4.615,33.468-5.035
				C419.788,200.959,419.584,200.131,419.071,200.136z"/>
			<path d="M395.591,198.917c-27.745,5.006-55.413,10.414-83.134,15.546c-0.374,0.07-0.101,0.619,0.238,0.562
				c8.29-1.54,16.58-3.052,24.869-4.562c8.609-2.683,17.739-2.858,26.462-5.099c0.302-0.069,0.564,0,0.769,0.152
				c10.385-1.901,20.767-3.821,31.142-5.799C396.472,199.613,396.074,198.831,395.591,198.917z"/>
			<path d="M217.639,167.244c-26.193,7.313-53.103,9.655-80.184,7.237c-0.355-0.028-0.297,0.549,0.018,0.586
				c26.812,3.316,54.672,0.828,80.533-6.972C218.571,167.927,218.15,167.102,217.639,167.244z"/>
			<path d="M297.272,162.718c-22.419,0.026-44.859,0.403-67.274,0.913c-0.407,0.008-0.262,0.592,0.096,0.592
				c22.434-0.014,44.889-0.16,67.312-0.659C297.988,163.549,297.785,162.714,297.272,162.718z"/>
			<path d="M294.245,206.635c-34.867,11.137-71.45,16.065-108.015,13.552c-10.424-0.718-20.804-2.018-31.088-3.891
				c-0.514-0.094-0.542,0.641-0.075,0.734c36.145,6.837,73.538,6.335,109.507-1.383c10.15-2.175,20.144-4.953,29.944-8.382
				C294.939,207.125,294.629,206.507,294.245,206.635z"/>
			<path d="M85.397,191.748c5.396,1.044,10.85,1.447,16.334,1.619c-3.751-0.487-7.497-1.062-11.219-1.68
				c0.841-1.31,1.728-2.59,2.679-3.817c2.748-3.539,5.851-6.788,9.245-9.708c0.31-0.268-0.105-0.799-0.419-0.553
				c-4.958,3.893-9.573,8.554-13.26,13.781c-1.553-0.262-3.098-0.531-4.644-0.805c2.298-4.653,4.479-9.375,6.668-14.056
				c1.819-3.891,3.64-7.779,5.454-11.667c0.03-0.059,0.052-0.114,0.084-0.169c3.902-0.259,7.813-0.294,11.757-0.012
				c8.109,0.575,16.079,2.554,23.249,6.455c0.553,0.301,0.839-0.516,0.321-0.802c-11.032-6.113-22.793-7.558-34.751-6.846
				c0.019-0.035,0.035-0.073,0.054-0.108c-1.197,0.041-2.392,0.062-3.589,0.062c-0.053,0.107-0.098,0.218-0.152,0.329
				c-15.901,1.5-32.061,6.347-47.216,8.677c-9.194,1.415-18.481,1.92-27.727,0.692c-0.689-0.09-0.73,0.877-0.1,0.978
				c25.252,4.076,49.556-6.604,74.489-9.119c-1.487,3.291-2.976,6.583-4.463,9.874c-2.286,5.049-4.609,10.115-6.777,15.234
				c-1.11-0.194-2.219-0.394-3.327-0.592c-7.227-1.289-14.497-2.564-21.829-3.094c-0.385-0.03-0.31,0.557,0.018,0.612
				c5.984,1.03,11.959,2.133,17.931,3.226C77.9,189.861,81.89,191.072,85.397,191.748z"/>
			<path d="M153.771,189.377c-9.426,3.684-19.145,5.203-28.963,5.428c-1.424,0.286-2.876,0.469-4.351,0.51
				c-2.632,0.07-5.27-0.16-7.899-0.125c-2.742,0.035-5.466,0.07-8.207-0.012c-0.224-0.006-0.443-0.015-0.661-0.021
				c10.169,1.275,20.465,1.78,30.655,0.597c6.878-0.8,13.597-2.392,20.014-5.009C155.236,190.389,154.577,189.062,153.771,189.377z"
				/>
			<path d="M216.285,241.614c-18.481-4.055-37.248-6.791-56.121-8.237c0.176-0.584,0.358-1.166,0.544-1.744
				c0.012-0.029,0.012-0.064,0.012-0.094c0.391,0.59,0.776,1.18,1.173,1.762c0.325,0.484,1.015,0.059,0.7-0.461
				c-6.341-10.512-13.285-20.708-19.976-31.011c7.228-1.073,14.316-2.967,20.997-6.012c0.891-0.408,0.21-1.796-0.619-1.435
				c-24.5,10.713-50.957,6.764-77.061,5.113c0.039-0.022,0.081-0.062,0.115-0.1c-3.308,0.13-6.614,0.077-9.917-0.309
				c-0.086-0.012-0.168-0.038-0.238-0.073c-5.608-0.169-11.177-0.131-16.696,0.285c-9.562,0.728-19.03,2.682-27.867,6.474
				c-0.403,0.169-0.099,0.787,0.274,0.63c14.548-5.98,29.71-6.907,45.053-6.302c-1.225,1.437-2.466,2.877-3.588,4.388
				c-0.547-0.11-1.136,0.058-1.464,0.666c-2.912,5.354-4.678,11.62-5.781,17.581c-11.982,0.059-23.964,0.116-35.952,0.164
				c-9.76,0.045-19.55-0.082-29.303,0.232c-0.701,0.023-0.443,0.993,0.158,1.005c17.151,0.367,34.354-0.094,51.504-0.188
				c3.453-0.023,6.907-0.041,10.36-0.064c2.409-0.379,4.883-0.326,7.314-0.094c0.182,0.012,0.364,0.029,0.551,0.048
				c11.082-0.065,22.167-0.141,33.251-0.211c9.765-0.064,19.53-0.181,29.295-0.302c0.489-0.007,0.315-0.707-0.11-0.707
				c-21.45-0.047-42.906,0.018-64.362,0.104c1.293-5.693,3.425-10.919,5.739-16.275c0.082-0.192,0.117-0.379,0.117-0.56
				c1.868-1.773,3.569-3.764,5.326-5.647c18.737,0.975,37.703,3.886,56.106,2.368c2.048-0.168,4.089-0.396,6.125-0.688
				c6.167,9.771,12.153,19.706,18.564,29.307c-0.141-0.069-0.309-0.058-0.367,0.13c-0.224,0.652-0.449,1.312-0.678,1.971
				c-20.837-1.562-41.791-1.551-62.611,0.012c-9.632,0.724-19.245,1.773-28.783,3.314c-0.533,0.187-1.068,0.373-1.594,0.565
				c-0.543,0.203-1.09,0.408-1.644,0.612c0.051-0.012,0.105-0.012,0.157-0.023c0.105,1.132,0.229,2.264,0.355,3.396
				c0.059,0.565,1.126,0.776,1.12,0.105c-0.01-1.22,0.012-2.456,0.071-3.699c18.824-2.381,37.672-4.083,56.666-4.293
				c11.972-0.135,23.941,0.256,35.876,1.144c-1.106,3.208-2.246,6.405-3.296,9.624c-1.329,4.062-2.934,8.121-3.884,12.286
				c-0.089,0.386,0.561,0.63,0.724,0.251c1.726-3.984,2.834-8.302,4.181-12.431c1.05-3.209,2.007-6.453,3.004-9.678
				c7.712,0.588,15.413,1.382,23.085,2.385c11.164,1.459,22.272,3.36,33.297,5.66C216.856,242.699,216.891,241.743,216.285,241.614z
				"/>
		</g>
		<path d="M188.68,191.582c-1.145-1.693-2.323-3.362-3.495-5.039c-0.1-0.146-0.32-0.015-0.215,0.143
			c1.142,1.691,2.281,3.389,3.453,5.063C188.545,191.917,188.802,191.762,188.68,191.582z"/>
		<path d="M190.524,190.984c-1.133-1.806-2.318-3.579-3.478-5.368c-0.092-0.139-0.297-0.016-0.204,0.132
			c1.143,1.8,2.268,3.61,3.441,5.392C190.396,191.308,190.634,191.16,190.524,190.984z"/>
		<path d="M191.866,189.351c-1.384-2.199-2.765-4.398-4.154-6.597c-0.095-0.152-0.316-0.018-0.217,0.143
			c1.353,2.22,2.7,4.439,4.055,6.661C191.689,189.779,192.012,189.584,191.866,189.351z"/>
		<path d="M194.695,189.363c-1.664-2.646-3.385-5.256-5.076-7.879c-0.111-0.166-0.35-0.017-0.24,0.155
			c1.673,2.636,3.321,5.294,5.028,7.91C194.537,189.748,194.824,189.569,194.695,189.363z"/>
		<path d="M197.284,188.756c-1.76-3.089-3.623-6.12-5.459-9.165c-0.087-0.143-0.351-0.041-0.259,0.119
			c1.776,3.078,3.518,6.175,5.362,9.208C197.052,189.112,197.407,188.975,197.284,188.756z"/>
		<path d="M199.133,188.143c-1.731-3.104-3.593-6.134-5.407-9.188c-0.087-0.148-0.362-0.041-0.267,0.122
			c1.777,3.074,3.516,6.18,5.377,9.205C198.936,188.447,199.238,188.33,199.133,188.143z"/>
		<path d="M200.972,186.859c-1.671-2.64-3.378-5.255-5.075-7.877c-0.095-0.149-0.311-0.018-0.215,0.139
			c1.672,2.637,3.336,5.283,5.039,7.903C200.831,187.198,201.089,187.043,200.972,186.859z"/>
		<path d="M204.168,189.678c-2.188-3.594-4.416-7.161-6.632-10.737c-0.101-0.161-0.339-0.018-0.234,0.151
			c2.205,3.585,4.399,7.175,6.627,10.74C204.035,189.998,204.272,189.852,204.168,189.678z"/>
		<path d="M207.96,191.253c-2.548-4.154-5.285-8.2-7.964-12.268c-0.105-0.166-0.344-0.021-0.232,0.155
			c2.6,4.115,5.168,8.271,7.904,12.303C207.803,191.644,208.087,191.465,207.96,191.253z"/>
		<path d="M209.379,190.899c-2.394-4.297-5.036-8.47-7.572-12.685c-0.095-0.163-0.329-0.021-0.229,0.149
			c2.485,4.229,4.876,8.531,7.495,12.679C209.179,191.206,209.489,191.089,209.379,190.899z"/>
		<path d="M211.804,191.285c-2.84-4.97-5.74-9.899-8.646-14.832c-0.075-0.14-0.332-0.037-0.244,0.114
			c2.834,4.967,5.658,9.94,8.55,14.869C211.577,191.62,211.921,191.488,211.804,191.285z"/>
		<path d="M215.941,193.157c-3.157-5.652-6.558-11.182-9.859-16.75c-0.089-0.14-0.345-0.039-0.252,0.117
			c3.232,5.603,6.387,11.275,9.772,16.792C215.719,193.499,216.057,193.367,215.941,193.157z"/>
		<path d="M218.069,192.892c-3.325-5.834-6.797-11.586-10.198-17.373c-0.086-0.143-0.351-0.038-0.261,0.12
			c3.365,5.807,6.673,11.652,10.114,17.412C217.835,193.242,218.192,193.104,218.069,192.892z"/>
		<path d="M219.93,191.96c-3.249-5.765-6.759-11.395-10.167-17.068c-0.094-0.154-0.316-0.02-0.215,0.14
			c3.324,5.702,6.562,11.477,10.045,17.086C219.708,192.303,220.049,192.171,219.93,191.96z"/>
		<path d="M221.5,189.699c-3.186-5.371-6.645-10.589-9.993-15.857c-0.105-0.16-0.344-0.017-0.239,0.152
			c3.29,5.308,6.48,10.696,9.936,15.896C221.342,190.098,221.629,189.917,221.5,189.699z"/>
		<path d="M224.749,188.062c-2.619-4.486-5.477-8.844-8.232-13.251c-0.138-0.23-0.477-0.027-0.325,0.215
			c2.718,4.429,5.337,8.935,8.185,13.278C224.545,188.566,224.913,188.335,224.749,188.062z"/>
		<path d="M227.95,188.738c-2.578-4.978-5.219-9.926-7.887-14.858c-0.082-0.154-0.355-0.099-0.268,0.08
			c2.554,4.984,5.141,9.955,7.775,14.891C227.688,189.068,228.081,188.987,227.95,188.738z"/>
		<path d="M225.302,185.317c-1.674-3.062-3.383-6.103-5.075-9.151c-0.067-0.13-0.309-0.082-0.227,0.067
			c1.669,3.057,3.326,6.125,5.012,9.17C225.104,185.57,225.407,185.507,225.302,185.317z"/>
		<path d="M224.084,189.403c-3.126-5.6-6.341-11.15-9.557-16.698c-0.082-0.138-0.33-0.085-0.243,0.073
			c3.132,5.606,6.264,11.214,9.489,16.769C223.873,189.715,224.189,189.593,224.084,189.403z"/>
		<path d="M230.962,186.598c-2.368-4.242-4.854-8.418-7.285-12.625c-0.082-0.143-0.346-0.084-0.252,0.076
			c2.415,4.23,4.771,8.494,7.245,12.685C230.765,186.898,231.066,186.781,230.962,186.598z"/>
		<path d="M233.248,184.655c-2.613-4.641-5.272-9.258-7.909-13.887c-0.082-0.139-0.333-0.084-0.246,0.073
			c2.624,4.635,5.227,9.278,7.876,13.902C233.062,184.903,233.353,184.838,233.248,184.655z"/>
		<path d="M236.334,186.912c-2.871-5.109-5.934-10.118-8.9-15.17c-0.072-0.117-0.288-0.033-0.218,0.099
			c2.935,5.069,5.787,10.2,8.821,15.208C236.137,187.213,236.435,187.096,236.334,186.912z"/>
		<path d="M238.452,187.28c-3.104-5.413-6.308-10.771-9.444-16.168c-0.088-0.146-0.292-0.017-0.204,0.135
			c3.126,5.384,6.193,10.807,9.356,16.17C238.253,187.581,238.558,187.462,238.452,187.28z"/>
		<path d="M239.887,186.875c-2.708-4.859-5.53-9.658-8.296-14.485c-0.099-0.175-0.419-0.105-0.31,0.094
			c2.748,4.853,5.445,9.735,8.255,14.555C239.646,187.23,240.004,187.09,239.887,186.875z"/>
		<path d="M244.617,187.125c-3.867-5.18-7.786-10.316-11.701-15.461c-0.1-0.137-0.315-0.011-0.205,0.134
			c3.852,5.187,7.702,10.378,11.604,15.526C244.467,187.52,244.775,187.335,244.617,187.125z"/>
		<path d="M249.4,189.934c-4.578-6.46-9.251-12.852-13.89-19.262c-0.11-0.151-0.342-0.014-0.231,0.148
			c4.591,6.448,9.146,12.922,13.803,19.321C249.236,190.354,249.565,190.162,249.4,189.934z"/>
		<path d="M251.572,189.648c-4.177-6.335-8.431-12.622-12.664-18.922c-0.124-0.183-0.393-0.02-0.27,0.172
			c4.194,6.327,8.365,12.668,12.611,18.962C251.396,190.08,251.729,189.882,251.572,189.648z"/>
		<path d="M253.776,189.336c-4.468-6.668-9.041-13.268-13.573-19.892c-0.117-0.172-0.375-0.018-0.26,0.164
			c4.5,6.652,8.951,13.335,13.506,19.941C253.603,189.768,253.934,189.569,253.776,189.336z"/>
		<path d="M254.32,187.499c-2.836-4.742-5.688-9.468-8.54-14.196c-0.105-0.166-0.34-0.021-0.241,0.151
			c2.83,4.744,5.659,9.489,8.513,14.22C254.161,187.866,254.442,187.7,254.32,187.499z"/>
		<path d="M256.712,187.7c-3.63-5.719-7.403-11.349-11.114-17.011c-0.109-0.168-0.361-0.017-0.25,0.161
			c3.674,5.69,7.292,11.419,11.054,17.051C256.542,188.114,256.853,187.924,256.712,187.7z"/>
		<path d="M259.477,189.01c-4.201-6.324-8.478-12.593-12.736-18.875c-0.097-0.146-0.314-0.018-0.209,0.137
			c4.194,6.324,8.372,12.662,12.624,18.948C259.301,189.441,259.633,189.243,259.477,189.01z"/>
		<path d="M261.594,189.704c-3.601-5.629-7.397-11.141-11.103-16.702c-0.104-0.154-0.325-0.018-0.22,0.146
			c3.651,5.592,7.233,11.247,10.995,16.769C261.419,190.144,261.746,189.943,261.594,189.704z"/>
		<path d="M263.792,190.657c-3.05-5.222-6.322-10.317-9.495-15.459c-0.105-0.168-0.351-0.02-0.24,0.158
			c3.126,5.171,6.165,10.413,9.423,15.505C263.618,191.084,263.928,190.888,263.792,190.657z"/>
		<path d="M265.847,190.235c-3.868-5.805-7.83-11.551-11.755-17.317c-0.105-0.146-0.327-0.015-0.223,0.143
			c3.88,5.799,7.73,11.618,11.669,17.375C265.684,190.646,265.997,190.458,265.847,190.235z"/>
		<path d="M267.648,188.467c-3.191-5.579-6.469-11.104-9.736-16.64c-0.069-0.119-0.291-0.032-0.215,0.1
			c3.179,5.582,6.34,11.171,9.596,16.704C267.41,188.826,267.771,188.685,267.648,188.467z"/>
		<path d="M269.039,185.795c-3.541-5.498-7.2-10.92-10.822-16.362c-0.104-0.152-0.328-0.015-0.224,0.146
			c3.537,5.497,7.049,11.016,10.677,16.458C268.839,186.293,269.213,186.063,269.039,185.795z"/>
		<path d="M270.227,183.001c-2.716-3.912-5.473-7.793-8.225-11.679c-0.111-0.155-0.344-0.015-0.232,0.152
			c2.718,3.911,5.431,7.818,8.178,11.704C270.08,183.366,270.362,183.197,270.227,183.001z"/>
		<path d="M270.788,181.47c-2.106-2.84-4.231-5.67-6.35-8.505c-0.109-0.143-0.33-0.012-0.215,0.143
			c2.09,2.85,4.178,5.705,6.283,8.546C270.641,181.837,270.933,181.668,270.788,181.47z"/>
		<path d="M274.842,184.661c-3.133-4.649-6.324-9.254-9.508-13.87c-0.119-0.166-0.362-0.017-0.247,0.161
			c3.134,4.646,6.262,9.299,9.446,13.914C274.677,185.075,274.993,184.885,274.842,184.661z"/>
		<path d="M276.445,182.751c-2.304-3.585-4.631-7.159-6.945-10.735c-0.114-0.171-0.369-0.02-0.248,0.161
			c2.311,3.58,4.62,7.164,6.943,10.733C276.306,183.083,276.556,182.931,276.445,182.751z"/>
		<path d="M278.026,181.799c-2.095-3.059-4.205-6.107-6.317-9.156c-0.109-0.16-0.351-0.014-0.233,0.154
			c2.1,3.057,4.201,6.111,6.312,9.158C277.904,182.121,278.149,181.971,278.026,181.799z"/>
		<path d="M280.887,182.105c-1.874-2.857-3.782-5.688-5.701-8.517c-0.112-0.166-0.355-0.017-0.24,0.158
			c1.874,2.859,3.751,5.708,5.673,8.535C280.739,182.467,281.014,182.301,280.887,182.105z"/>
		<path d="M281.818,180.852c-1.261-1.899-2.521-3.795-3.787-5.685c-0.11-0.17-0.365-0.018-0.243,0.16
			c1.255,1.898,2.52,3.792,3.791,5.679C281.691,181.169,281.928,181.023,281.818,180.852z"/>
		<path d="M284.396,181.446c-1.855-2.765-3.792-5.472-5.694-8.202c-0.104-0.14-0.314-0.012-0.21,0.137
			c1.868,2.754,3.712,5.528,5.631,8.247C284.252,181.811,284.53,181.645,284.396,181.446z"/>
		<path d="M285.319,180.201c-1.565-2.223-3.168-4.416-4.773-6.606c-0.11-0.152-0.338-0.015-0.226,0.149
			c1.55,2.229,3.104,4.454,4.7,6.652C285.168,180.592,285.465,180.413,285.319,180.201z"/>
		<path d="M289.467,183.331c-2.083-3.014-4.341-5.988-6.691-8.799c-0.14-0.161-0.386-0.021-0.258,0.168
			c2.036,3.042,4.259,6.038,6.57,8.881C289.28,183.823,289.659,183.607,289.467,183.331z"/>
		<path d="M291.293,184.007c-2.148-2.99-4.436-5.886-6.668-8.815c-0.118-0.155-0.361-0.011-0.24,0.155
			c2.188,2.964,4.329,5.968,6.597,8.864C291.139,184.409,291.456,184.229,291.293,184.007z"/>
		<path d="M294.507,182.707c-2.183-2.651-4.381-5.308-6.674-7.864c-0.146-0.16-0.419-0.015-0.273,0.175
			c2.118,2.703,4.351,5.32,6.586,7.925C294.337,183.167,294.71,182.952,294.507,182.707z"/>
		<path d="M296.408,183.021c-1.824-2.681-3.804-5.262-5.717-7.875c-0.152-0.207-0.467-0.018-0.31,0.201
			c1.874,2.643,3.695,5.338,5.659,7.913C296.224,183.499,296.584,183.284,296.408,183.021z"/>
		<path d="M297.371,182.056c-1.65-2.238-3.376-4.419-5.068-6.622c-0.119-0.158-0.369-0.012-0.238,0.157
			c1.662,2.223,3.294,4.472,5.008,6.656C297.219,182.44,297.522,182.267,297.371,182.056z"/>
		<path d="M299.81,182.751c-1.459-2.011-2.939-4.006-4.423-6c-0.117-0.155-0.361-0.012-0.232,0.153
			c1.465,2.004,2.935,4.011,4.414,6.001C299.686,183.059,299.934,182.917,299.81,182.751z"/>
		<path d="M302.032,181.16c-1.255-1.481-2.531-2.942-3.803-4.407c-0.117-0.137-0.351-0.002-0.223,0.146
			c1.255,1.479,2.497,2.967,3.769,4.431C301.914,181.487,302.178,181.333,302.032,181.16z"/>
		<path d="M304.277,178.615c-0.414-0.637-0.828-1.27-1.254-1.9c-0.157-0.233-0.502-0.023-0.338,0.223
			c0.415,0.633,0.839,1.263,1.265,1.887C304.104,179.046,304.43,178.851,304.277,178.615z"/>
		<path d="M299.521,190.949c-0.825-0.985-1.673-1.96-2.583-2.875c-0.163-0.17-0.432,0.06-0.278,0.253
			c0.781,0.995,1.635,1.937,2.488,2.864C299.354,191.41,299.739,191.2,299.521,190.949z"/>
		<path d="M302.067,189.981c-0.905-1.392-1.86-2.768-2.859-4.093c-0.146-0.189-0.42-0.023-0.285,0.187
			c0.887,1.4,1.836,2.782,2.822,4.116C301.904,190.403,302.215,190.214,302.067,189.981z"/>
		<path d="M303.624,189.681c-1.021-1.603-2.117-3.151-3.184-4.72c-0.104-0.152-0.329-0.015-0.224,0.146
			c1.034,1.589,2.043,3.199,3.129,4.754C303.479,190.053,303.753,189.885,303.624,189.681z"/>
		<path d="M305.2,189.365c-1.25-1.589-2.525-3.158-3.804-4.728c-0.13-0.155-0.38-0.009-0.246,0.163
			c1.247,1.589,2.497,3.177,3.775,4.746C305.066,189.718,305.35,189.555,305.2,189.365z"/>
		<path d="M307.409,189.684c-1.351-2.013-2.739-3.997-4.13-5.986c-0.104-0.153-0.338-0.017-0.226,0.149
			c1.353,2.009,2.698,4.024,4.082,6.012C307.265,190.042,307.538,189.879,307.409,189.684z"/>
		<path d="M309.633,190.302c-1.518-2.354-3.151-4.637-4.738-6.942c-0.114-0.161-0.355-0.014-0.243,0.154
			c1.562,2.328,3.085,4.685,4.719,6.963C309.499,190.655,309.761,190.495,309.633,190.302z"/>
		<path d="M314.091,192.168c-2.172-2.771-4.423-5.473-6.651-8.199c-0.122-0.151-0.373-0.005-0.245,0.161
			c2.187,2.753,4.346,5.533,6.586,8.243C313.943,192.565,314.259,192.384,314.091,192.168z"/>
		<path d="M316.604,190.6c-1.856-2.451-3.792-4.842-5.694-7.257c-0.11-0.143-0.344-0.008-0.221,0.146
			c1.878,2.429,3.727,4.888,5.646,7.286C316.469,190.949,316.751,190.789,316.604,190.6z"/>
		<path d="M318.453,190.005c-1.721-2.57-3.593-5.046-5.402-7.558c-0.115-0.169-0.372-0.014-0.25,0.164
			c1.77,2.535,3.481,5.121,5.337,7.601C318.29,190.424,318.61,190.235,318.453,190.005z"/>
		<path d="M320.642,191.285c-1.892-2.912-4.014-5.684-6.043-8.5c-0.105-0.146-0.33-0.014-0.216,0.144
			c1.952,2.864,3.83,5.807,5.92,8.571C320.471,191.723,320.798,191.527,320.642,191.285z"/>
		<path d="M322.245,191.896c-2.076-2.866-4.225-5.675-6.353-8.503c-0.109-0.148-0.346-0.011-0.229,0.151
			c2.083,2.857,4.136,5.737,6.268,8.558C322.086,192.309,322.407,192.119,322.245,191.896z"/>
		<path d="M323.236,191.235c-1.854-2.766-3.814-5.457-5.732-8.176c-0.112-0.153-0.341-0.014-0.229,0.15
			c1.874,2.748,3.704,5.529,5.646,8.231C323.073,191.649,323.389,191.46,323.236,191.235z"/>
		<path d="M325.67,191.933c-2.077-2.861-4.246-5.659-6.383-8.477c-0.116-0.151-0.354-0.012-0.231,0.152
			c2.1,2.844,4.17,5.711,6.322,8.515C325.523,192.309,325.82,192.136,325.67,191.933z"/>
		<path d="M328.92,193.443c-2.584-3.305-5.286-6.517-7.946-9.755c-0.11-0.133-0.332-0.007-0.215,0.141
			c2.601,3.284,5.166,6.6,7.845,9.817C328.768,193.84,329.083,193.659,328.92,193.443z"/>
		<path d="M331.178,192.781c-2.492-3.398-5.06-6.738-7.603-10.092c-0.117-0.151-0.354-0.012-0.233,0.152
			c2.486,3.394,4.946,6.81,7.485,10.167C330.996,193.236,331.352,193.026,331.178,192.781z"/>
		<path d="M333.051,191.533c-2.416-3.165-4.861-6.307-7.328-9.43c-0.117-0.149-0.356-0.012-0.234,0.152
			c2.367,3.19,4.766,6.364,7.199,9.514C332.868,192.006,333.242,191.783,333.051,191.533z"/>
		<path d="M334.888,191.57c-1.907-2.691-4.021-5.258-6.033-7.872c-0.11-0.146-0.344-0.009-0.228,0.149
			c1.979,2.639,3.886,5.358,5.962,7.915C334.747,191.949,335.04,191.783,334.888,191.57z"/>
		<path d="M337.687,192.25c-3.302-4.057-6.673-8.067-10.086-12.031c-0.11-0.129-0.32-0.009-0.21,0.137
			c3.244,4.09,6.538,8.149,9.894,12.151C337.495,192.754,337.902,192.519,337.687,192.25z"/>
		<path d="M337.884,191.144c-2.711-3.875-5.663-7.604-8.499-11.389c-0.115-0.149-0.344-0.012-0.233,0.149
			c2.771,3.835,5.444,7.761,8.332,11.503C337.681,191.67,338.083,191.433,337.884,191.144z"/>
		<path d="M339.531,189.838c-3.278-4.413-6.513-8.867-9.896-13.198c-0.104-0.134-0.309-0.012-0.204,0.137
			c3.121,4.515,6.405,8.922,9.639,13.362C339.292,190.444,339.77,190.159,339.531,189.838z"/>
		<path d="M83.197,213.18c-1.073-2.03-2.153-4.06-3.231-6.078c-0.082-0.151-0.339-0.094-0.252,0.07
			c1.063,2.035,2.131,4.066,3.209,6.09C83.01,213.425,83.292,213.356,83.197,213.18z"/>
		<path d="M86.033,213.917c-1.541-3.278-3.343-6.452-5.017-9.661c-0.086-0.163-0.374-0.105-0.28,0.082
			c1.634,3.231,3.167,6.533,4.935,9.695C85.781,214.231,86.149,214.173,86.033,213.917z"/>
		<path d="M88.949,214.965c-2.14-4.235-4.533-8.354-6.82-12.512c-0.115-0.217-0.5-0.135-0.374,0.11
			c2.265,4.194,4.434,8.459,6.833,12.571C88.705,215.333,89.067,215.199,88.949,214.965z"/>
		<path d="M91.12,213.526c-1.942-3.636-4.061-7.205-6.173-10.752c-0.08-0.129-0.325-0.035-0.244,0.117
			c1.955,3.628,3.93,7.269,6.048,10.803C90.875,213.9,91.248,213.753,91.12,213.526z"/>
		<path d="M95.027,216.051c-2.507-4.539-5.039-9.065-7.589-13.575c-0.091-0.169-0.397-0.105-0.292,0.088
			c2.463,4.549,4.941,9.088,7.438,13.622C94.729,216.436,95.179,216.337,95.027,216.051z"/>
		<path d="M96.784,215.701c-2.24-4.946-4.708-9.835-7.221-14.653c-0.077-0.141-0.323-0.094-0.246,0.07
			c2.223,4.946,4.544,9.905,7.034,14.718C96.487,216.085,96.918,216.003,96.784,215.701z"/>
		<path d="M100.464,216.01c-2.763-5.198-5.728-10.308-8.703-15.383c-0.075-0.129-0.309-0.042-0.234,0.104
			c2.766,5.192,5.573,10.39,8.547,15.459C100.203,216.413,100.6,216.262,100.464,216.01z"/>
		<path d="M103.859,217.171c-2.228-5.309-4.823-10.483-7.25-15.704c-0.117-0.251-0.542-0.151-0.414,0.129
			c2.397,5.231,4.655,10.559,7.245,15.703C103.562,217.544,103.982,217.462,103.859,217.171z"/>
		<path d="M106.392,216.458c-2.118-4.13-4.456-8.155-6.704-12.221c-0.145-0.262-0.607-0.157-0.449,0.134
			c2.223,4.107,4.364,8.261,6.714,12.292C106.095,216.902,106.533,216.739,106.392,216.458z"/>
		<path d="M110.079,216.326c-2.368-3.95-4.778-7.871-7.184-11.796c-0.145-0.239-0.488-0.029-0.337,0.222
			c2.369,3.949,4.727,7.904,7.128,11.824C109.857,216.856,110.253,216.611,110.079,216.326z"/>
		<path d="M113.871,217.918c-2.421-4.865-5.169-9.604-7.794-14.362c-0.152-0.268-0.631-0.17-0.468,0.141
			c2.539,4.829,5.005,9.741,7.748,14.461C113.525,218.442,114.033,218.245,113.871,217.918z"/>
		<path d="M116.272,215.269c-2.228-4.27-4.77-8.424-7.215-12.571c-0.124-0.215-0.512-0.064-0.386,0.176
			c2.324,4.217,4.604,8.522,7.13,12.617C115.966,215.748,116.438,215.573,116.272,215.269z"/>
		<path d="M119.358,214.616c-1.592-3.254-3.336-6.439-5.021-9.648c-0.15-0.274-0.634-0.164-0.473,0.146
			c1.669,3.213,3.285,6.469,5.047,9.643C119.056,215.013,119.512,214.924,119.358,214.616z"/>
		<path d="M123.017,215.654c-1.784-3.399-3.803-6.69-5.728-10.021c-0.152-0.257-0.629-0.151-0.461,0.141
			c1.901,3.371,3.715,6.801,5.756,10.086C122.727,216.097,123.164,215.935,123.017,215.654z"/>
		<path d="M126.173,214.25c-1.744-3.718-3.535-7.438-5.442-11.066c-0.075-0.146-0.322-0.101-0.246,0.069
			c1.662,3.744,3.471,7.442,5.31,11.106C125.906,214.592,126.296,214.504,126.173,214.25z"/>
		<path d="M127.351,213.485c-1.16-2.761-2.338-5.514-3.588-8.231c-0.082-0.182-0.379-0.117-0.297,0.087
			c1.121,2.777,2.317,5.519,3.523,8.255C127.089,213.818,127.458,213.729,127.351,213.485z"/>
		<path d="M131.143,214.983c-1.604-3.609-3.359-7.157-5.085-10.71c-0.088-0.169-0.379-0.111-0.292,0.088
			c1.621,3.594,3.219,7.209,4.965,10.746C130.851,215.351,131.267,215.269,131.143,214.983z"/>
		<path d="M133.682,213.887c-1.4-2.761-2.877-5.484-4.323-8.219c-0.083-0.158-0.357-0.101-0.269,0.081
			c1.417,2.747,2.806,5.512,4.265,8.236C133.459,214.173,133.793,214.103,133.682,213.887z"/>
		<path d="M137.614,214.197c-2.113-3.484-4.323-6.907-6.494-10.35c-0.092-0.139-0.302-0.012-0.21,0.141
			c2.123,3.47,4.208,6.977,6.389,10.406C137.437,214.616,137.752,214.417,137.614,214.197z"/>
		<path d="M138.703,213.53c-1.833-3.854-3.827-7.641-5.791-11.434c-0.077-0.15-0.346-0.092-0.259,0.082
			c1.844,3.84,3.677,7.7,5.654,11.47C138.43,213.881,138.837,213.799,138.703,213.53z"/>
		<path d="M140.781,213.204c-1.688-3.272-3.583-6.451-5.386-9.659c-0.087-0.152-0.361-0.094-0.269,0.082
			c1.762,3.242,3.45,6.557,5.321,9.735C140.558,213.542,140.892,213.415,140.781,213.204z"/>
		<path d="M141.913,213.175c-1.739-3.027-3.605-5.991-5.431-8.967c-0.1-0.151-0.32-0.018-0.229,0.152
			c1.763,2.999,3.495,6.02,5.344,8.96C141.703,213.497,142.023,213.368,141.913,213.175z"/>
		<path d="M144.036,214.202c-1.539-2.632-3.104-5.244-4.673-7.858c-0.1-0.175-0.343-0.022-0.238,0.158
			c1.534,2.631,3.067,5.268,4.633,7.881C143.877,214.586,144.159,214.412,144.036,214.202z"/>
		<path d="M146.527,214.93c-1.897-2.991-3.822-5.961-5.751-8.93c-0.1-0.158-0.328-0.018-0.224,0.146
			c1.891,2.998,3.775,5.99,5.693,8.961C146.375,215.304,146.654,215.129,146.527,214.93z"/>
		<path d="M148.76,217.078c-2.088-3.628-4.299-7.192-6.463-10.78c-0.092-0.157-0.326-0.018-0.227,0.151
			c2.125,3.594,4.206,7.216,6.399,10.763C148.568,217.37,148.866,217.258,148.76,217.078z"/>
		<path d="M149.45,214.173c-1.862-3.011-3.817-5.962-5.734-8.938c-0.164-0.246-0.52-0.023-0.355,0.233
			c1.894,2.985,3.762,5.996,5.716,8.948C149.245,214.673,149.618,214.452,149.45,214.173z"/>
		<path d="M151.94,213.111c-1.627-2.416-3.341-4.772-5.024-7.152c-0.15-0.209-0.47-0.017-0.313,0.21
			c1.656,2.392,3.285,4.808,5,7.165C151.767,213.566,152.108,213.356,151.94,213.111z"/>
		<path d="M155.54,210.59c-1.669-2.27-3.354-4.521-5.058-6.766c-0.139-0.193-0.436-0.019-0.286,0.187
			c1.639,2.286,3.291,4.562,4.963,6.83C155.341,211.092,155.738,210.859,155.54,210.59z"/>
		<path d="M156.952,207.745c-0.834-1.08-1.669-2.146-2.515-3.221c-0.164-0.205-0.496-0.012-0.327,0.21
			c0.83,1.085,1.657,2.158,2.497,3.232C156.782,208.188,157.139,207.978,156.952,207.745z"/>
		<path d="M72.815,247.488c-1.647-2.514-3.35-4.999-5.036-7.496c-0.105-0.157-0.333-0.018-0.229,0.146
			c1.657,2.515,3.296,5.041,4.989,7.531C72.667,247.856,72.948,247.692,72.815,247.488z"/>
		<path d="M75.707,246.818c-1.779-3.588-3.609-7.152-5.425-10.724c-0.082-0.15-0.351-0.093-0.262,0.082
			c1.768,3.588,3.517,7.182,5.327,10.746C75.452,247.144,75.824,247.063,75.707,246.818z"/>
		<path d="M76.775,245.745c-1.249-2.766-2.625-5.49-3.944-8.227c-0.105-0.222-0.472-0.135-0.355,0.105
			c1.295,2.748,2.544,5.53,3.902,8.242C76.501,246.099,76.904,246.018,76.775,245.745z"/>
		<path d="M78.269,245.72c-1.506-3.01-3.163-5.95-4.733-8.925c-0.074-0.146-0.33-0.093-0.244,0.075
			c1.529,2.981,2.976,6.016,4.575,8.967C77.988,246.071,78.402,245.989,78.269,245.72z"/>
		<path d="M79.331,245.009c-1.295-2.637-2.637-5.257-4.014-7.853c-0.082-0.146-0.339-0.094-0.257,0.082
			c1.242,2.648,2.532,5.285,3.862,7.898C79.043,245.376,79.464,245.283,79.331,245.009z"/>
		<path d="M82.089,247.563c-1.634-3.359-3.354-6.684-5.057-10.01c-0.077-0.151-0.333-0.093-0.252,0.07
			c1.639,3.36,3.254,6.72,4.953,10.045C81.837,247.879,82.199,247.797,82.089,247.563z"/>
		<path d="M85.32,247.558c-1.982-3.844-4.094-7.625-6.153-11.428c-0.077-0.141-0.321-0.089-0.24,0.069
			c1.996,3.827,3.95,7.683,6.026,11.469C85.065,247.879,85.449,247.808,85.32,247.558z"/>
		<path d="M88.68,249.279c-2.223-4.439-4.548-8.832-6.859-13.226c-0.082-0.15-0.35-0.098-0.262,0.077
			c2.223,4.433,4.427,8.879,6.737,13.266C88.413,249.617,88.81,249.535,88.68,249.279z"/>
		<path d="M92.513,251.829c-2.233-5.536-4.715-11.02-7.209-16.446c-0.075-0.163-0.339-0.104-0.262,0.082
			c2.263,5.52,4.578,11.073,7.098,16.475C92.251,252.172,92.619,252.09,92.513,251.829z"/>
		<path d="M96.884,252.16c-1.857-4.315-3.8-8.599-5.712-12.891c-0.124-0.269-0.578-0.164-0.444,0.139
			c1.908,4.295,3.78,8.605,5.746,12.876C96.585,252.534,97,252.44,96.884,252.16z"/>
		<path d="M99.718,252.167c-2.345-5.623-4.773-11.218-7.198-16.807c-0.077-0.174-0.374-0.111-0.292,0.088
			c2.345,5.623,4.69,11.247,7.117,16.836C99.444,252.511,99.823,252.428,99.718,252.167z"/>
		<path d="M101.078,249.699c-2.294-5.121-4.586-10.244-6.919-15.341c-0.082-0.176-0.369-0.105-0.28,0.08
			c2.234,5.141,4.521,10.255,6.802,15.378C100.787,250.06,101.199,249.966,101.078,249.699z"/>
		<path d="M103.447,250.119c-2.084-5.087-4.486-10.056-6.749-15.056c-0.105-0.234-0.498-0.146-0.379,0.11
			c2.214,5.028,4.314,10.127,6.706,15.074C103.148,250.492,103.567,250.411,103.447,250.119z"/>
		<path d="M107.213,250.026c-2.345-4.673-4.788-9.299-7.203-13.942c-0.077-0.151-0.339-0.094-0.25,0.075
			c2.354,4.662,4.683,9.339,7.104,13.972C106.975,250.34,107.337,250.259,107.213,250.026z"/>
		<path d="M110.079,252.172c-1.634-3.36-3.373-6.675-5.065-9.999c-0.075-0.15-0.33-0.093-0.25,0.07
			c1.646,3.349,3.25,6.721,4.96,10.04C109.827,252.488,110.189,252.411,110.079,252.172z"/>
		<path d="M112.978,253.946c-2.078-4.096-4.312-8.108-6.487-12.151c-0.099-0.181-0.419-0.111-0.309,0.099
			c2.118,4.061,4.176,8.167,6.394,12.181C112.703,254.302,113.118,254.22,112.978,253.946z"/>
		<path d="M116.875,257.901c-2.457-4.562-5.023-9.065-7.554-13.58c-0.095-0.181-0.416-0.111-0.305,0.094
			c2.486,4.539,4.93,9.1,7.49,13.604C116.623,258.227,117.004,258.145,116.875,257.901z"/>
		<path d="M119.75,258.193c-2.1-3.605-4.369-7.116-6.574-10.653c-0.1-0.168-0.332-0.022-0.227,0.152
			c2.14,3.57,4.223,7.199,6.469,10.717C119.564,258.648,119.896,258.438,119.75,258.193z"/>
		<path d="M122.224,256.425c-1.873-2.655-3.81-5.257-5.728-7.875c-0.17-0.229-0.525-0.019-0.35,0.228
			c1.9,2.631,3.773,5.284,5.723,7.875C122.042,256.885,122.397,256.676,122.224,256.425z"/>
		<path d="M125.432,256.788c-1.305-1.908-2.632-3.811-3.955-5.711c-0.115-0.176-0.373-0.023-0.25,0.162
			c1.3,1.914,2.604,3.828,3.916,5.74C125.282,257.172,125.579,256.991,125.432,256.788z"/>
		<path d="M130.491,258.25c-0.713-1.312-1.429-2.625-2.151-3.932c-0.119-0.216-0.509-0.128-0.374,0.117
			c0.711,1.312,1.424,2.625,2.139,3.932C130.229,258.595,130.625,258.508,130.491,258.25z"/>
		<path d="M127.213,244.333c-2.013-3.488-4.079-6.949-6.162-10.395c-0.082-0.135-0.327-0.036-0.239,0.109
			c1.983,3.5,3.985,6.994,6.038,10.454C126.966,244.7,127.339,244.554,127.213,244.333z"/>
		<path d="M130.759,245.779c-2.066-4.224-4.294-8.366-6.458-12.531c-0.082-0.156-0.35-0.099-0.26,0.076
			c2.1,4.194,4.134,8.431,6.333,12.571C130.491,246.117,130.886,246.035,130.759,245.779z"/>
		<path d="M134.486,246.783c-2.125-4.598-4.516-9.084-6.803-13.605c-0.133-0.262-0.594-0.162-0.449,0.142
			c2.247,4.538,4.4,9.141,6.803,13.598C134.177,247.173,134.626,247.085,134.486,246.783z"/>
		<path d="M137.642,246.094c-2.151-4.229-4.52-8.36-6.801-12.525c-0.135-0.239-0.565-0.146-0.42,0.129
			c2.247,4.183,4.404,8.419,6.766,12.536C137.332,246.491,137.801,246.403,137.642,246.094z"/>
		<path d="M140.863,246.444c-1.721-4.083-3.565-8.12-5.373-12.163c-0.1-0.222-0.474-0.14-0.364,0.112
			c1.769,4.06,3.506,8.144,5.367,12.168C140.594,246.783,140.968,246.701,140.863,246.444z"/>
		<path d="M144.041,248.264c-2.287-4.871-4.963-9.579-7.467-14.339c-0.128-0.246-0.565-0.151-0.419,0.128
			c2.467,4.778,4.795,9.672,7.467,14.339C143.762,248.625,144.181,248.556,144.041,248.264z"/>
		<path d="M147.122,248.334c-1.772-3.769-3.757-7.438-5.646-11.143c-0.105-0.21-0.467-0.129-0.35,0.104
			c1.847,3.723,3.628,7.491,5.594,11.154C146.841,248.685,147.25,248.609,147.122,248.334z"/>
		<path d="M149.49,248.573c-2.082-4.211-4.346-8.336-6.51-12.501c-0.071-0.146-0.327-0.093-0.247,0.07
			c2.136,4.177,4.177,8.412,6.395,12.543C149.24,248.894,149.613,248.819,149.49,248.573z"/>
		<path d="M151.192,246.117c-1.981-4.725-4.269-9.339-6.462-13.965c-0.07-0.152-0.326-0.094-0.252,0.082
			c2.049,4.678,4.032,9.427,6.29,14.012C150.89,246.497,151.316,246.409,151.192,246.117z"/>
		<path d="M154.145,244.647c-1.562-3.628-3.354-7.163-5.068-10.722c-0.094-0.193-0.426-0.122-0.328,0.099
			c1.623,3.595,3.187,7.228,4.959,10.752C153.835,245.032,154.273,244.952,154.145,244.647z"/>
		<path d="M156.694,243.549c-1.528-2.875-3.11-5.728-4.689-8.574c-0.133-0.238-0.572-0.152-0.421,0.128
			c1.511,2.883,3.028,5.753,4.597,8.604C156.344,244.005,156.875,243.889,156.694,243.549z"/>
		<path d="M159.138,243.574c-1.096-2.893-2.378-5.729-3.581-8.587c-0.11-0.25-0.525-0.152-0.407,0.128
			c1.171,2.865,2.281,5.776,3.569,8.588C158.836,243.958,159.243,243.865,159.138,243.574z"/>
		<path d="M160.288,242.828c-1.183-2.515-2.41-5.006-3.64-7.503c-0.089-0.163-0.368-0.105-0.281,0.088
			c1.136,2.526,2.292,5.046,3.471,7.55C159.967,243.235,160.433,243.13,160.288,242.828z"/>
		<path d="M165.656,246.758c-2.09-3.75-4.26-7.478-6.523-11.119c-0.077-0.127-0.309-0.033-0.233,0.105
			c2.024,3.78,4.159,7.515,6.359,11.196C165.387,247.156,165.789,247.004,165.656,246.758z"/>
		<path d="M169.092,246.48c-2.189-4.225-4.516-8.378-6.819-12.525c-0.112-0.204-0.479-0.129-0.355,0.104
			c2.214,4.201,4.414,8.412,6.748,12.549C168.8,246.847,169.242,246.758,169.092,246.48z"/>
		<path d="M173.415,246.747c-2.468-4.077-5.007-8.114-7.526-12.156c-0.165-0.257-0.53-0.035-0.367,0.232
			c2.484,4.072,4.957,8.146,7.501,12.182C173.199,247.272,173.583,247.034,173.415,246.747z"/>
		<path d="M177.363,248.597c-2.461-5.152-4.925-10.32-7.59-15.367c-0.075-0.146-0.332-0.098-0.25,0.076
			c2.334,5.204,4.888,10.314,7.432,15.412C177.078,248.964,177.499,248.872,177.363,248.597z"/>
		<path d="M181.324,250.738c-2.817-5.683-5.887-11.26-8.844-16.877c-0.133-0.252-0.571-0.151-0.425,0.134
			c2.922,5.624,5.751,11.323,8.809,16.883C181.008,251.147,181.482,251.053,181.324,250.738z"/>
		<path d="M185.968,251.46c-2.499-4.544-5.059-9.054-7.614-13.568c-0.088-0.152-0.362-0.094-0.267,0.081
			c2.455,4.551,4.905,9.106,7.414,13.627C185.651,251.87,186.137,251.764,185.968,251.46z"/>
		<path d="M189.98,254.278c-2.735-5.139-5.613-10.203-8.47-15.277c-0.086-0.163-0.384-0.105-0.279,0.087
			c2.729,5.128,5.446,10.268,8.307,15.325C189.677,254.669,190.137,254.576,189.98,254.278z"/>
		<path d="M193.185,253.561c-2.376-4.538-4.792-9.065-7.211-13.58c-0.077-0.141-0.337-0.094-0.25,0.075
			c2.35,4.551,4.707,9.094,7.105,13.615C192.939,253.875,193.3,253.793,193.185,253.561z"/>
		<path d="M198.527,255.019c-2.712-5.15-5.478-10.278-8.29-15.377c-0.1-0.176-0.414-0.104-0.31,0.092
			c2.673,5.17,5.391,10.303,8.167,15.414C198.228,255.399,198.672,255.299,198.527,255.019z"/>
		<path d="M201.468,254.623c-2.434-4.977-5.244-9.8-7.881-14.665c-0.152-0.28-0.638-0.171-0.474,0.14
			c2.614,4.912,5.087,9.939,7.899,14.735C201.164,255.089,201.606,254.915,201.468,254.623z"/>
		<path d="M203.729,251.886c-2.607-4.905-5.202-9.822-7.897-14.683c-0.082-0.151-0.35-0.094-0.255,0.081
			c2.489,4.947,5.097,9.848,7.676,14.747C203.404,252.313,203.893,252.196,203.729,251.886z"/>
		<path d="M206.403,251.799c-2.089-4.207-4.294-8.354-6.454-12.519c-0.139-0.263-0.594-0.164-0.442,0.127
			c2.13,4.189,4.222,8.39,6.429,12.531C206.076,252.219,206.56,252.114,206.403,251.799z"/>
		<path d="M208.141,251.1c-2.018-3.705-4.061-7.397-6.102-11.09c-0.105-0.188-0.449-0.111-0.332,0.099
			c2.013,3.709,4.031,7.408,6.067,11.101C207.89,251.425,208.269,251.344,208.141,251.1z"/>
		<path d="M210.875,251.118c-2.029-3.413-4.246-6.715-6.375-10.064c-0.124-0.191-0.402-0.023-0.279,0.181
			c2.1,3.368,4.124,6.797,6.322,10.099C210.702,251.56,211.022,251.356,210.875,251.118z"/>
		<path d="M213.711,252.212c-2.111-3.312-4.479-6.48-6.737-9.7c-0.141-0.211-0.456-0.023-0.303,0.198
			c2.2,3.255,4.314,6.598,6.656,9.753C213.52,252.721,213.894,252.5,213.711,252.212z"/>
		<path d="M216.248,251.496c-1.736-2.311-3.54-4.567-5.319-6.849c-0.187-0.239-0.571-0.012-0.374,0.245
			c1.75,2.298,3.479,4.608,5.262,6.877C216.033,252.043,216.472,251.788,216.248,251.496z"/>
		<path d="M220.035,253.001c-1.756-2.836-3.705-5.565-5.576-8.331c-0.123-0.175-0.381-0.012-0.257,0.176
			c1.803,2.799,3.546,5.67,5.466,8.399C219.843,253.491,220.198,253.275,220.035,253.001z"/>
		<path d="M225.32,254.611c-1.763-2.403-3.588-4.766-5.402-7.134c-0.152-0.205-0.466-0.019-0.309,0.203
			c1.768,2.398,3.524,4.812,5.338,7.176C225.133,255.101,225.512,254.879,225.32,254.611z"/>
		<path d="M228.973,254.658c-1.303-2.393-2.621-4.777-3.943-7.158c-0.164-0.286-0.682-0.175-0.503,0.151
			c1.297,2.393,2.603,4.784,3.927,7.159C228.617,255.113,229.159,254.997,228.973,254.658z"/>
		<path d="M231.854,253.934c-0.351-0.723-0.7-1.435-1.051-2.158c-0.174-0.362-0.811-0.211-0.604,0.188
			c0.365,0.711,0.728,1.423,1.094,2.14C231.464,254.436,232.039,254.307,231.854,253.934z"/>
		<path d="M232.163,230.868c-0.863-1.295-1.721-2.578-2.579-3.873c-0.104-0.151-0.333-0.012-0.22,0.151
			c0.856,1.284,1.713,2.573,2.579,3.862C232.039,231.16,232.262,231.02,232.163,230.868z"/>
		<path d="M236.084,233.406c-1.657-2.828-3.493-5.548-5.215-8.337c-0.094-0.156-0.314-0.022-0.218,0.141
			c1.723,2.789,3.326,5.658,5.098,8.411C235.903,233.856,236.224,233.645,236.084,233.406z"/>
		<path d="M241.869,237.278c-2.345-3.445-4.741-6.858-7.127-10.283c-0.105-0.158-0.344-0.012-0.229,0.151
			c2.341,3.449,4.669,6.907,7.055,10.338C241.706,237.681,242.017,237.496,241.869,237.278z"/>
		<path d="M247.605,241.251c-3.115-5.447-6.481-10.769-9.738-16.136c-0.087-0.15-0.302-0.012-0.21,0.141
			c3.175,5.392,6.267,10.856,9.58,16.164C247.359,241.62,247.739,241.479,247.605,241.251z"/>
		<path d="M251.537,241.141c-3.471-5.775-6.93-11.556-10.431-17.32c-0.094-0.163-0.321-0.022-0.228,0.146
			c3.396,5.828,6.832,11.626,10.256,17.437C251.303,241.695,251.718,241.438,251.537,241.141z"/>
		<path d="M255.348,242.466c-3.496-5.881-7.295-11.61-10.981-17.379c-0.104-0.163-0.337-0.019-0.233,0.151
			c3.594,5.828,7.094,11.743,10.875,17.448C255.165,242.927,255.497,242.716,255.348,242.466z"/>
		<path d="M259.728,241.323c-2.905-5.018-6.005-9.936-9.007-14.894c-0.101-0.157-0.327-0.018-0.229,0.146
			c2.953,4.969,5.823,9.998,8.882,14.909C259.492,241.683,259.855,241.543,259.728,241.323z"/>
		<path d="M261.92,237.95c-2.718-4.788-5.619-9.484-8.44-14.21c-0.129-0.222-0.442-0.022-0.304,0.198
			c2.771,4.736,5.477,9.521,8.354,14.193C261.658,238.347,262.054,238.189,261.92,237.95z"/>
		<path d="M265.766,237.961c-2.659-5.226-5.612-10.313-8.454-15.44c-0.08-0.157-0.355-0.1-0.263,0.075
			c2.736,5.181,5.386,10.419,8.302,15.494C265.484,238.312,265.905,238.242,265.766,237.961z"/>
		<path d="M269.025,235.366c-2.7-5.629-5.563-11.195-8.406-16.748c-0.101-0.198-0.431-0.123-0.326,0.099
			c2.731,5.607,5.448,11.236,8.318,16.771C268.738,235.727,269.159,235.639,269.025,235.366z"/>
		<path d="M270.847,233.488c-2.118-4.521-4.313-9.013-6.483-13.516c-0.121-0.258-0.564-0.158-0.432,0.133
			c2.146,4.51,4.271,9.036,6.464,13.516C270.53,233.89,270.984,233.796,270.847,233.488z"/>
		<path d="M275.553,239.828c-3.033-6.312-6.45-12.482-9.753-18.655c-0.075-0.146-0.332-0.094-0.25,0.076
			c3.12,6.253,6.178,12.601,9.565,18.721C275.256,240.213,275.7,240.131,275.553,239.828z"/>
		<path d="M278.646,239.262c-2.561-4.52-5.169-9.012-7.766-13.516c-0.144-0.257-0.618-0.158-0.454,0.14
			c2.571,4.504,5.134,9.03,7.735,13.521C278.318,239.684,278.82,239.572,278.646,239.262z"/>
		<path d="M284.98,242.478c-3.19-4.75-6.457-9.445-9.713-14.147c-0.104-0.151-0.332-0.018-0.223,0.146
			c3.187,4.748,6.366,9.509,9.615,14.21C284.812,242.898,285.133,242.705,284.98,242.478z"/>
		<path d="M287.611,239.864c-1.927-3.232-3.886-6.429-5.838-9.637c-0.096-0.152-0.306-0.022-0.211,0.133
			c1.908,3.237,3.815,6.471,5.756,9.691C287.442,240.26,287.739,240.074,287.611,239.864z"/>
		<path d="M293.405,240.512c-2.34-3.647-4.599-7.416-7.193-10.887c-0.095-0.122-0.333-0.04-0.244,0.111
			c2.122,3.792,4.659,7.396,7.05,11.025C293.193,241.024,293.579,240.787,293.405,240.512z"/>
		<path d="M299.208,238.575c-1.716-2.368-3.429-4.737-5.198-7.064c-0.105-0.129-0.302-0.012-0.202,0.139
			c1.66,2.394,3.388,4.762,5.115,7.113C299.057,238.954,299.354,238.779,299.208,238.575z"/>
		<path d="M306.273,243.749c-3.42-4.736-6.96-9.391-10.476-14.06c-0.119-0.151-0.352-0.012-0.236,0.153
			c3.425,4.73,6.836,9.478,10.354,14.141C306.093,244.215,306.447,244,306.273,243.749z"/>
		<path d="M310.918,247.517c-3.42-4.946-6.814-9.928-10.367-14.781c-0.105-0.14-0.315-0.012-0.215,0.139
			c3.316,5.018,6.807,9.93,10.26,14.853C310.746,247.942,311.073,247.75,310.918,247.517z"/>
		<path d="M319.138,250.212c-5.023-6.119-10.338-12.017-15.536-17.99c-0.117-0.14-0.356,0-0.228,0.15
			c5.128,6.033,10.144,12.17,15.435,18.05C318.984,250.622,319.316,250.434,319.138,250.212z"/>
		<path d="M324.241,250.889c-5.089-7.141-10.293-14.192-15.459-21.27c-0.124-0.163-0.369-0.012-0.246,0.158
			c5.11,7.116,10.198,14.258,15.39,21.316C324.082,251.297,324.405,251.111,324.241,250.889z"/>
		<path d="M327.536,248.901c-4.912-7.106-9.854-14.2-14.874-21.229c-0.118-0.158-0.357-0.012-0.24,0.158
			c4.864,7.134,9.816,14.216,14.794,21.275C327.367,249.326,327.694,249.127,327.536,248.901z"/>
		<path d="M332.155,248.83c-4.381-7.38-9.011-14.613-13.562-21.888c-0.094-0.157-0.313-0.017-0.218,0.14
			c4.458,7.333,8.84,14.725,13.465,21.953C331.981,249.255,332.295,249.057,332.155,248.83z"/>
		<path d="M335.89,245.043c-3.763-5.856-7.724-11.608-11.667-17.349c-0.101-0.141-0.315-0.012-0.215,0.141
			c3.802,5.833,7.601,11.695,11.579,17.406C335.732,245.452,336.035,245.265,335.89,245.043z"/>
		<path d="M339.827,243.714c-3.833-6.465-7.754-12.882-11.679-19.286c-0.152-0.246-0.508-0.028-0.35,0.232
			c3.844,6.452,7.701,12.905,11.645,19.304C339.607,244.239,339.997,243.994,339.827,243.714z"/>
		<path d="M342.953,243.773c-4.18-6.517-8.475-12.964-12.802-19.38c-0.101-0.151-0.323-0.023-0.218,0.141
			c4.152,6.533,8.354,13.044,12.654,19.478C342.757,244.261,343.131,244.041,342.953,243.773z"/>
		<path d="M344.436,241.788c-4.02-6.93-8.114-13.819-12.257-20.673c-0.087-0.146-0.36-0.036-0.268,0.122
			c4.002,6.937,8.045,13.849,12.175,20.709C344.203,242.139,344.559,241.999,344.436,241.788z"/>
		<path d="M346.29,239.899c-3.505-6.732-7.325-13.317-11.007-19.963c-0.089-0.157-0.372-0.094-0.275,0.089
			c3.618,6.666,7.111,13.422,10.903,19.99C346.034,240.225,346.425,240.156,346.29,239.899z"/>
		<path d="M349.004,241.112c-3.587-6.697-7.355-13.3-11.078-19.916c-0.088-0.158-0.373-0.099-0.274,0.082
			c3.623,6.662,7.224,13.354,10.979,19.95C348.753,241.438,349.137,241.356,349.004,241.112z"/>
		<path d="M351.461,241.182c-3.129-6.067-6.465-12.035-9.744-18.014c-0.081-0.153-0.344-0.094-0.255,0.076
			c3.16,6.037,6.275,12.109,9.589,18.066C351.178,241.538,351.599,241.45,351.461,241.182z"/>
		<path d="M352.067,237.331c-3.115-5.855-6.44-11.607-9.708-17.383c-0.087-0.151-0.36-0.093-0.27,0.082
			c3.174,5.821,6.289,11.679,9.614,17.413C351.821,237.647,352.194,237.578,352.067,237.331z"/>
		<path d="M363.145,252.09c-2.561-5.396-5.751-10.57-8.652-15.797c-2.922-5.262-5.88-10.5-8.812-15.757
			c-0.089-0.156-0.367-0.099-0.27,0.082c2.91,5.378,5.8,10.774,8.733,16.143c2.817,5.168,5.45,10.546,8.58,15.528
			C362.871,252.522,363.273,252.366,363.145,252.09z"/>
		<path d="M363.652,247.657c-5.229-10.051-11.108-19.834-16.788-29.633c-0.096-0.152-0.369-0.101-0.27,0.074
			c5.437,9.959,10.757,20.062,16.637,29.758C363.371,248.088,363.792,247.925,363.652,247.657z"/>
		<path d="M361.581,240.015c-4.077-7.105-8.173-14.188-12.238-21.304c-0.082-0.141-0.346-0.082-0.251,0.081
			c4.008,7.117,7.979,14.258,11.97,21.38C361.232,240.471,361.768,240.348,361.581,240.015z"/>
		<path d="M362.45,236.661c-2.747-5.396-5.642-10.728-8.476-16.077c-0.089-0.163-0.373-0.099-0.281,0.087
			c2.747,5.379,5.444,10.799,8.283,16.137C362.123,237.081,362.606,236.976,362.45,236.661z"/>
		<path d="M361.866,227.52c-2.368-3.652-4.842-7.233-7.222-10.868c-0.099-0.152-0.322-0.018-0.223,0.146
			c2.387,3.634,4.679,7.327,7.07,10.961C361.663,228.009,362.042,227.789,361.866,227.52z"/>
		<path d="M363.074,223.706c-1.942-3-3.885-6.004-5.828-9.008c-0.175-0.27-0.565-0.024-0.386,0.256
			c1.927,3.011,3.846,6.026,5.77,9.044C362.829,224.299,363.278,224.026,363.074,223.706z"/>
		<path d="M193.563,211.495c-2.131-2.806-4.259-5.617-6.475-8.359c-0.147-0.176-0.421-0.012-0.281,0.187
			c2.078,2.842,4.246,5.624,6.411,8.401C193.394,211.944,193.742,211.734,193.563,211.495z"/>
		<path d="M197.402,212.801c-2.573-3.44-5.17-6.865-7.766-10.29c-0.111-0.146-0.343-0.013-0.227,0.146
			c2.561,3.453,5.122,6.895,7.706,10.331C197.255,213.175,197.548,213,197.402,212.801z"/>
		<path d="M203.23,215.363c-2.382-4.071-4.755-8.145-7.153-12.204c-0.077-0.129-0.314-0.035-0.234,0.105
			c2.322,4.101,4.667,8.185,7.013,12.268C203.007,215.8,203.399,215.654,203.23,215.363z"/>
		<path d="M207.137,214.762c-3.074-5.678-6.481-11.2-9.753-16.771c-0.086-0.154-0.374-0.041-0.278,0.131
			c3.182,5.614,6.258,11.325,9.635,16.827C206.869,215.165,207.271,215.013,207.137,214.762z"/>
		<path d="M212.159,217.345c-2.775-4.735-5.583-9.449-8.376-14.175c-0.11-0.175-0.36-0.023-0.255,0.163
			c2.771,4.749,5.522,9.497,8.312,14.223C211.975,217.79,212.305,217.585,212.159,217.345z"/>
		<path d="M214.162,214.085c-1.488-2.165-3.022-4.288-4.54-6.423c-0.117-0.164-0.363-0.018-0.244,0.157
			c1.487,2.159,2.957,4.323,4.478,6.458C214.004,214.481,214.308,214.301,214.162,214.085z"/>
		<path d="M219.363,217.276c-2.729-4.34-5.575-8.599-8.382-12.886c-0.174-0.274-0.571-0.029-0.389,0.256
			c2.78,4.3,5.517,8.64,8.369,12.887C219.148,217.813,219.551,217.568,219.363,217.276z"/>
		<path d="M224.498,217.93c-2.923-4.353-5.996-8.599-9.018-12.888c-0.152-0.216-0.484-0.018-0.329,0.217
			c2.994,4.305,5.928,8.651,9.015,12.892C224.329,218.374,224.662,218.174,224.498,217.93z"/>
		<path d="M227.735,214.698c-1.231-1.967-2.561-3.874-3.857-5.805c-0.187-0.28-0.605-0.029-0.407,0.269
			c1.278,1.936,2.532,3.903,3.873,5.792C227.53,215.222,227.918,214.99,227.735,214.698z"/>
		<path d="M230.286,214.721c-2.492-3.71-5.158-7.305-7.749-10.944c-0.146-0.21-0.454-0.023-0.303,0.199
			c2.561,3.657,5.057,7.373,7.718,10.954C230.115,215.153,230.442,214.954,230.286,214.721z"/>
		<path d="M233.202,214.919c-3.285-5.25-6.769-10.384-10.169-15.559c-0.104-0.16-0.338-0.018-0.232,0.153
			c3.336,5.214,6.597,10.493,10.046,15.639C233.01,215.397,233.364,215.175,233.202,214.919z"/>
		<path d="M236.713,213.438c-3.337-5.216-6.906-10.291-10.371-15.422c-0.1-0.147-0.322-0.015-0.217,0.144
			c3.39,5.174,6.703,10.43,10.221,15.523C236.521,213.928,236.89,213.706,236.713,213.438z"/>
		<path d="M240.61,216.063c-3.127-5.442-6.453-10.78-9.69-16.159c-0.133-0.222-0.454-0.022-0.313,0.209
			c3.212,5.368,6.347,10.799,9.666,16.107C240.39,216.401,240.733,216.273,240.61,216.063z"/>
		<path d="M246.293,214.627c-0.152-0.584-0.306-1.16-0.449-1.739c-0.063-0.232-0.409-0.303-0.502-0.14
			c-3.28-6.417-6.64-12.798-9.966-19.191c-0.063-0.137-0.226-0.175-0.337-0.141c-0.11,0.027-0.191,0.125-0.134,0.277
			c2.997,7.294,5.92,14.65,9.112,21.868c0.129,0.291,0.6,0.18,0.473-0.146c-2.137-5.432-4.433-10.816-6.732-16.189
			c2.642,5.169,5.28,10.35,7.974,15.495C245.86,214.965,246.384,214.995,246.293,214.627z"/>
		<path d="M250.646,215.55c-3.864-5.729-8.004-11.295-12.021-16.918c-0.109-0.161-0.355-0.018-0.231,0.155
			c3.937,5.672,7.78,11.442,11.871,17.007C250.451,216.051,250.831,215.818,250.646,215.55z"/>
		<path d="M254.149,213.415c-4.002-5.852-8.185-11.586-12.303-17.358c-0.146-0.206-0.46-0.018-0.31,0.201
			c4.043,5.821,8.028,11.697,12.186,17.437C253.928,213.98,254.354,213.724,254.149,213.415z"/>
		<path d="M258.07,212.178c-3.604-6.604-7.759-12.949-11.651-19.386c-0.163-0.28-0.559-0.035-0.389,0.256
			c3.844,6.435,7.473,13.074,11.585,19.338C257.772,212.632,258.227,212.463,258.07,212.178z"/>
		<path d="M261.617,212.311c-4.264-6.387-8.867-12.57-13.3-18.848c-0.164-0.228-0.515-0.02-0.346,0.222
			c4.404,6.294,8.668,12.717,13.236,18.888C261.414,212.842,261.815,212.61,261.617,212.311z"/>
		<path d="M265.134,211.46c-3.214-5.158-6.451-10.303-9.683-15.45c-0.181-0.286-0.595-0.033-0.408,0.266
			c3.214,5.162,6.424,10.323,9.648,15.477C264.885,212.061,265.339,211.787,265.134,211.46z"/>
		<path d="M265.758,208.338c-2.291-4.327-4.828-8.546-7.262-12.801c-0.141-0.251-0.602-0.154-0.442,0.137
			c2.392,4.3,4.694,8.663,7.227,12.886C265.438,208.824,265.917,208.641,265.758,208.338z"/>
		<path d="M269.515,208.321c-2.986-4.735-5.979-9.476-9.064-14.146c-0.129-0.192-0.402-0.024-0.273,0.181
			c2.899,4.79,5.901,9.521,8.907,14.245C269.275,208.899,269.715,208.636,269.515,208.321z"/>
		<path d="M272.263,206.274c-2.629-4.172-5.619-8.152-8.429-12.205c-0.171-0.242-0.536-0.022-0.354,0.238
			c2.771,4.078,5.412,8.291,8.37,12.241C272.054,206.823,272.457,206.577,272.263,206.274z"/>
		<path d="M275.442,206.309c-2.829-4.608-6.038-9.022-9.059-13.507c-0.171-0.249-0.537-0.027-0.363,0.235
			c2.977,4.517,5.817,9.176,8.984,13.557C275.214,206.887,275.635,206.628,275.442,206.309z"/>
		<path d="M277.438,203.691c-3.068-5.021-6.423-9.909-9.73-14.781c-0.1-0.148-0.315-0.017-0.215,0.144
			c3.102,4.997,6.212,10.051,9.556,14.893C277.227,204.214,277.614,203.976,277.438,203.691z"/>
		<path d="M279.934,203.743c-2.985-4.523-6.015-9.021-9.029-13.525c-0.177-0.263-0.565-0.026-0.386,0.25
			c2.998,4.519,5.985,9.04,9.013,13.538C279.719,204.279,280.126,204.035,279.934,203.743z"/>
		<path d="M283.137,205.037c-3.074-5.016-6.439-9.882-9.672-14.808c-0.158-0.24-0.515-0.026-0.351,0.228
			c3.203,4.944,6.296,9.985,9.654,14.827C282.944,205.539,283.307,205.318,283.137,205.037z"/>
		<path d="M286.893,205.119c-2.524-3.686-5.161-7.297-7.735-10.956c-0.104-0.153-0.337-0.014-0.22,0.146
			c2.567,3.658,5.063,7.368,7.664,10.997C286.743,205.504,287.033,205.33,286.893,205.119z"/>
		<path d="M290.884,203.743c-2.562-3.022-5.169-6.007-7.759-9.003c-0.181-0.208-0.536-0.005-0.345,0.226
			c2.562,3.018,5.118,6.047,7.707,9.04C290.697,204.244,291.11,204.011,290.884,203.743z"/>
	</g>
</g>
</svg>
