<?xml version="1.0" encoding="UTF-8"?>
<svg xmlns="http://www.w3.org/2000/svg" xmlns:xlink="http://www.w3.org/1999/xlink" width="512" height="512" viewBox="0 0 55 60" version="1.1"><!-- Generator: Sketch 51.3 (57544) - http://www.bohemiancoding.com/sketch --><title>050 - Human Brain</title><desc>Created with Sketch.</desc><defs/><g id="Page-1" stroke="none" stroke-width="1" fill="none" fill-rule="evenodd"><g id="050---Human-Brain" transform="translate(0.000000, -1.000000)" fill-rule="nonzero"><path d="M47.13,38.71 C45.8503538,41.6319437 45.3706323,44.8415908 45.74,48.01 C45.9651005,50.0721875 46.3733794,52.1102353 46.96,54.1 C47.2748963,55.1305317 47.672868,56.1338218 48.15,57.1 C48.7418004,58.0090608 49.2761765,58.9542385 49.75,59.93 L24.65,60 L24.65,59.99 C24.57,59.69 23.06,53.81 19.72,52.3 C19.1,52.51 18.45,52.74 17.78,52.97 C15.5555599,53.740597 13.2924947,54.3948165 11,54.93 C10.3693821,55.0806865 9.70512584,54.9878335 9.14,54.67 L9.13,54.67 C8.4939137,54.2687189 8.01949017,53.6562169 7.79,52.94 C7.52484783,52.2284319 7.42566071,51.4657172 7.5,50.71 C7.73858566,49.940746 7.82020035,49.1314004 7.74,48.33 C7.48,47.32 6.51,47.07 5.75,46.53 C5.14,46.09 6.25,44.68 6.25,44.68 C6.25,44.68 5.07,43.81 4.65,43.43 C4.21,43.07 4.82,42.45 5.38,41.28 C5.60694079,40.7719796 5.67323378,40.2067446 5.57,39.66 C5.36,38.59 3.73,38.18 2.93,37.59 C2.56,37.31 1.95,36.89 1.88,36.38 C1.77,35.67 2.61,34.67 3.02,34.17 C4.76454657,31.9217816 6.25996718,29.4908848 7.48,26.92 C7.64010631,26.6486227 7.73589137,26.3441631 7.76,26.03 C7.74,24.6 5.67,24.01 5.47,22.62 C5.44871368,22.2115508 5.52408857,21.8038412 5.69,21.43 C6.26667192,20.2042401 6.76109856,18.9414478 7.17,17.65 C7.41142981,16.464203 7.72874925,15.2951313 8.12,14.15 C8.95859812,11.8496676 10.2508376,9.74127689 11.92,7.95 C14.37,5.36 17.99,4.08 21.41,3.4 C24.4513721,2.73504394 27.5355865,2.28393999 30.64,2.05 C30.74,2.04 30.84,2.04 30.94,2.03 C37.34,1.71 42.4,3.88 47.35,7.76 C50.0585045,9.77277844 52.0382351,12.6124983 52.99,15.85 C53.7151888,18.5213389 54.0552867,21.2825294 54,24.05 C53.980834,26.7831121 53.1829958,29.4541358 51.7,31.75 C50.21,34.1 48.25,36.14 47.13,38.71 Z" id="Shape" fill="#283593"/><path d="M44.13,38.71 C42.8503538,41.6319437 42.3706323,44.8415908 42.74,48.01 C42.9651005,50.0721875 43.3733794,52.1102353 43.96,54.1 C44.2748963,55.1305317 44.672868,56.1338218 45.15,57.1 C45.7418004,58.0090608 46.2761765,58.9542385 46.75,59.93 L24.65,59.99 C24.57,59.69 23.06,53.81 19.72,52.3 C19.1,52.51 18.45,52.74 17.78,52.97 C17.4604669,52.6972041 17.1035092,52.4715799 16.72,52.3 C14.31,53.14 11.37,54.1 9.14,54.67 L9.13,54.67 C8.4939137,54.2687189 8.01949017,53.6562169 7.79,52.94 C7.52484783,52.2284319 7.42566071,51.4657172 7.5,50.71 C7.73858566,49.940746 7.82020035,49.1314004 7.74,48.33 C7.48,47.32 6.51,47.07 5.75,46.53 C5.14,46.09 6.25,44.68 6.25,44.68 C6.25,44.68 5.07,43.81 4.65,43.43 C4.21,43.07 4.82,42.45 5.38,41.28 C5.60694079,40.7719796 5.67323378,40.2067446 5.57,39.66 C5.36,38.59 3.73,38.18 2.93,37.59 C2.56,37.31 1.95,36.89 1.88,36.38 C1.77,35.67 2.61,34.67 3.02,34.17 C4.76454657,31.9217816 6.25996718,29.4908848 7.48,26.92 C7.64010631,26.6486227 7.73589137,26.3441631 7.76,26.03 C7.74,24.6 5.67,24.01 5.47,22.62 C5.44871368,22.2115508 5.52408857,21.8038412 5.69,21.43 C6.26667192,20.2042401 6.76109856,18.9414478 7.17,17.65 C7.41142981,16.464203 7.72874925,15.2951313 8.12,14.15 C8.95859812,11.8496676 10.2508376,9.74127689 11.92,7.95 C14.37,5.36 17.99,4.08 21.41,3.4 C24.4513721,2.73504394 27.5355865,2.28393999 30.64,2.05 C35.8,2.37 40.12,4.44 44.35,7.76 C47.0585045,9.77277844 49.0382351,12.6124983 49.99,15.85 C50.7151888,18.5213389 51.0552867,21.2825294 51,24.05 C50.980834,26.7831121 50.1829958,29.4541358 48.7,31.75 C47.21,34.1 45.25,36.14 44.13,38.71 Z" id="Shape" fill="#3F51B5"/><path d="M46.02,31.88 C46.01,31.89 46,31.9 45.99,31.9 C44.08,33.75 42,36.12 42,39 C42.0175218,39.946208 41.8789993,40.8888364 41.59,41.79 C41.4485746,42.1862614 41.074241,42.4516149 40.6535045,42.4538529 C40.232768,42.4560908 39.8556328,42.1947345 39.71,41.8 C39.5044859,41.3335056 39.227865,40.9017071 38.89,40.52 C38.015104,39.5836643 37.0467316,38.7392703 36,38 C33.17,35.88 33.84,32.24 34.49,30.31 C34.55,30.12 34.61,29.94 34.67,29.79 L46.02,31.88 Z" id="Shape" fill="#BB193B"/><path d="M43.02,31.88 C43.01,31.89 43,31.9 42.99,31.9 C41.08,33.75 39,36.12 39,39 C39.0022693,39.5087345 38.9654946,40.0168931 38.89,40.52 C38.015104,39.5836643 37.0467316,38.7392703 36,38 C33.17,35.88 33.84,32.24 34.49,30.31 L43.02,31.88 Z" id="Shape" fill="#EF314C"/><path d="M49.99,23 C49.98,22.32 49.94,21.65 49.88,21 C49.7571575,19.627 49.5094669,18.2680487 49.14,16.94 C48.5867325,14.9930522 47.4989377,13.240109 46,11.88 C45.6506332,11.5368924 45.2798915,11.2162509 44.89,10.92 C44.66,10.74 44.44,10.57 44.21,10.4 C43.46,9.84 42.72,9.33 41.99,8.89 C41.52,8.59 41.06,8.33 40.59,8.09 C38.8457658,7.15316372 36.9558682,6.51756309 35,6.21 C34.3412224,6.1056673 33.6766182,6.04221264 33.01,6.02 C32.75,6.01 32.48,6 32.21,6 C31.86,6 31.5,6.01 31.14,6.03 C31.09,6.03 31.04,6.04 30.99,6.04 C30.88,6.04 30.78,6.05 30.67,6.06 C30.12,6.09 29.56,6.14 29,6.2 C28.28,6.28 27.57,6.37 26.85,6.48 C26.24,6.57 25.63,6.67 25.03,6.78 C24.07,6.95 23.12,7.13 22.2,7.32 C21.4,7.48 20.65,7.67 19.95,7.88 C19.2861196,8.07664984 18.6349014,8.31376005 18,8.59 C16.8111949,9.07668428 15.7304399,9.79378903 14.82,10.7 C13.8974109,11.6804882 13.1256486,12.7926348 12.53,14 C12.29,14.49 12.07,15.01 11.87,15.54 C11.83,15.65 11.79,15.78 11.74,15.94 C11.45,16.9 11.06,18.56 11.06,18.56 C10.9594474,19.037431 10.8992351,19.5224744 10.88,20.01 C10.8240313,20.6704236 10.8475327,21.3351777 10.95,21.99 L10.95,22 C11.0810688,23.8534968 12.2686319,25.4654676 14,26.14 C14.3120344,26.2562348 14.6331224,26.3465408 14.96,26.41 L14.99,26.41 C15.3200502,26.4705364 15.6544981,26.5039812 15.99,26.51 C16.6483493,26.5384457 17.3079152,26.5049652 17.96,26.41 C20.57,26.04 22.75,25.7 24.62,25.56 C25.4112861,25.4894642 26.2064497,25.472759 27,25.51 C27.6671412,25.5429303 28.3298875,25.636652 28.98,25.79 C30.3365713,26.126419 31.574846,26.8285692 32.56,27.82 C33.8874203,29.219906 35.3780833,30.4554104 37,31.5 C37.6062758,31.8645785 38.2499704,32.1629577 38.92,32.39 C39.3764948,32.5441268 39.8446802,32.6611731 40.32,32.74 C41.8524022,32.9669795 43.4159666,32.854321 44.9,32.41 C46.2983586,31.8419313 47.4934805,30.8663216 48.33,29.61 C48.8468647,28.7986377 49.2505894,27.9205365 49.53,27 C49.7398104,26.3543593 49.8740403,25.6865655 49.93,25.01 C49.9735614,24.6750412 49.9969369,24.3377656 50,24 C50,23.66 50,23.33 49.99,23 Z" id="Shape" fill="#AD1457"/><path d="M46.99,23 C46.98,22.32 46.94,21.65 46.88,21 C46.7571575,19.627 46.5094669,18.2680487 46.14,16.94 C45.5867325,14.9930522 44.4989377,13.240109 43,11.88 C42.6506332,11.5368924 42.2798915,11.2162509 41.89,10.92 C41.66,10.74 41.44,10.57 41.21,10.4 C40.46,9.84 39.72,9.33 38.99,8.89 C38.52,8.59 38.06,8.33 37.59,8.09 C35.8457658,7.15316372 33.9558682,6.51756309 32,6.21 C31.56,6.14 31.12,6.09 30.67,6.06 C30.12,6.09 29.56,6.14 29,6.2 C28.28,6.28 27.57,6.37 26.85,6.48 C26.24,6.57 25.63,6.67 25.03,6.78 C24.07,6.95 23.12,7.13 22.2,7.32 C21.4,7.48 20.65,7.67 19.95,7.88 C19.2861196,8.07664984 18.6349014,8.31376005 18,8.59 C16.8111949,9.07668428 15.7304399,9.79378903 14.82,10.7 C13.8974109,11.6804882 13.1256486,12.7926348 12.53,14 C12.29,14.49 12.07,15.01 11.87,15.54 C11.83,15.65 11.79,15.78 11.74,15.94 C11.45,16.9 11.06,18.56 11.06,18.56 C10.9594474,19.037431 10.8992351,19.5224744 10.88,20.01 C10.8240313,20.6704236 10.8475327,21.3351777 10.95,21.99 L10.95,22 C11.0810688,23.8534968 12.2686319,25.4654676 14,26.14 C14.3120344,26.2562348 14.6331224,26.3465408 14.96,26.41 L14.99,26.41 C17.9618038,25.8510399 20.9763498,25.5499198 24,25.51 C24.21,25.52 24.42,25.54 24.62,25.56 C25.4112861,25.4894642 26.2064497,25.472759 27,25.51 C27.6671412,25.5429303 28.3298875,25.636652 28.98,25.79 C30.3365713,26.126419 31.574846,26.8285692 32.56,27.82 C33.8874203,29.219906 35.3780833,30.4554104 37,31.5 C37.6062758,31.8645785 38.2499704,32.1629577 38.92,32.39 C39.3764948,32.5441268 39.8446802,32.6611731 40.32,32.74 C40.853105,32.6634649 41.3808279,32.5532443 41.9,32.41 C43.2983586,31.8419313 44.4934805,30.8663216 45.33,29.61 C45.8468647,28.7986377 46.2505894,27.9205365 46.53,27 C46.7398104,26.3543593 46.8740403,25.6865655 46.93,25.01 C46.9735614,24.6750412 46.9969369,24.3377656 47,24 C47,23.66 47,23.33 46.99,23 Z" id="Shape" fill="#E91E63"/><path d="M24.652,61 C24.1914886,60.9998779 23.7906017,60.6852787 23.681,60.238 C23.311,58.731 21.89,54.714 19.642,53.386 C16.8774695,54.3782517 14.0613687,55.2204782 11.206,55.909 C9.28142641,56.3278299 7.36609395,55.1655304 6.849,53.265 C6.52744641,52.4081738 6.41266812,51.4875492 6.514,50.578 C6.549,50.316 6.605,50.054 6.663,49.791 C6.78807579,49.3995915 6.82495806,48.9853489 6.771,48.578 C6.692,48.268 6.463,48.111 5.871,47.778 C5.634,47.643 5.395,47.505 5.171,47.346 C4.84929325,47.1163933 4.636274,46.7644956 4.582,46.373 C4.54207907,45.8693094 4.65425141,45.3652306 4.904,44.926 C4.566,44.667 4.196,44.376 3.98,44.186 C3.055,43.408 3.67,42.32 4.037,41.671 C4.17,41.436 4.323,41.171 4.472,40.854 C4.6078326,40.5391502 4.64581148,40.1907201 4.581,39.854 C4.531,39.589 3.808,39.221 3.381,39.001 C3.01769394,38.8295075 2.66888529,38.6288506 2.338,38.401 C1.62820814,37.99398 1.10754916,37.3234834 0.889,36.535 C0.736,35.495 1.489,34.473 2.206,33.596 C3.91852836,31.3876202 5.38644786,28.9999878 6.584,26.475 C6.6610473,26.3414285 6.7199014,26.1981608 6.759,26.049 C6.759,25.761 6.434,25.449 5.943,24.996 C5.20527991,24.4527073 4.68745785,23.66231 4.484,22.769 C4.42855272,22.1948863 4.5211656,21.6161418 4.753,21.088 C4.932,20.614 5.139,20.152 5.345,19.688 C5.69909851,18.9629785 5.98338059,18.2058975 6.194,17.427 L6.274,17.081 C6.50583315,15.9689543 6.809129,14.8730142 7.182,13.8 C8.06043793,11.3703329 9.42564537,9.14557563 11.194,7.262 C13.425,4.909 16.7,3.323 21.213,2.416 C24.3994413,1.72055152 27.6323429,1.25832648 30.886,1.033 C37.054,0.72 42.33,2.553 47.972,6.978 C50.8419656,9.12304233 52.9394252,12.1404648 53.95,15.578 C54.7041499,18.3428952 55.0577517,21.2016812 55,24.067 C54.9797429,26.9834945 54.1303625,29.8340692 52.551,32.286 C51.989,33.173 51.365,34.013 50.762,34.826 C49.6979609,36.1474912 48.7871466,37.5853366 48.047,39.112 C46.8362178,41.8690621 46.3846235,44.8997153 46.739,47.89 C46.9511935,49.8914709 47.344471,51.869573 47.914,53.8 C48.215362,54.7813937 48.5931858,55.7376557 49.044,56.66 C49.2338521,57.0273095 49.4476464,57.3817404 49.684,57.721 C50.1113078,58.3089314 50.4533585,58.9543164 50.7,59.638 C50.792765,59.9407037 50.7367064,60.269455 50.5488666,60.5243101 C50.3610269,60.7791651 50.0635974,60.9300151 49.747,60.931 L24.655,61 L24.652,61 Z M21.883,52.61 C23.5356536,54.4392348 24.7421801,56.6263851 25.408,59 L48.086,58.938 L48.014,58.829 C47.728067,58.4166191 47.4704742,57.9852931 47.243,57.538 C46.7479057,56.5237564 46.3323229,55.4725963 46,54.394 C45.3929512,52.3484416 44.9738794,50.2517436 44.748,48.13 C44.3507624,44.7856985 44.8548317,41.3960049 46.208,38.312 C47.0076285,36.6458884 47.9946737,35.0764128 49.15,33.634 C49.732,32.85 50.334,32.039 50.85,31.217 C52.2334809,29.0765484 52.9791964,26.5865525 53,24.038 C53.0565616,21.3668048 52.7295631,18.7013123 52.029,16.123 C51.1438132,13.0884855 49.2862497,10.4288003 46.742,8.553 C41.5,4.445 36.646,2.733 30.988,3.031 C27.8324216,3.25087605 24.6970954,3.70073737 21.607,4.377 C17.515,5.2 14.583,6.6 12.646,8.64 C11.0637072,10.3286486 9.84308304,12.3227544 9.059,14.5 C8.71578786,15.4907322 8.4365467,16.5024803 8.223,17.529 L8.142,17.878 C7.90371914,18.7812913 7.5785352,19.6593884 7.171,20.5 C6.98,20.926 6.789,21.352 6.625,21.786 C6.5234659,22.005633 6.46896694,22.244066 6.465,22.486 C6.508,22.794 6.89,23.144 7.294,23.514 C8.12234739,24.0949196 8.65706311,25.0074038 8.759,26.014 C8.74246385,26.4911444 8.60777144,26.9567266 8.367,27.369 C7.11750632,30.0036689 5.58623782,32.4952074 3.8,34.8 C3.031,35.739 2.874,36.1 2.871,36.255 C3.05520853,36.4277033 3.25172627,36.586789 3.459,36.731 C3.7224146,36.9148639 4.00071366,37.0764245 4.291,37.214 C5.148,37.65 6.319,38.248 6.552,39.475 C6.69685807,40.2301779 6.60283456,41.0117265 6.283,41.711 C6.113,42.068 5.938,42.381 5.783,42.652 C5.73,42.745 5.673,42.852 5.622,42.941 C6.032,43.27 6.604,43.698 6.844,43.876 C7.06080559,44.0366423 7.20349027,44.2780834 7.23964592,44.5454845 C7.27580157,44.8128856 7.20235925,45.0835495 7.036,45.296 C6.88837287,45.4892947 6.76009025,45.6966235 6.653,45.915 L6.867,46.038 C7.75050579,46.4186203 8.42393753,47.1658228 8.711,48.084 C8.85445273,48.7933366 8.82218121,49.5269987 8.617,50.221 C8.571,50.429 8.524,50.636 8.497,50.843 C8.43955494,51.4417309 8.52205899,52.0456195 8.738,52.607 C8.95267004,53.5361025 9.86342587,54.1292863 10.8,53.95 C13.7082521,53.2405321 16.5760902,52.3746058 19.391,51.356 C20.348,51.029 21.223,50.723 21.936,50.473 C22.723,50.197 23.316,49.99 23.614,49.896 C27.769,48.596 28.614,47.09 28.588,46.06 C28.5815579,45.7947619 28.6807846,45.5378357 28.8638363,45.3457814 C29.0468879,45.1537272 29.2987583,45.0422894 29.564,45.036 C30.1086638,45.0428959 30.5555395,45.4692606 30.588,46.013 C30.646,48.513 28.502,50.458 24.215,51.804 C23.929,51.894 23.356,52.095 22.598,52.36 C22.379,52.438 22.138,52.521 21.883,52.61 Z M5.291,42.669 L5.308,42.684 L5.291,42.669 Z" id="Shape" fill="#000000"/><path d="M41.781,33.857 C37.305,33.857 34.44,31.057 31.856,28.53 C29.085,25.82 25.865,26.283 19.449,27.206 L18.1,27.4 C15.208,27.81 13.006,27.246 11.566,25.72 C9.297,23.314 9.855,19.479 10.08,18.36 C10.141,18.099 10.624,16.025 10.931,15.192 C11.6243011,13.2690894 12.7026233,11.5078411 14.1,10.016 C15.722,8.305 18.381,7.067 22,6.338 C24.9929926,5.68213102 28.0296334,5.24431466 31.086,5.028 C31.469,5.01 31.841,5 32.209,5 C36.886,5 40.987,6.583 45.509,10.131 C47.7153132,11.7487776 49.329047,14.0465827 50.102,16.671 C50.7510282,19.0620895 51.053446,21.5339675 51,24.011 C50.985137,26.1871131 50.3518477,28.3141465 49.174,30.144 C48.2073995,31.6116536 46.8054685,32.7397727 45.165,33.37 C44.0641857,33.6844881 42.9258229,33.8483128 41.781,33.857 Z M44.631,31.442 L44.896,32.406 L44.631,31.442 C45.7902606,30.9457343 46.7801377,30.1229793 47.48,29.074 C48.4607358,27.5558177 48.9880344,25.7893674 49,23.982 C49.0522929,21.699483 48.7768195,19.4212704 48.182,17.217 C47.5202095,15.0026628 46.1501325,13.0666385 44.282,11.706 C39.745,8.146 35.882,6.806 31.194,7.026 C28.2358699,7.23887788 25.2969255,7.66464717 22.4,8.3 C19.189,8.945 16.885,9.986 15.553,11.392 C14.3446204,12.6877589 13.4129957,14.216195 12.815,15.884 C12.591,16.484 12.181,18.184 12.042,18.784 C11.683,20.57 11.748,22.991 13.027,24.349 C13.995,25.374 15.608,25.736 17.827,25.421 L19.169,25.23 C25.784,24.278 29.781,23.703 33.259,27.104 C36.858,30.624 39.6,32.827 44.631,31.442 Z" id="Shape" fill="#000000"/><path d="M40,45 C39.4477153,45 39,44.5522847 39,44 C39,42.231 39,41.5 35.4,38.8 C31.609,35.96 33.168,30.911 33.736,29.432 C33.933718,28.9161661 34.512166,28.6582821 35.028,28.8560001 C35.5438339,29.053718 35.8017179,29.6321661 35.604,30.148 C35.038,31.621 34.004,35.255 36.604,37.199 C39.104,39.074 40.185,40.285 40.652,41.454 C40.9007106,40.6603746 41.0182551,39.8314836 41,39 C41,35.775 43.171,33.238 45.3,31.182 C45.4875473,31.000184 45.7387913,30.8989685 46,30.9 L46.03,31.88 L46.737,32.587 C46.708,32.615 46.678,32.642 46.647,32.667 C44.83,34.423 43,36.545 43,39 C43,43.488 40.709,44.764 40.447,44.9 C40.3077438,44.9674687 40.1547301,45.0016999 40,45 Z" id="Shape" fill="#000000"/><path d="M13,22 L11,22 C10.4477153,22 10,21.5522847 10,21 C10,20.4477153 10.4477153,20 11,20 L13,20 C13.5522847,20 14,19.5522847 14,19 C14,18.4477153 14.4477153,18 15,18 C15.5522847,18 16,18.4477153 16,19 C16,20.6568542 14.6568542,22 13,22 Z" id="Shape" fill="#000000"/><path d="M15,27.41 C14.4477153,27.41 14,26.9622847 14,26.41 L14,25 C14,24.4477153 14.4477153,24 15,24 C15.5522847,24 16,24.4477153 16,25 L16,26.41 C16,26.9622847 15.5522847,27.41 15,27.41 Z" id="Shape" fill="#000000"/><path d="M22,23 L21,23 C19.3431458,23 18,21.6568542 18,20 L18,19 C18,17.3431458 19.3431458,16 21,16 L22,16 C22.5522847,16 23,16.4477153 23,17 C23,17.5522847 22.5522847,18 22,18 L21,18 C20.4477153,18 20,18.4477153 20,19 L20,20 C20,20.5522847 20.4477153,21 21,21 L22,21 C22.5522847,21 23,21.4477153 23,22 C23,22.5522847 22.5522847,23 22,23 Z" id="Shape" fill="#000000"/><path d="M16,16 L12.08,16 C11.5277153,16 11.08,15.5522847 11.08,15 C11.08,14.4477153 11.5277153,14 12.08,14 L16,14 C16.5522847,14 17,14.4477153 17,15 C17,15.5522847 16.5522847,16 16,16 Z" id="Shape" fill="#000000"/><path d="M21,14 C19.3431458,14 18,12.6568542 18,11 L18,8.19 C18,7.63771525 18.4477153,7.19 19,7.19 C19.5522847,7.19 20,7.63771525 20,8.19 L20,11 C20,11.5522847 20.4477153,12 21,12 C21.5522847,12 22,12.4477153 22,13 C22,13.5522847 21.5522847,14 21,14 Z" id="Shape" fill="#000000"/><path d="M26,21 L25,21 C24.4477153,21 24,20.5522847 24,20 C24,19.4477153 24.4477153,19 25,19 L26,19 C26.5522847,19 27,18.5522847 27,18 L27,16 C27,15.4477153 27.4477153,15 28,15 C28.5522847,15 29,15.4477153 29,16 L29,18 C29,19.6568542 27.6568542,21 26,21 Z" id="Shape" fill="#000000"/><path d="M31,16 C30.4477153,16 30,15.5522847 30,15 L30,14 C30,13.4477153 29.5522847,13 29,13 L27,13 C26.4477153,13 26,13.4477153 26,14 L26,15 C26,15.5522847 25.5522847,16 25,16 C24.4477153,16 24,15.5522847 24,15 L24,14 C24,12.3431458 25.3431458,11 27,11 L29,11 C30.6568542,11 32,12.3431458 32,14 L32,15 C32,15.5522847 31.5522847,16 31,16 Z" id="Shape" fill="#000000"/><path d="M26,9 C25.4477153,9 25,8.55228475 25,8 L25,7 C25,6.44771525 25.4477153,6 26,6 C26.5522847,6 27,6.44771525 27,7 L27,8 C27,8.55228475 26.5522847,9 26,9 Z" id="Shape" fill="#000000"/><path d="M30,9 C29.4477153,9 29,8.55228475 29,8 L29,6.1 C29,5.54771525 29.4477153,5.1 30,5.1 C30.5522847,5.1 31,5.54771525 31,6.1 L31,8 C31,8.55228475 30.5522847,9 30,9 Z" id="Shape" fill="#000000"/><path d="M36,12 L34,12 C33.4477153,12 33,11.5522847 33,11 L33,6.09 C33,5.53771525 33.4477153,5.09 34,5.09 C34.5522847,5.09 35,5.53771525 35,6.09 L35,10 L36,10 C36.5522847,10 37,10.4477153 37,11 C37,11.5522847 36.5522847,12 36,12 Z" id="Shape" fill="#000000"/><path d="M28,26.6 C27.4477153,26.6 27,26.1522847 27,25.6 L27,24 C27,23.4477153 27.4477153,23 28,23 C28.5522847,23 29,23.4477153 29,24 L29,25.6 C29,26.1522847 28.5522847,26.6 28,26.6 Z" id="Shape" fill="#000000"/><path d="M35,24 L34,24 C32.3431458,24 31,22.6568542 31,21 L31,20 C31,19.4477153 31.4477153,19 32,19 C32.5522847,19 33,19.4477153 33,20 L33,21 C33,21.5522847 33.4477153,22 34,22 L35,22 C35.5522847,22 36,22.4477153 36,23 C36,23.5522847 35.5522847,24 35,24 Z" id="Shape" fill="#000000"/><path d="M39,20 L38,20 C36.3431458,20 35,18.6568542 35,17 C35,15.3431458 36.3431458,14 38,14 L39,14 C39.5522847,14 40,14.4477153 40,15 C40,15.5522847 39.5522847,16 39,16 L38,16 C37.4477153,16 37,16.4477153 37,17 C37,17.5522847 37.4477153,18 38,18 L39,18 C39.5522847,18 40,18.4477153 40,19 C40,19.5522847 39.5522847,20 39,20 Z" id="Shape" fill="#000000"/><path d="M41,13 C40.4477153,13 40,12.5522847 40,12 L40,9 C40,8.44771525 40.4477153,8 41,8 C41.5522847,8 42,8.44771525 42,9 L42,12 C42,12.5522847 41.5522847,13 41,13 Z" id="Shape" fill="#000000"/><path d="M43,17 C42.4477153,17 42,16.5522847 42,16 C42,15.4477153 42.4477153,15 43,15 C43.5522847,15 44,14.5522847 44,14 L44,11.01 C44,10.4577153 44.4477153,10.01 45,10.01 C45.5522847,10.01 46,10.4577153 46,11.01 L46,14 C46,15.6568542 44.6568542,17 43,17 Z" id="Shape" fill="#000000"/><path d="M41,25 L40,25 C39.4477153,25 39,24.5522847 39,24 C39,23.4477153 39.4477153,23 40,23 L41,23 C41.5522847,23 42,22.5522847 42,22 L42,20 C42,19.4477153 42.4477153,19 43,19 C43.5522847,19 44,19.4477153 44,20 L44,22 C44,23.6568542 42.6568542,25 41,25 Z" id="Shape" fill="#000000"/><path d="M38,33 C37.4477153,33 37,32.5522847 37,32 L37,30 C37,28.3431458 38.3431458,27 40,27 L43,27 C43.5522847,27 44,27.4477153 44,28 C44,28.5522847 43.5522847,29 43,29 L40,29 C39.4477153,29 39,29.4477153 39,30 L39,32 C39,32.5522847 38.5522847,33 38,33 Z" id="Shape" fill="#000000"/><path d="M49.96,23 L47,23 C46.4477153,23 46,22.5522847 46,22 C46,21.4477153 46.4477153,21 47,21 L49.96,21 C50.5122847,21 50.96,21.4477153 50.96,22 C50.96,22.5522847 50.5122847,23 49.96,23 Z" id="Shape" fill="#000000"/><path d="M49.79,27 L47,27 C46.4477153,27 46,26.5522847 46,26 C46,25.4477153 46.4477153,25 47,25 L49.79,25 C50.3422847,25 50.79,25.4477153 50.79,26 C50.79,26.5522847 50.3422847,27 49.79,27 Z" id="Shape" fill="#000000"/></g></g></svg>
