<svg width="191" height="60" viewBox="0 0 191 60" fill="none" xmlns="http://www.w3.org/2000/svg">
<path d="M50.2865 17.783C50.1852 18.3277 49.9002 19.17 49.4315 20.31C49.2795 20.69 48.8045 21.773 48.0065 23.559C47.7658 24.091 47.3922 24.9713 46.8855 26.2C46.7588 26.6307 46.5562 27.283 46.2775 28.157C45.9228 29.2337 45.6378 29.8163 45.4225 29.905C45.2198 29.9937 44.8652 30.076 44.3585 30.152L44.3015 29.563C44.3015 28.917 44.5802 27.9733 45.1375 26.732L46.7525 23.141C47.2972 21.925 47.5695 20.937 47.5695 20.177C47.2402 20.3417 46.5055 20.975 45.3655 22.077L42.4965 24.87C41.5085 25.8327 40.8055 26.314 40.3875 26.314C39.8555 26.314 39.5198 25.3387 39.3805 23.388C39.2918 22.172 39.2222 21.4627 39.1715 21.26C38.6775 21.9693 38.0822 23.1283 37.3855 24.737C36.7015 26.333 36.1062 27.492 35.5995 28.214C34.7635 29.4047 33.9212 30 33.0725 30L34.0985 27.72C34.4405 26.9727 35.0992 25.535 36.0745 23.407C36.7712 21.8743 37.1638 21.0447 37.2525 20.918C37.4552 20.614 37.9112 20.2783 38.6205 19.911C38.6712 19.8223 38.7725 19.531 38.9245 19.037C39.0132 18.7457 39.2158 18.4543 39.5325 18.163C40.0265 18.6063 40.3938 19.2903 40.6345 20.215C40.6978 20.4557 40.8688 21.8427 41.1475 24.376H41.3185C41.7365 24.376 42.5472 23.7427 43.7505 22.476L47.1325 18.904C48.3612 17.6247 49.1655 16.985 49.5455 16.985C49.7102 17.0737 49.8812 17.1623 50.0585 17.251L50.2865 17.783ZM62.248 16.529C61.8047 17.0357 60.8484 17.9857 59.379 19.379C58.0744 20.6203 57.1307 21.6083 56.548 22.343C55.6234 23.521 55.0154 24.6863 54.724 25.839L53.565 30.475C53.375 31.235 52.7417 31.7353 51.665 31.976C51.5257 31.8367 51.456 31.7163 51.456 31.615C51.456 31.5137 51.5257 31.3933 51.665 31.254C51.6777 31.1527 52.0704 29.9177 52.843 27.549C53.1344 26.6497 53.28 25.8897 53.28 25.269C53.28 24.3317 52.862 23.0777 52.026 21.507C51.5827 20.709 50.9114 19.512 50.012 17.916C50.012 17.7513 50.0944 17.5993 50.259 17.46C50.4237 17.3207 50.5884 17.251 50.753 17.251C51.1584 17.251 51.5447 17.6753 51.912 18.524C52.102 18.98 52.4504 19.797 52.957 20.975C53.375 21.925 53.7994 22.476 54.23 22.628C54.9394 22.3873 55.8704 21.7033 57.023 20.576C57.403 20.196 58.3214 19.2207 59.778 17.65C60.7154 16.6367 61.279 16.13 61.469 16.13C61.7477 16.13 62.0074 16.263 62.248 16.529ZM79.0247 19.455C79.0247 20.253 78.5371 21.0953 77.5617 21.982C77.2831 22.2353 76.4534 22.8497 75.0727 23.825C76.0607 24.053 76.8081 24.2557 77.3147 24.433C78.2141 24.7497 78.6637 25.288 78.6637 26.048C78.6637 27.2133 77.5427 28.233 75.3007 29.107C73.4514 29.8163 71.8174 30.171 70.3987 30.171C69.9554 30.171 69.5501 30.095 69.1827 29.943C68.7267 29.7277 68.4987 29.4237 68.4987 29.031C68.4987 28.879 68.5431 28.6637 68.6317 28.385C69.6957 28.993 70.4367 29.297 70.8547 29.297C71.6527 29.297 72.9004 28.9423 74.5977 28.233C76.4724 27.4477 77.4097 26.732 77.4097 26.086C77.4097 25.6807 77.0487 25.3577 76.3267 25.117C75.7947 24.9397 75.2627 24.851 74.7307 24.851C72.7547 24.851 71.4437 26.029 70.7977 28.385L69.7147 28.195C69.7147 27.4477 70.0377 26.504 70.6837 25.364C71.0257 24.7813 71.6337 23.7363 72.5077 22.229C73.1664 21.089 73.4957 20.2467 73.4957 19.702L73.4577 19.455C73.2044 19.531 72.8751 19.702 72.4697 19.968C72.0264 20.2593 71.7034 20.4493 71.5007 20.538C71.3741 20.3987 71.3107 20.3037 71.3107 20.253V19.987C71.3107 19.3283 72.0074 18.7773 73.4007 18.334C74.5154 17.9793 75.4971 17.802 76.3457 17.802C77.1944 17.802 77.7897 17.8717 78.1317 18.011C78.7271 18.2517 79.0247 18.733 79.0247 19.455ZM77.7517 19.664C77.7517 19.3347 77.5871 19.0813 77.2577 18.904C76.9791 18.752 76.6624 18.676 76.3077 18.676C75.9911 18.676 75.6617 18.733 75.3197 18.847C75.0917 18.923 74.7751 19.0623 74.3697 19.265C74.4964 19.5437 74.5597 19.8097 74.5597 20.063C74.5597 20.367 74.3444 20.9497 73.9137 21.811C73.4957 22.6597 73.2867 23.2677 73.2867 23.635L73.6477 23.274C74.2051 23.2233 75.0157 22.7547 76.0797 21.868C77.1944 20.9307 77.7517 20.196 77.7517 19.664ZM93.8655 22.837C93.8655 24.433 93.0675 26.0543 91.4715 27.701C89.8755 29.335 88.2859 30.152 86.7025 30.152H85.6385C84.0679 30.152 82.9025 30.019 82.1425 29.753C80.8885 29.297 80.2615 28.4167 80.2615 27.112C80.2615 24.8573 81.4395 22.7737 83.7955 20.861C84.3402 20.443 85.3092 19.664 86.7025 18.524C86.9812 18.2707 87.4752 17.8273 88.1845 17.194C88.7672 16.6873 89.3625 16.434 89.9705 16.434C91.2119 16.434 92.2062 17.2193 92.9535 18.79C93.5615 20.0693 93.8655 21.4183 93.8655 22.837ZM92.0795 20.557C92.0795 19.8223 91.8199 19.3283 91.3005 19.075C90.9332 18.8977 90.3315 18.809 89.4955 18.809C88.6722 18.809 87.5195 19.4043 86.0375 20.595C84.9229 21.4943 83.9539 22.4317 83.1305 23.407C82.0539 24.6863 81.5155 25.687 81.5155 26.409C81.5155 27.1943 82.0159 27.8467 83.0165 28.366C83.8525 28.7967 84.7012 29.012 85.5625 29.012C87.6905 29.012 89.3499 28.1063 90.5405 26.295C91.5665 24.737 92.0795 22.8243 92.0795 20.557ZM107.096 23.654C107.096 25.1487 106.292 26.5167 104.683 27.758C103.556 28.6193 102.131 29.3667 100.408 30C98.6346 30.6207 97.0576 30.931 95.6769 30.931C94.0429 30.931 93.2259 30.494 93.2259 29.62C93.2259 29.24 93.5109 28.9487 94.0809 28.746C94.0682 28.8727 94.0619 28.9613 94.0619 29.012C94.0619 29.4807 94.2266 29.8037 94.5559 29.981C94.8092 30.095 95.1892 30.152 95.6959 30.152C96.9372 30.152 98.4066 29.8163 100.104 29.145C101.713 28.4863 103.043 27.739 104.094 26.903C105.475 25.801 106.165 24.68 106.165 23.54C106.165 22.1973 105.082 20.8737 102.916 19.569C100.953 18.391 99.2489 17.802 97.8049 17.802H97.4249C96.4369 17.802 95.8542 17.6057 95.6769 17.213C95.6769 17.0103 95.8099 16.8393 96.0759 16.7C96.2912 16.586 96.5129 16.529 96.7409 16.529C98.0709 16.529 99.5656 16.8837 101.225 17.593C102.821 18.2643 104.132 19.0687 105.158 20.006C106.45 21.184 107.096 22.4 107.096 23.654ZM102.65 20.823C102.663 21.203 102.428 21.773 101.947 22.533C101.795 22.7737 101.314 23.4577 100.503 24.585C99.8569 25.4843 99.3439 26.485 98.9639 27.587C98.7992 27.8657 98.6092 28.005 98.3939 28.005C98.2292 28.005 98.0709 27.9417 97.9189 27.815C97.7796 27.6757 97.7099 27.5237 97.7099 27.359C97.7099 27.0803 97.9442 26.6623 98.4129 26.105L99.4199 24.908C99.6226 24.5913 99.9266 23.9517 100.332 22.989C100.991 21.431 101.7 20.4937 102.46 20.177L102.631 20.348L102.65 20.823ZM120.714 16.529C120.271 17.0357 119.314 17.9857 117.845 19.379C116.54 20.6203 115.597 21.6083 115.014 22.343C114.089 23.521 113.481 24.6863 113.19 25.839L112.031 30.475C111.841 31.235 111.208 31.7353 110.131 31.976C109.992 31.8367 109.922 31.7163 109.922 31.615C109.922 31.5137 109.992 31.3933 110.131 31.254C110.144 31.1527 110.536 29.9177 111.309 27.549C111.6 26.6497 111.746 25.8897 111.746 25.269C111.746 24.3317 111.328 23.0777 110.492 21.507C110.049 20.709 109.377 19.512 108.478 17.916C108.478 17.7513 108.56 17.5993 108.725 17.46C108.89 17.3207 109.054 17.251 109.219 17.251C109.624 17.251 110.011 17.6753 110.378 18.524C110.568 18.98 110.916 19.797 111.423 20.975C111.841 21.925 112.265 22.476 112.696 22.628C113.405 22.3873 114.336 21.7033 115.489 20.576C115.869 20.196 116.787 19.2207 118.244 17.65C119.181 16.6367 119.745 16.13 119.935 16.13C120.214 16.13 120.473 16.263 120.714 16.529ZM137.491 19.455C137.491 20.253 137.003 21.0953 136.028 21.982C135.749 22.2353 134.919 22.8497 133.539 23.825C134.527 24.053 135.274 24.2557 135.781 24.433C136.68 24.7497 137.13 25.288 137.13 26.048C137.13 27.2133 136.009 28.233 133.767 29.107C131.917 29.8163 130.283 30.171 128.865 30.171C128.421 30.171 128.016 30.095 127.649 29.943C127.193 29.7277 126.965 29.4237 126.965 29.031C126.965 28.879 127.009 28.6637 127.098 28.385C128.162 28.993 128.903 29.297 129.321 29.297C130.119 29.297 131.366 28.9423 133.064 28.233C134.938 27.4477 135.876 26.732 135.876 26.086C135.876 25.6807 135.515 25.3577 134.793 25.117C134.261 24.9397 133.729 24.851 133.197 24.851C131.221 24.851 129.91 26.029 129.264 28.385L128.181 28.195C128.181 27.4477 128.504 26.504 129.15 25.364C129.492 24.7813 130.1 23.7363 130.974 22.229C131.632 21.089 131.962 20.2467 131.962 19.702L131.924 19.455C131.67 19.531 131.341 19.702 130.936 19.968C130.492 20.2593 130.169 20.4493 129.967 20.538C129.84 20.3987 129.777 20.3037 129.777 20.253V19.987C129.777 19.3283 130.473 18.7773 131.867 18.334C132.981 17.9793 133.963 17.802 134.812 17.802C135.66 17.802 136.256 17.8717 136.598 18.011C137.193 18.2517 137.491 18.733 137.491 19.455ZM136.218 19.664C136.218 19.3347 136.053 19.0813 135.724 18.904C135.445 18.752 135.128 18.676 134.774 18.676C134.457 18.676 134.128 18.733 133.786 18.847C133.558 18.923 133.241 19.0623 132.836 19.265C132.962 19.5437 133.026 19.8097 133.026 20.063C133.026 20.367 132.81 20.9497 132.38 21.811C131.962 22.6597 131.753 23.2677 131.753 23.635L132.114 23.274C132.671 23.2233 133.482 22.7547 134.546 21.868C135.66 20.9307 136.218 20.196 136.218 19.664ZM152.521 15.066C152.331 16.2187 151.812 17.7197 150.963 19.569L148.797 24.319C148.063 25.9277 147.695 27.2197 147.695 28.195C147.695 28.651 147.942 29.1957 148.436 29.829L149.12 30.684L148.721 30.741C148.671 30.7537 148.595 30.76 148.493 30.76C147.949 30.76 147.486 30.5067 147.106 30C146.764 29.544 146.593 29.031 146.593 28.461C146.593 28.2837 146.676 27.8403 146.84 27.131C146.916 26.8017 146.954 26.542 146.954 26.352C146.954 26.3013 146.916 26.1873 146.84 26.01C146.764 25.8327 146.726 25.725 146.726 25.687C146.397 25.5097 145.814 25.421 144.978 25.421H144.275C143.173 25.421 142.318 25.801 141.71 26.561C141.419 27.093 141.007 27.8023 140.475 28.689C140.019 29.449 139.373 29.829 138.537 29.829C138.588 29.411 138.829 28.8727 139.259 28.214C139.373 28.0493 139.734 27.5553 140.342 26.732L139.259 26.371V26.181C139.259 25.5857 139.57 25.2437 140.19 25.155C140.988 25.0283 141.603 24.49 142.033 23.54C142.489 22.514 142.939 22.001 143.382 22.001C143.674 22.001 143.921 22.0707 144.123 22.21C144.655 21.9187 145.479 21.127 146.593 19.835C148.215 17.9603 149.152 16.89 149.405 16.624C150.457 15.5473 151.318 15.009 151.989 15.009L152.521 15.066ZM150.887 16.529C149.76 17.3017 148.405 18.5177 146.821 20.177C145.175 21.8617 144.022 23.2613 143.363 24.376C143.731 24.452 144.073 24.5343 144.389 24.623C145.175 24.8383 145.764 24.946 146.156 24.946C146.549 24.946 146.885 24.87 147.163 24.718C147.328 24.6293 147.854 23.749 148.74 22.077C149.576 20.481 150.089 19.474 150.279 19.056C150.685 18.1187 150.887 17.2763 150.887 16.529ZM143.762 22.647L143.724 22.172L143.534 22.381C143.332 22.381 143.237 22.457 143.249 22.609C143.249 22.723 143.287 22.8813 143.363 23.084C143.629 22.856 143.762 22.7103 143.762 22.647ZM143.325 23.312V23.122L143.154 22.951L142.964 23.122V23.312L143.154 23.502L143.325 23.312ZM164.313 28.917L160.969 29.791C159.69 30.0697 158.55 30.209 157.549 30.209C154.18 30.209 152.495 28.993 152.495 26.561C152.495 25.3957 153.04 24.034 154.129 22.476C155.041 21.1713 156.061 20.082 157.188 19.208C158.556 18.144 159.772 17.612 160.836 17.612C162.381 17.612 163.154 18.3403 163.154 19.797C163.154 20.0377 163.065 20.823 162.888 22.153C162.483 22.0897 162.242 22.039 162.166 22.001C162.027 21.925 161.875 21.7413 161.71 21.45C161.887 20.7407 161.976 20.196 161.976 19.816C161.976 19.1067 161.583 18.752 160.798 18.752C159.721 18.752 158.562 19.2777 157.321 20.329C156.32 21.1903 155.472 22.1847 154.775 23.312C153.99 24.5787 153.597 25.706 153.597 26.694C153.597 27.6693 154.066 28.4103 155.003 28.917C155.75 29.3223 156.656 29.525 157.72 29.525C158.315 29.525 159.025 29.4807 159.848 29.392C160.139 29.3667 160.849 29.2717 161.976 29.107C162.229 29.069 162.59 28.9613 163.059 28.784C163.528 28.6067 163.882 28.499 164.123 28.461C164.199 28.575 164.262 28.727 164.313 28.917ZM175.79 18.809C175.79 19.4677 175.233 20.1707 174.118 20.918C174.08 20.9433 173.041 21.6083 171.002 22.913C169.887 23.6223 169.33 24.1733 169.33 24.566C169.33 24.908 169.799 25.3577 170.736 25.915C171.154 26.143 171.775 26.4913 172.598 26.96C173.434 27.4287 173.909 27.8213 174.023 28.138C174.112 28.3787 174.156 28.7587 174.156 29.278V29.658C173.776 29.658 173.25 29.373 172.579 28.803L170.622 27.131C169.887 26.4977 169.032 26.124 168.057 26.01C167.816 27.1247 167.696 28.2773 167.696 29.468C167.113 29.3793 166.727 29.2907 166.537 29.202C166.22 29.0627 165.954 28.7903 165.739 28.385C166.22 28.0937 166.556 27.72 166.746 27.264C166.86 26.9853 167.056 26.504 167.335 25.82L166.993 25.459C166.879 25.4717 166.822 25.497 166.822 25.535V25.82C166.784 25.744 166.689 25.5603 166.537 25.269C166.385 24.965 166.309 24.7877 166.309 24.737C166.309 24.5723 166.379 24.3823 166.518 24.167L167.145 23.198C167.082 22.9067 167.025 22.609 166.974 22.305C166.974 22.1277 167.031 21.8933 167.145 21.602C167.398 20.9687 167.525 20.557 167.525 20.367C167.512 20.2277 167.474 19.835 167.411 19.189C167.411 18.7963 167.626 18.5177 168.057 18.353C168.26 18.8977 168.361 19.531 168.361 20.253C168.361 20.5823 168.355 20.8863 168.342 21.165L168.304 22.077C168.291 22.457 168.329 22.8497 168.418 23.255C169.013 23.0017 169.875 22.4823 171.002 21.697C172.142 20.899 172.953 20.2593 173.434 19.778C173.472 19.74 173.922 19.2143 174.783 18.201C175.15 17.7703 175.353 17.5487 175.391 17.536C175.657 17.7007 175.79 18.125 175.79 18.809Z" fill="#776E7C"/>
<path d="M157.202 38.612C157.202 39.3307 156.743 39.9687 155.827 40.526C155.416 40.7753 154.51 41.186 153.11 41.758C152.032 42.1907 151.397 42.5683 151.207 42.891C150.965 43.4923 150.767 43.9507 150.613 44.266C150.29 44.9187 149.96 45.245 149.623 45.245C149.417 45.245 149.315 45.1423 149.315 44.937C149.315 44.7757 149.516 44.4383 149.92 43.925C150.103 43.705 150.371 43.375 150.723 42.935C151.067 42.495 151.28 42.154 151.361 41.912L152.494 40.526C152.97 39.8733 153.209 39.349 153.209 38.953C153.15 38.9897 153.073 39.0373 152.978 39.096C152.882 39.1473 152.758 39.2023 152.604 39.261C152.494 39.1657 152.439 39.03 152.439 38.854C152.439 38.5387 152.948 38.2307 153.968 37.93C154.833 37.6733 155.493 37.545 155.948 37.545C156.784 37.545 157.202 37.9007 157.202 38.612ZM156.553 38.579C156.553 38.271 156.263 38.117 155.684 38.117C155.324 38.117 154.972 38.227 154.628 38.447C154.32 38.645 153.909 39.1143 153.396 39.855C152.868 40.625 152.604 41.1677 152.604 41.483C152.816 41.4097 153.198 41.2667 153.748 41.054C154.32 40.812 154.851 40.4747 155.343 40.042C155.526 39.8807 155.823 39.5873 156.234 39.162C156.446 38.942 156.553 38.7477 156.553 38.579ZM162.016 39.481L160.289 38.92C159.864 38.92 159.49 39.2097 159.167 39.789C159.05 39.987 158.852 40.4563 158.573 41.197C158.302 41.9303 157.862 42.297 157.253 42.297C157.29 41.9963 157.481 41.582 157.825 41.054C158.199 40.482 158.423 40.0603 158.496 39.789C158.555 39.5617 158.595 39.1877 158.617 38.667C158.625 38.447 158.676 38.2197 158.771 37.985C158.903 37.655 159.054 37.4827 159.222 37.468L159.431 37.479L159.541 38.227C159.593 38.4177 159.765 38.513 160.058 38.513H160.432C160.498 38.5057 160.55 38.502 160.586 38.502C161.43 38.4873 161.906 38.8137 162.016 39.481ZM168.907 39.943C168.907 40.6323 168.408 41.1713 167.411 41.56C166.655 41.8533 165.86 42 165.024 42C163.271 42 162.395 41.5673 162.395 40.702C162.395 40.086 162.967 39.4883 164.111 38.909C165.13 38.3957 165.988 38.139 166.685 38.139C167.301 38.139 167.81 38.282 168.214 38.568C168.676 38.8907 168.907 39.349 168.907 39.943ZM168.302 39.877C168.302 39.5177 168.118 39.2463 167.752 39.063C167.458 38.9163 167.114 38.843 166.718 38.843C166.058 38.843 165.372 39.0263 164.661 39.393C163.913 39.767 163.377 40.2253 163.055 40.768C163.553 41.274 164.151 41.527 164.848 41.527C165.515 41.527 166.201 41.406 166.905 41.164C167.836 40.8413 168.302 40.4123 168.302 39.877ZM172.725 35.972C172.725 36.1333 172.552 36.214 172.208 36.214C171.98 36.214 171.724 36.1773 171.438 36.104V35.95C171.438 35.8033 171.511 35.6713 171.658 35.554C171.812 35.4367 171.966 35.378 172.12 35.378C172.237 35.378 172.365 35.4477 172.505 35.587C172.651 35.7263 172.725 35.8547 172.725 35.972ZM171.691 39.14L171.328 40.218C171.144 40.7973 170.888 41.5563 170.558 42.495C169.597 44.9223 168.537 46.136 167.379 46.136C166.873 46.136 166.407 45.8427 165.982 45.256C165.586 44.706 165.388 44.167 165.388 43.639C165.388 43.4117 165.443 43.2137 165.553 43.045C165.677 42.847 165.846 42.748 166.059 42.748C166.257 42.748 166.37 42.8727 166.4 43.122C166.37 43.2173 166.323 43.309 166.257 43.397C166.139 43.551 166.081 43.7453 166.081 43.98C166.081 44.376 166.194 44.7317 166.422 45.047C166.671 45.399 166.986 45.575 167.368 45.575C168.6 45.575 169.685 44.1413 170.624 41.274C170.763 40.856 171.034 40.0127 171.438 38.744H171.537L171.647 38.843C171.639 38.8797 171.643 38.931 171.658 38.997C171.68 39.063 171.691 39.1107 171.691 39.14ZM178.056 41.274C177.836 41.516 177.315 41.6993 176.494 41.824C175.914 41.912 175.324 41.956 174.723 41.956C173.483 41.956 172.864 41.6003 172.864 40.889C172.864 40.0163 173.509 39.2683 174.8 38.645C175.247 38.425 175.713 38.2453 176.197 38.106C176.666 38.216 176.978 38.2967 177.132 38.348C177.462 38.458 177.627 38.733 177.627 39.173C177.627 39.5617 177.377 39.8697 176.879 40.097C176.461 40.2877 176.035 40.383 175.603 40.383C174.928 40.383 174.444 40.2803 174.151 40.075C173.784 40.251 173.601 40.4783 173.601 40.757C173.601 41.2483 174.048 41.494 174.943 41.494C175.273 41.494 175.658 41.472 176.098 41.428C177.132 41.3253 177.784 41.274 178.056 41.274ZM176.923 39.162C176.703 38.9273 176.435 38.81 176.12 38.81C175.892 38.81 175.687 38.8577 175.504 38.953C175.496 38.9603 175.309 39.063 174.943 39.261C175.163 39.613 175.463 39.789 175.845 39.789C176.277 39.789 176.637 39.58 176.923 39.162ZM185.022 41.285C184.567 41.637 183.892 41.901 182.998 42.077C182.286 42.2237 181.549 42.297 180.787 42.297C179.1 42.297 178.257 41.78 178.257 40.746C178.257 39.6387 179.302 38.634 181.392 37.732C182.103 37.424 182.785 37.1967 183.438 37.05C183.709 37.2113 183.845 37.3947 183.845 37.6C183.845 37.864 183.753 38.1977 183.57 38.601C183.357 39.0703 183.137 39.305 182.91 39.305C182.8 39.305 182.69 39.272 182.58 39.206C182.477 39.1327 182.426 39.0447 182.426 38.942C182.426 38.8467 182.624 38.535 183.02 38.007C182.895 37.985 182.774 37.9667 182.657 37.952C182.004 37.952 181.238 38.227 180.358 38.777C179.382 39.3857 178.895 40.0017 178.895 40.625C178.895 41.087 179.126 41.428 179.588 41.648C179.94 41.8167 180.372 41.901 180.886 41.901C182.081 41.901 183.097 41.7983 183.933 41.593C183.955 41.5857 184.068 41.538 184.274 41.45C184.406 41.3913 184.516 41.362 184.604 41.362C184.633 41.362 184.659 41.3657 184.681 41.373L184.791 41.274L185 41.263L185.022 41.285ZM190.201 35.389C190.201 35.5723 190.139 35.7777 190.014 36.005C189.963 36.1003 189.739 36.412 189.343 36.94C189.526 37.0647 189.713 37.1857 189.904 37.303C190.109 37.4717 190.201 37.6623 190.179 37.875L190.168 37.996C190.161 37.996 189.992 37.9447 189.662 37.842C189.449 37.776 189.284 37.743 189.167 37.743C188.764 37.743 188.181 38.1683 187.418 39.019C186.663 39.8623 186.285 40.493 186.285 40.911C186.285 41.2703 186.608 41.5307 187.253 41.692C187.664 41.7947 188.126 41.846 188.639 41.846C188.837 41.846 189.039 41.8313 189.244 41.802C189.237 41.8387 189.27 41.9047 189.343 42C188.881 42.176 188.423 42.264 187.968 42.264C186.318 42.264 185.493 41.8607 185.493 41.054C185.493 40.5773 185.907 39.877 186.736 38.953L187.682 37.897L187.297 37.875C187.136 37.8677 186.919 37.9117 186.648 38.007C186.113 38.1977 185.797 38.293 185.702 38.293C185.577 38.293 185.46 38.2563 185.35 38.183C185.247 38.1023 185.196 38.0033 185.196 37.886C185.196 37.6 185.522 37.457 186.175 37.457C186.241 37.457 186.336 37.4607 186.461 37.468C186.586 37.4753 186.681 37.479 186.747 37.479C187.304 37.479 187.763 37.3837 188.122 37.193C188.489 37.0023 188.811 36.6723 189.09 36.203C189.185 36.0417 189.409 35.587 189.761 34.839C189.856 34.839 189.952 34.905 190.047 35.037C190.15 35.169 190.201 35.2863 190.201 35.389Z" fill="#FFA500"/>
</svg>
