<svg enable-background="new 0 0 256 256" height="512" viewBox="0 0 256 256" width="512" xmlns="http://www.w3.org/2000/svg"><path d="m218.784 16.109h-181.568c-17.236 0-31.208 13.972-31.208 31.208v104.178c0 17.236 13.972 31.208 31.208 31.208h15.645c9.016 19.957 25.137 45.244 51.748 56.641 5.597 2.397 10.997-3.799 7.808-8.986-7.24-11.776-15.99-29.525-16.923-47.655h123.29c17.236 0 31.208-13.972 31.208-31.208v-104.179c0-17.235-13.972-31.207-31.208-31.207z" fill="#ffe2e2"/><path d="m173.614 61.746c-11.528-11.528-30.22-11.528-41.748 0l-3.866 3.866-3.866-3.866c-11.528-11.528-30.22-11.528-41.748 0-11.528 11.528-11.528 30.22 0 41.748 1.018 1.018 40.069 40.07 39.815 39.815 3.202 3.202 8.394 3.202 11.597 0 1.215-1.215 40.282-40.282 39.815-39.815 11.529-11.528 11.529-30.22.001-41.748z" fill="#ff4a73"/><path d="m52.22 182.701h-15c-17.24 0-31.21-13.97-31.21-31.21v-104.179c0-17.23 13.97-31.2 31.21-31.2h15c-17.24 0-31.21 13.97-31.21 31.2v104.18c0 17.239 13.97 31.209 31.21 31.209z" fill="#ffefee"/><path d="m249.99 47.312v104.18c0 17.24-13.97 31.21-31.21 31.21h-15c17.24 0 31.21-13.97 31.21-31.21v-104.18c0-17.23-13.97-31.2-31.21-31.2h15c17.24 0 31.21 13.969 31.21 31.2z" fill="#ffcfcf"/><path d="m173.61 103.491c0 .01-38.61 38.61-39.81 39.82-3.2 3.2-8.4 3.2-11.6 0 0 0-.62-.62-1.7-1.7 7.65-7.66 38.11-38.11 38.11-38.12 11.53-11.53 11.53-30.22 0-41.75-2.5-2.5-5.57-5.47-8.98-8.48 8.55-.9 17.43 1.93 23.98 8.48 11.53 11.531 11.53 30.22 0 41.75z" fill="#ea2a6a"/><path d="m135.5 141.612c-.96.96-1.57 1.56-1.7 1.7-3.2 3.2-8.4 3.2-11.6 0 0-.01-38.8-38.8-39.81-39.82-5.77-5.76-8.65-13.32-8.65-20.88 0-7.55 2.88-15.1 8.65-20.87 6.45-6.45 15.15-9.29 23.58-8.52-3.21 3.04-6.11 6.05-8.58 8.52-5.77 5.77-8.65 13.32-8.65 20.87 0 7.56 2.88 15.12 8.65 20.88.88.89 30.62 30.629 38.11 38.12z" fill="#f973a3"/><g fill="#5f266d"><path d="m218.784 12.109h-181.568c-19.414 0-35.208 15.794-35.208 35.208v104.178c0 19.414 15.794 35.208 35.208 35.208h13.085c9.321 19.817 25.819 44.792 52.732 56.317 9.184 3.935 18.025-6.246 12.791-14.757-6.396-10.402-14.078-25.711-15.974-41.56h118.934c19.414 0 35.208-15.794 35.208-35.208v-104.178c0-19.414-15.794-35.208-35.208-35.208zm27.208 139.385c0 15.002-12.205 27.208-27.208 27.208h-123.29c-2.284 0-4.112 1.913-3.995 4.206.978 19 10.062 37.43 17.511 49.545 1.147 1.865-.799 4.083-2.826 3.213-25.626-10.975-41.159-35.755-49.677-54.611-.647-1.432-2.073-2.353-3.646-2.353h-15.645c-15.003 0-27.208-12.206-27.208-27.208v-104.177c0-15.002 12.205-27.208 27.208-27.208h181.568c15.003 0 27.208 12.206 27.208 27.208z"/><path d="m152.739 49.1c-9.992 0-17.806 3.917-24.739 10.854-6.93-6.93-14.736-10.854-24.739-10.854-8.954 0-17.371 3.486-23.702 9.817-13.069 13.07-13.069 34.336-.002 47.404.846.846 39.006 39.006 39.816 39.817 4.756 4.756 12.497 4.757 17.254 0 2.118-2.118-10.605 10.604 39.814-39.815 13.069-13.069 13.069-34.335 0-47.405-6.331-6.332-14.748-9.818-23.702-9.818zm18.05 51.562-39.818 39.819c-1.639 1.638-4.303 1.638-5.941 0l-.047.047c-.592-.733-30.433-30.513-39.768-39.863-9.95-9.95-9.95-26.141 0-36.091 9.951-9.951 26.141-9.952 36.092 0l3.865 3.866c1.562 1.563 4.096 1.561 5.656 0l3.865-3.865c9.951-9.951 26.141-9.951 36.092 0 9.948 9.949 9.95 26.136.004 36.087z"/><path d="m226 120.991c-2.209 0-4 1.791-4 4v6.547c0 2.209 1.791 4 4 4s4-1.791 4-4v-6.547c0-2.208-1.791-4-4-4z"/><path d="m226 142.539c-2.209 0-4 1.791-4 4v.119c0 5.882-4.785 10.667-10.667 10.667h-16.833c-2.209 0-4 1.791-4 4s1.791 4 4 4h16.833c10.293 0 18.667-8.374 18.667-18.667v-.119c0-2.209-1.791-4-4-4z"/></g></svg>