<svg width="62" height="43" viewBox="0 0 62 43" fill="none" xmlns="http://www.w3.org/2000/svg">
<path d="M31.8649 16.093H29.3981C29.2891 16.093 29.1888 16.0329 29.1382 15.9371L27.905 13.6085C27.86 13.5234 27.86 13.4215 27.905 13.3362L29.1382 11.0081C29.1888 10.9123 29.2891 10.8522 29.3981 10.8522H31.8649C31.9735 10.8522 32.0737 10.9123 32.1245 11.0081L33.358 13.3362C33.4032 13.4213 33.4032 13.5233 33.358 13.6085L32.1245 15.9371C32.0737 16.0328 31.9735 16.093 31.8649 16.093ZM29.5755 15.509H31.6873L32.7662 13.4724L31.6873 11.4361H29.5755L28.4973 13.4724L29.5755 15.509Z" fill="#FFC700"/>
<path d="M30.6317 33.478C30.5417 33.478 30.4563 33.4369 30.4007 33.3665L29.2137 31.8655C29.1772 31.8195 29.1557 31.7636 29.1516 31.705L27.8724 13.4925C27.8609 13.3317 27.983 13.1921 28.1447 13.1811C28.3053 13.1738 28.4471 13.2913 28.4583 13.4522L29.7314 31.5749L30.6317 32.7135L31.5323 31.5749L32.8054 13.4522C32.8161 13.2913 32.9583 13.1731 33.1188 13.1811C33.2805 13.1921 33.4024 13.3316 33.3914 13.4925L32.1118 31.705C32.1077 31.7635 32.0861 31.8193 32.0498 31.8655L30.8629 33.3665C30.807 33.4367 30.7216 33.478 30.6317 33.478Z" fill="#FFC700"/>
<path d="M31.819 31.9768C31.7341 31.9768 31.6507 31.9406 31.5925 31.8711L30.6315 30.7177L29.6707 31.8711C29.5673 31.9944 29.3822 32.0118 29.257 31.9098C29.1321 31.8067 29.1148 31.6229 29.2183 31.4987L30.4052 30.0738C30.517 29.94 30.7462 29.94 30.8576 30.0738L32.0445 31.4987C32.1483 31.6229 32.1309 31.8067 32.0059 31.9098C31.9514 31.9547 31.8848 31.9768 31.819 31.9768Z" fill="#FFC700"/>
<path d="M29.0667 26.5944C29.0418 26.5944 29.0166 26.5914 28.9913 26.5845C28.8344 26.5435 28.7409 26.3835 28.7824 26.2276L31.5807 15.7262C31.6222 15.5707 31.7831 15.4775 31.9397 15.5189C32.0966 15.56 32.19 15.7201 32.1486 15.8758L29.3503 26.3773C29.3156 26.508 29.1965 26.5944 29.0667 26.5944Z" fill="#FFC700"/>
<path d="M32.1725 26.5248C32.0425 26.5248 31.923 26.4385 31.8888 26.3078L29.0903 15.8059C29.0488 15.65 29.1424 15.49 29.2993 15.449C29.4578 15.4075 29.6169 15.5008 29.6585 15.6562L32.4566 26.1581C32.4981 26.3137 32.4044 26.474 32.2474 26.515C32.2221 26.5217 32.1969 26.5248 32.1725 26.5248Z" fill="#FFC700"/>
<path d="M30.6317 30.552C30.4693 30.552 30.3379 30.4214 30.3379 30.2601V20.4493C30.3379 20.2882 30.4693 20.1575 30.6317 20.1575C30.794 20.1575 30.9256 20.2882 30.9256 20.4493V30.2601C30.9256 30.4214 30.7938 30.552 30.6317 30.552Z" fill="#FFC700"/>
<path d="M28.2481 13.6066C28.1098 13.6066 27.9864 13.5089 27.96 13.369L27.7531 12.2837C27.7425 12.229 27.7481 12.1723 27.7687 12.1207L28.1079 11.2807C28.1433 11.1932 28.2189 11.1278 28.3113 11.1058L29.3289 10.8606C29.4878 10.8218 29.6453 10.9188 29.6836 11.0754C29.722 11.2321 29.6248 11.3897 29.4673 11.4278L28.597 11.6376L28.3461 12.259L28.5371 13.2602C28.5673 13.4187 28.4624 13.5714 28.303 13.6017C28.2847 13.605 28.2664 13.6066 28.2481 13.6066Z" fill="#FFC700"/>
<path d="M32.9861 13.5529C32.9537 13.5529 32.9208 13.5477 32.8887 13.5367C32.7358 13.4834 32.6554 13.3166 32.7088 13.1646L33.036 12.2363L32.7961 11.6424L31.803 11.4299C31.6443 11.3957 31.5435 11.2405 31.5771 11.0829C31.612 10.9252 31.7692 10.8247 31.9267 10.859L33.0721 11.1042C33.1677 11.1248 33.2466 11.1909 33.2835 11.281L33.6222 12.121C33.6488 12.1867 33.6506 12.2593 33.6267 12.3262L33.2633 13.3578C33.2207 13.4776 33.1075 13.5529 32.9861 13.5529Z" fill="#FFC700"/>
<path d="M30.0495 11.4361C30.047 11.4361 30.0444 11.4361 30.0416 11.4361L29.535 11.4229C29.4216 11.4198 29.3197 11.3522 29.2742 11.2488L26.8328 5.74801C26.7827 5.63558 26.8089 5.50397 26.8983 5.41932L27.962 4.40826C28.0365 4.33786 28.1429 4.31096 28.2418 4.33743C28.3412 4.36404 28.4192 4.4404 28.4473 4.53857L30.3318 11.0635C30.3577 11.1528 30.3391 11.2494 30.2818 11.3228C30.226 11.3942 30.1402 11.4361 30.0495 11.4361ZM27.4534 5.69972L29.5091 10.3315L28.0167 5.16423L27.4534 5.69972Z" fill="#FFC700"/>
<path d="M31.1331 11.4361C31.0425 11.4361 30.9567 11.3943 30.9008 11.323C30.8434 11.2496 30.8249 11.153 30.8508 11.0637L32.7352 4.53873C32.7635 4.44057 32.8417 4.36421 32.9406 4.3376C33.0401 4.31113 33.1464 4.33803 33.2206 4.40842L34.2843 5.41949C34.3737 5.50428 34.3997 5.63575 34.3501 5.74817L31.9086 11.249C31.8629 11.3522 31.7612 11.42 31.6476 11.4231L31.141 11.4363C31.1381 11.4361 31.1357 11.4361 31.1331 11.4361ZM33.1657 5.16425L31.6729 10.3327L33.7297 5.69989L33.1657 5.16425Z" fill="#FFC700"/>
<path d="M29.0662 27.7356C29.0262 27.7356 28.9857 27.7275 28.9468 27.71L15.5973 21.7978L7.04022 22.5264C6.89824 22.5396 6.76564 22.4461 6.73021 22.3069L4.28178 12.6974L0.075907 8.07885C0.00916339 8.00555 -0.0157191 7.90375 0.00989523 7.80791L2.0447 0.218946C2.08436 0.0719107 2.23014 -0.0205862 2.38237 0.007192L14.0366 2.15862C14.083 2.16691 14.1268 2.18669 14.1639 2.21563L28.3461 13.244C28.474 13.3436 28.4962 13.5269 28.3966 13.6538C28.2964 13.7812 28.1117 13.8036 27.984 13.704L13.8586 2.71971L2.54249 0.630528L0.618784 7.805L4.7664 12.3595C4.79846 12.3948 4.82144 12.4374 4.83344 12.4838L7.2387 21.9236L15.6226 21.2098C15.6711 21.2044 15.7216 21.2136 15.7672 21.2341L29.1858 27.1771C29.3342 27.2424 29.4006 27.4152 29.3346 27.5625C29.286 27.6707 29.1786 27.7356 29.0662 27.7356Z" fill="#FFC700"/>
<path d="M7.01507 22.526C6.98301 22.526 6.95023 22.5206 6.91803 22.5097C6.76493 22.4565 6.68413 22.2898 6.7377 22.1374L13.4923 2.95346L0.402914 8.15263C0.252595 8.21226 0.0813444 8.13969 0.0211874 7.99003C-0.0392624 7.84009 0.0340677 7.67022 0.184826 7.61059L13.8739 2.17291C13.981 2.13044 14.1028 2.154 14.1861 2.23298C14.2692 2.31209 14.2983 2.43222 14.2603 2.54057L7.29244 22.3305C7.24999 22.4507 7.13655 22.526 7.01507 22.526Z" fill="#FFC700"/>
<path d="M28.1653 13.7643C28.1563 13.7643 28.147 13.764 28.1377 13.7631L10.6767 12.137L4.58273 12.8437C4.4207 12.8588 4.27565 12.7474 4.25677 12.5874C4.23804 12.4274 4.35338 12.2821 4.51467 12.2635L10.6393 11.5534C10.6599 11.551 10.6807 11.551 10.7006 11.5526L28.1923 13.1815C28.3539 13.1968 28.4726 13.3389 28.4575 13.4997C28.4434 13.6511 28.3152 13.7643 28.1653 13.7643Z" fill="#FFC700"/>
<path d="M15.6478 21.7908C15.5515 21.7908 15.457 21.7436 15.4008 21.657C15.3128 21.5216 15.352 21.3411 15.4885 21.2536L28.006 13.2272C28.1419 13.1402 28.324 13.1783 28.412 13.3143C28.4999 13.4497 28.4607 13.6302 28.3244 13.7176L15.8071 21.7441C15.7578 21.7756 15.7026 21.7908 15.6478 21.7908Z" fill="#FFC700"/>
<path d="M15.6478 21.7908C15.5411 21.7908 15.4382 21.7331 15.3862 21.6319L10.4117 11.9766C10.3376 11.8329 10.3948 11.6572 10.5393 11.5835C10.6836 11.5107 10.8606 11.5667 10.9348 11.7104L15.9092 21.3657C15.9831 21.5094 15.926 21.685 15.7816 21.7587C15.7388 21.7805 15.6931 21.7908 15.6478 21.7908Z" fill="#FFC700"/>
<path d="M4.54861 12.8456C4.47703 12.8456 4.40531 12.8198 4.34881 12.7676C4.22982 12.6582 4.22279 12.4734 4.33315 12.3551L13.7676 2.24565C13.8778 2.12741 14.064 2.12057 14.1827 2.23008C14.3015 2.33945 14.3087 2.5243 14.1983 2.64239L4.76391 12.752C4.70624 12.814 4.62735 12.8456 4.54861 12.8456Z" fill="#FFC700"/>
<path d="M2.65932 7.23379C2.50373 7.23379 2.3739 7.11264 2.36615 6.95644L2.03521 0.306994C2.02716 0.145851 2.15201 0.00899654 2.31404 0.000997594C2.47826 -0.0123825 2.61395 0.11691 2.622 0.278197L2.95279 6.9275C2.96084 7.08865 2.83599 7.2255 2.67396 7.2335C2.66913 7.23379 2.66415 7.23379 2.65932 7.23379Z" fill="#FFC700"/>
<path d="M4.54861 12.8456C4.42551 12.8456 4.31099 12.7685 4.27001 12.6463L2.38084 7.03468C2.32947 6.88153 2.41246 6.71617 2.56644 6.66513C2.72056 6.61379 2.88683 6.69669 2.93821 6.8491L4.82738 12.4607C4.87875 12.614 4.79576 12.7792 4.64178 12.8303C4.61104 12.8406 4.57934 12.8456 4.54861 12.8456Z" fill="#FFC700"/>
<path d="M32.1724 27.7341C32.06 27.7341 31.9529 27.6698 31.904 27.5611C31.8381 27.4137 31.9046 27.241 32.053 27.1757L45.4715 21.2327C45.5175 21.2124 45.568 21.204 45.6162 21.2084L54.0001 21.9222L56.4056 12.4824C56.4175 12.436 56.4405 12.3934 56.4725 12.3581L60.6203 7.8036L58.6964 0.629272L47.3805 2.71831L33.2553 13.7025C33.1273 13.8021 32.9426 13.7797 32.8428 13.6523C32.7425 13.5253 32.7652 13.3421 32.8929 13.2424L47.0753 2.21408C47.1125 2.18514 47.1561 2.16551 47.2025 2.15707L58.8563 0.00564491C59.0087 -0.0221332 59.1547 0.0703636 59.1941 0.217399L61.2289 7.80636C61.2549 7.9022 61.2296 8.00415 61.163 8.07745L56.9573 12.6959L54.509 22.3055C54.4734 22.4447 54.3414 22.5387 54.1992 22.525L45.6419 21.7964L32.2919 27.7086C32.2532 27.7259 32.2127 27.7341 32.1724 27.7341Z" fill="#FFC700"/>
<path d="M54.224 22.526C54.1026 22.526 53.9891 22.4507 53.9465 22.3305L46.9788 2.54059C46.9406 2.43224 46.9697 2.31211 47.0531 2.23299C47.136 2.15402 47.2583 2.13031 47.3652 2.17292L61.0544 7.61061C61.2053 7.67023 61.2783 7.8401 61.2183 7.9899C61.1578 8.13955 60.987 8.21416 60.8364 8.1525L47.7471 2.95348L54.5013 22.1374C54.5549 22.2898 54.4741 22.4564 54.3209 22.5097C54.2887 22.5206 54.2559 22.526 54.224 22.526Z" fill="#FFC700"/>
<path d="M33.074 13.7643C32.9239 13.7643 32.7959 13.651 32.7817 13.4997C32.7664 13.3389 32.885 13.1968 33.0467 13.1815L50.5382 11.5528C50.5582 11.5512 50.5797 11.5512 50.6 11.5535L56.7249 12.2637C56.8862 12.2823 57.0013 12.4274 56.9828 12.5876C56.9638 12.7475 56.8146 12.8589 56.657 12.8438L50.5623 12.1371L33.1015 13.7633C33.0921 13.764 33.083 13.7643 33.074 13.7643Z" fill="#FFC700"/>
<path d="M45.5909 21.7909C45.5365 21.7909 45.4814 21.7756 45.4317 21.744L32.9146 13.7174C32.7783 13.63 32.7388 13.4496 32.8269 13.3142C32.9152 13.1782 33.0968 13.1401 33.2329 13.227L45.7505 21.2535C45.8866 21.341 45.9257 21.5215 45.8378 21.6569C45.7822 21.7437 45.6872 21.7909 45.5909 21.7909Z" fill="#FFC700"/>
<path d="M45.5909 21.7909C45.5457 21.7909 45.5002 21.7805 45.4575 21.7589C45.3132 21.6851 45.2558 21.5096 45.33 21.3659L50.304 11.7106C50.378 11.5672 50.5556 11.5109 50.6995 11.5836C50.8441 11.6573 50.901 11.8329 50.8271 11.9767L45.8525 21.632C45.8007 21.7327 45.6979 21.7909 45.5909 21.7909Z" fill="#FFC700"/>
<path d="M56.6902 12.8456C56.6114 12.8456 56.5327 12.814 56.4752 12.752L47.0407 2.64239C46.9304 2.5243 46.9376 2.33945 47.0564 2.23008C47.1747 2.12057 47.3613 2.12741 47.4714 2.24565L56.9061 12.3551C57.0161 12.4734 57.0092 12.6581 56.89 12.7676C56.8338 12.8198 56.7622 12.8456 56.6902 12.8456Z" fill="#FFC700"/>
<path d="M58.5796 7.23378C58.5747 7.23378 58.5702 7.23378 58.5646 7.23349C58.4029 7.22549 58.2778 7.08864 58.2861 6.9275L58.6166 0.278191C58.6248 0.116903 58.7546 -0.01268 58.9246 0.000990946C59.0865 0.00898989 59.2114 0.145845 59.2034 0.306987L58.873 6.95644C58.8654 7.11263 58.7353 7.23378 58.5796 7.23378Z" fill="#FFC700"/>
<path d="M56.6902 12.8456C56.6596 12.8456 56.6282 12.8406 56.5972 12.8304C56.4429 12.7795 56.3605 12.6142 56.4118 12.4609L58.3005 6.84925C58.3519 6.69655 58.5183 6.6135 58.6725 6.66528C58.8262 6.71633 58.9097 6.88154 58.858 7.03483L56.9691 12.6465C56.9283 12.7685 56.8134 12.8456 56.6902 12.8456Z" fill="#FFC700"/>
<path d="M23.8024 42.8675C23.7765 42.8675 23.7499 42.864 23.724 42.8569L13.9043 40.1454C13.8218 40.1228 13.753 40.0649 13.7167 39.9876L9.19994 30.3838C9.15559 30.2891 9.16525 30.1781 9.22556 30.0924L15.4072 21.3313C15.5006 21.1994 15.6837 21.1674 15.8166 21.2599C15.9494 21.3527 15.9817 21.5346 15.8886 21.6665L9.80429 30.2895L14.1918 39.6189L23.651 42.2308L29.1834 31.551C29.2574 31.4081 29.4351 31.3513 29.5791 31.4252C29.7232 31.4989 29.7801 31.6749 29.7059 31.8186L24.064 42.709C24.0122 42.8083 23.9105 42.8675 23.8024 42.8675Z" fill="#FFC700"/>
<path d="M13.983 40.1561C13.8779 40.1561 13.7761 40.1 13.7234 40.0015C13.6473 39.8594 13.7015 39.6823 13.8446 39.6067L29.3063 31.4272C29.449 31.3515 29.6272 31.4053 29.7037 31.5478C29.7798 31.6899 29.7257 31.8669 29.5824 31.9427L14.1208 40.122C14.0768 40.1451 14.0296 40.1561 13.983 40.1561Z" fill="#FFC700"/>
<path d="M18.1417 37.956C18.0741 37.956 18.0058 37.9329 17.9504 37.8858L9.27473 30.4819C9.15178 30.3766 9.13758 30.1924 9.2434 30.0703C9.34879 29.9479 9.53424 29.9339 9.65777 30.0386L18.3334 37.4426C18.4565 37.5479 18.4707 37.7323 18.3649 37.8543C18.3065 37.9214 18.2244 37.956 18.1417 37.956Z" fill="#FFC700"/>
<path d="M23.8024 42.8675C23.7341 42.8675 23.6648 42.8438 23.6092 42.7953L17.9486 37.8838C17.8262 37.7781 17.8136 37.5934 17.9205 37.4721C18.027 37.3505 18.2125 37.3376 18.3351 37.4445L23.9957 42.356C24.1178 42.462 24.1304 42.6464 24.0238 42.7677C23.9657 42.8337 23.8844 42.8675 23.8024 42.8675Z" fill="#FFC700"/>
<path d="M18.1417 37.956C18.0637 37.956 17.9857 37.9252 17.9279 37.8645C17.8165 37.747 17.8221 37.5621 17.9404 37.4518L28.8649 27.2295C28.9829 27.1189 29.1689 27.1242 29.28 27.2418C29.3914 27.3593 29.3859 27.544 29.2677 27.6545L18.3432 37.8766C18.2864 37.9298 18.2141 37.956 18.1417 37.956Z" fill="#FFC700"/>
<path d="M13.983 40.1561C13.9742 40.1561 13.9654 40.1557 13.9564 40.1551C13.7948 40.1404 13.6757 39.9988 13.6902 39.8379L15.3551 21.4726C15.3696 21.3122 15.5107 21.1928 15.6742 21.2081C15.8358 21.2225 15.9549 21.3643 15.9404 21.5251L14.2754 39.8903C14.2617 40.0421 14.1331 40.1561 13.983 40.1561Z" fill="#FFC700"/>
<path d="M14.5322 34.8757C14.4241 34.8757 14.32 34.8158 14.2686 34.7129C14.1968 34.5684 14.2565 34.3937 14.4018 34.3221L27.2809 27.9935L9.50818 30.5491C9.34586 30.5701 9.19862 30.4613 9.17534 30.302C9.15192 30.1423 9.26331 29.9946 9.42402 29.9714L29.0244 27.1533C29.1683 27.1355 29.3042 27.2182 29.3471 27.3555C29.3899 27.4928 29.3262 27.6403 29.1967 27.7037L14.6624 34.8453C14.6204 34.8661 14.576 34.8757 14.5322 34.8757Z" fill="#FFC700"/>
<path d="M37.5069 42.8675C37.3989 42.8675 37.2972 42.8083 37.2455 42.709L31.6033 31.8186C31.529 31.6749 31.5862 31.4989 31.7302 31.4252C31.8748 31.3518 32.0515 31.408 32.1259 31.551L37.6584 42.2308L47.1175 39.6189L51.5049 30.2905L45.3515 21.6675C45.2577 21.536 45.2891 21.3538 45.4216 21.2609C45.5536 21.1672 45.7372 21.1985 45.8314 21.3301L52.0829 30.0913C52.1441 30.1769 52.154 30.2886 52.1098 30.3837L47.5931 39.9876C47.5566 40.0649 47.4879 40.1228 47.4052 40.1454L37.5858 42.8569C37.5596 42.864 37.5327 42.8675 37.5069 42.8675Z" fill="#FFC700"/>
<path d="M47.3263 40.1561C47.2796 40.1561 47.2325 40.1452 47.1884 40.1221L31.7265 31.9427C31.5835 31.8669 31.529 31.6899 31.6057 31.5478C31.682 31.4056 31.8595 31.3519 32.0026 31.4272L47.4649 39.6067C47.6079 39.6823 47.6622 39.8594 47.5861 40.0015C47.5333 40.1 47.4313 40.1561 47.3263 40.1561Z" fill="#FFC700"/>
<path d="M43.1678 37.956C43.085 37.956 43.0029 37.9215 42.9448 37.8543C42.8386 37.7323 42.8533 37.5479 42.9762 37.4426L51.652 30.0386C51.7751 29.9342 51.9612 29.9482 52.0659 30.0703C52.1719 30.1924 52.1579 30.3766 52.0343 30.4819L43.359 37.8857C43.3036 37.9327 43.2354 37.956 43.1678 37.956Z" fill="#FFC700"/>
<path d="M37.5069 42.8675C37.4248 42.8675 37.3439 42.8337 37.2856 42.7674C37.1786 42.6461 37.1915 42.4614 37.3134 42.3557L42.9741 37.4442C43.0967 37.3374 43.282 37.3502 43.3889 37.4718C43.4956 37.5931 43.4831 37.7778 43.3606 37.884L37.7 42.7952C37.6445 42.8438 37.5756 42.8675 37.5069 42.8675Z" fill="#FFC700"/>
<path d="M43.1678 37.956C43.0951 37.956 43.023 37.9298 42.9661 37.8766L32.0415 27.6545C31.9228 27.544 31.9174 27.3593 32.0288 27.2418C32.1402 27.1242 32.326 27.1189 32.4439 27.2295L43.3689 37.4518C43.4872 37.5621 43.493 37.747 43.3812 37.8645C43.3238 37.9252 43.246 37.956 43.1678 37.956Z" fill="#FFC700"/>
<path d="M47.3263 40.1561C47.1763 40.1561 47.0487 40.0428 47.034 39.8917L45.2988 21.5264C45.2836 21.3656 45.4026 21.2235 45.5641 21.2082C45.7252 21.1962 45.8689 21.3109 45.8843 21.4718L47.6193 39.8371C47.6346 39.9976 47.5159 40.14 47.3543 40.1553C47.3445 40.1557 47.3354 40.1561 47.3263 40.1561Z" fill="#FFC700"/>
<path d="M46.7771 34.8757C46.7332 34.8757 46.6887 34.8661 46.6471 34.8451L32.1128 27.7035C31.983 27.6401 31.9193 27.4928 31.9622 27.3553C32.005 27.2182 32.142 27.1334 32.2848 27.1532L51.8855 29.9713C52.0462 29.9944 52.1574 30.1423 52.134 30.3019C52.1106 30.4613 51.9631 30.5695 51.8013 30.549L34.0286 27.9935L46.9077 34.3221C47.053 34.3935 47.1126 34.5682 47.0407 34.7129C46.9895 34.8157 46.8854 34.8757 46.7771 34.8757Z" fill="#FFC700"/>
</svg>
