<svg width="19" height="20" viewBox="0 0 19 20" fill="none" xmlns="http://www.w3.org/2000/svg">
<g clip-path="url(#clip0)">
<path d="M18.5014 15.4292L14.6558 12.7296C14.1677 12.3898 13.5136 12.5016 13.1528 12.9866L12.0326 14.5027C11.8886 14.7025 11.6269 14.7604 11.4186 14.6386L11.2055 14.515C10.4992 14.1097 9.62024 13.6051 7.84939 11.7404C6.07853 9.87569 5.59822 8.94981 5.21319 8.20761L5.09635 7.98331C4.97907 7.76412 5.03309 7.48748 5.22299 7.33473L6.66232 6.15592C7.12286 5.7761 7.22923 5.08768 6.90676 4.57382L4.34214 0.525745C4.01166 0.00246303 3.34861 -0.154623 2.83699 0.169118L1.22887 1.18596C0.723588 1.49865 0.352883 2.00506 0.194487 2.59907C-0.384594 4.82007 0.0510427 8.65317 5.41522 14.3003C9.68232 18.7917 12.859 19.9995 15.0424 19.9995C15.5449 20.0018 16.0454 19.9329 16.5305 19.7949C17.0949 19.6283 17.5761 19.2381 17.873 18.7061L18.8399 17.0143C19.1479 16.4756 18.9988 15.7773 18.5014 15.4292ZM18.2943 16.6723L17.3296 18.3651C17.1165 18.7491 16.7704 19.0314 16.3639 19.153C14.4161 19.7159 11.013 19.2496 5.86322 13.8288C0.713384 8.4079 0.270475 4.82608 0.805253 2.77541C0.920869 2.34704 1.18943 1.98229 1.55468 1.75755L3.1628 0.742041C3.38479 0.601437 3.67257 0.669591 3.81597 0.896666L5.20911 3.09833L6.3784 4.94439C6.51843 5.16728 6.47242 5.46603 6.27266 5.63096L4.83299 6.80977C4.39487 7.16242 4.26975 7.80049 4.5395 8.30689L4.65382 8.52553C5.05847 9.30675 5.56156 10.2786 7.39828 12.2117C9.23499 14.1447 10.158 14.6743 10.8998 15.1002L11.1078 15.2209C11.5888 15.5048 12.195 15.3731 12.53 14.9119L13.6499 13.3965C13.8066 13.1863 14.0903 13.1379 14.3022 13.2852L18.1475 15.9848C18.3634 16.1356 18.4281 16.4387 18.2943 16.6723Z" fill="black"/>
<path d="M10.7663 3.335C13.7376 3.33847 16.1455 5.87314 16.1489 9.00084C16.1489 9.18491 16.2906 9.33411 16.4655 9.33411C16.6403 9.33411 16.7821 9.18491 16.7821 9.00084C16.7784 5.50515 14.0872 2.67228 10.7663 2.66846C10.5914 2.66846 10.4497 2.81765 10.4497 3.00173C10.4497 3.1858 10.5914 3.335 10.7663 3.335Z" fill="black"/>
<path d="M10.7663 5.33475C12.6889 5.33714 14.2469 6.97713 14.2491 9.00089C14.2491 9.18496 14.3909 9.33416 14.5658 9.33416C14.7406 9.33416 14.8824 9.18496 14.8824 9.00089C14.8797 6.60914 13.0384 4.67095 10.7663 4.66821C10.5914 4.66821 10.4497 4.81741 10.4497 5.00148C10.4497 5.18556 10.5914 5.33475 10.7663 5.33475Z" fill="black"/>
<path d="M10.7663 7.33451C11.6402 7.3356 12.3483 8.08104 12.3494 9.00094C12.3494 9.18502 12.4912 9.33421 12.666 9.33421C12.8409 9.33421 12.9826 9.18502 12.9826 9.00094C12.9812 7.71309 11.9898 6.66941 10.7663 6.66797C10.5914 6.66797 10.4497 6.81717 10.4497 7.00124C10.4497 7.18531 10.5914 7.33451 10.7663 7.33451Z" fill="black"/>
</g>
<defs>
<clipPath id="clip0">
<rect width="19" height="20" fill="white"/>
</clipPath>
</defs>
</svg>
