<svg width="466" height="298" viewBox="0 0 466 298" fill="none" xmlns="http://www.w3.org/2000/svg">
<path d="M465.892 217.841C462.307 202.431 452.62 190.69 437.796 183.725C445.999 174.912 447.584 163.041 449.122 151.53C450.636 140.212 452.065 129.52 459.238 121.436C460.086 120.481 460.416 119.259 460.14 118.084C459.858 116.876 458.955 115.853 457.727 115.352C452.631 113.265 447.076 112.21 441.221 112.21C432.788 112.21 424.405 114.447 417.275 118.491C421.383 110.977 426.051 103.786 431.648 96.306C433.412 93.9447 433.861 91.8561 432.976 90.0991C431.817 87.7924 428.716 86.7186 423.208 86.7186C418.916 86.7186 414.361 87.3763 412.65 87.6233L412.243 87.6812C394.477 90.1347 376.282 95.1432 359.246 102.239C366.386 89.9022 371.17 75.963 373.817 59.8384C375.308 50.7885 375.809 40.9864 375.314 30.7092C375.077 25.7164 374.405 20.7781 373.844 17.0326C373.732 16.2904 373.63 15.4959 373.526 14.6703C373.072 11.0873 372.557 7.02691 370.915 3.9502C369.534 1.36532 367.36 0 364.632 0C361.109 0 357.304 2.29779 354.249 4.14382C353.361 4.68238 352.521 5.18868 351.823 5.55365C340.266 11.6158 331.085 16.967 322.935 22.3926C309.995 31.0063 299.608 40.4434 292.058 50.4413C288.664 54.1645 285.672 58.2126 283.336 62.233C282.552 62.0549 281.784 61.9503 281.017 61.9147C278.148 61.7856 275.71 62.3732 273.626 63.181C272.497 56.2142 269.726 49.1394 265.198 41.6385C262.57 37.2866 259.397 33.3163 256.102 29.2938C255.731 28.842 255.246 28.1611 254.681 27.371C251.326 22.6808 248.289 18.8007 245.056 18.8007C228.003 18.8007 210.54 32.0478 201.205 45.8046C201.126 45.7244 201.048 45.6454 200.973 45.5664C192.277 36.7135 181.367 31.1988 170.818 25.8644C160.722 20.7592 150.285 15.4826 142.178 7.34515C141.438 6.60185 140.383 6.17567 139.28 6.17567C138.134 6.17567 137.083 6.65414 136.403 7.49092C124.66 21.8919 119.294 39.7112 121.189 57.3469C121.017 57.14 120.842 56.9341 120.668 56.7294C117.796 53.3155 114.538 49.816 110.108 45.3817C109.615 44.8899 109.059 44.2757 108.458 43.6125C106.143 41.0587 103.264 37.8808 100.211 37.0362C99.2571 36.7725 98.336 36.639 97.4706 36.639C90.7451 36.639 88.9597 43.8851 87.6539 49.175C87.5134 49.7514 87.3728 50.3111 87.2335 50.8441C83.6928 64.3271 82.7829 78.8683 84.5626 93.1413C78.4103 90.2883 71.7874 89.5005 65.0016 88.9208C60.6938 88.5524 56.3826 88.1997 52.0736 87.847C42.8033 87.0881 33.2185 86.3025 23.811 85.3745L23.4876 85.3578C22.4193 85.3578 21.3621 85.8585 20.5848 86.732C19.8444 87.561 19.4898 88.6103 19.608 89.6095C21.2361 103.399 27.655 117.704 37.0011 128.625C33.9645 129.057 30.6726 129.814 27.0405 130.905L26.8866 130.952C25.7224 131.303 23.3783 132.005 21.7212 133.152C20.7622 133.481 19.9526 134.16 19.5009 135.027C19.0292 135.93 18.9879 136.946 19.3816 137.887C29.1225 161.107 44.8373 181.489 64.1017 196.066C53.7765 195.141 44.0244 196.626 34.0058 200.569C20.7755 205.782 8.90802 215.792 0.586697 228.766C-0.0768226 229.802 -0.183878 231.133 0.297871 232.325C0.78185 233.52 1.79107 234.406 2.9999 234.695C13.7032 237.236 22.6077 244.021 31.2179 250.585C33.2196 252.11 35.2169 253.634 37.2375 255.106C49.0125 263.698 62.652 269.672 77.7791 272.857C84.3095 274.23 91.2369 274.926 98.3694 274.926C121.281 274.926 142.593 267.968 157.016 255.813C170.337 259.778 185.485 260.613 199.164 258.13C200.901 268.924 210.502 276.504 218.536 281.058C232.734 289.109 249.713 293.903 265.952 297.879C266.281 297.959 266.625 298 266.963 298C268.462 298 269.827 297.218 270.527 295.956C273.864 289.969 280.568 285.357 287.668 280.476C296.684 274.277 305.98 267.883 308.638 258.041C319.152 262.375 332.062 264.57 347.057 264.57H347.063C354.646 264.57 362.693 264.036 371.649 262.93C388.469 260.861 403.358 256.235 415.898 249.183C421.365 246.108 426.387 242.149 431.242 238.319C440.855 230.736 449.933 223.577 462.183 222.756C463.415 222.671 464.524 222.078 465.229 221.13C465.918 220.21 466.162 219.009 465.892 217.841ZM91.1365 113.613C91.1086 113.606 91.0796 113.598 91.0484 113.59C90.5399 113.426 90.231 114.183 90.6893 114.439C91.0027 114.614 91.3049 114.808 91.6038 115.001C91.8078 115.596 92.0164 116.192 92.2271 116.785C90.7161 116.642 89.1961 116.525 87.6896 116.195C87.3193 116.115 87.1632 116.663 87.5323 116.762C88.875 117.121 90.1028 117.472 91.296 118.217C91.9216 118.606 92.5483 118.981 93.1851 119.34C93.3936 119.875 93.5932 120.413 93.8095 120.947C92.6108 120.784 91.412 120.635 90.2377 120.38C87.7375 119.839 85.2619 119.238 82.7862 118.612C82.2498 118.477 82.0725 119.223 82.5621 119.417C85.2028 120.471 87.8211 121.566 90.4195 122.71C92.2528 123.516 93.9255 124.594 95.7488 125.394C95.8481 125.614 95.9551 125.83 96.0566 126.049C90.0626 124.073 83.6627 122.85 77.5873 121.493C76.9283 121.348 76.7164 122.236 77.313 122.481C82.0201 124.405 86.5644 126.696 91.161 128.857C84.4065 127.042 77.6988 125.128 70.9834 123.004C70.6287 122.891 70.5116 123.407 70.835 123.541C78.2698 126.61 85.5406 129.876 92.7825 133.284C91.0886 132.788 89.3846 132.325 87.665 131.925C63.8664 122.328 36.3833 117.7 26.3558 91.6213C36.613 92.3936 46.8602 93.3183 57.1041 94.2207C67.5108 95.142 79.1898 95.1187 87.9628 101.546C88.7969 105.625 89.8552 109.659 91.1365 113.613ZM135.269 53.9197C138.185 69.4613 150.428 84.3864 146.213 100.562C144.285 95.349 141.767 90.2349 138.891 85.2732C136.303 76.8988 134.2 68.4921 133.275 59.7349C133.217 59.1907 132.422 59.1651 132.407 59.7349C132.233 65.6324 132.634 71.452 133.782 77.1425C131.979 74.4652 130.102 71.8425 128.182 69.2921C128.182 69.1964 128.199 69.1074 128.174 69.0017C124.481 51.9034 127.083 33.9706 135.792 18.991C133.113 30.4611 133.063 42.1715 135.269 53.9197ZM433.566 164.953C430.863 170.861 427.105 175.633 423.453 180.877C423.057 180.784 422.654 180.698 422.256 180.61C424.265 177.944 425.707 174.877 426.688 171.684C426.851 171.161 426.07 170.837 425.809 171.312C423.981 174.652 421.56 177.355 418.804 179.923C405.124 177.5 390.212 178.249 376.666 181.214C377.366 180.729 378.051 180.227 378.722 179.706C392.827 177.147 405.129 164.374 414.698 154.698C420.696 148.631 426.462 142.362 432.751 136.587C438.59 131.228 444.98 126.911 451.583 122.672C440.246 141.138 446.417 166.374 430.855 183.037C429.838 182.681 428.8 182.346 427.76 182.03C431.028 177.061 433.097 171 434.589 165.386C434.746 164.789 433.835 164.365 433.566 164.953ZM417.814 145.799C416.023 147.634 414.231 149.468 412.435 151.293C408.415 153.579 404.428 155.902 400.376 158.119C400.771 157.714 401.154 157.3 401.552 156.902C405.431 153.032 409.594 149.569 414.118 146.475C414.606 146.142 414.19 145.472 413.664 145.7C408.756 147.807 403.188 150.424 398.379 153.825C398.989 152.643 399.59 151.455 400.169 150.267C402.488 148.746 404.719 147.043 406.846 145.273C407.295 144.896 406.816 144.034 406.258 144.264C404.888 144.826 403.523 145.423 402.178 146.061C402.576 145.197 402.97 144.342 403.357 143.486C403.483 143.439 403.612 143.387 403.742 143.278C404.563 142.597 405.503 142.03 406.457 141.54C406.885 141.323 406.699 140.573 406.208 140.617C405.62 140.672 405.059 140.78 404.509 140.921C406.056 137.453 407.516 134.072 408.934 130.889C421.623 120.076 436.916 115.932 453.158 119.832C438.94 123.622 427.736 135.64 417.814 145.799ZM421.888 100.06C414.797 109.366 409.645 119.706 404.777 130.29C400.107 140.451 395.606 150.63 389.642 160.121C383.59 169.752 375.906 176.724 367.135 183.732C363.987 184.715 360.964 185.818 358.1 187.029C357.979 181.709 364.105 179.655 367.745 176.878C371.195 174.247 374.129 171.107 376.917 167.804C381.891 161.91 385.348 154.692 387.856 147.466C388.051 146.902 387.16 146.527 386.89 147.061C381.958 156.871 374.959 164.935 366.396 171.777C363.591 174.019 359.868 176.229 357.307 179.005C357.259 178.027 357.16 177.054 357.027 176.083C363.778 171.783 369.429 165.524 373.953 158.998C374.317 158.479 373.495 157.849 373.078 158.323C368.277 163.769 362.812 167.817 356.801 171.618C356.767 171.367 356.734 171.114 356.702 170.861C356.621 170.256 356.329 169.681 356.259 169.083C356.248 168.967 356.152 168.89 356.053 168.864C356.025 168.395 355.86 167.936 355.514 167.632C349.438 162.31 342.181 160.594 334.614 161.092C348.945 153.626 360.817 142.621 372.76 131.441C381.26 123.489 389.743 115.573 399.201 108.752C407.352 102.874 416.347 98.8185 425.477 94.8049C424.226 97.0737 421.992 99.919 421.888 100.06ZM240.624 193.905C240.976 193.768 241.307 193.51 241.56 193.075C241.699 192.838 241.826 192.592 241.963 192.357C250.255 185.447 259.221 181.2 270.237 179.842C281.057 178.51 292.099 180.121 302.858 181.256C320.285 183.091 338.768 183.188 353.111 172.28C353.775 184.837 351.837 195.86 344.355 206.731C339.499 213.782 332.673 219.309 325.167 223.565C324.882 223.653 324.642 223.793 324.449 223.971C320.635 226.078 316.665 227.87 312.69 229.364C300.006 234.122 286.04 235.323 272.809 232.402C265.777 230.85 259.083 227.659 253.554 223.062C249.926 220.042 248.22 216.241 245.926 212.602C245.953 212.136 246.012 211.684 246.028 211.216C246.218 205.315 244.161 199.09 240.624 193.905ZM332.81 172.663C324.515 173.859 316.422 174.424 308.217 174.699C322.819 168.136 337.966 158.699 351.173 168.942C342.768 175.287 332.919 177.424 322.49 177.747C326.238 176.82 329.885 175.539 333.346 173.936C334.133 173.575 333.52 172.562 332.81 172.663ZM415.302 95.3457C400.57 100.786 387.583 112.59 376.468 122.718C363.191 134.82 350.394 147.831 335.196 157.471C335.155 157.468 335.114 157.463 335.069 157.473C327.001 159.003 319.088 162.024 311.221 164.37C310.014 164.728 308.802 165.083 307.592 165.436C314.978 161.843 322.201 157.951 329.203 154.036C329.656 153.781 329.346 153.005 328.844 153.186C320.864 156.051 312.767 158.847 304.714 161.769C313.933 156.506 323.391 151.601 332.479 146.127C333.032 145.793 332.668 144.804 332.027 145.054C322.559 148.72 313.477 153.324 304.213 157.458C303.265 157.884 302.306 158.311 301.35 158.738C301.683 158.479 302.016 158.21 302.352 157.961C307.922 153.802 313.697 150.151 319.458 146.291C319.701 146.129 319.555 145.72 319.256 145.81C309.344 148.755 297.006 153.744 288.328 160.986C288.849 160.129 289.356 159.267 289.847 158.393C303.93 144.645 318.611 131.87 335.54 121.51C355.117 109.53 376.718 101.05 399.106 96.0523C404.569 94.8327 410.104 93.9381 415.642 93.1324C417.74 92.8264 419.845 92.5928 421.955 92.3758C419.579 92.9689 417.338 93.9759 415.302 95.3457ZM350.817 108.167C349.1 108.981 347.388 109.817 345.693 110.679C351.071 102.734 353.798 94.0738 355.786 83.7276C355.878 83.2447 355.168 83.0355 355.039 83.5229C352.165 94.3965 345.422 105.41 338.496 114.521C336.098 115.86 333.732 117.241 331.4 118.676C340.658 108.634 346.288 96.3894 349.842 82.438C352.708 71.1905 353.801 59.4934 354.886 47.9688C355.439 42.1181 355.922 36.2651 356.534 30.4221C357.335 22.7409 356.909 10.4152 365.469 6.88114C365.495 6.87002 365.514 6.84999 365.54 6.83663C366.584 8.27429 366.866 11.1462 367.037 11.9085C374.475 44.9322 366.402 78.7648 350.817 108.167ZM356.863 9.63071C357.513 9.28242 358.168 8.93636 358.823 8.58808C355.036 12.6262 354.179 19.3037 353.326 24.913C351.414 37.5258 350.811 50.3223 349.259 62.9807C346.612 84.6078 339.731 109.122 322.717 124.093C329.42 114.91 334.638 104.042 337.978 93.9937C338.141 93.5063 337.445 93.2671 337.185 93.6588C332.925 100.014 328.933 106.495 324.361 112.636C321.652 116.267 318.688 119.702 315.761 123.163C316.548 121.636 317.324 120.115 318.097 118.622C322.905 109.289 326.994 99.2046 330.392 89.2791C330.536 88.854 329.901 88.6103 329.682 88.9808C324.746 97.3096 319.886 105.654 314.879 113.942C312.232 118.324 309.306 122.727 306.534 127.209C307.78 124.11 309.024 121.01 310.332 117.946C314.585 107.992 319.035 98.1909 323.593 88.3777C323.868 87.7824 323.084 87.3128 322.708 87.8625C316.238 97.333 309.641 107.629 304.159 118.373C308.878 105.509 313.762 92.7675 319.358 80.2069C319.495 79.9009 319.092 79.6517 318.901 79.941C312.329 90.0235 306.641 99.6987 302.691 110.35C302.755 108.488 302.78 106.622 302.737 104.761C307.027 96.968 309.546 88.2197 314.06 80.4684C314.339 79.9911 313.66 79.4358 313.281 79.8676C309.103 84.6223 304.78 90.1236 302.097 96.1468C301.901 94.5823 301.672 93.0234 301.379 91.4834C303.419 87.7056 304.891 83.6375 306.913 79.8331C307.047 79.5794 306.704 79.28 306.497 79.5137C304.342 81.9973 302.172 84.5611 300.469 87.3796C300.347 86.9023 300.214 86.4305 300.082 85.9575C300.654 85.1452 300.846 84.146 301.175 83.1891C301.642 81.8315 302.111 80.4751 302.574 79.1176C302.698 78.7559 302.204 78.6202 302.006 78.8783C301.21 79.9232 300.416 80.9703 299.622 82.0185C299.453 82.241 299.265 82.4624 299.075 82.685C298.594 81.2629 298.081 79.8553 297.496 78.4811C295.71 74.2983 292.321 69.409 288.044 66.4814C289.705 63.8943 291.29 61.2682 292.997 58.7112C301.192 47.7941 311.091 38.4149 322.245 30.3365C329.293 25.2335 336.811 20.8003 344.359 16.4851C348.486 14.1306 352.675 11.8784 356.863 9.63071ZM296.944 90.2627C303.378 118.894 293.796 152.832 273.436 173.752C273.017 174.185 272.86 174.669 272.89 175.13C271.057 175.215 269.251 175.365 267.476 175.587C270.718 169.964 272.982 163.744 274.671 157.525C274.853 156.85 273.904 156.637 273.651 157.245C270.853 164.041 267.119 170.137 263.177 176.293C261.444 176.649 259.742 177.098 258.081 177.646C264.598 165.623 268.505 152.33 270.637 138.845C270.755 138.074 269.624 137.722 269.437 138.514C265.947 153.331 259.805 166.818 252.378 180.019C250.336 181.074 248.371 182.334 246.492 183.824C256.596 162.924 261.572 138.891 262.253 116.039C262.269 115.527 261.535 115.561 261.476 116.039C258.075 142.743 249.644 166.679 238.377 190.982C237.265 189.697 236.06 188.506 234.768 187.446C242.05 170.353 245.802 151.914 246.848 133.409C246.891 132.691 245.854 132.738 245.764 133.409C244.533 142.646 242.628 151.638 240.2 160.488C242.243 143.717 238.808 126.498 229.877 111.542C228.941 109.974 227.925 108.461 226.867 106.978C227.008 106.787 227.122 106.558 227.145 106.249C228.476 87.63 241.26 74.5832 259.974 73.476C263.385 73.2746 266.484 72.884 269.742 71.8325C274.41 70.3247 276.798 67.1924 282.312 68.4253C291.259 70.4271 295.23 82.6349 296.944 90.2627ZM215.953 178.745C214.165 172.292 212.189 165.91 210.144 159.533C209.969 158.992 209.217 159.221 209.304 159.764C210.372 166.32 211.505 172.852 212.827 179.363C211.795 179.261 210.76 179.186 209.724 179.133C207.356 170.505 204.339 162.031 201.487 153.554C201.29 152.964 200.44 153.204 200.56 153.81C202.228 162.224 203.775 170.709 205.87 179.032C204.988 179.034 204.103 179.055 203.218 179.087C196.889 165.367 189.818 152.451 185.355 137.885C185.191 137.345 184.415 137.569 184.519 138.117C187.194 152.15 191.343 167.188 199.29 179.338C197.487 179.488 195.68 179.69 193.875 179.946C185.216 160.848 178.232 140.728 172.504 120.595C172.318 119.946 171.422 120.233 171.516 120.866C174.583 141.973 181.005 161.479 190.309 180.502C188.075 180.893 185.845 181.352 183.626 181.86C179.411 172.093 174.631 162.786 171.382 152.601C171.207 152.055 170.467 152.292 170.545 152.832C172.03 163.07 174.808 173.788 180.426 182.628C179.21 182.936 178.003 183.258 176.799 183.591C176.779 183.53 176.762 183.472 176.734 183.408C174.033 177.682 170.323 172.47 167.546 166.772C167.396 166.458 166.854 166.683 166.977 167.011C169.24 172.8 170.94 178.916 173.846 184.434C171.628 185.087 169.433 185.771 167.271 186.477C163.489 182.634 159.46 179.04 155.22 175.712C147.642 160.208 143.715 143.317 145.004 126.035C146.361 107.896 155.064 91.0906 163.301 75.1696C174.94 79.4959 187.257 81.6835 198.357 87.4464C208.65 92.7931 217.342 100.967 224.039 110.35C239.268 131.682 240.379 160.219 229.303 183.554C224.987 181.665 220.506 180.425 215.908 179.734C216.029 179.452 216.057 179.119 215.953 178.745ZM252.638 70.0121C250.214 70.377 247.891 71.0313 245.685 71.9171C245.933 69.2621 246.071 66.5849 246.273 63.9321C246.31 63.4725 245.594 63.3924 245.482 63.8231C244.679 66.9053 243.776 69.9909 243.085 73.0977C242.026 73.6351 241.004 74.2327 240.015 74.8792C240.212 71.2405 240.056 67.5374 240.097 63.9276C240.101 63.7207 239.774 63.6706 239.733 63.8776C238.834 68.2094 237.643 72.5892 237.126 76.9945C235.938 77.967 234.821 79.0185 233.775 80.1391C234.395 72.8206 234.146 65.3787 234.005 58.0813C233.998 57.5706 233.287 57.5984 233.232 58.0813C232.176 67.1223 230.347 76.171 229.802 85.2643C228.904 86.6797 228.106 88.1619 227.416 89.693C228.059 77.8657 227.556 65.9016 228.371 54.1089C228.394 53.7795 227.854 53.705 227.794 54.031C225.802 64.504 223.41 75.3777 222.531 86.209C221.847 83.613 221.018 81.0493 220.059 78.5267C220.52 71.4408 221.19 64.2815 222.244 57.2757C222.297 56.9096 221.779 56.6047 221.591 57.0009C219.194 62.0716 217.829 67.09 217.432 72.3533C216.603 70.6152 215.713 68.9049 214.772 67.2213C214.826 64.3861 215.194 61.562 215.753 58.7801C215.869 58.2093 215.144 57.8966 214.818 58.3873C213.743 60.003 213.019 61.7155 212.587 63.5204C209.833 59.0928 206.711 54.9123 203.323 51.0422C212.809 37.8719 225.75 29.246 241.642 25.7219C247.354 24.4534 255.633 38.7487 258.43 42.8169C263.662 50.4302 266.932 58.8558 268.015 67.998C263.208 69.7439 257.632 69.2565 252.638 70.0121ZM221.216 100.025C220.146 98.8608 219.037 97.7325 217.899 96.6364C214.87 81.6424 207.344 67.6364 198.192 55.3785C197.973 55.0903 197.561 55.3296 197.708 55.66C202.939 67.494 207.271 79.5983 212.087 91.5635C211.089 90.7723 210.07 90.0101 209.034 89.2635C209.027 89.2089 209.027 89.1566 209.016 89.101C208.36 85.8262 206.442 82.8385 205.06 79.8219C203.526 76.4737 201.782 73.2268 199.965 70.0254C199.811 69.7561 199.339 69.9397 199.452 70.2424C200.589 73.2557 201.621 76.2968 202.59 79.3668C203.266 81.4933 203.645 83.7488 204.153 85.9486C204.08 85.9008 204.008 85.8485 203.93 85.8006C196.317 81.0571 187.856 78.4499 179.35 75.9329C178.432 74.6633 177.299 73.5194 176.369 72.2698C176.192 72.0372 175.739 72.1652 175.856 72.4857C176.175 73.3525 176.418 74.2516 176.681 75.144C174.726 74.5654 172.771 73.9801 170.829 73.3625C170.406 72.1841 169.422 71.186 168.705 70.1823C167.794 68.8993 167.016 67.5485 166.225 66.1909C165.886 65.6079 165.076 66.1186 165.34 66.705C166.042 68.2584 166.712 69.7984 167.27 71.4097C167.369 71.6956 167.455 71.9883 167.544 72.2787C166.236 71.8303 164.934 71.3574 163.649 70.86C162.647 69.3099 161.616 67.7933 160.679 66.1965C159.757 64.6242 159.035 62.7826 157.708 61.5086C157.619 61.424 157.471 61.4852 157.471 61.6065C157.455 63.4392 158.329 65.224 158.954 66.922C159.494 68.3886 160.039 69.8652 160.619 71.324C160.572 71.3885 160.526 71.4497 160.488 71.5176C159.943 72.5658 159.401 73.6173 158.86 74.6677C158.247 73.2156 157.403 71.8403 156.626 70.4839C155.27 68.1204 154.203 65.6112 152.855 63.2411C152.702 62.9718 152.233 63.1543 152.344 63.457C153.303 66.0118 154.268 68.5511 154.906 71.206C155.511 73.7186 155.563 76.2367 156.638 78.6213C156.669 78.6958 156.708 78.7559 156.747 78.8194C156.236 79.8353 155.731 80.8523 155.227 81.8705C153.08 76.1855 149.788 70.6341 147.245 65.2396C146.989 64.7021 146.166 65.0893 146.308 65.6335C147.74 71.156 148.762 77.1614 150.576 82.6961C149.643 81.1706 148.8 79.6172 148.026 78.016C146.247 73.2835 144.063 68.6178 142.377 64.0589C136.373 47.8364 136.132 29.9047 139.633 13.1191C155.007 27.2175 176.395 32.1736 192.326 45.6666C208.972 59.7638 217.482 79.1599 221.216 100.025ZM144.785 107.223C144.428 108.389 144.089 109.564 143.769 110.744C142.085 106.955 139.802 103.47 136.904 100.401C136.614 100.093 136.169 100.483 136.346 100.834C138.681 105.497 140.795 110.243 142.674 115.106C142.369 116.454 142.1 117.815 141.853 119.185C141.042 117.446 140.104 115.754 139.154 114.062C136.751 109.79 134.643 105.364 132.368 101.021C132.09 100.483 131.144 100.866 131.376 101.439C132.992 105.404 134.618 109.374 135.853 113.474C136.645 116.094 137.268 118.741 138.099 121.319C135.128 114.953 131.455 108.856 127.754 103.488C127.407 102.983 126.466 103.285 126.706 103.93C129.843 112.425 132.856 121.454 136.525 129.988C132.459 121.512 127.628 113.326 122.859 105.657C122.53 105.128 121.551 105.479 121.812 106.099C125.218 114.181 128.916 122.13 131.785 130.428C131.902 130.768 132.019 131.107 132.136 131.445C127.756 123.369 123.294 115.328 119.052 107.171C118.813 106.709 117.997 107.039 118.203 107.528C120.199 112.273 122.161 117.035 124.141 121.792C124.026 121.805 123.909 121.837 123.797 121.864C121.965 117.663 119.847 113.564 117.425 109.492C105.416 89.2991 88.7735 68.4398 98.404 43.9252C100.724 44.7007 103.472 47.6183 104.137 48.2426C110.001 53.7383 115.338 59.7705 120.357 66.0374C130.604 78.8249 136.902 93.1436 144.785 107.223ZM110.375 105.726C117.535 116.866 122.785 127.929 125.824 140.842C127.106 146.292 128.346 152.367 130.77 157.698C130.651 157.616 130.528 157.546 130.411 157.452C122.374 147.582 114.504 138.194 108.478 126.856C108.25 126.428 107.509 126.726 107.684 127.19C111.669 137.814 116.932 148.66 124.37 157.444C123.505 157.067 122.645 156.687 121.772 156.326C98.6583 131.582 87.0071 100.219 90.7574 66.0741C90.9425 64.3905 91.2057 62.717 91.5001 61.0479C91.809 76.8142 102.281 93.1258 110.375 105.726ZM58.0698 131.733C64.7173 136.864 71.5688 141.532 79.2311 144.92C74.999 144.201 70.7536 143.543 66.5026 142.896C56.5945 137.327 47.7234 131.587 40.2005 122.703C34.5745 116.056 30.5889 108.287 28.0765 100.041C34.0995 111.844 45.396 119.769 57.6594 125.438C74.524 133.234 92.5829 137.519 108.852 146.56C110.239 148.272 111.696 149.927 113.204 151.542C105.777 147.718 97.3524 145.646 89.3534 143.579C78.4839 140.772 68.6817 135.87 58.6519 130.981C58.1914 130.755 57.6115 131.382 58.0698 131.733ZM50.4343 138.127C47.9877 138.74 45.696 139.21 43.2449 139.214C38.7084 138.408 34.1909 137.514 29.6968 136.487C31.0796 136.151 32.4568 135.792 33.824 135.516C37.5687 134.763 41.4015 134.633 45.1585 134.048C46.8457 135.514 48.6066 136.882 50.4343 138.127ZM98.753 153.011C111.488 156 123.585 160.653 134.963 167.091C145.363 172.977 154.579 180.56 164.273 187.473C160.71 188.676 157.242 189.92 153.911 191.131C145.213 194.297 136.381 197.655 127.798 201.548C127.718 201.519 127.642 201.488 127.553 201.47C117.99 199.475 108.975 198.332 99.9295 194.331C99.1802 194 98.5144 195.052 99.2705 195.454C106.109 199.094 113.633 202.773 121.351 204.614C120.194 205.187 119.048 205.769 117.906 206.366C112.366 204.479 106.512 203.667 100.937 201.813C94.1028 199.543 87.8936 195.532 81.9431 191.584C81.5316 191.308 81.0555 191.931 81.4168 192.265C89.3623 199.56 100.92 207.116 112.168 209.52C110.919 210.242 109.685 210.981 108.461 211.738C72.3639 200 40.8083 174.649 25.8964 139.305C49.7753 145.763 74.6879 147.364 98.753 153.011ZM83.6426 206.011C88.5371 208.504 93.6189 210.656 98.8612 212.443C98.3148 214.702 97.7561 216.942 96.7435 219.049C96.3967 219.768 95.8726 220.414 95.3574 221.056C93.155 222.87 91.0384 224.791 88.9932 226.803C86.4339 226.152 84.421 224.885 83.017 221.549C80.8414 216.387 82.0268 211.078 83.6426 206.011ZM76.5513 202.091C78.1772 203.064 79.8321 203.99 81.5049 204.884C79.1541 207.912 77.9431 211.959 77.9274 215.962C76.6896 216.124 75.444 216.246 74.2039 216.391C73.6954 216.45 73.4746 217.262 74.0712 217.362C75.3927 217.587 76.7208 217.792 78.0401 218.045C78.1393 219.025 78.3133 219.992 78.5609 220.928C73.2393 220.754 67.0937 220.75 62.1948 222.228C61.8692 222.327 61.8357 222.835 62.1948 222.915C64.9782 223.544 67.8576 223.464 70.7012 223.598C73.8014 223.745 76.8647 224.216 79.9548 224.475C79.957 224.477 79.957 224.479 79.957 224.483C80.3696 225.229 80.8302 225.877 81.3175 226.476C72.6249 225.559 63.9456 226.107 55.1068 227.42C54.7478 227.474 54.8515 228.022 55.1882 228.03C64.2545 228.208 73.2505 229.302 82.2308 230.504C78.0557 230.637 73.8783 230.878 69.7533 230.914C60.4161 230.992 51.0711 231.298 41.7416 231.642C41.3368 231.658 41.2119 232.299 41.6424 232.372C49.4418 233.683 57.781 234.898 66.1781 235.532C63.3289 236.042 60.4886 236.576 57.6561 237.132C42.2881 236.271 26.9156 234.255 11.8164 231.38C10.3153 230.749 8.78535 230.173 7.20851 229.682C22.8096 207.837 50.1288 197.441 76.5513 202.091ZM63.5687 241.334C81.7402 242.28 102.772 242.943 120.418 237.721C125.146 239.743 129.81 242.018 134.468 244.274C126.624 247.998 119.303 252.149 110.888 254.846C110.635 254.927 110.664 255.361 110.953 255.333C120.184 254.393 130.594 252.158 138.317 246.758C138.5 246.631 138.642 246.486 138.771 246.338C139.985 246.917 141.202 247.483 142.419 248.041C128.698 254.75 115.467 260.588 99.8727 261.707C99.256 261.752 99.2471 262.637 99.8727 262.665C116.344 263.435 133.956 260.491 147.248 250.166C148.887 250.858 150.531 251.516 152.183 252.128C140.554 258.502 129.631 264.219 116.348 267.025C101.863 270.086 86.8041 269.171 72.5412 265.499C58.7188 261.942 46.6316 254.872 35.3473 246.36C30.0514 242.366 24.7879 238.353 19.1374 235.064C33.7382 238.463 48.4951 240.555 63.5687 241.334ZM136.757 241.152C123.032 234.645 109.515 228.318 94.3638 227.242C111.638 212.767 131.807 203.719 152.955 195.909C165.329 191.342 177.814 187.127 190.84 184.851C199.453 183.344 207.773 183.46 216.054 184.668C216.192 184.749 216.344 184.809 216.515 184.833C237.315 187.526 246.914 206.609 238.466 225.459C230.706 242.771 210.567 250.338 193.004 252.636C173.035 255.252 154.579 249.598 136.757 241.152ZM215.669 251.147C221.262 248.729 226.425 245.548 230.874 241.7C230.666 243.4 230.664 245.111 230.961 246.847C231.056 247.4 231.885 247.234 231.904 246.719C232.015 244.157 232.484 241.702 233.429 239.324C234.13 238.629 234.814 237.91 235.465 237.176C235.782 240.268 236.486 243.356 237.149 246.351C237.226 246.694 237.769 246.616 237.758 246.271C237.639 242.101 238.138 237.97 238.179 233.809C238.707 233.088 239.208 232.347 239.691 231.59C240.183 236.49 241.401 241.541 242.337 246.107C242.391 246.381 242.773 246.29 242.791 246.044C243.413 239.401 244.439 231.88 243.345 225.277C243.316 225.099 243.26 224.942 243.2 224.802C243.326 224.487 243.444 224.171 243.561 223.852C245.793 231.919 248.334 239.878 250.949 247.836C251.121 248.36 251.839 248.137 251.757 247.615C250.444 239.301 249.062 231.018 247.358 222.78C248.181 223.676 249.084 224.537 250.044 225.359C252.538 231.367 255.162 237.22 257.042 243.482C257.265 244.223 258.303 243.904 258.181 243.171C257.384 238.325 256.285 233.392 254.582 228.723C256.34 229.873 258.142 230.901 259.867 231.787C260.469 233.984 261.961 236.013 263.095 237.951C263.278 238.262 263.817 238.055 263.693 237.7C263.16 236.215 262.931 234.658 262.622 233.127C263.664 233.603 264.645 234.019 265.526 234.368C266.376 234.698 267.23 235.002 268.093 235.284C268.38 235.965 268.667 236.645 268.953 237.325C269.301 238.145 270.628 237.843 270.331 236.949C270.209 236.583 270.086 236.212 269.962 235.846C275.141 237.336 280.537 238.02 285.962 238.047C285.976 238.065 285.98 238.085 285.994 238.104C290.841 244.894 296.961 249.924 303.867 253.613C299.607 263.112 292.899 268.913 284.139 274.822C277.185 279.511 270.472 284.387 266.018 291.542C254.191 288.562 242.63 284.795 231.319 280.212C217.956 274.798 207.51 269.322 203.705 255.124C207.828 254.112 211.842 252.8 215.669 251.147ZM290.391 237.921C292.383 237.806 294.371 237.614 296.346 237.346C296.462 237.457 296.59 237.561 296.737 237.66C313.872 248.996 336.159 258.123 356.767 251.721C357.104 251.615 357.06 251.05 356.683 251.084C336.621 252.702 320.307 244.822 303.199 236.149C304.516 235.864 305.812 235.539 307.105 235.198C312.228 238.316 318.013 239.849 323.477 242.238C323.939 242.44 324.346 241.804 323.883 241.544C319.742 239.215 315.999 236.256 311.947 233.793C313.737 233.218 315.526 232.566 317.298 231.855C326.473 231.071 335.364 230.284 344.782 230.93C357.469 231.793 370.028 234.008 382.69 235.132C398.383 236.527 415.214 235.536 430.677 230.937C429.602 231.762 428.529 232.6 427.465 233.439C413.655 244.348 399.241 251.344 381.956 254.982C350.671 261.578 314.406 261.212 290.391 237.921ZM442.157 223.074C433.584 225.8 424.999 228.336 416.096 229.902C403.34 232.143 390.407 231.816 377.573 230.522C370.456 229.803 362.683 228.501 354.751 227.492C347.737 225.306 340.168 223.882 332.757 223.508C333.35 223.092 333.936 222.658 334.512 222.226C338.957 223.411 343.668 223.092 348.25 223.156C353.651 223.229 359.077 223.659 364.471 223.454C364.858 223.437 364.973 222.835 364.565 222.755C359.3 221.711 353.917 221.292 348.605 220.523C345.233 220.035 341.75 219.3 338.302 219.155C338.8 218.717 339.296 218.279 339.781 217.828C346.072 218.558 352.523 218.331 358.842 218.694C366.43 219.129 374.084 220.297 381.686 220.063C382.379 220.041 382.496 219.087 381.849 218.877C375.266 216.726 368.253 216.196 361.385 215.55C355.368 214.982 349.035 214.381 342.896 214.709C343.568 213.984 344.223 213.245 344.852 212.489C356.718 213.123 368.686 213.226 380.566 213.413C380.727 213.417 380.821 213.284 380.829 213.15C380.836 213.15 380.84 213.152 380.844 213.154C381.02 213.242 381.181 212.976 381.001 212.887C380.926 212.85 380.852 212.815 380.779 212.777C380.685 212.731 380.604 212.78 380.567 212.853C369.683 210.579 358.342 209.268 347.183 209.455C347.777 208.632 348.354 207.783 348.915 206.915C354.755 207.26 360.742 206.678 366.572 206.268C367.218 206.224 367.206 205.337 366.572 205.279C361.301 204.781 355.903 204.135 350.581 204.167C350.805 203.766 351.031 203.368 351.251 202.964C353.544 203.176 355.923 202.953 358.18 202.668C358.843 202.586 359.148 201.52 358.358 201.392C356.427 201.084 354.379 200.766 352.38 200.768C353.758 197.925 354.892 194.945 355.742 191.9C374.308 183.239 395.208 180.365 415.425 183.67C434.133 186.728 455.402 197.058 459.722 217.016C453.325 217.685 447.559 219.976 442.157 223.074Z" fill="black"/>
<path d="M241.641 25.7251C225.75 29.2492 212.808 37.874 203.322 51.0454C206.71 54.9155 209.832 59.096 212.587 63.5236C213.018 61.7176 213.742 60.0062 214.817 58.3905C215.144 57.8998 215.87 58.2125 215.752 58.7833C215.193 61.5652 214.824 64.3893 214.771 67.2245C215.712 68.9081 216.602 70.6184 217.431 72.3565C217.828 67.0932 219.193 62.0748 221.59 57.0041C221.779 56.6079 222.296 56.9128 222.243 57.2789C221.189 64.2847 220.519 71.444 220.058 78.5299C221.017 81.0525 221.846 83.6151 222.53 86.2122C223.409 75.3797 225.801 64.5061 227.793 54.0342C227.852 53.7093 228.392 53.7827 228.37 54.1121C227.556 65.9037 228.058 77.8689 227.415 89.6962C228.106 88.1651 228.904 86.6829 229.801 85.2675C230.347 76.1742 232.175 67.1244 233.231 58.0845C233.286 57.6016 233.998 57.5738 234.004 58.0845C234.145 65.3818 234.396 72.8238 233.775 80.1423C234.821 79.0217 235.937 77.9702 237.126 76.9977C237.642 72.5924 238.833 68.2126 239.732 63.8808C239.773 63.6727 240.1 63.7239 240.096 63.9308C240.055 67.5405 240.211 71.2437 240.014 74.8824C241.003 74.2347 242.026 73.6383 243.084 73.1009C243.775 69.9941 244.68 66.9085 245.481 63.8262C245.593 63.3945 246.309 63.4757 246.272 63.9353C246.069 66.588 245.931 69.2653 245.684 71.9203C247.891 71.0345 250.214 70.3802 252.637 70.0153C257.631 69.2597 263.207 69.7471 268.012 68.0046C266.929 58.8612 263.66 50.4367 258.427 42.8234C255.632 38.7508 247.353 24.4566 241.641 25.7251Z" fill="#FFC700"/>
<path d="M269.737 71.8322C266.479 72.8837 263.38 73.2743 259.969 73.4757C241.256 74.5828 228.47 87.6296 227.14 106.249C227.118 106.556 227.003 106.786 226.862 106.978C227.921 108.461 228.936 109.973 229.872 111.541C238.803 126.497 242.238 143.717 240.195 160.488C242.623 151.637 244.529 142.645 245.76 133.409C245.849 132.738 246.886 132.691 246.844 133.409C245.798 151.913 242.045 170.351 234.763 187.445C236.056 188.506 237.26 189.695 238.372 190.981C249.639 166.678 258.07 142.741 261.471 116.039C261.531 115.56 262.264 115.527 262.249 116.039C261.568 138.891 256.591 162.923 246.487 183.823C248.367 182.333 250.331 181.074 252.374 180.019C259.801 166.817 265.942 153.332 269.432 138.514C269.62 137.722 270.752 138.073 270.632 138.844C268.5 152.33 264.594 165.622 258.077 177.645C259.737 177.098 261.44 176.648 263.172 176.292C267.113 170.137 270.849 164.041 273.647 157.244C273.901 156.637 274.849 156.849 274.666 157.525C272.977 163.745 270.714 169.965 267.471 175.587C269.247 175.364 271.054 175.215 272.885 175.129C272.856 174.669 273.012 174.184 273.431 173.752C293.791 152.831 303.373 118.894 296.939 90.2624C295.226 82.6346 291.254 70.4268 282.305 68.4261C276.794 67.1921 274.405 70.3244 269.737 71.8322Z" fill="#FFC700"/>
<path d="M192.326 45.6639C176.395 32.172 155.007 27.2148 139.632 13.1165C136.132 29.902 136.373 47.8337 142.377 64.0563C144.063 68.6151 146.246 73.2808 148.026 78.0133C148.8 79.6145 149.643 81.1679 150.576 82.6934C148.762 77.1587 147.74 71.1533 146.308 65.6308C146.167 65.0867 146.989 64.6983 147.245 65.2369C149.788 70.6314 153.08 76.1828 155.227 81.8678C155.731 80.8496 156.236 79.8326 156.747 78.8167C156.708 78.7532 156.669 78.6932 156.638 78.6186C155.564 76.2329 155.511 73.7159 154.906 71.2034C154.268 68.5484 153.303 66.0091 152.344 63.4543C152.233 63.1527 152.702 62.9691 152.855 63.2384C154.203 65.6085 155.27 68.1177 156.626 70.4812C157.404 71.8376 158.248 73.2129 158.86 74.6651C159.401 73.6146 159.943 72.5631 160.488 71.5149C160.525 71.4459 160.571 71.3847 160.619 71.3213C160.038 69.8625 159.493 68.387 158.954 66.9193C158.328 65.2224 157.455 63.4365 157.471 61.6038C157.471 61.4814 157.62 61.4202 157.708 61.5059C159.034 62.78 159.756 64.6215 160.679 66.1938C161.614 67.7906 162.646 69.3073 163.649 70.8573C164.934 71.3547 166.236 71.8287 167.544 72.276C167.455 71.9856 167.37 71.693 167.269 71.407C166.712 69.7969 166.042 68.2568 165.34 66.7023C165.076 66.1148 165.886 65.6052 166.225 66.1883C167.016 67.5458 167.794 68.8967 168.705 70.1796C169.422 71.1833 170.406 72.1814 170.829 73.3598C172.771 73.9774 174.725 74.5627 176.681 75.1413C176.418 74.25 176.175 73.3498 175.856 72.483C175.74 72.1625 176.192 72.0346 176.369 72.2671C177.299 73.5167 178.433 74.6606 179.35 75.9302C187.856 78.4461 196.318 81.0533 203.93 85.798C204.008 85.8458 204.08 85.8981 204.153 85.946C203.645 83.7461 203.266 81.4917 202.59 79.3641C201.621 76.2941 200.589 73.253 199.452 70.2397C199.34 69.9382 199.812 69.7535 199.965 70.0227C201.781 73.223 203.525 76.471 205.06 79.8192C206.442 82.8359 208.36 85.8236 209.015 89.0983C209.027 89.154 209.027 89.2063 209.034 89.2608C210.07 90.0074 211.089 90.7697 212.087 91.5608C207.271 79.5956 202.939 67.4913 197.708 55.6574C197.561 55.3258 197.972 55.0865 198.192 55.3758C207.344 67.6337 214.87 81.6408 217.899 96.6338C219.037 97.7298 220.146 98.8581 221.216 100.022C217.481 79.1594 208.971 59.7633 192.326 45.6639Z" fill="#FFC700"/>
<path d="M229.303 183.555C240.38 160.22 239.268 131.684 224.04 110.351C217.343 100.968 208.651 92.7939 198.358 87.4472C187.257 81.6832 174.939 79.4967 163.301 75.1704C155.064 91.0914 146.362 107.897 145.005 126.036C143.715 143.318 147.641 160.209 155.221 175.713C159.461 179.041 163.491 182.635 167.271 186.478C169.434 185.772 171.628 185.087 173.846 184.435C170.94 178.917 169.242 172.801 166.978 167.012C166.854 166.684 167.396 166.459 167.547 166.773C170.324 172.471 174.033 177.684 176.735 183.409C176.763 183.473 176.779 183.531 176.799 183.592C178.004 183.259 179.21 182.936 180.427 182.629C174.809 173.789 172.031 163.071 170.546 152.833C170.468 152.293 171.209 152.056 171.383 152.602C174.632 162.787 179.412 172.094 183.626 181.86C185.846 181.353 188.076 180.893 190.31 180.503C181.006 161.478 174.584 141.973 171.517 120.867C171.423 120.235 172.32 119.947 172.505 120.596C178.232 140.729 185.217 160.849 193.876 179.947C195.682 179.692 197.488 179.489 199.291 179.339C191.343 167.189 187.195 152.15 184.52 138.118C184.416 137.57 185.192 137.346 185.356 137.886C189.819 152.453 196.89 165.367 203.219 179.087C204.104 179.056 204.988 179.035 205.87 179.033C203.776 170.71 202.227 162.225 200.561 153.811C200.441 153.204 201.291 152.964 201.488 153.555C204.339 162.031 207.357 170.506 209.724 179.134C210.762 179.187 211.795 179.262 212.828 179.363C211.505 172.852 210.372 166.32 209.305 159.765C209.218 159.222 209.97 158.993 210.145 159.533C212.19 165.909 214.166 172.293 215.954 178.746C216.057 179.12 216.028 179.452 215.909 179.736C220.507 180.425 224.988 181.665 229.303 183.555Z" fill="#FFC700"/>
<path d="M104.136 48.2451C103.471 47.6198 100.722 44.7033 98.4029 43.9277C88.7735 68.4424 105.416 89.3017 117.424 109.496C119.845 113.568 121.964 117.665 123.796 121.868C123.909 121.84 124.026 121.809 124.14 121.796C122.16 117.039 120.198 112.276 118.201 107.532C117.995 107.043 118.81 106.713 119.051 107.174C123.294 115.332 127.755 123.372 132.135 131.449C132.018 131.11 131.901 130.772 131.784 130.432C128.915 122.133 125.217 114.185 121.811 106.103C121.55 105.483 122.53 105.131 122.858 105.661C127.627 113.33 132.458 121.515 136.524 129.992C132.855 121.457 129.841 112.429 126.705 103.934C126.465 103.289 127.406 102.987 127.753 103.491C131.453 108.86 135.127 114.957 138.098 121.323C137.266 118.746 136.644 116.099 135.852 113.478C134.617 109.378 132.991 105.407 131.375 101.443C131.143 100.87 132.089 100.487 132.367 101.024C134.642 105.367 136.751 109.793 139.153 114.066C140.104 115.758 141.042 117.449 141.852 119.189C142.099 117.819 142.368 116.458 142.672 115.109C140.793 110.247 138.68 105.501 136.345 100.837C136.168 100.487 136.613 100.096 136.903 100.405C139.802 103.475 142.084 106.959 143.768 110.747C144.088 109.568 144.427 108.394 144.783 107.227C136.9 93.1473 130.602 78.8286 120.355 66.0411C115.338 59.7731 109.999 53.7409 104.136 48.2451Z" fill="#FFC700"/>
<path d="M322.248 30.3385C311.093 38.4169 301.195 47.795 292.999 58.7132C291.292 61.2713 289.707 63.8963 288.046 66.4834C292.324 69.4099 295.713 74.3003 297.498 78.4831C298.083 79.8573 298.596 81.2649 299.077 82.687C299.268 82.4644 299.455 82.2441 299.625 82.0205C300.419 80.9723 301.213 79.9252 302.009 78.8803C302.206 78.6222 302.7 78.7579 302.576 79.1196C302.114 80.4771 301.644 81.8335 301.177 83.1911C300.847 84.148 300.655 85.1461 300.084 85.9595C300.217 86.4325 300.348 86.9054 300.471 87.3816C302.174 84.5631 304.345 81.9993 306.5 79.5157C306.706 79.282 307.049 79.5814 306.916 79.8351C304.895 83.6395 303.422 87.7088 301.381 91.4854C301.674 93.0254 301.903 94.5843 302.099 96.1488C304.782 90.1256 309.106 84.6243 313.283 79.8696C313.662 79.4378 314.341 79.9931 314.063 80.4704C309.548 88.2217 307.028 96.97 302.739 104.763C302.783 106.624 302.757 108.49 302.694 110.352C306.643 99.7007 312.333 90.0244 318.903 79.943C319.094 79.6537 319.498 79.9029 319.361 80.2089C313.765 92.7695 308.882 105.511 304.161 118.375C309.643 107.631 316.24 97.335 322.711 87.8645C323.086 87.3148 323.87 87.7844 323.595 88.3797C319.037 98.1929 314.589 107.994 310.335 117.948C309.027 121.011 307.782 124.112 306.536 127.211C309.309 122.729 312.235 118.326 314.881 113.944C319.888 105.657 324.749 97.3116 329.685 88.9828C329.902 88.6123 330.538 88.856 330.394 89.2811C326.995 99.2066 322.906 109.291 318.099 118.624C317.328 120.117 316.551 121.637 315.763 123.165C318.69 119.704 321.655 116.269 324.363 112.638C328.935 106.497 332.928 100.016 337.188 93.6608C337.447 93.2691 338.143 93.5083 337.98 93.9957C334.642 104.045 329.423 114.912 322.72 124.095C339.734 109.123 346.614 84.6098 349.261 62.9827C350.815 50.3243 351.417 37.5278 353.328 24.915C354.182 19.3046 355.037 12.6282 358.825 8.59009C358.17 8.93726 357.516 9.28443 356.866 9.63272C352.677 11.8804 348.489 14.1326 344.361 16.4894C336.813 20.8023 329.296 25.2355 322.248 30.3385Z" fill="#FFC700"/>
<path d="M128.175 69.0006C128.198 69.1063 128.183 69.1953 128.183 69.291C130.103 71.8414 131.98 74.4641 133.783 77.1413C132.634 71.4519 132.233 65.6323 132.408 59.7337C132.424 59.164 133.219 59.1896 133.276 59.7337C134.201 68.4909 136.303 76.8976 138.892 85.2721C141.768 90.2337 144.286 95.3479 146.214 100.561C150.429 84.3852 138.186 69.4601 135.27 53.9186C133.064 42.1703 133.114 30.4599 135.793 18.9888C127.083 33.9684 124.482 51.9023 128.175 69.0006Z" fill="#FFC700"/>
<path d="M372.762 131.44C360.819 142.621 348.947 153.626 334.616 161.091C342.184 160.594 349.44 162.31 355.516 167.632C355.863 167.936 356.027 168.396 356.055 168.864C356.154 168.889 356.25 168.967 356.261 169.083C356.332 169.68 356.624 170.256 356.704 170.861C356.736 171.114 356.77 171.366 356.803 171.618C362.814 167.817 368.279 163.767 373.08 158.323C373.497 157.849 374.319 158.48 373.956 158.998C369.431 165.522 363.781 171.781 357.03 176.083C357.163 177.053 357.262 178.027 357.31 179.005C359.87 176.229 363.595 174.019 366.398 171.777C374.962 164.936 381.96 156.871 386.893 147.061C387.163 146.528 388.054 146.902 387.858 147.466C385.35 154.692 381.893 161.91 376.92 167.803C374.132 171.108 371.198 174.247 367.748 176.878C364.107 179.655 357.98 181.709 358.103 187.029C360.965 185.817 363.988 184.715 367.138 183.732C375.907 176.724 383.593 169.753 389.645 160.121C395.61 150.629 400.11 140.451 404.78 130.29C409.646 119.705 414.798 109.366 421.891 100.06C421.996 99.9187 424.229 97.0734 425.478 94.8035C416.348 98.8171 407.354 102.873 399.203 108.75C389.744 115.573 381.262 123.489 372.762 131.44Z" fill="#FFC700"/>
<path d="M408.929 130.886C407.511 134.069 406.051 137.449 404.504 140.919C405.054 140.776 405.615 140.668 406.203 140.615C406.693 140.571 406.879 141.321 406.452 141.538C405.499 142.027 404.559 142.593 403.737 143.276C403.607 143.385 403.479 143.437 403.352 143.484C402.965 144.34 402.572 145.195 402.173 146.059C403.518 145.421 404.884 144.823 406.253 144.261C406.811 144.032 407.291 144.894 406.841 145.271C404.714 147.041 402.483 148.744 400.165 150.265C399.584 151.453 398.982 152.64 398.374 153.823C403.183 150.422 408.751 147.804 413.659 145.698C414.187 145.47 414.601 146.14 414.113 146.472C409.589 149.567 405.426 153.031 401.547 156.9C401.15 157.297 400.766 157.711 400.371 158.117C404.424 155.9 408.41 153.577 412.43 151.291C414.226 149.466 416.018 147.633 417.809 145.797C427.73 135.638 438.934 123.62 453.15 119.83C436.911 115.929 421.618 120.074 408.929 130.886Z" fill="#FFC700"/>
<path d="M90.7601 66.0772C87.0098 100.223 98.661 131.585 121.775 156.33C122.648 156.692 123.508 157.071 124.373 157.448C116.935 148.664 111.672 137.818 107.687 127.194C107.512 126.73 108.252 126.432 108.481 126.86C114.506 138.198 122.377 147.585 130.414 157.456C130.531 157.551 130.654 157.62 130.773 157.702C128.35 152.371 127.11 146.296 125.826 140.846C122.787 127.933 117.537 116.871 110.378 105.731C102.284 93.1289 91.8116 76.8173 91.5016 61.051C91.2083 62.7201 90.9441 64.3937 90.7601 66.0772Z" fill="#FFC700"/>
<path d="M427.759 182.031C428.801 182.347 429.838 182.682 430.855 183.038C446.417 166.375 440.246 141.139 451.582 122.674C444.98 126.912 438.591 131.228 432.751 136.588C426.46 142.363 420.695 148.633 414.697 154.699C405.128 164.374 392.828 177.149 378.721 179.708C378.051 180.23 377.365 180.732 376.666 181.216C390.212 178.25 405.125 177.501 418.803 179.925C421.561 177.356 423.982 174.654 425.809 171.313C426.07 170.838 426.852 171.162 426.688 171.685C425.706 174.879 424.264 177.946 422.256 180.611C422.654 180.699 423.057 180.785 423.453 180.878C427.105 175.634 430.864 170.863 433.566 164.954C433.834 164.367 434.746 164.792 434.586 165.386C433.096 171.001 431.028 177.063 427.759 182.031Z" fill="#FFC700"/>
<path d="M365.539 6.83887C365.512 6.85222 365.493 6.87225 365.467 6.88338C356.907 10.4174 357.333 22.7432 356.533 30.4244C355.92 36.2662 355.439 42.1203 354.884 47.9711C353.798 59.4956 352.706 71.1916 349.84 82.4402C346.285 96.3916 340.656 108.636 331.398 118.679C333.73 117.243 336.096 115.862 338.494 114.524C345.42 105.413 352.163 94.3987 355.037 83.5251C355.166 83.0377 355.876 83.2469 355.784 83.7299C353.796 94.076 351.069 102.736 345.691 110.681C347.386 109.819 349.098 108.983 350.815 108.169C366.401 78.7671 374.473 44.9344 367.035 11.9129C366.866 11.1485 366.582 8.27541 365.539 6.83887Z" fill="#FFC700"/>
<path d="M253.552 223.063C259.081 227.66 265.776 230.851 272.808 232.403C286.037 235.324 300.004 234.124 312.688 229.366C316.663 227.871 320.634 226.08 324.448 223.972C324.64 223.794 324.88 223.654 325.166 223.566C332.672 219.31 339.499 213.783 344.353 206.733C351.836 195.861 353.773 184.838 353.109 172.281C338.766 183.19 320.282 183.094 302.857 181.258C292.099 180.123 281.056 178.511 270.235 179.843C259.22 181.201 250.254 185.448 241.961 192.358C241.824 192.593 241.697 192.839 241.559 193.076C241.306 193.511 240.976 193.769 240.622 193.906C244.159 199.09 246.218 205.316 246.028 211.217C246.013 211.685 245.955 212.137 245.927 212.603C248.219 216.242 249.925 220.043 253.552 223.063ZM340.324 195.482C337.373 206.379 330.362 216.98 319.772 221.812C318.737 222.284 317.501 220.997 318.472 220.134C326.848 212.689 334.26 205.262 339.219 195.018C339.519 194.388 340.498 194.836 340.324 195.482ZM327.807 201.386C328.111 200.964 328.724 201.32 328.503 201.794C323.487 212.442 316.717 221.138 306.202 226.642C305.619 226.947 305 226.201 305.486 225.717C313.243 218.041 321.392 210.267 327.807 201.386ZM313.63 209.359C313.897 209.079 314.303 209.434 314.142 209.754C310.04 217.95 303.609 225.27 295.4 229.512C294.494 229.98 293.517 228.826 294.289 228.078C300.739 221.817 307.419 215.877 313.63 209.359ZM299.597 213.412C299.905 212.863 300.675 213.346 300.43 213.9C297.824 219.729 293.703 226.296 287.384 228.576C286.195 229.005 285.145 227.239 286.13 226.428C288.584 224.402 291.434 222.854 293.771 220.683C296.078 218.541 298.061 216.164 299.597 213.412ZM281.033 224.556C283.459 222.784 286.008 221.185 288.416 219.393C288.896 219.038 289.51 219.837 289.053 220.22C286.758 222.156 284.615 224.275 282.331 226.234C281.155 227.242 279.78 225.471 281.033 224.556Z" fill="#FFC700"/>
<path d="M399.105 96.0521C376.717 101.049 355.117 109.531 335.54 121.51C318.611 131.87 303.93 144.645 289.846 158.393C289.356 159.266 288.847 160.13 288.328 160.986C297.006 153.744 309.345 148.756 319.255 145.81C319.554 145.72 319.699 146.128 319.457 146.291C313.696 150.152 307.922 153.802 302.352 157.961C302.015 158.21 301.682 158.479 301.349 158.738C302.306 158.31 303.266 157.882 304.213 157.458C313.478 153.322 322.559 148.719 332.026 145.054C332.667 144.803 333.032 145.792 332.479 146.127C323.39 151.601 313.932 156.505 304.714 161.769C312.766 158.847 320.862 156.051 328.844 153.185C329.345 153.005 329.657 153.781 329.203 154.036C322.201 157.952 314.978 161.842 307.592 165.435C308.802 165.083 310.014 164.728 311.221 164.369C319.088 162.024 326.999 159.003 335.068 157.473C335.114 157.463 335.154 157.468 335.196 157.471C350.394 147.831 363.19 134.82 376.468 122.718C387.582 112.59 400.57 100.787 415.302 95.3455C417.337 93.9757 419.579 92.9687 421.955 92.3767C419.844 92.5937 417.74 92.8274 415.642 93.1334C410.104 93.9379 404.568 94.8325 399.105 96.0521Z" fill="#FFC700"/>
<path d="M333.346 173.934C329.884 175.536 326.238 176.818 322.49 177.745C332.919 177.422 342.768 175.285 351.173 168.94C337.966 158.697 322.819 168.133 308.217 174.697C316.421 174.423 324.514 173.857 332.811 172.661C333.52 172.56 334.133 173.574 333.346 173.934Z" fill="#FFC700"/>
<path d="M108.459 211.738C109.684 210.981 110.919 210.243 112.167 209.52C100.919 207.117 89.3616 199.56 81.415 192.265C81.0537 191.931 81.5298 191.308 81.9413 191.584C87.8907 195.533 94.101 199.544 100.935 201.814C106.511 203.667 112.364 204.48 117.904 206.367C119.046 205.769 120.192 205.186 121.349 204.614C113.631 202.774 106.107 199.094 99.2687 195.454C98.5126 195.054 99.1772 194 99.9277 194.332C108.974 198.333 117.988 199.476 127.551 201.471C127.641 201.49 127.715 201.52 127.797 201.549C136.378 197.655 145.21 194.296 153.909 191.131C157.24 189.921 160.708 188.677 164.271 187.474C154.577 180.559 145.362 172.977 134.962 167.092C123.584 160.654 111.486 155.999 98.7512 153.011C74.6861 147.364 49.7734 145.762 25.8945 139.308C40.8064 174.65 72.361 200.001 108.459 211.738Z" fill="#FFC700"/>
<path d="M26.3579 91.6179C36.3854 117.697 63.8685 122.325 87.6671 131.921C89.3867 132.322 91.0907 132.785 92.7846 133.281C85.5417 129.873 78.2719 126.606 70.8372 123.538C70.5138 123.402 70.6309 122.888 70.9855 123C77.701 125.126 84.4086 127.038 91.1632 128.853C86.5665 126.692 82.0222 124.402 77.3151 122.477C76.7174 122.233 76.9293 121.343 77.5894 121.489C83.6637 122.847 90.0647 124.069 96.0587 126.046C95.9572 125.827 95.8502 125.611 95.7509 125.39C93.9276 124.592 92.2549 123.512 90.4216 122.707C87.8233 121.563 85.2049 120.467 82.5642 119.414C82.0746 119.219 82.2519 118.474 82.7883 118.608C85.264 119.235 87.7396 119.837 90.2398 120.377C91.4141 120.631 92.6129 120.78 93.8117 120.944C93.5953 120.41 93.3946 119.872 93.1872 119.336C92.5504 118.978 91.9226 118.603 91.2981 118.213C90.1038 117.469 88.876 117.117 87.5344 116.759C87.1642 116.66 87.3214 116.111 87.6917 116.192C89.1983 116.522 90.7171 116.639 92.2293 116.781C92.0185 116.189 91.81 115.593 91.6059 114.998C91.307 114.805 91.0048 114.61 90.6915 114.436C90.2331 114.181 90.5431 113.423 91.0505 113.587C91.0818 113.596 91.1108 113.603 91.1386 113.61C89.8573 109.655 88.799 105.622 87.966 101.542C79.193 95.1141 67.514 95.1375 57.1073 94.2173C46.8612 93.3148 36.6151 92.3902 26.3579 91.6179Z" fill="#FFC700"/>
<path d="M193.005 252.635C210.568 250.338 230.709 242.769 238.467 225.457C246.915 206.609 237.316 187.524 216.516 184.831C216.345 184.808 216.193 184.748 216.055 184.667C207.773 183.458 199.453 183.344 190.841 184.849C177.815 187.127 165.33 191.342 152.956 195.907C131.808 203.719 111.639 212.765 94.3647 227.241C109.516 228.317 123.033 234.644 136.758 241.15C154.58 249.597 173.036 255.251 193.005 252.635ZM203.438 233.914C205.967 235.653 208.582 237.243 211.152 238.914C212.371 239.706 211.066 241.428 209.93 240.496C207.569 238.553 205.27 236.543 202.855 234.666C202.424 234.333 202.989 233.606 203.438 233.914ZM188.147 232.19C193.923 234.997 200.131 238.023 204.925 242.352C206.038 243.358 204.615 245.061 203.365 244.369C197.737 241.265 192.726 236.763 187.679 232.799C187.311 232.511 187.778 232.011 188.147 232.19ZM164.261 227.916C173.809 234.47 184.031 238.754 194.92 242.571C197.011 243.304 196.158 246.579 193.995 245.916C182.799 242.486 172.665 236.044 163.77 228.548C163.422 228.251 163.884 227.656 164.261 227.916ZM161.609 246.152C149.469 246 137.682 235.991 129.383 228.075C128.892 227.605 129.602 226.953 130.107 227.352C135.128 231.296 140.661 234.726 146.428 237.496C151.491 239.927 157.317 241.651 161.986 244.766C162.577 245.16 162.384 246.16 161.609 246.152ZM180.991 248.474C165.945 245.301 152.767 236.559 141.961 225.851C141.596 225.489 142.094 224.797 142.526 225.122C154.592 234.17 167.844 240.005 181.801 245.545C183.598 246.259 182.946 248.886 180.991 248.474Z" fill="#FFC700"/>
<path d="M415.425 183.671C395.208 180.365 374.309 183.239 355.742 191.901C354.892 194.945 353.759 197.926 352.381 200.769C354.379 200.766 356.428 201.084 358.358 201.393C359.149 201.521 358.843 202.587 358.181 202.669C355.925 202.953 353.544 203.177 351.251 202.965C351.033 203.368 350.806 203.767 350.581 204.167C355.902 204.136 361.301 204.782 366.572 205.28C367.207 205.338 367.218 206.225 366.572 206.269C360.742 206.679 354.755 207.261 348.915 206.916C348.354 207.784 347.777 208.633 347.183 209.456C358.342 209.269 369.684 210.58 380.568 212.853C380.604 212.781 380.686 212.732 380.779 212.778C380.852 212.814 380.927 212.85 381.001 212.888C381.181 212.977 381.021 213.243 380.844 213.155C380.841 213.153 380.836 213.151 380.83 213.151C380.821 213.285 380.726 213.418 380.566 213.414C368.687 213.227 356.718 213.124 344.852 212.49C344.224 213.246 343.569 213.985 342.896 214.709C349.035 214.382 355.368 214.983 361.386 215.551C368.252 216.197 375.265 216.728 381.849 218.878C382.497 219.088 382.381 220.043 381.686 220.064C374.084 220.298 366.43 219.129 358.842 218.695C352.524 218.331 346.072 218.558 339.782 217.828C339.295 218.28 338.8 218.719 338.302 219.156C341.75 219.302 345.234 220.037 348.605 220.523C353.917 221.291 359.3 221.711 364.565 222.756C364.973 222.836 364.858 223.438 364.471 223.454C359.077 223.661 353.651 223.231 348.25 223.157C343.668 223.093 338.958 223.412 334.513 222.227C333.935 222.66 333.351 223.093 332.757 223.509C340.169 223.883 347.737 225.307 354.752 227.493C362.684 228.501 370.456 229.804 377.573 230.522C390.408 231.817 403.339 232.144 416.097 229.903C424.999 228.338 433.586 225.801 442.158 223.075C447.56 219.977 453.325 217.685 459.722 217.017C455.401 197.059 434.133 186.729 415.425 183.671Z" fill="#FFC700"/>
<path d="M381.954 254.983C399.239 251.344 413.654 244.348 427.464 233.44C428.528 232.601 429.6 231.763 430.676 230.937C415.213 235.536 398.382 236.527 382.689 235.133C370.026 234.008 357.468 231.794 344.78 230.931C335.364 230.284 326.472 231.072 317.296 231.855C315.524 232.568 313.737 233.22 311.946 233.794C315.998 236.256 319.741 239.216 323.881 241.545C324.345 241.804 323.938 242.441 323.475 242.238C318.013 239.849 312.227 238.317 307.104 235.199C305.811 235.541 304.514 235.866 303.197 236.15C320.306 244.823 336.62 252.703 356.681 251.085C357.058 251.052 357.103 251.617 356.766 251.722C336.158 258.124 313.87 248.998 296.736 237.661C296.589 237.562 296.461 237.457 296.345 237.347C294.37 237.614 292.381 237.806 290.39 237.922C314.406 261.212 350.671 261.578 381.954 254.983Z" fill="#FFC700"/>
<path d="M231.319 280.209C242.631 284.791 254.19 288.559 266.019 291.539C270.473 284.383 277.186 279.508 284.14 274.819C292.9 268.91 299.607 263.111 303.867 253.61C296.962 249.923 290.841 244.891 285.995 238.101C285.98 238.082 285.976 238.062 285.962 238.044C280.539 238.019 275.142 237.333 269.963 235.843C270.087 236.209 270.21 236.58 270.332 236.946C270.629 237.841 269.301 238.142 268.954 237.322C268.666 236.642 268.38 235.962 268.094 235.281C267.232 234.999 266.377 234.695 265.527 234.366C264.646 234.016 263.664 233.6 262.623 233.124C262.932 234.655 263.161 236.213 263.694 237.697C263.817 238.051 263.279 238.259 263.096 237.949C261.962 236.01 260.471 233.982 259.868 231.784C258.142 230.898 256.34 229.87 254.583 228.721C256.285 233.39 257.385 238.322 258.181 243.168C258.304 243.902 257.267 244.22 257.043 243.479C255.162 237.218 252.539 231.365 250.045 225.356C249.085 224.535 248.182 223.672 247.359 222.778C249.063 231.015 250.446 239.299 251.758 247.613C251.84 248.135 251.122 248.357 250.95 247.833C248.335 239.876 245.794 231.916 243.562 223.849C243.445 224.167 243.326 224.483 243.2 224.799C243.261 224.94 243.316 225.097 243.345 225.275C244.438 231.879 243.413 239.398 242.792 246.041C242.772 246.287 242.392 246.379 242.337 246.104C241.402 241.538 240.184 236.488 239.692 231.587C239.208 232.344 238.706 233.085 238.18 233.806C238.139 237.968 237.64 242.098 237.758 246.269C237.77 246.615 237.226 246.691 237.15 246.349C236.487 243.353 235.782 240.265 235.466 237.173C234.814 237.907 234.132 238.626 233.429 239.322C232.484 241.7 232.014 244.154 231.905 246.716C231.885 247.231 231.056 247.397 230.962 246.844C230.664 245.108 230.667 243.398 230.875 241.697C226.427 245.545 221.263 248.727 215.669 251.144C211.843 252.797 207.829 254.109 203.707 255.12C207.511 269.319 217.957 274.796 231.319 280.209Z" fill="#FFC700"/>
<path d="M88.9906 226.805C91.0358 224.793 93.1524 222.872 95.3549 221.057C95.8701 220.415 96.3942 219.771 96.741 219.051C97.7547 216.944 98.3123 214.705 98.8587 212.445C93.6152 210.658 88.5345 208.506 83.6401 206.013C82.0254 211.079 80.8388 216.388 83.0145 221.55C84.4185 224.886 86.4314 226.154 88.9906 226.805Z" fill="#FFC700"/>
<path d="M7.20801 229.68C8.78484 230.171 10.3148 230.747 11.8158 231.378C26.9151 234.253 42.2876 236.269 57.6556 237.13C60.4881 236.575 63.3284 236.041 66.1776 235.53C57.7805 234.896 49.4413 233.681 41.6419 232.37C41.2114 232.297 41.3375 231.655 41.7411 231.64C51.0695 231.295 60.4156 230.99 69.7528 230.912C73.8778 230.876 78.0563 230.635 82.2303 230.502C73.25 229.3 64.254 228.207 55.1877 228.028C54.851 228.02 54.7472 227.472 55.1063 227.418C63.9451 226.105 72.6244 225.557 81.317 226.474C80.8297 225.875 80.3691 225.228 79.9565 224.481C79.9565 224.478 79.9565 224.475 79.9543 224.473C76.8642 224.214 73.8009 223.743 70.7007 223.596C67.8571 223.462 64.9777 223.542 62.1943 222.913C61.8352 222.833 61.8687 222.326 62.1943 222.226C67.0932 220.748 73.2377 220.752 78.5604 220.926C78.3128 219.99 78.1388 219.023 78.0396 218.043C76.7203 217.789 75.3911 217.585 74.0707 217.361C73.4741 217.26 73.6949 216.448 74.2034 216.389C75.4446 216.244 76.6891 216.123 77.9269 215.96C77.9426 211.957 79.1547 207.91 81.5044 204.882C79.8316 203.988 78.1767 203.062 76.5508 202.089C50.1283 197.44 22.8091 207.837 7.20801 229.68Z" fill="#FFC700"/>
<path d="M72.5424 265.5C86.8053 269.172 101.864 270.087 116.349 267.026C129.632 264.221 140.555 258.505 152.184 252.129C150.532 251.517 148.888 250.859 147.249 250.167C133.958 260.492 116.344 263.437 99.8738 262.666C99.2482 262.638 99.2571 261.753 99.8738 261.708C115.468 260.589 128.7 254.751 142.421 248.042C141.203 247.484 139.986 246.917 138.772 246.339C138.643 246.487 138.5 246.632 138.318 246.759C130.596 252.159 120.185 254.394 110.954 255.335C110.665 255.362 110.636 254.929 110.889 254.847C119.304 252.15 126.625 247.999 134.469 244.275C129.811 242.021 125.148 239.745 120.42 237.722C102.772 242.944 81.7402 242.281 63.5698 241.335C48.4962 240.556 33.7393 238.464 19.1396 235.063C24.7902 238.352 30.0537 242.364 35.3496 246.359C46.6328 254.873 58.72 261.943 72.5424 265.5Z" fill="#FFC700"/>
<path d="M29.6963 136.489C34.1915 137.516 38.7079 138.412 43.2444 139.217C45.6966 139.212 47.9871 138.743 50.4338 138.129C48.606 136.884 46.8452 135.516 45.1569 134.049C41.401 134.634 37.5682 134.765 33.8224 135.518C32.4563 135.795 31.0791 136.153 29.6963 136.489Z" fill="#FFC700"/>
<path d="M58.6521 130.981C68.6818 135.872 78.4841 140.772 89.3535 143.58C97.3526 145.646 105.778 147.719 113.205 151.542C111.695 149.929 110.238 148.273 108.852 146.561C92.5842 137.52 74.5242 133.233 57.6596 125.439C45.3962 119.769 34.0996 111.845 28.0767 100.042C30.5891 108.287 34.5736 116.057 40.2007 122.704C47.7235 131.589 56.5946 137.328 66.5028 142.896C70.7538 143.543 74.9992 144.203 79.2312 144.921C71.5701 141.532 64.7174 136.864 58.07 131.734C57.6105 131.383 58.1904 130.757 58.6521 130.981Z" fill="#FFC700"/>
<path d="M161.985 244.769C157.316 241.653 151.49 239.929 146.428 237.498C140.66 234.729 135.128 231.298 130.106 227.355C129.6 226.956 128.892 227.608 129.382 228.078C137.682 235.994 149.47 246.003 161.608 246.154C162.383 246.162 162.576 245.163 161.985 244.769Z" fill="black"/>
<path d="M181.802 245.546C167.845 240.006 154.593 234.169 142.527 225.123C142.095 224.798 141.597 225.49 141.962 225.852C152.767 236.559 165.944 245.301 180.992 248.475C182.947 248.885 183.599 246.258 181.802 245.546Z" fill="black"/>
<path d="M193.995 245.918C196.157 246.581 197.011 243.307 194.92 242.573C184.031 238.757 173.809 234.473 164.261 227.919C163.884 227.659 163.422 228.254 163.77 228.55C172.663 236.046 182.799 242.489 193.995 245.918Z" fill="black"/>
<path d="M203.361 244.369C204.612 245.06 206.034 243.358 204.922 242.352C200.126 238.023 193.919 234.998 188.144 232.19C187.775 232.012 187.308 232.511 187.676 232.799C192.723 236.763 197.732 241.265 203.361 244.369Z" fill="black"/>
<path d="M209.926 240.498C211.062 241.43 212.367 239.708 211.148 238.915C208.578 237.245 205.963 235.655 203.435 233.916C202.985 233.607 202.42 234.335 202.851 234.668C205.266 236.546 207.565 238.555 209.926 240.498Z" fill="black"/>
<path d="M318.475 220.135C317.504 220.997 318.739 222.285 319.774 221.813C330.365 216.981 337.375 206.38 340.327 195.483C340.501 194.837 339.521 194.389 339.221 195.019C334.262 205.261 326.851 212.689 318.475 220.135Z" fill="black"/>
<path d="M305.492 225.715C305.005 226.2 305.623 226.944 306.208 226.639C316.723 221.136 323.493 212.44 328.509 201.792C328.73 201.318 328.116 200.962 327.813 201.384C321.396 210.264 313.248 218.039 305.492 225.715Z" fill="black"/>
<path d="M295.405 229.511C303.613 225.269 310.045 217.949 314.148 209.752C314.308 209.433 313.903 209.078 313.636 209.357C307.425 215.876 300.744 221.815 294.295 228.077C293.522 228.824 294.499 229.978 295.405 229.511Z" fill="black"/>
<path d="M287.389 228.574C293.708 226.293 297.829 219.728 300.435 213.898C300.68 213.345 299.91 212.861 299.602 213.411C298.065 216.164 296.083 218.539 293.775 220.681C291.438 222.852 288.589 224.4 286.134 226.427C285.15 227.237 286.2 229.002 287.389 228.574Z" fill="black"/>
<path d="M282.336 226.236C284.62 224.275 286.764 222.158 289.058 220.222C289.514 219.839 288.9 219.04 288.42 219.395C286.013 221.185 283.463 222.785 281.038 224.558C279.784 225.472 281.159 227.243 282.336 226.236Z" fill="black"/>
</svg>
