<svg width="20" height="15" viewBox="0 0 20 15" fill="none" xmlns="http://www.w3.org/2000/svg">
<path d="M19 1.75H1C0.447734 1.75 0 2.08577 0 2.5V12.5C0 12.9142 0.447695 13.25 1 13.25H19C19.5523 13.25 20 12.9142 20 12.5V2.5C20 2.0858 19.5523 1.75 19 1.75ZM19.3333 12.5C19.3333 12.6381 19.1841 12.75 19 12.75H1C0.815898 12.75 0.66668 12.6381 0.66668 12.5V2.5C0.66668 2.36192 0.815898 2.25001 1 2.25001H19C19.1841 2.25001 19.3333 2.36192 19.3333 2.5V12.5Z" fill="black"/>
<path d="M18.3623 2.75097C18.2742 2.74519 18.1867 2.76591 18.119 2.80856L10.4289 7.65353C10.1809 7.80989 9.81892 7.80989 9.57091 7.65353L1.88095 2.80853C1.78974 2.75111 1.66458 2.73453 1.55267 2.76506C1.44076 2.79558 1.35904 2.86859 1.33833 2.95657C1.31763 3.04455 1.36107 3.13411 1.45228 3.19153L9.14228 8.03627C9.63791 8.34925 10.362 8.34925 10.8576 8.03627L18.5476 3.19156C18.6153 3.14893 18.6577 3.08788 18.6654 3.02181C18.6731 2.95575 18.6454 2.8901 18.5886 2.83932C18.5318 2.78849 18.4504 2.75674 18.3623 2.75097Z" fill="black"/>
<path d="M6.41109 8.00186C6.29308 7.98211 6.17011 8.01182 6.08965 8.07949L1.42297 11.8295C1.33851 11.8944 1.3075 11.9885 1.34195 12.0754C1.3764 12.1623 1.4709 12.2284 1.58886 12.2481C1.70687 12.2679 1.82984 12.2382 1.91031 12.1705L6.57699 8.42048C6.66144 8.35562 6.69246 8.26152 6.65801 8.17462C6.62355 8.08773 6.5291 8.0216 6.41109 8.00186Z" fill="black"/>
<path d="M13.9103 8.07949C13.8299 8.01182 13.7069 7.98211 13.5889 8.00186C13.4709 8.0216 13.3764 8.08773 13.342 8.17462C13.3075 8.26155 13.3385 8.35562 13.423 8.42048L18.0896 12.1705C18.2162 12.2677 18.4231 12.2713 18.5555 12.1786C18.688 12.0859 18.6975 11.9309 18.577 11.8295L13.9103 8.07949Z" fill="black"/>
</svg>
