<?xml version="1.0" encoding="utf-8"?>
<!-- Generator: Adobe Illustrator 16.0.0, SVG Export Plug-In . SVG Version: 6.00 Build 0)  -->
<!DOCTYPE svg PUBLIC "-//W3C//DTD SVG 1.1//EN" "http://www.w3.org/Graphics/SVG/1.1/DTD/svg11.dtd">
<svg version="1.1" id="Calque_1" xmlns="http://www.w3.org/2000/svg" xmlns:xlink="http://www.w3.org/1999/xlink" x="0px" y="0px"
	 width="419.53px" height="270.203px" viewBox="0 0 419.53 270.203" enable-background="new 0 0 419.53 270.203"
	 xml:space="preserve">
<g>
	<g>
		<path d="M418.893,198.161c-3.215-13.849-11.902-24.4-25.195-30.66c7.356-7.92,8.777-18.588,10.156-28.933
			c1.358-10.171,2.639-19.78,9.072-27.045c0.76-0.858,1.056-1.956,0.809-3.012c-0.253-1.086-1.063-2.005-2.164-2.456
			c-4.57-1.875-9.551-2.823-14.802-2.823c-7.562,0-15.079,2.01-21.473,5.644c3.684-6.752,7.87-13.215,12.889-19.937
			c1.582-2.122,1.984-3.999,1.191-5.578c-1.04-2.073-3.82-3.038-8.76-3.038c-3.848,0-7.933,0.591-9.467,0.813l-0.365,0.052
			c-15.932,2.205-32.248,6.706-47.524,13.083c6.402-11.087,10.692-23.614,13.066-38.105c1.337-8.133,1.786-16.942,1.342-26.178
			c-0.212-4.487-0.815-8.925-1.318-12.291c-0.1-0.667-0.192-1.381-0.285-2.123c-0.407-3.22-0.869-6.869-2.341-9.634
			c-1.239-2.323-3.188-3.55-5.635-3.55c-3.159,0-6.571,2.065-9.31,3.724c-0.797,0.484-1.55,0.939-2.176,1.267
			c-10.363,5.448-18.596,10.257-25.905,15.133c-11.603,7.741-20.918,16.222-27.688,25.207c-3.044,3.346-5.727,6.984-7.821,10.597
			c-0.703-0.16-1.392-0.254-2.08-0.286c-2.573-0.116-4.759,0.412-6.628,1.138c-1.012-6.261-3.497-12.619-7.557-19.36
			c-2.357-3.911-5.202-7.479-8.157-11.094c-0.333-0.406-0.768-1.018-1.274-1.728c-3.009-4.215-5.732-7.702-8.631-7.702
			c-15.292,0-30.952,11.905-39.323,24.268c-0.071-0.072-0.141-0.143-0.208-0.214c-7.798-7.956-17.581-12.912-27.041-17.706
			c-9.053-4.588-18.413-9.33-25.682-16.643c-0.664-0.668-1.61-1.051-2.599-1.051c-1.028,0-1.97,0.43-2.58,1.182
			c-10.53,12.942-15.342,28.956-13.643,44.805c-0.154-0.186-0.311-0.371-0.467-0.555c-2.576-3.068-5.497-6.213-9.47-10.198
			c-0.442-0.442-0.94-0.994-1.479-1.59c-2.076-2.295-4.658-5.151-7.396-5.91c-0.855-0.237-1.681-0.357-2.457-0.357
			c-6.031,0-7.632,6.512-8.803,11.266c-0.126,0.518-0.252,1.021-0.377,1.5c-3.175,12.117-3.991,25.185-2.395,38.012
			c-5.517-2.564-11.456-3.272-17.541-3.793c-3.863-0.331-7.729-0.648-11.593-0.965c-8.313-0.682-16.908-1.388-25.344-2.222
			l-0.29-0.015c-0.958,0-1.906,0.45-2.603,1.235c-0.664,0.745-0.982,1.688-0.876,2.586c1.46,12.392,7.216,25.248,15.597,35.063
			c-2.723,0.388-5.675,1.068-8.932,2.049l-0.138,0.042c-1.044,0.315-3.146,0.946-4.632,1.977c-0.86,0.296-1.586,0.906-1.991,1.685
			c-0.423,0.812-0.46,1.725-0.107,2.57c8.735,20.868,22.827,39.185,40.102,52.285c-9.259-0.831-18.004,0.503-26.988,4.047
			c-11.864,4.685-22.506,13.681-29.968,25.34c-0.595,0.931-0.691,2.127-0.259,3.199c0.434,1.074,1.339,1.87,2.423,2.13
			c9.598,2.283,17.583,8.381,25.304,14.28c1.795,1.37,3.586,2.74,5.398,4.063c10.559,7.721,22.79,13.09,36.355,15.952
			c5.856,1.234,12.068,1.86,18.464,1.86c20.546,0,39.657-6.253,52.59-17.177c11.946,3.563,25.529,4.314,37.796,2.082
			c1.557,9.701,10.167,16.513,17.371,20.605c12.732,7.236,27.958,11.544,42.52,15.117c0.295,0.072,0.603,0.109,0.906,0.109
			c1.345,0,2.569-0.703,3.196-1.837c2.993-5.38,9.004-9.525,15.371-13.912c8.085-5.571,16.421-11.317,18.805-20.162
			c9.428,3.895,21.005,5.868,34.451,5.868h0.006c6.8,0,14.016-0.48,22.047-1.474c15.083-1.859,28.434-6.017,39.679-12.354
			c4.903-2.764,9.406-6.322,13.76-9.764c8.62-6.814,16.761-13.248,27.746-13.986c1.104-0.076,2.099-0.609,2.731-1.461
			C418.916,200.29,419.135,199.211,418.893,198.161z M82.837,104.493c-0.025-0.007-0.051-0.014-0.079-0.021
			c-0.456-0.147-0.733,0.533-0.322,0.763c0.281,0.157,0.552,0.332,0.82,0.505c0.183,0.535,0.37,1.07,0.559,1.603
			c-1.355-0.128-2.718-0.233-4.069-0.53c-0.332-0.072-0.472,0.421-0.141,0.51c1.204,0.322,2.305,0.638,3.375,1.307
			c0.561,0.35,1.123,0.687,1.694,1.009c0.187,0.481,0.366,0.965,0.56,1.445c-1.075-0.147-2.15-0.281-3.203-0.51
			c-2.242-0.486-4.462-1.026-6.682-1.589c-0.481-0.121-0.64,0.549-0.201,0.724c2.368,0.947,4.716,1.931,7.046,2.959
			c1.644,0.724,3.144,1.693,4.779,2.412c0.089,0.198,0.185,0.392,0.276,0.589c-5.375-1.776-11.114-2.875-16.562-4.095
			c-0.591-0.13-0.781,0.668-0.246,0.888c4.221,1.729,8.296,3.788,12.418,5.73c-6.057-1.631-12.072-3.351-18.094-5.26
			c-0.318-0.101-0.423,0.362-0.133,0.483c6.667,2.758,13.187,5.693,19.681,8.756c-1.519-0.446-3.047-0.862-4.589-1.222
			c-21.341-8.624-45.986-12.783-54.978-36.22c9.198,0.694,18.387,1.525,27.573,2.336c9.332,0.828,19.805,0.807,27.672,6.583
			C80.739,97.314,81.688,100.939,82.837,104.493z M122.412,50.847c2.615,13.967,13.594,27.38,9.814,41.917
			c-1.729-4.685-3.987-9.281-6.566-13.74c-2.321-7.526-4.207-15.081-5.036-22.951c-0.052-0.489-0.765-0.512-0.778,0
			c-0.156,5.3,0.203,10.53,1.233,15.644c-1.617-2.406-3.3-4.763-5.022-7.055c0-0.086,0.015-0.166-0.007-0.261
			c-3.312-15.366-0.979-31.482,6.831-44.944C120.479,29.765,120.434,40.289,122.412,50.847z M389.905,150.631
			c-2.424,5.31-5.794,9.598-9.069,14.311c-0.355-0.084-0.716-0.161-1.073-0.24c1.801-2.396,3.094-5.152,3.974-8.022
			c0.146-0.47-0.554-0.761-0.788-0.334c-1.639,3.002-3.81,5.431-6.282,7.739c-12.267-2.178-25.639-1.505-37.786,1.16
			c0.627-0.436,1.242-0.887,1.843-1.355c12.649-2.3,23.68-13.779,32.261-22.475c5.379-5.452,10.549-11.086,16.189-16.276
			c5.236-4.816,10.966-8.696,16.887-12.505c-10.166,16.595-4.632,39.274-18.587,54.249c-0.912-0.32-1.843-0.621-2.776-0.905
			c2.931-4.465,4.786-9.912,6.124-14.958C390.963,150.484,390.146,150.103,389.905,150.631z M375.779,133.418
			c-1.606,1.649-3.213,3.297-4.823,4.937c-3.605,2.055-7.18,4.142-10.814,6.135c0.354-0.364,0.698-0.736,1.055-1.094
			c3.478-3.478,7.211-6.59,11.268-9.371c0.438-0.299,0.065-0.901-0.407-0.696c-4.401,1.893-9.394,4.245-13.707,7.302
			c0.547-1.063,1.086-2.13,1.606-3.198c2.079-1.367,4.08-2.897,5.987-4.488c0.403-0.339-0.027-1.113-0.527-0.907
			c-1.229,0.505-2.453,1.042-3.659,1.615c0.357-0.776,0.71-1.545,1.057-2.314c0.113-0.042,0.229-0.089,0.346-0.187
			c0.736-0.612,1.579-1.121,2.434-1.562c0.384-0.195,0.217-0.869-0.223-0.829c-0.527,0.049-1.03,0.146-1.524,0.273
			c1.388-3.117,2.697-6.155,3.968-9.016c11.379-9.717,25.093-13.441,39.658-9.936C394.724,113.488,384.677,124.288,375.779,133.418z
			 M379.433,92.313c-6.359,8.363-10.979,17.655-15.344,27.167c-4.188,9.132-8.224,18.279-13.572,26.809
			c-5.427,8.655-12.318,14.921-20.183,21.219c-2.823,0.883-5.534,1.874-8.102,2.963c-0.109-4.781,5.385-6.627,8.649-9.123
			c3.094-2.364,5.725-5.186,8.225-8.155c4.46-5.296,7.56-11.783,9.809-18.277c0.175-0.507-0.624-0.844-0.866-0.364
			c-4.423,8.816-10.699,16.063-18.378,22.212c-2.515,2.015-5.854,4.001-8.15,6.496c-0.043-0.879-0.132-1.754-0.251-2.626
			c6.054-3.865,11.121-9.49,15.178-15.354c0.326-0.467-0.411-1.033-0.785-0.607c-4.305,4.894-9.206,8.532-14.596,11.948
			c-0.03-0.226-0.06-0.453-0.089-0.68c-0.072-0.544-0.334-1.061-0.397-1.598c-0.01-0.104-0.096-0.174-0.185-0.197
			c-0.025-0.421-0.173-0.834-0.483-1.107c-5.449-4.783-11.956-6.325-18.742-5.878c12.851-6.709,23.497-16.599,34.207-26.647
			c7.622-7.146,15.229-14.26,23.711-20.39c7.309-5.282,15.375-8.927,23.562-12.534C381.529,89.629,379.526,92.186,379.433,92.313z
			 M216.887,176.65c0.316-0.123,0.613-0.355,0.84-0.746c0.124-0.213,0.238-0.434,0.361-0.645
			c7.436-6.21,15.476-10.027,25.354-11.247c9.703-1.197,19.605,0.251,29.253,1.271c15.627,1.649,32.201,1.736,45.063-8.067
			c0.596,11.285-1.142,21.191-7.852,30.961c-4.354,6.336-10.475,11.303-17.206,15.128c-0.256,0.079-0.471,0.205-0.644,0.365
			c-3.42,1.894-6.98,3.504-10.545,4.847c-11.374,4.276-23.898,5.355-35.762,2.73c-6.306-1.395-12.309-4.263-17.267-8.394
			c-3.253-2.714-4.783-6.13-6.84-9.4c0.024-0.419,0.077-0.825,0.091-1.246C221.904,186.904,220.059,181.31,216.887,176.65z
			 M299.554,157.56c-7.439,1.075-14.696,1.583-22.054,1.83c13.094-5.898,26.677-14.379,38.52-5.174
			c-7.537,5.702-16.369,7.623-25.721,7.913c3.361-0.833,6.632-1.984,9.735-3.425C300.74,158.38,300.19,157.469,299.554,157.56z
			 M373.527,88.076c-13.211,4.889-24.857,15.497-34.824,24.599c-11.906,10.876-23.381,22.569-37.01,31.232
			c-0.037-0.002-0.073-0.007-0.114,0.002c-7.235,1.375-14.33,4.09-21.385,6.198c-1.082,0.322-2.169,0.641-3.254,0.958
			c6.623-3.229,13.1-6.726,19.379-10.245c0.406-0.229,0.128-0.926-0.322-0.764c-7.156,2.575-14.417,5.088-21.638,7.714
			c8.267-4.73,16.748-9.138,24.898-14.057c0.496-0.301,0.169-1.189-0.406-0.965c-8.49,3.295-16.634,7.432-24.941,11.148
			c-0.85,0.382-1.71,0.766-2.568,1.15c0.299-0.233,0.598-0.475,0.899-0.698c4.995-3.738,10.173-7.019,15.339-10.488
			c0.218-0.146,0.087-0.513-0.181-0.432c-8.888,2.646-19.952,7.13-27.734,13.638c0.467-0.77,0.922-1.545,1.362-2.33
			c12.629-12.355,25.794-23.836,40.975-33.146c17.555-10.767,36.925-18.388,57.001-22.879c4.899-1.096,9.863-1.9,14.829-2.624
			c1.881-0.275,3.769-0.485,5.661-0.68C377.362,85.94,375.353,86.845,373.527,88.076z M315.701,99.598
			c-1.54,0.732-3.075,1.483-4.595,2.258c4.823-7.14,7.268-14.923,9.051-24.221c0.082-0.434-0.554-0.622-0.67-0.184
			c-2.577,9.772-8.624,19.67-14.835,27.858c-2.15,1.203-4.272,2.444-6.363,3.734c8.302-9.025,13.351-20.029,16.538-32.567
			c2.57-10.108,3.55-20.62,4.523-30.977c0.496-5.258,0.929-10.518,1.478-15.769c0.718-6.903,0.336-17.98,8.012-21.156
			c0.023-0.01,0.04-0.028,0.064-0.04c0.936,1.292,1.189,3.873,1.342,4.558C336.916,42.77,329.677,73.175,315.701,99.598z
			 M321.123,11.045c0.583-0.313,1.17-0.624,1.757-0.937c-3.396,3.629-4.164,9.63-4.929,14.671
			c-1.715,11.335-2.255,22.835-3.647,34.211c-2.374,19.436-8.544,41.467-23.801,54.921c6.011-8.253,10.69-18.02,13.685-27.05
			c0.146-0.438-0.478-0.653-0.711-0.301c-3.82,5.711-7.4,11.536-11.5,17.055c-2.429,3.263-5.087,6.35-7.712,9.46
			c0.706-1.372,1.402-2.739,2.095-4.081c4.311-8.387,7.978-17.45,11.025-26.37c0.129-0.382-0.44-0.601-0.636-0.268
			c-4.427,7.485-8.785,14.984-13.275,22.432c-2.373,3.938-4.997,7.895-7.483,11.923c1.117-2.785,2.233-5.571,3.406-8.324
			c3.814-8.946,7.804-17.754,11.891-26.573c0.247-0.535-0.456-0.957-0.793-0.463c-5.802,8.511-11.718,17.764-16.634,27.419
			c4.232-11.56,8.612-23.011,13.63-34.299c0.123-0.275-0.239-0.499-0.41-0.239c-5.893,9.061-10.994,17.756-14.536,27.328
			c0.057-1.673,0.08-3.35,0.041-5.023c3.847-7.003,6.106-14.865,10.154-21.831c0.25-0.429-0.359-0.928-0.699-0.54
			c-3.746,4.273-7.623,9.217-10.029,14.63c-0.176-1.406-0.381-2.807-0.644-4.191c1.83-3.395,3.15-7.051,4.963-10.47
			c0.12-0.228-0.188-0.497-0.373-0.287c-1.933,2.232-3.879,4.536-5.406,7.069c-0.109-0.429-0.228-0.853-0.347-1.278
			c0.513-0.73,0.685-1.628,0.98-2.488c0.419-1.22,0.84-2.439,1.255-3.659c0.111-0.325-0.332-0.447-0.509-0.215
			c-0.714,0.939-1.426,1.88-2.138,2.822c-0.152,0.2-0.32,0.399-0.491,0.599c-0.431-1.278-0.891-2.543-1.416-3.778
			c-1.601-3.759-4.64-8.153-8.476-10.784c1.49-2.325,2.911-4.685,4.442-6.983c7.349-9.811,16.225-18.24,26.228-25.5
			c6.32-4.586,13.061-8.57,19.83-12.448C313.611,15.089,317.367,13.065,321.123,11.045z M267.391,83.508
			c5.77,25.731-2.823,56.23-21.08,75.031c-0.376,0.389-0.517,0.824-0.49,1.238c-1.643,0.077-3.263,0.211-4.855,0.411
			c2.908-5.053,4.938-10.643,6.452-16.232c0.164-0.607-0.687-0.798-0.914-0.252c-2.509,6.108-5.858,11.586-9.393,17.118
			c-1.554,0.32-3.08,0.724-4.569,1.216c5.844-10.805,9.347-22.751,11.259-34.87c0.106-0.693-0.908-1.009-1.076-0.297
			c-3.13,13.316-8.637,25.436-15.297,37.3c-1.832,0.948-3.594,2.08-5.279,3.419c9.061-18.782,13.523-40.38,14.134-60.917
			c0.014-0.46-0.644-0.43-0.697,0c-3.05,23.998-10.61,45.509-20.714,67.35c-0.997-1.155-2.077-2.225-3.236-3.178
			c6.53-15.361,9.895-31.932,10.833-48.562c0.038-0.645-0.892-0.603-0.972,0c-1.104,8.301-2.813,16.382-4.99,24.336
			c1.832-15.072-1.248-30.547-9.257-43.988c-0.839-1.409-1.75-2.768-2.699-4.101c0.126-0.172,0.229-0.378,0.249-0.655
			c1.194-16.733,12.658-28.458,29.439-29.453c3.059-0.181,5.838-0.532,8.759-1.477c4.186-1.355,6.328-4.17,11.272-3.062
			C262.293,65.682,265.854,76.653,267.391,83.508z M194.764,163.026c-1.603-5.799-3.375-11.535-5.209-17.266
			c-0.157-0.486-0.831-0.28-0.753,0.208c0.957,5.892,1.973,11.762,3.159,17.613c-0.926-0.091-1.854-0.159-2.783-0.206
			c-2.123-7.754-4.829-15.37-7.386-22.988c-0.177-0.53-0.939-0.314-0.831,0.23c1.495,7.562,2.883,15.187,4.761,22.667
			c-0.791,0.002-1.584,0.021-2.378,0.049c-5.675-12.33-12.016-23.937-16.018-37.027c-0.147-0.486-0.843-0.284-0.75,0.208
			c2.399,12.611,6.119,26.126,13.246,37.045c-1.617,0.135-3.237,0.316-4.856,0.546c-7.765-17.163-14.028-35.244-19.164-53.338
			c-0.167-0.583-0.97-0.325-0.886,0.244c2.75,18.968,8.509,36.498,16.852,53.594c-2.003,0.351-4.003,0.764-5.993,1.22
			c-3.779-8.777-8.066-17.141-10.979-26.294c-0.157-0.491-0.821-0.278-0.751,0.207c1.332,9.201,3.823,18.833,8.861,26.778
			c-1.091,0.276-2.173,0.566-3.253,0.865c-0.018-0.055-0.033-0.107-0.058-0.164c-2.422-5.146-5.749-9.83-8.239-14.951
			c-0.135-0.282-0.621-0.08-0.51,0.215c2.029,5.202,3.553,10.699,6.159,15.658c-1.989,0.586-3.957,1.201-5.896,1.836
			c-3.391-3.454-7.004-6.684-10.806-9.675c-6.796-13.933-10.317-29.113-9.161-44.644c1.217-16.301,9.021-31.404,16.407-45.712
			c10.437,3.888,21.482,5.854,31.436,11.033c9.23,4.805,17.025,12.151,23.03,20.583c13.656,19.171,14.653,44.817,4.72,65.788
			c-3.87-1.698-7.888-2.812-12.011-3.433C194.832,163.661,194.857,163.362,194.764,163.026z M227.661,65.309
			c-2.174,0.328-4.257,0.916-6.235,1.712c0.222-2.386,0.346-4.792,0.527-7.176c0.033-0.413-0.609-0.485-0.709-0.098
			c-0.72,2.77-1.53,5.543-2.15,8.335c-0.949,0.483-1.866,1.02-2.753,1.601c0.177-3.27,0.037-6.598,0.074-9.842
			c0.003-0.186-0.29-0.231-0.327-0.045c-0.806,3.893-1.874,7.829-2.337,11.788c-1.066,0.874-2.067,1.819-3.005,2.826
			c0.556-6.577,0.332-13.265,0.206-19.823c-0.006-0.459-0.644-0.434-0.693,0c-0.947,8.125-2.587,16.257-3.076,24.429
			c-0.805,1.272-1.521,2.604-2.14,3.98c0.577-10.629,0.126-21.381,0.857-31.979c0.02-0.296-0.464-0.363-0.518-0.07
			c-1.786,9.412-3.931,19.184-4.719,28.918c-0.614-2.333-1.357-4.637-2.217-6.904c0.413-6.368,1.014-12.802,1.959-19.098
			c0.048-0.329-0.417-0.603-0.585-0.247c-2.15,4.557-3.374,9.067-3.73,13.797c-0.743-1.562-1.541-3.099-2.385-4.612
			c0.048-2.548,0.378-5.086,0.88-7.586c0.104-0.513-0.546-0.794-0.839-0.353c-0.964,1.452-1.613,2.991-2,4.613
			c-2.47-3.979-5.27-7.736-8.308-11.214c8.507-11.836,20.111-19.588,34.362-22.755c5.122-1.14,12.546,11.707,15.055,15.363
			c4.691,6.842,7.624,14.414,8.595,22.63C237.139,65.068,232.139,64.63,227.661,65.309z M199.484,92.281
			c-0.96-1.046-1.954-2.06-2.975-3.045c-2.716-13.475-9.465-26.062-17.672-37.078c-0.196-0.259-0.566-0.044-0.434,0.253
			c4.691,10.635,8.576,21.513,12.894,32.266c-0.895-0.711-1.808-1.396-2.737-2.067c-0.007-0.049-0.007-0.096-0.017-0.146
			c-0.588-2.943-2.308-5.628-3.547-8.339c-1.376-3.009-2.94-5.927-4.569-8.804c-0.138-0.242-0.561-0.077-0.46,0.195
			c1.02,2.708,1.945,5.441,2.814,8.2c0.606,1.911,0.946,3.938,1.402,5.915c-0.066-0.043-0.13-0.09-0.2-0.133
			c-6.827-4.263-14.414-6.606-22.042-8.868c-0.823-1.141-1.839-2.169-2.673-3.292c-0.159-0.209-0.565-0.094-0.46,0.194
			c0.286,0.779,0.504,1.587,0.74,2.389c-1.754-0.52-3.507-1.046-5.248-1.601c-0.379-1.059-1.262-1.956-1.905-2.858
			c-0.817-1.153-1.514-2.367-2.224-3.587c-0.304-0.524-1.03-0.065-0.793,0.462c0.629,1.396,1.23,2.78,1.73,4.228
			c0.089,0.257,0.166,0.52,0.246,0.781c-1.173-0.403-2.34-0.828-3.493-1.275c-0.898-1.393-1.823-2.756-2.663-4.191
			c-0.827-1.413-1.474-3.068-2.664-4.213c-0.08-0.076-0.213-0.021-0.213,0.088c-0.014,1.647,0.77,3.251,1.33,4.777
			c0.484,1.318,0.973,2.645,1.493,3.956c-0.042,0.058-0.083,0.113-0.117,0.174c-0.489,0.942-0.975,1.887-1.46,2.831
			c-0.55-1.305-1.307-2.541-2.003-3.76c-1.216-2.124-2.173-4.379-3.382-6.509c-0.137-0.242-0.558-0.078-0.458,0.194
			c0.86,2.296,1.725,4.578,2.297,6.964c0.543,2.258,0.589,4.521,1.553,6.664c0.028,0.067,0.063,0.121,0.098,0.178
			c-0.458,0.913-0.911,1.827-1.363,2.742c-1.925-5.109-4.877-10.098-7.158-14.946c-0.229-0.483-0.967-0.135-0.84,0.354
			c1.284,4.963,2.201,10.36,3.827,15.334c-0.836-1.371-1.592-2.767-2.286-4.206c-1.596-4.253-3.554-8.446-5.066-12.543
			c-5.384-14.579-5.6-30.694-2.461-45.779c13.787,12.67,32.966,17.124,47.252,29.25C188.504,56.099,196.135,73.53,199.484,92.281z
			 M130.945,98.75c-0.32,1.048-0.624,2.104-0.911,3.164c-1.51-3.405-3.557-6.537-6.156-9.295c-0.26-0.277-0.659,0.074-0.5,0.389
			c2.094,4.191,3.989,8.456,5.674,12.826c-0.273,1.212-0.514,2.435-0.736,3.666c-0.727-1.563-1.568-3.083-2.42-4.604
			c-2.155-3.839-4.045-7.817-6.085-11.72c-0.25-0.483-1.098-0.139-0.89,0.376c1.449,3.563,2.907,7.131,4.015,10.816
			c0.71,2.354,1.269,4.733,2.014,7.05c-2.664-5.721-5.958-11.2-9.277-16.025c-0.311-0.453-1.155-0.182-0.94,0.398
			c2.813,7.634,5.515,15.748,8.805,23.418c-3.646-7.618-7.978-14.974-12.254-21.866c-0.295-0.476-1.173-0.16-0.939,0.397
			c3.054,7.263,6.37,14.407,8.943,21.864c0.105,0.306,0.21,0.61,0.315,0.914c-3.928-7.258-7.929-14.484-11.733-21.815
			c-0.215-0.415-0.946-0.118-0.762,0.321c1.79,4.264,3.55,8.544,5.325,12.819c-0.103,0.012-0.208,0.04-0.308,0.065
			c-1.643-3.776-3.542-7.459-5.714-11.119C95.642,82.642,80.718,63.896,89.354,41.865c2.08,0.697,4.545,3.319,5.141,3.88
			c5.258,4.939,10.044,10.36,14.545,15.992C118.229,73.229,123.876,86.097,130.945,98.75z M100.089,97.405
			c6.42,10.011,11.128,19.953,13.853,31.558c1.15,4.898,2.262,10.357,4.436,15.148c-0.107-0.073-0.217-0.136-0.322-0.221
			c-7.207-8.87-14.265-17.307-19.668-27.496c-0.205-0.385-0.869-0.117-0.712,0.3c3.573,9.548,8.293,19.295,14.963,27.189
			c-0.776-0.339-1.547-0.68-2.33-1.005C89.582,120.641,79.134,92.456,82.497,61.77c0.166-1.513,0.402-3.017,0.666-4.517
			C83.44,71.422,92.831,86.081,100.089,97.405z M53.185,120.777c5.961,4.611,12.105,8.806,18.976,11.851
			c-3.795-0.646-7.602-1.238-11.414-1.819c-8.885-5.005-16.84-10.163-23.586-18.147c-5.045-5.974-8.619-12.956-10.872-20.366
			c5.401,10.607,15.531,17.729,26.528,22.824c15.123,7.006,31.317,10.857,45.906,18.982c1.244,1.538,2.55,3.026,3.903,4.477
			c-6.66-3.437-14.215-5.299-21.388-7.156c-9.747-2.523-18.537-6.928-27.531-11.322C53.294,119.898,52.774,120.461,53.185,120.777z
			 M46.338,126.523c-2.194,0.551-4.249,0.973-6.447,0.977c-4.068-0.724-8.119-1.528-12.149-2.451
			c1.24-0.302,2.475-0.624,3.701-0.872c3.358-0.677,6.795-0.794,10.164-1.32C43.12,124.175,44.699,125.404,46.338,126.523z
			 M89.667,139.899c11.42,2.686,22.268,6.868,32.471,12.654c9.326,5.289,17.59,12.104,26.283,18.317
			c-3.195,1.081-6.305,2.199-9.292,3.287c-7.8,2.845-15.72,5.863-23.416,9.362c-0.072-0.026-0.14-0.054-0.22-0.07
			c-8.576-1.793-16.66-2.82-24.771-6.416c-0.672-0.298-1.269,0.648-0.591,1.009c6.132,3.271,12.879,6.578,19.8,8.232
			c-1.037,0.515-2.065,1.038-3.089,1.575c-4.968-1.696-10.217-2.426-15.217-4.092c-6.128-2.04-11.696-5.645-17.032-9.193
			c-0.369-0.248-0.796,0.312-0.472,0.612c7.125,6.556,17.489,13.347,27.576,15.507c-1.12,0.649-2.227,1.313-3.325,1.993
			c-32.369-10.548-60.666-33.331-74.038-65.094C45.747,133.385,68.087,134.824,89.667,139.899z M76.117,187.53
			c4.389,2.24,8.946,4.174,13.647,5.78c-0.49,2.03-0.991,4.043-1.899,5.937c-0.311,0.646-0.781,1.226-1.243,1.803
			c-1.975,1.631-3.873,3.357-5.707,5.165c-2.295-0.585-4.1-1.724-5.359-4.722C73.605,196.854,74.668,192.083,76.117,187.53z
			 M69.758,184.007c1.458,0.874,2.942,1.706,4.442,2.51c-2.108,2.721-3.194,6.358-3.208,9.955c-1.11,0.146-2.227,0.256-3.339,0.386
			c-0.456,0.053-0.654,0.783-0.119,0.873c1.185,0.202,2.376,0.386,3.559,0.613c0.089,0.881,0.245,1.75,0.467,2.591
			c-4.772-0.156-10.283-0.16-14.676,1.169c-0.292,0.089-0.322,0.545,0,0.617c2.496,0.565,5.078,0.493,7.628,0.614
			c2.78,0.132,5.527,0.555,8.298,0.788c0.002,0.002,0.002,0.004,0.002,0.007c0.37,0.671,0.783,1.253,1.22,1.791
			c-7.795-0.824-15.578-0.331-23.504,0.849c-0.322,0.048-0.229,0.541,0.073,0.548c8.13,0.16,16.197,1.143,24.25,2.223
			c-3.744,0.12-7.49,0.336-11.189,0.369c-8.373,0.07-16.753,0.345-25.119,0.654c-0.363,0.014-0.475,0.59-0.089,0.656
			c6.994,1.178,14.472,2.27,22.002,2.84c-2.555,0.458-5.102,0.938-7.642,1.438c-13.781-0.774-27.566-2.586-41.106-5.17
			c-1.346-0.567-2.718-1.084-4.132-1.526C21.566,189.171,46.064,179.828,69.758,184.007z M58.116,219.274
			c16.295,0.85,35.155,1.446,50.979-3.247c4.239,1.817,8.422,3.862,12.599,5.889c-7.034,3.347-13.599,7.077-21.145,9.501
			c-0.227,0.073-0.201,0.463,0.058,0.438c8.278-0.845,17.613-2.854,24.538-7.707c0.164-0.114,0.292-0.244,0.407-0.377
			c1.089,0.52,2.18,1.029,3.272,1.53c-12.304,6.03-24.169,11.276-38.153,12.282c-0.553,0.04-0.561,0.836,0,0.861
			c14.77,0.692,30.564-1.954,42.483-11.233c1.47,0.622,2.944,1.213,4.425,1.763c-10.428,5.729-20.223,10.866-32.134,13.388
			c-12.989,2.751-26.493,1.929-39.283-1.371c-12.395-3.197-23.234-9.551-33.353-17.2c-4.749-3.59-9.469-7.196-14.536-10.152
			C31.366,216.694,44.599,218.574,58.116,219.274z M123.746,219.11c-12.307-5.847-24.428-11.533-38.015-12.5
			c15.49-13.009,33.577-21.14,52.541-28.159c11.096-4.104,22.292-7.892,33.972-9.938c7.724-1.354,15.185-1.25,22.611-0.164
			c0.123,0.073,0.26,0.127,0.413,0.148c18.652,2.42,27.26,19.57,19.684,36.51c-6.958,15.558-25.018,22.359-40.767,24.424
			C156.278,231.782,139.728,226.701,123.746,219.11z M194.509,228.093c5.016-2.173,9.646-5.032,13.635-8.49
			c-0.186,1.528-0.188,3.065,0.078,4.625c0.085,0.497,0.829,0.348,0.846-0.115c0.099-2.302,0.52-4.508,1.367-6.645
			c0.629-0.625,1.242-1.271,1.826-1.931c0.284,2.779,0.916,5.554,1.51,8.246c0.069,0.308,0.556,0.238,0.546-0.072
			c-0.106-3.748,0.341-7.46,0.378-11.2c0.473-0.648,0.923-1.314,1.356-1.994c0.441,4.404,1.533,8.943,2.372,13.046
			c0.049,0.247,0.391,0.165,0.408-0.056c0.557-5.97,1.477-12.729,0.496-18.663c-0.026-0.16-0.076-0.301-0.13-0.427
			c0.113-0.283,0.219-0.567,0.324-0.854c2.002,7.25,4.28,14.402,6.625,21.554c0.154,0.471,0.798,0.271,0.725-0.198
			c-1.178-7.472-2.417-14.916-3.945-22.319c0.738,0.805,1.548,1.579,2.409,2.317c2.236,5.4,4.589,10.66,6.275,16.287
			c0.2,0.666,1.131,0.38,1.021-0.279c-0.714-4.355-1.7-8.788-3.227-12.984c1.576,1.033,3.192,1.957,4.739,2.753
			c0.54,1.975,1.878,3.798,2.895,5.54c0.164,0.279,0.647,0.093,0.536-0.226c-0.478-1.334-0.683-2.734-0.96-4.11
			c0.934,0.428,1.814,0.802,2.604,1.116c0.762,0.296,1.528,0.569,2.302,0.823c0.257,0.612,0.514,1.223,0.771,1.834
			c0.312,0.737,1.502,0.466,1.236-0.338c-0.11-0.329-0.22-0.662-0.331-0.991c4.644,1.339,9.483,1.954,14.347,1.978
			c0.013,0.016,0.017,0.034,0.029,0.051c4.347,6.102,9.835,10.623,16.027,13.938c-3.82,8.537-9.835,13.75-17.69,19.06
			c-6.236,4.214-12.256,8.596-16.25,15.026c-10.606-2.678-20.973-6.063-31.116-10.182c-11.983-4.865-21.35-9.787-24.762-22.546
			C187.478,230.757,191.078,229.578,194.509,228.093z M261.515,216.207c1.786-0.104,3.569-0.276,5.34-0.517
			c0.104,0.1,0.219,0.193,0.351,0.282c15.365,10.188,35.351,18.39,53.831,12.637c0.302-0.096,0.262-0.603-0.076-0.573
			c-17.99,1.454-32.619-5.627-47.961-13.422c1.181-0.256,2.344-0.548,3.503-0.854c4.594,2.802,9.782,4.179,14.681,6.326
			c0.415,0.182,0.78-0.39,0.364-0.623c-3.713-2.093-7.069-4.753-10.703-6.966c1.605-0.517,3.209-1.103,4.798-1.742
			c8.228-0.704,16.201-1.412,24.646-0.831c11.377,0.776,22.639,2.766,33.994,3.776c14.072,1.254,29.165,0.363,43.031-3.77
			c-0.964,0.742-1.926,1.495-2.88,2.249c-12.384,9.804-25.31,16.091-40.81,19.36C315.57,237.467,283.05,237.138,261.515,216.207z
			 M397.609,202.864c-7.688,2.45-15.387,4.729-23.37,6.136c-11.439,2.014-23.036,1.72-34.545,0.557
			c-6.382-0.646-13.352-1.816-20.465-2.723c-6.29-1.964-13.077-3.244-19.723-3.58c0.532-0.374,1.057-0.764,1.574-1.152
			c3.986,1.065,8.21,0.778,12.319,0.836c4.843,0.065,9.709,0.452,14.546,0.267c0.347-0.015,0.45-0.556,0.084-0.628
			c-4.721-0.938-9.548-1.315-14.312-2.006c-3.023-0.438-6.147-1.099-9.239-1.229c0.447-0.394,0.892-0.787,1.327-1.193
			c5.641,0.656,11.426,0.452,17.092,0.779c6.805,0.391,13.668,1.44,20.485,1.23c0.622-0.02,0.727-0.877,0.146-1.066
			c-5.903-1.933-12.192-2.409-18.35-2.99c-5.396-0.51-11.075-1.05-16.58-0.756c0.603-0.651,1.19-1.315,1.754-1.995
			c10.641,0.57,21.373,0.663,32.026,0.831c0.144,0.003,0.229-0.116,0.236-0.237c0.006,0,0.01,0.002,0.013,0.004
			c0.158,0.079,0.302-0.16,0.141-0.24c-0.067-0.033-0.134-0.065-0.199-0.099c-0.084-0.041-0.157,0.003-0.19,0.068
			c-9.76-2.043-19.93-3.221-29.937-3.053c0.533-0.74,1.05-1.503,1.553-2.283c5.237,0.31,10.606-0.213,15.834-0.581
			c0.579-0.04,0.569-0.837,0-0.889c-4.727-0.448-9.567-1.028-14.34-1c0.201-0.36,0.404-0.718,0.601-1.081
			c2.056,0.191,4.19-0.01,6.214-0.266c0.594-0.073,0.868-1.031,0.159-1.146c-1.731-0.277-3.568-0.563-5.36-0.561
			c1.235-2.555,2.252-5.233,3.014-7.97c16.649-7.783,35.391-10.366,53.52-7.396c16.776,2.748,35.849,12.032,39.723,29.968
			C407.623,198.021,402.453,200.08,397.609,202.864z"/>
		<path fill="#FFFFFF" d="M217.799,25.509c-14.25,3.167-25.855,10.918-34.362,22.755c3.038,3.478,5.838,7.235,8.308,11.214
			c0.387-1.623,1.036-3.161,2-4.613c0.293-0.441,0.944-0.16,0.839,0.353c-0.502,2.5-0.833,5.038-0.88,7.586
			c0.844,1.513,1.642,3.05,2.385,4.612c0.356-4.73,1.58-9.24,3.73-13.797c0.169-0.356,0.633-0.082,0.585,0.247
			c-0.945,6.296-1.546,12.73-1.959,19.098c0.86,2.267,1.603,4.57,2.217,6.904c0.788-9.735,2.933-19.507,4.719-28.918
			c0.053-0.292,0.537-0.226,0.518,0.07c-0.73,10.597-0.28,21.35-0.857,31.979c0.62-1.376,1.335-2.708,2.14-3.98
			c0.489-8.172,2.129-16.305,3.076-24.429c0.049-0.434,0.687-0.459,0.693,0c0.126,6.558,0.351,13.246-0.206,19.823
			c0.938-1.007,1.939-1.952,3.005-2.826c0.463-3.959,1.531-7.895,2.337-11.788c0.037-0.187,0.33-0.141,0.327,0.045
			c-0.037,3.244,0.103,6.572-0.074,9.842c0.887-0.582,1.804-1.118,2.753-1.601c0.62-2.792,1.431-5.565,2.15-8.335
			c0.1-0.388,0.742-0.315,0.709,0.098c-0.182,2.384-0.306,4.79-0.527,7.176c1.979-0.796,4.062-1.384,6.235-1.712
			c4.478-0.679,9.478-0.241,13.787-1.807c-0.971-8.217-3.903-15.788-8.595-22.63C230.345,37.215,222.921,24.369,217.799,25.509z"/>
		<path fill="#FFFFFF" d="M242.995,66.946c-2.921,0.945-5.7,1.296-8.759,1.477c-16.781,0.995-28.246,12.72-29.439,29.453
			c-0.02,0.276-0.123,0.483-0.249,0.655c0.949,1.333,1.86,2.692,2.699,4.101c8.009,13.441,11.089,28.916,9.257,43.988
			c2.177-7.954,3.886-16.035,4.99-24.336c0.08-0.603,1.01-0.645,0.972,0c-0.938,16.63-4.303,33.2-10.833,48.562
			c1.159,0.953,2.239,2.022,3.236,3.178c10.104-21.841,17.664-43.353,20.714-67.35c0.054-0.43,0.711-0.46,0.697,0
			c-0.61,20.537-5.073,42.134-14.134,60.917c1.686-1.339,3.447-2.471,5.279-3.419c6.66-11.864,12.167-23.983,15.297-37.3
			c0.168-0.712,1.183-0.396,1.076,0.297c-1.912,12.119-5.415,24.065-11.259,34.87c1.489-0.492,3.016-0.896,4.569-1.216
			c3.534-5.532,6.884-11.01,9.393-17.118c0.228-0.546,1.078-0.355,0.914,0.252c-1.514,5.59-3.544,11.18-6.452,16.232
			c1.593-0.2,3.213-0.334,4.855-0.411c-0.026-0.414,0.114-0.85,0.49-1.238c18.257-18.801,26.85-49.3,21.08-75.031
			c-1.536-6.855-5.098-17.826-13.123-19.624C249.323,62.776,247.181,65.591,242.995,66.946z"/>
		<path fill="#FFFFFF" d="M173.578,43.428c-14.286-12.125-33.465-16.58-47.252-29.25c-3.139,15.085-2.923,31.2,2.461,45.779
			c1.512,4.097,3.47,8.29,5.066,12.543c0.694,1.439,1.45,2.835,2.286,4.206c-1.626-4.974-2.543-10.371-3.827-15.334
			c-0.126-0.489,0.611-0.838,0.84-0.354c2.281,4.848,5.233,9.837,7.158,14.946c0.452-0.915,0.905-1.829,1.363-2.742
			c-0.035-0.057-0.07-0.111-0.098-0.178c-0.963-2.144-1.01-4.406-1.553-6.664c-0.572-2.386-1.437-4.668-2.297-6.964
			c-0.1-0.271,0.321-0.436,0.458-0.194c1.209,2.13,2.166,4.385,3.382,6.509c0.697,1.219,1.454,2.455,2.003,3.76
			c0.485-0.944,0.971-1.889,1.46-2.831c0.033-0.062,0.074-0.117,0.117-0.174c-0.521-1.311-1.009-2.637-1.493-3.956
			c-0.561-1.525-1.344-3.13-1.33-4.777c0-0.11,0.134-0.165,0.213-0.088c1.189,1.145,1.836,2.8,2.664,4.213
			c0.839,1.435,1.764,2.798,2.663,4.191c1.153,0.447,2.32,0.873,3.493,1.275c-0.08-0.261-0.156-0.524-0.246-0.781
			c-0.5-1.447-1.101-2.831-1.73-4.228c-0.237-0.528,0.489-0.986,0.793-0.462c0.71,1.22,1.407,2.434,2.224,3.587
			c0.643,0.902,1.526,1.799,1.905,2.858c1.741,0.555,3.494,1.081,5.248,1.601c-0.236-0.801-0.454-1.61-0.74-2.389
			c-0.104-0.288,0.301-0.403,0.46-0.194c0.834,1.123,1.851,2.151,2.673,3.292c7.628,2.261,15.216,4.604,22.042,8.868
			c0.07,0.043,0.134,0.09,0.2,0.133c-0.456-1.977-0.796-4.003-1.402-5.915c-0.869-2.759-1.794-5.492-2.814-8.2
			c-0.1-0.271,0.323-0.437,0.46-0.195c1.629,2.876,3.193,5.795,4.569,8.804c1.239,2.711,2.959,5.396,3.547,8.339
			c0.01,0.05,0.01,0.097,0.017,0.146c0.929,0.671,1.842,1.356,2.737,2.067c-4.318-10.753-8.203-21.631-12.894-32.266
			c-0.132-0.298,0.237-0.513,0.434-0.253c8.207,11.016,14.956,23.604,17.672,37.078c1.021,0.985,2.015,1.999,2.975,3.045
			C196.135,73.53,188.504,56.099,173.578,43.428z"/>
		<path fill="#FFFFFF" d="M206.735,167.349c9.933-20.971,8.936-46.616-4.72-65.788c-6.005-8.432-13.8-15.778-23.03-20.583
			c-9.954-5.18-21-7.145-31.436-11.033c-7.387,14.308-15.19,29.411-16.407,45.712c-1.157,15.531,2.364,30.711,9.161,44.644
			c3.802,2.991,7.416,6.221,10.806,9.675c1.939-0.635,3.907-1.25,5.896-1.836c-2.606-4.959-4.129-10.456-6.159-15.658
			c-0.111-0.295,0.375-0.497,0.51-0.215c2.49,5.121,5.816,9.806,8.239,14.951c0.025,0.057,0.04,0.109,0.058,0.164
			c1.08-0.299,2.162-0.589,3.253-0.865c-5.038-7.945-7.529-17.577-8.861-26.778c-0.07-0.485,0.595-0.698,0.751-0.207
			c2.913,9.153,7.2,17.517,10.979,26.294c1.99-0.456,3.99-0.869,5.993-1.22c-8.343-17.097-14.102-34.626-16.852-53.594
			c-0.084-0.568,0.72-0.827,0.886-0.244c5.136,18.094,11.399,36.175,19.164,53.338c1.62-0.229,3.239-0.411,4.856-0.546
			c-7.127-10.919-10.847-24.434-13.246-37.045c-0.093-0.492,0.603-0.694,0.75-0.208c4.002,13.091,10.343,24.697,16.018,37.027
			c0.794-0.028,1.587-0.047,2.378-0.049c-1.878-7.48-3.267-15.105-4.761-22.667c-0.108-0.545,0.654-0.761,0.831-0.23
			c2.557,7.618,5.263,15.234,7.386,22.988c0.93,0.047,1.857,0.115,2.783,0.206c-1.186-5.852-2.202-11.722-3.159-17.613
			c-0.078-0.488,0.596-0.694,0.753-0.208c1.834,5.73,3.606,11.467,5.209,17.266c0.093,0.336,0.067,0.635-0.04,0.89
			C198.847,164.536,202.865,165.65,206.735,167.349z"/>
		<path fill="#FFFFFF" d="M94.494,45.745c-0.596-0.562-3.061-3.183-5.141-3.88c-8.635,22.031,6.289,40.777,17.057,58.925
			c2.171,3.66,4.071,7.342,5.714,11.119c0.101-0.025,0.206-0.053,0.308-0.065c-1.775-4.275-3.535-8.555-5.325-12.819
			c-0.185-0.439,0.546-0.736,0.762-0.321c3.805,7.331,7.805,14.557,11.733,21.815c-0.105-0.304-0.21-0.608-0.315-0.914
			c-2.573-7.458-5.889-14.601-8.943-21.864c-0.234-0.557,0.645-0.873,0.939-0.397c4.276,6.892,8.608,14.248,12.254,21.866
			c-3.29-7.67-5.992-15.784-8.805-23.418c-0.215-0.58,0.629-0.851,0.94-0.398c3.318,4.825,6.613,10.304,9.277,16.025
			c-0.746-2.316-1.304-4.695-2.014-7.05c-1.108-3.685-2.566-7.253-4.015-10.816c-0.208-0.515,0.64-0.859,0.89-0.376
			c2.04,3.903,3.931,7.88,6.085,11.72c0.853,1.521,1.694,3.041,2.42,4.604c0.222-1.231,0.463-2.454,0.736-3.666
			c-1.685-4.37-3.58-8.635-5.674-12.826c-0.159-0.315,0.24-0.666,0.5-0.389c2.6,2.759,4.646,5.89,6.156,9.295
			c0.287-1.06,0.591-2.115,0.911-3.164c-7.069-12.653-12.717-25.521-21.906-37.013C104.539,56.105,99.752,50.684,94.494,45.745z"/>
		<path fill="#FFFFFF" d="M290.08,29.655c-10.003,7.26-18.879,15.688-26.228,25.5c-1.531,2.299-2.952,4.658-4.442,6.983
			c3.836,2.63,6.875,7.025,8.476,10.784c0.525,1.235,0.985,2.5,1.416,3.778c0.171-0.2,0.339-0.398,0.491-0.599
			c0.712-0.942,1.424-1.883,2.138-2.822c0.177-0.232,0.62-0.11,0.509,0.215c-0.415,1.22-0.836,2.439-1.255,3.659
			c-0.296,0.86-0.468,1.757-0.98,2.488c0.119,0.425,0.237,0.85,0.347,1.278c1.527-2.533,3.474-4.837,5.406-7.069
			c0.185-0.21,0.493,0.059,0.373,0.287c-1.812,3.419-3.133,7.076-4.963,10.47c0.263,1.384,0.468,2.785,0.644,4.191
			c2.406-5.413,6.283-10.357,10.029-14.63c0.34-0.388,0.949,0.111,0.699,0.54c-4.048,6.966-6.308,14.828-10.154,21.831
			c0.039,1.673,0.016,3.35-0.041,5.023c3.542-9.572,8.644-18.268,14.536-27.328c0.171-0.26,0.533-0.036,0.41,0.239
			c-5.018,11.288-9.397,22.739-13.63,34.299c4.916-9.655,10.832-18.908,16.634-27.419c0.337-0.494,1.04-0.072,0.793,0.463
			c-4.087,8.819-8.076,17.627-11.891,26.573c-1.173,2.752-2.289,5.539-3.406,8.324c2.486-4.028,5.11-7.985,7.483-11.923
			c4.49-7.447,8.849-14.947,13.275-22.432c0.195-0.333,0.765-0.114,0.636,0.268c-3.048,8.92-6.715,17.983-11.025,26.37
			c-0.692,1.342-1.389,2.708-2.095,4.081c2.625-3.11,5.283-6.197,7.712-9.46c4.1-5.519,7.68-11.344,11.5-17.055
			c0.233-0.352,0.857-0.137,0.711,0.301c-2.994,9.031-7.674,18.797-13.685,27.05c15.257-13.455,21.427-35.485,23.801-54.921
			c1.393-11.376,1.933-22.876,3.647-34.211c0.765-5.042,1.532-11.042,4.929-14.671c-0.587,0.312-1.174,0.624-1.757,0.937
			c-3.756,2.02-7.512,4.044-11.213,6.162C303.141,21.085,296.4,25.069,290.08,29.655z"/>
		<path fill="#FFFFFF" d="M116.05,64.4c0.021,0.095,0.007,0.175,0.007,0.261c1.722,2.292,3.405,4.649,5.022,7.055
			c-1.03-5.113-1.39-10.343-1.233-15.644c0.014-0.512,0.727-0.489,0.778,0c0.83,7.87,2.715,15.425,5.036,22.951
			c2.579,4.459,4.837,9.055,6.566,13.74c3.78-14.537-7.199-27.95-9.814-41.917c-1.978-10.558-1.933-21.082,0.469-31.391
			C115.071,32.917,112.738,49.034,116.05,64.4z"/>
		<path fill="#FFFFFF" d="M335.377,120.513c-10.71,10.048-21.356,19.938-34.207,26.647c6.786-0.447,13.293,1.095,18.742,5.878
			c0.311,0.273,0.458,0.687,0.483,1.107c0.089,0.023,0.175,0.093,0.185,0.197c0.063,0.537,0.325,1.054,0.397,1.598
			c0.029,0.227,0.059,0.454,0.089,0.68c5.39-3.416,10.291-7.055,14.596-11.948c0.374-0.426,1.111,0.141,0.785,0.607
			c-4.057,5.863-9.124,11.488-15.178,15.354c0.119,0.872,0.208,1.747,0.251,2.626c2.296-2.495,5.636-4.481,8.15-6.496
			c7.679-6.148,13.955-13.396,18.378-22.212c0.242-0.479,1.041-0.143,0.866,0.364c-2.249,6.494-5.349,12.981-9.809,18.277
			c-2.5,2.97-5.131,5.791-8.225,8.155c-3.265,2.496-8.759,4.342-8.649,9.123c2.567-1.089,5.278-2.08,8.102-2.963
			c7.864-6.298,14.756-12.563,20.183-21.219c5.349-8.53,9.384-17.677,13.572-26.809c4.364-9.512,8.984-18.804,15.344-27.167
			c0.094-0.127,2.097-2.684,3.217-4.724c-8.187,3.607-16.253,7.252-23.562,12.534C350.605,106.253,342.999,113.367,335.377,120.513z
			"/>
		<path fill="#FFFFFF" d="M367.813,120.018c-1.271,2.86-2.58,5.898-3.968,9.016c0.494-0.128,0.997-0.225,1.524-0.273
			c0.439-0.04,0.606,0.634,0.223,0.829c-0.854,0.44-1.697,0.949-2.434,1.562c-0.117,0.098-0.232,0.145-0.346,0.187
			c-0.347,0.77-0.699,1.538-1.057,2.314c1.206-0.573,2.431-1.11,3.659-1.615c0.5-0.206,0.931,0.568,0.527,0.907
			c-1.907,1.591-3.908,3.121-5.987,4.488c-0.521,1.068-1.06,2.135-1.606,3.198c4.313-3.057,9.306-5.409,13.707-7.302
			c0.473-0.205,0.845,0.397,0.407,0.696c-4.057,2.781-7.79,5.894-11.268,9.371c-0.356,0.357-0.701,0.729-1.055,1.094
			c3.635-1.993,7.209-4.08,10.814-6.135c1.61-1.64,3.217-3.287,4.823-4.937c8.897-9.13,18.944-19.93,31.692-23.336
			C392.906,106.576,379.192,110.301,367.813,120.018z"/>
		<path fill="#FFFFFF" d="M82.497,61.77c-3.363,30.686,7.085,58.871,27.812,81.109c0.783,0.325,1.554,0.666,2.33,1.005
			c-6.67-7.894-11.39-17.641-14.963-27.189c-0.157-0.417,0.507-0.685,0.712-0.3c5.403,10.189,12.461,18.625,19.668,27.496
			c0.105,0.085,0.215,0.147,0.322,0.221c-2.173-4.791-3.285-10.25-4.436-15.148c-2.725-11.605-7.433-21.546-13.853-31.558
			C92.831,86.081,83.44,71.422,83.162,57.253C82.899,58.753,82.662,60.257,82.497,61.77z"/>
		<path fill="#FFFFFF" d="M384.696,165.977c0.934,0.284,1.864,0.585,2.776,0.905c13.955-14.975,8.421-37.654,18.587-54.249
			c-5.921,3.809-11.65,7.688-16.887,12.505c-5.641,5.19-10.811,10.824-16.189,16.276c-8.581,8.695-19.611,20.175-32.261,22.475
			c-0.601,0.469-1.216,0.92-1.843,1.355c12.147-2.665,25.52-3.338,37.786-1.16c2.473-2.309,4.644-4.737,6.282-7.739
			c0.234-0.427,0.935-0.136,0.788,0.334c-0.88,2.87-2.173,5.627-3.974,8.022c0.357,0.079,0.718,0.156,1.073,0.24
			c3.275-4.713,6.646-9.001,9.069-14.311c0.24-0.528,1.058-0.146,0.915,0.388C389.482,156.064,387.627,161.512,384.696,165.977z"/>
		<path fill="#FFFFFF" d="M328.904,8.536c-0.024,0.012-0.041,0.03-0.064,0.04c-7.676,3.176-7.294,14.253-8.012,21.156
			c-0.549,5.25-0.981,10.511-1.478,15.769c-0.974,10.357-1.953,20.868-4.523,30.977c-3.188,12.538-8.236,23.542-16.538,32.567
			c2.091-1.29,4.213-2.531,6.363-3.734c6.211-8.188,12.258-18.086,14.835-27.858c0.116-0.438,0.752-0.25,0.67,0.184
			c-1.783,9.298-4.228,17.081-9.051,24.221c1.52-0.775,3.055-1.526,4.595-2.258c13.976-26.423,21.215-56.828,14.545-86.504
			C330.094,12.409,329.84,9.827,328.904,8.536z"/>
		<path fill="#FFFFFF" d="M228.483,202.854c4.958,4.131,10.961,6.999,17.267,8.394c11.863,2.625,24.388,1.546,35.762-2.73
			c3.564-1.343,7.125-2.953,10.545-4.847c0.173-0.16,0.388-0.286,0.644-0.365c6.731-3.825,12.853-8.792,17.206-15.128
			c6.71-9.77,8.447-19.676,7.852-30.961c-12.862,9.804-29.437,9.717-45.063,8.067c-9.647-1.02-19.55-2.468-29.253-1.271
			c-9.878,1.22-17.918,5.037-25.354,11.247c-0.123,0.211-0.237,0.432-0.361,0.645c-0.227,0.391-0.523,0.623-0.84,0.746
			c3.172,4.659,5.018,10.254,4.848,15.557c-0.014,0.421-0.066,0.827-0.091,1.246C223.7,196.724,225.23,200.14,228.483,202.854z
			 M306.294,178.067c-2.646,9.793-8.933,19.32-18.43,23.663c-0.928,0.424-2.036-0.733-1.165-1.508
			c7.511-6.691,14.157-13.366,18.604-22.572C305.572,177.084,306.45,177.487,306.294,178.067z M295.07,183.373
			c0.272-0.379,0.822-0.059,0.624,0.367c-4.498,9.569-10.569,17.384-19.998,22.33c-0.523,0.274-1.078-0.396-0.642-0.831
			C282.01,198.341,289.317,191.354,295.07,183.373z M282.357,190.538c0.239-0.251,0.603,0.068,0.459,0.355
			c-3.679,7.366-9.446,13.944-16.807,17.757c-0.812,0.42-1.688-0.617-0.996-1.289C270.797,201.734,276.787,196.396,282.357,190.538z
			 M269.773,194.181c0.276-0.494,0.966-0.06,0.747,0.438c-2.337,5.239-6.033,11.14-11.699,13.189
			c-1.066,0.386-2.008-1.201-1.125-1.93c2.201-1.821,4.757-3.212,6.852-5.163C266.617,198.79,268.395,196.654,269.773,194.181z
			 M253.126,204.196c2.175-1.593,4.461-3.03,6.62-4.64c0.431-0.319,0.981,0.399,0.572,0.743c-2.058,1.74-3.98,3.644-6.028,5.405
			C253.235,206.61,252.002,205.018,253.126,204.196z"/>
		<path fill="#FFFFFF" d="M359.003,88.711c-20.076,4.491-39.446,12.113-57.001,22.879c-15.181,9.31-28.346,20.791-40.975,33.146
			c-0.44,0.785-0.896,1.561-1.362,2.33c7.782-6.508,18.847-10.991,27.734-13.638c0.268-0.081,0.398,0.286,0.181,0.432
			c-5.166,3.47-10.344,6.75-15.339,10.488c-0.302,0.224-0.601,0.465-0.899,0.698c0.858-0.385,1.719-0.769,2.568-1.15
			c8.308-3.717,16.451-7.854,24.941-11.148c0.575-0.225,0.902,0.664,0.406,0.965c-8.15,4.919-16.632,9.326-24.898,14.057
			c7.221-2.626,14.481-5.139,21.638-7.714c0.45-0.162,0.729,0.535,0.322,0.764c-6.279,3.52-12.756,7.016-19.379,10.245
			c1.085-0.317,2.172-0.636,3.254-0.958c7.055-2.108,14.149-4.823,21.385-6.198c0.041-0.009,0.077-0.004,0.114-0.002
			c13.629-8.663,25.104-20.356,37.01-31.232c9.967-9.102,21.613-19.709,34.824-24.599c1.825-1.231,3.835-2.136,5.966-2.668
			c-1.893,0.195-3.78,0.405-5.661,0.68C368.866,86.811,363.902,87.615,359.003,88.711z"/>
		<path fill="#FFFFFF" d="M300.034,158.704c-3.104,1.44-6.374,2.592-9.735,3.425c9.352-0.29,18.184-2.211,25.721-7.913
			c-11.843-9.205-25.426-0.725-38.52,5.174c7.357-0.247,14.614-0.755,22.054-1.83C300.19,157.469,300.74,158.38,300.034,158.704z"/>
		<path fill="#FFFFFF" d="M98.372,192.678c1.099-0.68,2.206-1.344,3.325-1.993c-10.086-2.16-20.45-8.951-27.576-15.507
			c-0.324-0.3,0.103-0.86,0.472-0.612c5.335,3.549,10.904,7.153,17.032,9.193c5,1.666,10.249,2.396,15.217,4.092
			c1.024-0.537,2.052-1.061,3.089-1.575c-6.921-1.654-13.668-4.961-19.8-8.232c-0.678-0.36-0.082-1.307,0.591-1.009
			c8.112,3.596,16.195,4.623,24.771,6.416c0.08,0.017,0.147,0.044,0.22,0.07c7.695-3.499,15.615-6.518,23.416-9.362
			c2.987-1.088,6.097-2.206,9.292-3.287c-8.693-6.214-16.957-13.028-26.283-18.317c-10.203-5.786-21.051-9.969-32.471-12.654
			c-21.58-5.075-43.92-6.515-65.333-12.315C37.706,159.347,66.002,182.13,98.372,192.678z"/>
		<path fill="#FFFFFF" d="M24.748,84.728c8.992,23.437,33.637,27.596,54.978,36.22c1.542,0.36,3.07,0.776,4.589,1.222
			c-6.495-3.063-13.014-5.999-19.681-8.756c-0.29-0.122-0.185-0.584,0.133-0.483c6.022,1.91,12.037,3.629,18.094,5.26
			c-4.122-1.942-8.197-4-12.418-5.73c-0.536-0.22-0.346-1.019,0.246-0.888c5.447,1.22,11.187,2.318,16.562,4.095
			c-0.091-0.197-0.187-0.391-0.276-0.589c-1.635-0.718-3.135-1.688-4.779-2.412c-2.33-1.028-4.678-2.013-7.046-2.959
			c-0.439-0.175-0.28-0.845,0.201-0.724c2.22,0.563,4.44,1.104,6.682,1.589c1.053,0.229,2.128,0.363,3.203,0.51
			c-0.194-0.48-0.374-0.963-0.56-1.445c-0.571-0.322-1.134-0.659-1.694-1.009c-1.071-0.669-2.172-0.985-3.375-1.307
			c-0.332-0.089-0.191-0.582,0.141-0.51c1.351,0.297,2.713,0.402,4.069,0.53c-0.189-0.532-0.376-1.068-0.559-1.603
			c-0.268-0.173-0.539-0.348-0.82-0.505c-0.411-0.229-0.133-0.91,0.322-0.763c0.028,0.008,0.054,0.015,0.079,0.021
			c-1.149-3.554-2.098-7.179-2.845-10.845c-7.867-5.777-18.34-5.756-27.672-6.583C43.134,86.253,33.946,85.422,24.748,84.728z"/>
		<path fill="#FFFFFF" d="M174.185,229.431c15.749-2.064,33.81-8.866,40.767-24.424c7.576-16.939-1.032-34.09-19.684-36.51
			c-0.153-0.021-0.29-0.075-0.413-0.148c-7.427-1.086-14.888-1.189-22.611,0.164c-11.68,2.047-22.876,5.835-33.972,9.938
			c-18.964,7.02-37.051,15.15-52.541,28.159c13.587,0.967,25.708,6.653,38.015,12.5
			C139.728,226.701,156.278,231.782,174.185,229.431z M183.541,212.607c2.267,1.563,4.612,2.992,6.917,4.493
			c1.093,0.712-0.077,2.26-1.096,1.422c-2.117-1.746-4.179-3.552-6.344-5.239C182.631,212.984,183.138,212.33,183.541,212.607z
			 M169.829,211.058c5.179,2.522,10.746,5.242,15.045,9.132c0.998,0.904-0.278,2.435-1.399,1.813
			c-5.047-2.79-9.54-6.836-14.066-10.398C169.079,211.346,169.498,210.897,169.829,211.058z M148.409,207.217
			c8.562,5.89,17.729,9.74,27.493,13.17c1.875,0.659,1.11,3.602-0.829,3.006c-10.04-3.082-19.128-8.872-27.104-15.608
			C147.657,207.518,148.071,206.983,148.409,207.217z M146.031,223.605c-10.886-0.136-21.456-9.131-28.898-16.245
			c-0.44-0.423,0.196-1.009,0.649-0.65c4.503,3.544,9.464,6.627,14.636,9.116c4.54,2.185,9.764,3.734,13.951,6.534
			C146.899,222.714,146.726,223.612,146.031,223.605z M163.412,225.692c-13.493-2.852-25.31-10.708-35-20.331
			c-0.327-0.325,0.119-0.947,0.507-0.655c10.82,8.131,22.703,13.375,35.219,18.354C165.749,223.701,165.165,226.062,163.412,225.692
			z"/>
		<path fill="#FFFFFF" d="M373.637,167.452c-18.129-2.971-36.87-0.388-53.52,7.396c-0.762,2.736-1.778,5.415-3.014,7.97
			c1.792-0.003,3.629,0.283,5.36,0.561c0.709,0.115,0.435,1.073-0.159,1.146c-2.023,0.256-4.158,0.457-6.214,0.266
			c-0.196,0.363-0.399,0.721-0.601,1.081c4.772-0.028,9.613,0.552,14.34,1c0.569,0.052,0.579,0.849,0,0.889
			c-5.228,0.368-10.597,0.891-15.834,0.581c-0.503,0.78-1.02,1.543-1.553,2.283c10.007-0.168,20.177,1.01,29.937,3.053
			c0.033-0.065,0.106-0.109,0.19-0.068c0.065,0.033,0.132,0.065,0.199,0.099c0.161,0.08,0.018,0.319-0.141,0.24
			c-0.003-0.002-0.007-0.004-0.013-0.004c-0.008,0.121-0.093,0.24-0.236,0.237c-10.653-0.168-21.386-0.261-32.026-0.831
			c-0.563,0.68-1.151,1.344-1.754,1.995c5.505-0.294,11.184,0.246,16.58,0.756c6.157,0.581,12.446,1.058,18.35,2.99
			c0.581,0.189,0.477,1.047-0.146,1.066c-6.817,0.21-13.681-0.84-20.485-1.23c-5.666-0.327-11.451-0.123-17.092-0.779
			c-0.436,0.406-0.88,0.8-1.327,1.193c3.092,0.131,6.216,0.792,9.239,1.229c4.764,0.69,9.591,1.067,14.312,2.006
			c0.366,0.072,0.263,0.613-0.084,0.628c-4.837,0.186-9.703-0.201-14.546-0.267c-4.109-0.058-8.333,0.229-12.319-0.836
			c-0.518,0.389-1.042,0.778-1.574,1.152c6.646,0.336,13.433,1.616,19.723,3.58c7.113,0.906,14.083,2.077,20.465,2.723
			c11.509,1.163,23.105,1.457,34.545-0.557c7.983-1.406,15.683-3.686,23.37-6.136c4.844-2.784,10.014-4.844,15.75-5.444
			C409.485,179.484,390.413,170.2,373.637,167.452z"/>
		<path fill="#FFFFFF" d="M343.623,231.54c15.5-3.27,28.426-9.557,40.81-19.36c0.954-0.754,1.916-1.507,2.88-2.249
			c-13.866,4.133-28.959,5.023-43.031,3.77c-11.355-1.011-22.617-3-33.994-3.776c-8.444-0.581-16.418,0.127-24.646,0.831
			c-1.589,0.64-3.192,1.226-4.798,1.742c3.634,2.213,6.99,4.873,10.703,6.966c0.416,0.233,0.051,0.805-0.364,0.623
			c-4.898-2.147-10.087-3.524-14.681-6.326c-1.159,0.307-2.322,0.599-3.503,0.854c15.342,7.795,29.971,14.876,47.961,13.422
			c0.338-0.029,0.378,0.478,0.076,0.573c-18.48,5.753-38.466-2.448-53.831-12.637c-0.132-0.089-0.247-0.183-0.351-0.282
			c-1.771,0.24-3.554,0.413-5.34,0.517C283.05,237.138,315.57,237.467,343.623,231.54z"/>
		<path fill="#FFFFFF" d="M208.544,254.212c10.143,4.118,20.509,7.504,31.116,10.182c3.994-6.431,10.014-10.812,16.25-15.026
			c7.855-5.31,13.87-10.522,17.69-19.06c-6.192-3.314-11.681-7.836-16.027-13.938c-0.013-0.017-0.017-0.035-0.029-0.051
			c-4.863-0.023-9.703-0.639-14.347-1.978c0.111,0.329,0.221,0.662,0.331,0.991c0.266,0.804-0.925,1.075-1.236,0.338
			c-0.258-0.611-0.515-1.222-0.771-1.834c-0.773-0.254-1.54-0.527-2.302-0.823c-0.79-0.314-1.671-0.688-2.604-1.116
			c0.277,1.376,0.482,2.776,0.96,4.11c0.111,0.318-0.372,0.505-0.536,0.226c-1.017-1.742-2.354-3.565-2.895-5.54
			c-1.547-0.796-3.163-1.72-4.739-2.753c1.526,4.196,2.513,8.629,3.227,12.984c0.11,0.659-0.82,0.945-1.021,0.279
			c-1.687-5.627-4.039-10.887-6.275-16.287c-0.861-0.738-1.671-1.513-2.409-2.317c1.528,7.403,2.768,14.848,3.945,22.319
			c0.073,0.469-0.57,0.669-0.725,0.198c-2.345-7.151-4.623-14.304-6.625-21.554c-0.105,0.286-0.211,0.57-0.324,0.854
			c0.054,0.126,0.104,0.267,0.13,0.427c0.98,5.935,0.061,12.693-0.496,18.663c-0.018,0.221-0.359,0.303-0.408,0.056
			c-0.839-4.103-1.931-8.642-2.372-13.046c-0.434,0.68-0.884,1.346-1.356,1.994c-0.037,3.74-0.484,7.452-0.378,11.2
			c0.01,0.311-0.477,0.38-0.546,0.072c-0.594-2.692-1.226-5.467-1.51-8.246c-0.584,0.66-1.196,1.306-1.826,1.931
			c-0.848,2.137-1.269,4.343-1.367,6.645c-0.018,0.463-0.761,0.612-0.846,0.115c-0.267-1.56-0.264-3.097-0.078-4.625
			c-3.988,3.458-8.619,6.317-13.635,8.49c-3.431,1.485-7.031,2.664-10.727,3.573C187.194,244.425,196.561,249.347,208.544,254.212z"
			/>
		<path fill="#FFFFFF" d="M80.915,206.215c1.834-1.808,3.732-3.534,5.707-5.165c0.462-0.577,0.932-1.156,1.243-1.803
			c0.909-1.894,1.409-3.906,1.899-5.937c-4.702-1.606-9.258-3.54-13.647-5.78c-1.448,4.553-2.512,9.324-0.561,13.963
			C76.815,204.491,78.62,205.63,80.915,206.215z"/>
		<path fill="#FFFFFF" d="M7.576,208.801c1.414,0.442,2.786,0.959,4.132,1.526c13.54,2.584,27.325,4.396,41.106,5.17
			c2.54-0.499,5.087-0.979,7.642-1.438c-7.53-0.57-15.008-1.662-22.002-2.84c-0.386-0.066-0.273-0.643,0.089-0.656
			c8.365-0.31,16.746-0.584,25.119-0.654c3.699-0.033,7.446-0.249,11.189-0.369c-8.053-1.08-16.12-2.062-24.25-2.223
			c-0.302-0.007-0.395-0.5-0.073-0.548c7.926-1.18,15.709-1.673,23.504-0.849c-0.437-0.538-0.85-1.12-1.22-1.791
			c0-0.003,0-0.005-0.002-0.007c-2.771-0.233-5.518-0.656-8.298-0.788c-2.55-0.121-5.132-0.049-7.628-0.614
			c-0.322-0.072-0.292-0.528,0-0.617c4.393-1.329,9.903-1.325,14.676-1.169c-0.222-0.841-0.378-1.71-0.467-2.591
			c-1.183-0.228-2.375-0.411-3.559-0.613c-0.535-0.09-0.337-0.82,0.119-0.873c1.113-0.13,2.229-0.239,3.339-0.386
			c0.014-3.597,1.101-7.234,3.208-9.955c-1.5-0.804-2.984-1.636-4.442-2.51C46.064,179.828,21.566,189.171,7.576,208.801z"/>
		<path fill="#FFFFFF" d="M66.162,240.99c12.79,3.3,26.294,4.122,39.283,1.371c11.911-2.521,21.706-7.658,32.134-13.388
			c-1.481-0.55-2.955-1.141-4.425-1.763c-11.919,9.279-27.714,11.926-42.483,11.233c-0.561-0.025-0.553-0.821,0-0.861
			c13.984-1.006,25.849-6.252,38.153-12.282c-1.092-0.501-2.183-1.011-3.272-1.53c-0.115,0.133-0.244,0.263-0.407,0.377
			c-6.924,4.853-16.26,6.862-24.538,7.707c-0.259,0.025-0.285-0.364-0.058-0.438c7.546-2.424,14.111-6.154,21.145-9.501
			c-4.177-2.026-8.359-4.071-12.599-5.889c-15.825,4.693-34.685,4.097-50.979,3.247c-13.517-0.7-26.75-2.58-39.842-5.637
			c5.067,2.956,9.787,6.562,14.536,10.152C42.928,231.439,53.767,237.793,66.162,240.99z"/>
		<path fill="#FFFFFF" d="M27.741,125.049c4.031,0.923,8.081,1.728,12.149,2.451c2.199-0.004,4.253-0.426,6.447-0.977
			c-1.639-1.119-3.218-2.349-4.732-3.667c-3.368,0.526-6.805,0.643-10.164,1.32C30.216,124.425,28.981,124.747,27.741,125.049z"/>
		<path fill="#FFFFFF" d="M53.708,120.1c8.994,4.395,17.784,8.799,27.531,11.322c7.173,1.857,14.728,3.72,21.388,7.156
			c-1.354-1.45-2.66-2.938-3.903-4.477c-14.588-8.125-30.783-11.977-45.906-18.982c-10.997-5.095-21.127-12.217-26.528-22.824
			c2.253,7.41,5.826,14.393,10.872,20.366c6.746,7.985,14.701,13.143,23.586,18.147c3.812,0.581,7.619,1.174,11.414,1.819
			c-6.87-3.045-13.015-7.24-18.976-11.851C52.774,120.461,53.294,119.898,53.708,120.1z"/>
		<path d="M146.369,222.36c-4.187-2.8-9.411-4.35-13.951-6.534c-5.172-2.489-10.133-5.572-14.636-9.116
			c-0.454-0.358-1.089,0.228-0.649,0.65c7.443,7.114,18.013,16.109,28.898,16.245C146.726,223.612,146.899,222.714,146.369,222.36z"
			/>
		<path d="M164.138,223.061c-12.516-4.979-24.399-10.224-35.219-18.354c-0.388-0.292-0.834,0.33-0.507,0.655
			c9.689,9.623,21.506,17.479,35,20.331C165.165,226.062,165.749,223.701,164.138,223.061z"/>
		<path d="M175.074,223.393c1.938,0.596,2.704-2.347,0.829-3.006c-9.764-3.43-18.931-7.28-27.493-13.17
			c-0.338-0.233-0.752,0.301-0.44,0.567C155.945,214.521,165.034,220.311,175.074,223.393z"/>
		<path d="M183.475,222.003c1.121,0.621,2.397-0.909,1.399-1.813c-4.3-3.89-9.866-6.609-15.045-9.132
			c-0.331-0.16-0.75,0.288-0.42,0.547C173.935,215.167,178.427,219.213,183.475,222.003z"/>
		<path d="M189.361,218.522c1.019,0.838,2.189-0.71,1.096-1.422c-2.305-1.501-4.65-2.93-6.917-4.493
			c-0.403-0.277-0.91,0.377-0.523,0.676C185.182,214.971,187.244,216.776,189.361,218.522z"/>
		<path d="M286.699,200.223c-0.871,0.774,0.237,1.932,1.165,1.508c9.497-4.343,15.783-13.87,18.43-23.663
			c0.156-0.58-0.722-0.983-0.991-0.417C300.856,186.856,294.21,193.531,286.699,200.223z"/>
		<path d="M275.055,205.239c-0.437,0.436,0.118,1.105,0.642,0.831c9.429-4.946,15.5-12.761,19.998-22.33
			c0.198-0.426-0.352-0.746-0.624-0.367C289.317,191.354,282.01,198.341,275.055,205.239z"/>
		<path d="M266.01,208.65c7.36-3.812,13.128-10.391,16.807-17.757c0.144-0.287-0.22-0.606-0.459-0.355
			c-5.57,5.858-11.561,11.196-17.344,16.823C264.321,208.033,265.197,209.07,266.01,208.65z"/>
		<path d="M258.821,207.808c5.666-2.05,9.362-7.95,11.699-13.189c0.219-0.497-0.471-0.932-0.747-0.438
			c-1.379,2.474-3.156,4.609-5.226,6.534c-2.095,1.951-4.65,3.342-6.852,5.163C256.813,206.606,257.755,208.193,258.821,207.808z"/>
		<path d="M254.29,205.705c2.048-1.762,3.971-3.665,6.028-5.405c0.409-0.344-0.142-1.062-0.572-0.743
			c-2.159,1.609-4.445,3.047-6.62,4.64C252.002,205.018,253.235,206.61,254.29,205.705z"/>
	</g>
</g>
</svg>
