<svg width="64" height="117" viewBox="0 0 64 117" fill="none" xmlns="http://www.w3.org/2000/svg">
<path d="M9.40101 13.4269C7.97675 14.1784 7.20539 15.9046 7.70275 17.4589C7.73596 17.56 7.91558 17.5469 7.89482 17.4274C7.63632 15.9168 8.24715 14.4621 9.6036 13.6973C9.78184 13.5972 9.56873 13.3381 9.40101 13.4269Z" fill="black"/>
<path d="M50.5941 9.05883C43.4288 7.47902 35.7528 7.29497 28.4588 7.77849C21.3549 8.24789 14.1553 9.44713 7.44088 11.8697C7.3501 11.8077 7.22943 11.7842 7.12149 11.8401C4.54171 13.1744 4.36901 17.076 6.01302 19.1698C3.79305 19.9578 2.32866 22.8674 3.46314 25.044C3.51905 25.1489 3.60983 25.2336 3.71638 25.2978C2.54343 31.4869 2.2293 37.95 1.8504 44.2161C1.43856 51.0327 1.25174 57.8581 1.26918 64.6866C1.28468 71.1115 1.48202 77.5329 1.86092 83.947C2.26057 90.7121 2.55229 97.6798 3.73382 104.358C3.91012 105.358 5.48273 105.44 5.41105 104.304C4.99229 97.6521 4.02692 91.0262 3.59765 84.3661C3.16118 77.6148 2.92039 70.8497 2.87666 64.0849C2.83293 57.5631 2.97298 51.0399 3.2766 44.5261C3.57329 38.1344 4.32888 31.7313 4.50878 25.3373C4.63111 25.2474 4.69394 25.0902 4.63277 24.853C4.05321 22.6233 4.79689 20.5514 6.98227 19.5575C7.1392 19.4853 7.17601 19.3228 7.12896 19.1878C7.20562 19.0273 7.19871 18.8194 7.03984 18.5961C5.63495 16.6133 6.01717 14.5065 7.25295 12.6519C11.6373 11.6065 16.018 10.6655 20.4496 10.0129C17.2787 10.712 14.1647 11.6134 11.1471 12.7086C10.9968 12.7628 11.1084 12.9837 11.2448 12.9375C16.5544 11.1066 22.0555 9.85924 27.6376 9.24758C27.9866 9.22489 28.334 9.19361 28.6847 9.17535C36.0434 8.79645 43.1664 9.58469 50.4357 10.6049C51.5276 10.7579 51.5747 9.27498 50.5941 9.05883Z" fill="black"/>
<path d="M55.4598 16.6131C41.9172 13.9177 28.1708 14.2343 14.7627 17.5052C14.5499 17.5575 14.7087 17.8605 14.8986 17.8204C28.1919 15.0093 42.0448 15.0328 55.3322 17.8376C56.1875 18.018 56.2387 16.7687 55.4598 16.6131Z" fill="black"/>
<path d="M21.8299 20.8679C16.4038 20.8537 11.122 21.6951 5.99923 23.485C5.79857 23.5556 5.94692 23.8462 6.13208 23.7922C11.2825 22.2929 16.5467 21.4543 21.9102 21.3685C22.2542 21.3624 22.1319 20.8687 21.8299 20.8679Z" fill="black"/>
<path d="M60.6981 23.7534C56.9 21.2794 51.7075 20.247 47.2725 19.7372C42.6472 19.2067 38.032 19.438 33.4523 20.2235C33.2464 20.2581 33.3668 20.5933 33.5517 20.5689C38.2205 19.9337 42.9488 20.0287 47.5881 20.8595C52.0443 21.6572 55.9889 23.5102 60.2774 24.7747C60.883 24.9532 61.1938 24.0762 60.6981 23.7534Z" fill="black"/>
<path d="M5.82641 13.8628C4.51397 14.1805 3.22754 14.1351 2.15395 13.2102C0.99345 12.2094 0.626729 10.6672 1.10333 9.23686C1.17307 9.03177 0.834583 8.85021 0.757641 9.06941C0.214895 10.5964 0.422749 12.4106 1.52402 13.6455C2.63746 14.8915 4.67089 15.4653 6.23658 14.8149C6.85267 14.5594 6.40403 13.7233 5.82641 13.8628Z" fill="black"/>
<path d="M61.6562 6.52141C43.4517 -0.426079 23.4739 0.152371 5.36922 7.01433C5.16496 7.09127 5.31857 7.39738 5.50539 7.32847C23.3313 0.724731 43.3595 1.3768 61.0421 8.03257C62.1434 8.44828 62.7121 6.92466 61.6562 6.52141Z" fill="black"/>
<path d="M62.8078 8.08248C62.667 7.83892 62.2374 7.94382 62.2859 8.24218C62.574 9.97697 61.7625 11.4057 60.3296 12.3331C59.7783 12.6893 60.3665 13.5174 60.9158 13.3447C63.0575 12.673 63.8956 9.95372 62.8078 8.08248Z" fill="black"/>
<path d="M9.33136 107.412C8.14097 106.895 6.92263 106.45 5.70457 106.004C5.31875 105.863 5.12695 106.361 5.48813 106.535C6.66108 107.094 7.83182 107.652 9.03466 108.144C9.56523 108.361 9.83591 107.628 9.33136 107.412Z" fill="black"/>
<path d="M50.2289 108.7C44.136 109.384 38.1456 110.065 31.9969 110.03C25.9196 109.996 19.9411 108.993 13.8917 108.78C13.5322 108.768 13.6648 109.227 13.9075 109.307C19.6637 111.206 26.2368 111.531 32.2601 111.666C38.3778 111.8 44.7031 111.54 50.7193 110.372C51.7195 110.177 51.1192 108.599 50.2289 108.7Z" fill="black"/>
<path d="M63.4242 64.6861C63.4419 57.8577 63.2553 51.0322 62.8429 44.2157C62.4643 37.9496 62.1502 31.4864 60.977 25.2973C61.0854 25.2331 61.1759 25.1481 61.2302 25.0435C62.3661 22.867 60.9006 19.9576 58.6803 19.1693C60.3243 17.0759 60.1516 13.1739 57.5716 11.8396C57.4653 11.7837 57.3435 11.8073 57.2525 11.8693C56.4114 11.5656 55.563 11.2811 54.7081 11.0151C55.0344 11.3816 55.3137 11.7768 55.5213 12.2061C56.1617 12.3547 56.8027 12.4986 57.4415 12.6511C58.677 14.5058 59.0595 16.6123 57.6543 18.5953C57.4957 18.8187 57.4885 19.0265 57.5652 19.1871C57.5187 19.3221 57.555 19.4846 57.7122 19.5568C59.8975 20.551 60.641 22.6226 60.0611 24.8523C60 25.0895 60.0631 25.2467 60.1854 25.3366C60.3647 31.7308 61.1209 38.1336 61.417 44.5254C61.7212 51.0392 61.8607 57.5623 61.8186 64.0842C61.7732 70.849 61.5324 77.6143 61.096 84.3653C60.667 91.0255 59.7016 97.6514 59.2828 104.303C59.2654 104.58 59.3454 104.783 59.4799 104.92C59.3141 105.202 59.1536 105.49 59.0138 105.785C58.822 105.657 58.5774 105.617 58.3767 105.756C57.607 106.291 56.9176 106.896 56.0673 107.312C55.1667 107.752 54.1881 107.914 53.28 108.305C53.0339 108.41 53.1125 108.745 53.3588 108.797C55.0815 109.158 57.354 108.302 58.7431 107.1C58.8622 107.209 59.0418 107.261 59.1586 107.161C59.8989 106.538 60.473 105.565 60.9617 104.734C61.0384 104.601 61.0282 104.462 60.9653 104.332C62.1416 97.6616 62.4333 90.7009 62.833 83.9463C63.2113 77.5324 63.4089 71.1111 63.4242 64.6861Z" fill="black"/>
<path d="M17.2169 94.6568C14.124 94.6742 10.3837 97.2816 10.5547 100.666C10.565 100.855 10.888 100.952 10.9599 100.755C12.0681 97.7461 13.8046 95.3166 17.3004 95.1735C17.6567 95.1577 17.531 94.6532 17.2169 94.6568Z" fill="black"/>
<path d="M21.6518 92.5988C21.2242 92.9284 20.772 93.2498 20.4285 93.6721C20.222 93.9237 20.5852 94.2201 20.8315 94.0945C21.2979 93.8586 21.6887 93.5116 22.0883 93.1797C22.4199 92.9043 21.9801 92.3458 21.6518 92.5988Z" fill="black"/>
<path d="M32.253 91.8538C32.0109 91.8469 31.7681 91.8327 31.5254 91.8502C31.0837 91.8795 31.2603 92.4488 31.6248 92.4732C31.8675 92.489 32.1083 92.4768 32.353 92.4679C32.7808 92.4557 32.6217 91.8643 32.253 91.8538Z" fill="black"/>
<path d="M34.6147 65.8747C34.0354 74.0815 32.2359 82.0755 29.6583 89.8776C29.5883 90.0869 29.9304 90.272 30.0106 90.0484C32.8343 82.2988 34.491 74.2285 35.3933 66.0441C35.4439 65.585 34.6499 65.3721 34.6147 65.8747Z" fill="black"/>
<path d="M54.753 95.7454C51.5486 94.5481 48.208 93.6124 44.9352 92.6212C44.5458 92.5022 44.4273 93.1133 44.7816 93.239C48.0104 94.3804 51.2588 95.6145 54.554 96.5481C55.0622 96.6914 55.2089 95.9165 54.753 95.7454Z" fill="black"/>
<path d="M55.5353 95.2149C55.0538 95.2288 55.2212 95.8152 55.5564 95.9268C56.0972 96.1083 56.6017 96.3112 57.0188 96.7142C57.4343 97.1172 57.5948 97.6148 57.8566 98.1088C58.0205 98.4177 58.7619 98.6289 58.7487 98.0806C58.7118 96.5902 56.9892 95.1695 55.5353 95.2149Z" fill="black"/>
<path d="M10.1973 99.5695C9.39969 100.032 8.62085 100.542 7.92478 101.149C7.44652 101.562 8.06427 102.374 8.57048 102.01C9.3435 101.451 10.0451 100.788 10.6964 100.093C10.9665 99.805 10.4935 99.3968 10.1973 99.5695Z" fill="black"/>
<path d="M13.0246 104.452C12.3664 104.108 12.1165 103.37 12.3299 102.672C12.391 102.478 12.1375 102.289 11.9858 102.452C11.155 103.333 11.7954 104.811 12.8552 105.139C13.3071 105.279 13.3752 104.633 13.0246 104.452Z" fill="black"/>
<path d="M19.3671 102.478C19.0496 101.444 17.3776 101.439 17.1316 102.514C17.0948 102.669 17.1928 102.807 17.3286 102.893C17.2221 103.001 17.1839 103.17 17.3145 103.362C17.9691 104.303 19.7302 103.652 19.3671 102.478ZM17.9467 102.95C17.9154 102.91 17.8786 102.884 17.8418 102.858C17.8576 102.832 17.8767 102.811 17.8874 102.776C17.9345 102.598 18.048 102.516 18.2293 102.498C18.3151 102.49 18.4022 102.5 18.4739 102.532C18.5315 102.559 18.5503 102.559 18.5575 102.612C18.5924 102.856 18.0812 103.118 17.9467 102.95Z" fill="black"/>
<path d="M39.2346 65.4667C39.1704 64.699 37.9329 64.6622 37.9728 65.5085C38.4023 74.459 37.6205 83.1197 34.9308 91.7068C34.8453 91.9824 35.2887 92.2268 35.3952 91.9337C38.4477 83.5279 39.9907 74.4169 39.2346 65.4667Z" fill="black"/>
<path d="M48.7402 59.5928C48.627 59.6556 48.5155 59.7176 48.4031 59.7804C48.2116 59.8881 48.4208 60.213 48.6057 60.1294C48.7244 60.0774 48.8415 60.0248 48.96 59.9719C49.2395 59.8477 48.9899 59.4538 48.7402 59.5928Z" fill="black"/>
<path d="M46.5586 60.1884C43.321 60.9807 40.0102 62.7507 37.9469 65.4282C37.692 65.7597 38.2298 66.2031 38.504 65.889C40.8134 63.2727 43.2706 61.3995 46.7072 60.534C46.9408 60.4762 46.7701 60.1371 46.5586 60.1884Z" fill="black"/>
<path d="M57.422 56.2014C57.4309 55.8532 57.024 55.6158 56.7083 55.7312C52.7701 53.8057 48.042 55.3052 46.1398 59.3616C46.1309 59.3773 46.1309 59.3928 46.129 59.4089C42.9492 59.764 39.8981 61.2065 37.4561 63.2347C37.2679 63.39 37.5054 63.6972 37.7027 63.5643C40.5404 61.6516 43.4308 60.6391 46.7542 59.9663C47.1101 59.8938 46.9026 59.3685 46.5987 59.3666C48.8853 56.1126 52.5716 54.9022 56.2267 56.3365C54.8284 58.7477 53.6223 61.1609 50.8108 62.217C48.2568 63.1735 45.576 62.7213 43.2514 61.4069C43.0278 61.2796 42.8673 61.5921 43.0508 61.7457C45.2237 63.5574 48.1876 64.0672 50.8911 63.2328C53.9906 62.2762 55.961 59.5561 57.2405 56.7043C57.4392 56.6534 57.5214 56.4073 57.422 56.2014Z" fill="black"/>
<path d="M35.9345 60.4642C32.1729 53.8954 31.3005 46.1566 33.5557 38.9271C33.6932 38.4865 32.9587 38.1095 32.8239 38.5717C30.6371 46.0464 31.6407 53.9183 35.655 60.5932C35.7477 60.7471 36.0322 60.6353 35.9345 60.4642Z" fill="black"/>
<path d="M34.4963 62.0531C30.5205 55.192 29.3055 47.5243 31.5152 39.8343C31.5675 39.6486 31.2705 39.4809 31.1991 39.6823C28.6285 47.1109 29.5252 55.7331 33.9763 62.2956C34.1611 62.5679 34.6848 62.3778 34.4963 62.0531Z" fill="black"/>
<path d="M45.6964 28.1931C40.1147 28.8189 35.1423 32.6953 33.2727 38.0013C33.2342 38.1095 33.3197 38.2072 33.4141 38.2324C33.348 38.2822 33.2816 38.3284 33.2154 38.3779C33.0075 38.5349 33.2625 38.8404 33.4717 38.7211C37.8054 36.2532 43.2547 33.8137 45.5796 29.1045C45.62 29.0226 45.6059 28.9362 45.5654 28.8595C45.6421 28.8465 45.7193 28.8291 45.7977 28.8169C46.215 28.7516 46.0802 28.1505 45.6964 28.1931ZM33.625 38.0782C35.817 33.3219 39.7812 30.0826 44.8339 28.9968C41.9295 33.2389 37.6448 35.1353 33.625 38.0782Z" fill="black"/>
<path d="M31.468 38.293C31.3703 38.3077 31.2724 38.3121 31.1763 38.3243C29.3665 34.8649 25.9299 32.2697 21.9505 32.0358C21.9366 31.9669 21.9156 31.9013 21.9015 31.8307C21.8649 31.6306 21.5267 31.6126 21.5613 31.8421C22.2474 36.3086 26.141 39.5111 30.571 39.0464C30.6493 39.2199 30.7282 39.3937 30.7999 39.5745C31.0075 40.1059 31.8871 39.898 31.6463 39.3171C31.5887 39.1773 31.5226 39.0411 31.4594 38.9033C31.5187 38.8911 31.5782 38.8861 31.638 38.8709C31.9789 38.7901 31.7769 38.2457 31.468 38.293ZM22.0567 32.4797C25.6016 33.2635 28.5777 35.2278 30.2513 38.3913C26.4184 38.4909 23.0725 36.3005 22.0567 32.4797Z" fill="black"/>
<path d="M34.4106 66.1089C33.908 65.823 33.4278 65.5119 32.967 65.1807C33.2828 65.3711 33.5693 64.9955 33.2897 64.7234C31.9703 63.4406 30.506 62.2973 29.0942 61.1177C28.7952 60.8664 28.415 61.2015 28.6347 61.5262C30.0593 63.6432 31.9775 65.3188 34.2988 66.3854C34.4981 66.4754 34.5867 66.2069 34.4106 66.1089Z" fill="black"/>
<path d="M29.9265 70.0045C29.7258 69.8667 29.5235 70.0989 29.7103 70.2663C31.185 71.5907 31.9217 73.0761 32.4556 74.8112C31.6616 73.1149 30.206 71.516 28.7029 70.5384C28.6818 70.5243 28.6614 70.5174 28.6403 70.5105C28.6594 70.2536 28.3804 69.9381 28.0624 70.0042C19.8274 71.7321 12.9544 65.5831 13.4869 57.4148C14.4238 59.8443 17.2357 60.5758 19.531 61.5879C23.6169 63.3911 26.2767 66.3844 28.7151 70.0042C29.0048 70.4335 29.7765 70.1543 29.5285 69.6253C28.2019 66.7979 25.7863 64.3493 23.2173 62.6211C20.2428 60.6209 14.925 60.0851 13.5843 56.4312L13.5824 56.4303C13.5862 56.4085 13.5862 56.3866 13.5893 56.3658C13.6172 56.1757 13.3203 56.0979 13.2718 56.2958C13.2663 56.3213 13.261 56.3465 13.2561 56.3719C13.235 56.4015 13.2228 56.4392 13.2317 56.489V56.4898C11.2226 65.29 19.6755 73.2527 28.3973 70.7847C28.4203 70.7778 28.4322 70.7654 28.4513 70.7548C28.4615 70.7723 28.4704 70.7864 28.4845 70.8022C29.2644 71.5857 30.0361 72.3554 30.6937 73.2474C31.2838 74.052 31.7202 74.9352 32.2281 75.7887V75.7904L32.23 75.7923C32.2422 75.8134 32.2563 75.8377 32.2682 75.8607C32.2702 75.8588 32.2721 75.8588 32.2735 75.8571C32.4061 76.0298 32.654 76.0193 32.7553 75.8776C32.7744 75.9526 32.7958 76.0262 32.8165 76.1029C32.902 76.445 33.5832 76.6664 33.5832 76.1762C33.5779 73.7083 31.8987 71.3413 29.9265 70.0045Z" fill="black"/>
<path d="M30.625 86.1287C28.8814 88.5757 26.8341 90.3647 24.2037 91.8045C23.9978 91.9179 24.2195 92.2373 24.4152 92.1692C27.1903 91.1953 29.7017 89.1323 31.2099 86.6103C31.426 86.2491 30.883 85.7656 30.625 86.1287Z" fill="black"/>
<path d="M41.0202 91.3111C38.2436 90.4736 36.6882 88.0649 37.472 85.1571C37.526 84.9545 37.2151 84.7677 37.1266 84.9877C35.9293 87.9459 37.6851 91.4841 40.9538 91.959C41.4215 92.0282 41.4151 91.4298 41.0202 91.3111Z" fill="black"/>
<path d="M38.9644 91.7854C38.2016 91.4101 37.5556 90.8618 37.0779 90.1569C36.9714 89.9997 36.7076 90.099 36.7865 90.2928C37.151 91.1983 37.8595 91.9091 38.7729 92.2584C39.116 92.389 39.2838 91.9423 38.9644 91.7854Z" fill="black"/>
<path d="M38.1214 93.557C37.7951 93.112 37.3343 92.7403 36.931 92.3686C36.7602 92.2097 36.4945 92.4295 36.6501 92.6199C36.9955 93.0455 37.3359 93.5255 37.7583 93.88C37.9888 94.0737 38.3063 93.8119 38.1214 93.557Z" fill="black"/>
<path d="M34.9902 93.5676C34.7212 95.3951 33.5629 96.3881 32.0824 97.3062C31.7841 97.4913 32.1035 97.9295 32.3933 97.8423C34.1297 97.3203 35.203 95.3516 35.3586 93.6481C35.3777 93.4314 35.0251 93.3284 34.9902 93.5676Z" fill="black"/>
<path d="M32.9096 93.9773C31.8958 94.9111 30.7156 95.6913 29.3315 95.9166C29.1239 95.9498 29.1887 96.2479 29.3824 96.2274C30.906 96.0666 32.3264 95.5292 33.325 94.3194C33.5295 94.0736 33.1313 93.773 32.9096 93.9773Z" fill="black"/>
<path d="M32.571 95.4557C32.2461 95.7001 31.8171 95.8465 31.4589 96.0422C31.0905 96.2412 30.7346 96.4488 30.382 96.6754C30.2265 96.7751 30.3928 97.0247 30.5514 96.9655C30.9386 96.8207 31.3142 96.6599 31.6895 96.4872C31.4971 96.728 31.3089 96.9705 31.1254 97.2184C30.9145 97.503 31.3701 97.8833 31.602 97.6112C32.08 97.051 32.5392 96.4679 32.9601 95.8626C33.1173 95.6356 32.8118 95.2777 32.571 95.4557Z" fill="black"/>
<path d="M27.8657 92.0037C26.7309 93.147 25.5112 93.824 23.9417 94.1888C23.7064 94.243 23.8614 94.5677 24.0518 94.566C25.6787 94.5555 27.354 93.6878 28.2737 92.3405C28.4469 92.0873 28.0819 91.787 27.8657 92.0037Z" fill="black"/>
<path d="M27.9303 91.1937C26.9807 91.6564 26.0416 92.1887 25.1883 92.8136C25.0311 92.9288 25.1952 93.1906 25.3699 93.1244C26.384 92.7419 27.3684 92.2413 28.2987 91.6844C28.6214 91.4904 28.2303 91.0473 27.9303 91.1937Z" fill="black"/>
<path d="M30.2358 91.2603C29.5782 92.5639 28.8096 93.8276 28.1152 95.1143C27.925 95.47 28.5777 95.8228 28.7625 95.4284C29.3839 94.1052 29.9407 92.7385 30.597 91.4349C30.7002 91.2323 30.344 91.0438 30.2358 91.2603Z" fill="black"/>
<path d="M42.0415 95.3302C40.7728 95.2012 39.6972 94.8868 38.514 94.4154C38.2907 94.3249 38.1246 94.5884 38.3184 94.747C39.3308 95.5831 40.7573 96.0071 42.0606 95.9706C42.4514 95.9587 42.3957 95.367 42.0415 95.3302Z" fill="black"/>
<path d="M44.5983 93.5672C43.8341 93.1415 43.0132 92.8099 42.2161 92.4501C41.9576 92.3314 41.8428 92.6787 42.0711 92.8063C42.8389 93.232 43.5986 93.6926 44.4015 94.054C44.7536 94.2129 44.911 93.7418 44.5983 93.5672Z" fill="black"/>
<path d="M29.9283 101.139C27.888 101.003 26.293 100.456 24.8615 98.9361C24.6819 98.7443 24.3761 98.9012 24.5333 99.1495C25.6677 100.951 27.9802 102.155 30.1168 101.782C30.5375 101.708 30.2322 101.16 29.9283 101.139Z" fill="black"/>
<path d="M30.2097 100.658C29.6183 100.223 28.9861 99.8388 28.3717 99.4356C28.1533 99.2925 27.9142 99.5615 28.1342 99.7237C28.7224 100.158 29.3003 100.615 29.9128 101.017C30.1854 101.197 30.4854 100.862 30.2097 100.658Z" fill="black"/>
<path d="M6.85796 105.141C6.54548 104.506 6.45996 103.865 6.42675 103.107C6.41789 102.914 6.12119 102.849 6.03899 103.021C5.57125 103.995 5.84027 105.23 6.38108 106.11C6.56071 106.401 7.07245 106.421 7.20862 106.084C7.25734 105.983 7.29249 105.878 7.31656 105.768C7.3971 105.473 7.13196 105.15 6.85796 105.141Z" fill="black"/>
<path d="M26.3854 107.601C20.4368 108.15 14.6844 107 9.36268 104.295C9.12688 104.176 9.02752 104.499 9.23011 104.621C14.4367 107.779 20.4479 108.993 26.4831 108.208C26.8933 108.154 26.7569 107.566 26.3854 107.601Z" fill="black"/>
<path d="M59.4694 101.922C56.2541 104.526 52.0041 105.107 48.0319 105.75C43.5532 106.472 39.0271 106.904 34.4983 107.127C34.1593 107.143 34.2797 107.621 34.5786 107.619C39.7656 107.565 44.9005 107.117 50.0287 106.328C53.5944 105.778 57.5563 105.378 60.2775 102.767C60.7124 102.35 59.9233 101.554 59.4694 101.922Z" fill="black"/>
<path d="M9.72751 110.998C9.28578 110.495 8.77099 110.097 8.39209 109.531C7.9941 108.938 7.82305 108.269 7.54213 107.623C7.47239 107.465 7.23852 107.454 7.19645 107.636C6.88065 109.019 7.96448 111.009 9.22822 111.603C9.61016 111.783 10.0347 111.347 9.72751 110.998Z" fill="black"/>
<path d="M58.6144 107.23C58.4661 106.763 57.806 106.817 57.698 107.259C57.5544 107.835 57.6108 108.444 57.4691 109.028C57.3316 109.608 57.103 110.161 56.9103 110.725C56.6992 110.554 56.4083 110.479 56.181 110.639C50.0058 114.987 41.5299 114.715 34.252 114.998C26.0012 115.319 18.0914 114.477 10.3119 111.625C9.98036 111.503 9.83395 111.915 10.1287 112.076C17.6112 116.155 26.5949 116.574 34.9306 116.251C39.3097 116.081 43.7726 115.886 48.1157 115.263C51.3459 114.798 54.6868 113.928 57.0482 111.547C57.1807 111.414 57.2051 111.255 57.1669 111.105C57.2106 111.105 57.256 111.095 57.2995 111.061C58.3454 110.243 59.0226 108.527 58.6144 107.23Z" fill="black"/>
<path d="M3.78583 6.70652C3.11217 7.10701 2.41581 7.50501 1.8119 8.00762C1.61124 8.17424 1.8155 8.55562 2.06653 8.44575C2.81215 8.1211 3.50158 7.67328 4.18548 7.23875C4.52453 7.02398 4.10882 6.51445 3.78583 6.70652Z" fill="black"/>
<path d="M55.1056 11.5228C39.6087 7.85145 22.9659 8.40029 8.03084 14.1242C7.69401 14.2531 7.942 14.7369 8.2542 14.6434C23.5123 10.0861 39.4354 9.17746 54.9489 13.0437C56.0026 13.3063 56.066 11.7498 55.1056 11.5228Z" fill="black"/>
<path d="M12.262 13.9943C11.3979 14.0275 10.5427 14.1651 9.69468 14.3226C9.38055 14.3799 9.58619 14.833 9.84303 14.8285C10.7154 14.8119 11.5864 14.7701 12.4469 14.6295C12.838 14.5659 12.588 13.9819 12.262 13.9943Z" fill="black"/>
<path d="M11.6053 15.3165C11.5721 15.1637 11.4467 15.0128 11.2579 15.0162C10.757 15.0242 10.2613 15.0469 9.76226 15.0859C9.55441 15.1017 9.52645 15.2719 9.60146 15.4045C9.49158 15.5354 9.62055 15.8016 9.84059 15.8166C10.4307 15.8567 11.0119 15.8766 11.605 15.8542C11.9559 15.8401 11.869 15.4106 11.6053 15.3165Z" fill="black"/>
<path d="M10.937 18.3075C10.0939 18.6285 9.25779 18.9637 8.42361 19.3066C8.14767 19.4201 8.35358 19.8372 8.60849 19.7395C9.45153 19.4148 10.2896 19.0858 11.1235 18.7401C11.3994 18.6258 11.1938 18.2106 10.937 18.3075Z" fill="black"/>
<path d="M10.0256 20.1061C10.1025 19.9221 9.89631 19.6602 9.6522 19.7142C9.05714 19.8443 8.48783 20.0718 7.91381 20.2727C7.60687 20.3807 7.8352 20.8077 8.11474 20.7369C8.27887 20.6951 8.44437 20.655 8.6085 20.6148C8.63313 20.7131 8.71838 20.8066 8.82687 20.7909C9.27192 20.7289 9.71364 20.6616 10.1551 20.5866C10.4429 20.539 10.2838 20.1269 10.0256 20.1061Z" fill="black"/>
<path d="M11.1445 24.5178C10.0834 24.7342 9.02554 25.0154 7.99402 25.3398C7.68708 25.4369 7.92068 25.8374 8.18582 25.7884C8.83014 25.6708 9.47225 25.5286 10.1127 25.3738C9.63278 25.7771 9.14926 26.1787 8.671 26.5817C8.42993 26.784 8.61177 27.1706 8.92065 27.1587C9.25222 27.1454 9.58545 27.1316 9.91702 27.1178C9.69394 27.746 9.47917 28.3726 9.28543 29.0123C9.19105 29.3253 9.6992 29.604 9.8124 29.2688C10.0723 28.5069 10.2992 27.7449 10.5176 26.9711C10.5699 26.7843 10.4337 26.621 10.2431 26.6141C10.0499 26.6055 9.85558 26.5933 9.66184 26.5817C10.2486 26.0555 10.8348 25.5283 11.4337 25.0171C11.6823 24.8043 11.4326 24.4594 11.1445 24.5178Z" fill="black"/>
<path d="M8.84245 37.6425C8.44999 44.0838 8.03954 50.5245 7.7254 56.9702C7.71129 57.2539 8.19148 57.3917 8.21058 57.0759C8.5964 50.6266 8.88784 44.1729 9.19505 37.7192C9.20363 37.5143 8.85629 37.4139 8.84245 37.6425Z" fill="black"/>
<path d="M8.72039 68.3798C8.71486 68.1582 8.33098 68.0463 8.33624 68.296C8.4951 77.756 8.3379 87.2857 8.84937 96.7336C8.8668 97.0582 9.47763 97.1664 9.48123 96.7931C9.57201 87.338 8.98554 77.8313 8.72039 68.3798Z" fill="black"/>
<path d="M12.9736 103.036C12.4727 103.125 11.9739 103.215 11.473 103.303C11.2303 103.345 11.3736 103.747 11.5934 103.712C12.096 103.635 12.6003 103.556 13.1032 103.478C13.44 103.426 13.2775 102.982 12.9736 103.036Z" fill="black"/>
<path d="M20.7598 95.7424C19.5573 96.2417 18.3688 96.7617 17.1906 97.3133C16.8886 97.4548 17.213 97.9591 17.4959 97.8423C18.6791 97.3585 19.8434 96.8453 21.0023 96.3098C21.3532 96.1476 21.0914 95.6046 20.7598 95.7424Z" fill="black"/>
<path d="M18.4143 95.4768C17.737 95.7945 17.0788 96.1474 16.416 96.4964C16.116 96.6533 16.4733 97.0759 16.7525 96.9447C17.4298 96.622 18.1104 96.3079 18.7718 95.9534C19.0915 95.7842 18.7107 95.3389 18.4143 95.4768Z" fill="black"/>
<path d="M23.247 96.444C22.2085 96.8489 21.1964 97.2992 20.1945 97.7877C19.8975 97.9311 20.2169 98.3986 20.4909 98.3009C21.5188 97.933 22.5263 97.5295 23.521 97.0795C23.9193 96.9012 23.6262 96.294 23.247 96.444Z" fill="black"/>
<path d="M25.6871 94.7055C25.0226 95.0442 24.3713 95.4107 23.7065 95.7492C23.4184 95.8975 23.7602 96.3165 24.0329 96.1837C24.7082 95.8538 25.3959 95.5502 26.0713 95.2183C26.4098 95.0509 26.0104 94.543 25.6871 94.7055Z" fill="black"/>
<path d="M23.2211 93.6194C22.5524 93.8743 21.8945 94.1467 21.2347 94.4223C20.8683 94.5759 21.1354 95.1137 21.4808 94.9983C22.1614 94.7716 22.8405 94.5427 23.5123 94.2947C23.9526 94.1328 23.6194 93.4661 23.2211 93.6194Z" fill="black"/>
<path d="M23.0973 98.3708C21.0271 99.6797 19.2588 100.312 16.7823 100.179C16.3771 100.156 16.4803 100.737 16.8014 100.811C19.1381 101.333 21.9676 100.704 23.7062 99.0091C24.045 98.678 23.4549 98.1455 23.0973 98.3708Z" fill="black"/>
<path d="M18.5347 98.3656C17.6134 98.4406 16.7003 98.5732 15.7856 98.6991C15.4014 98.7512 15.5271 99.2804 15.8764 99.2643C16.8035 99.2228 17.7299 99.1876 18.6515 99.0952C19.1511 99.0465 18.9814 98.3288 18.5347 98.3656Z" fill="black"/>
<path d="M16.0337 96.9189C15.1923 96.987 14.3598 97.0831 13.5236 97.1907C13.1414 97.24 13.2671 97.7827 13.6147 97.7564C14.4558 97.6969 15.2939 97.6272 16.1314 97.5262C16.5415 97.4775 16.4054 96.891 16.0337 96.9189Z" fill="black"/>
<path d="M28.7679 103.485C27.5025 103.789 26.256 104.145 25.0171 104.539C24.5998 104.674 24.912 105.248 25.284 105.162C26.5546 104.871 27.8111 104.539 29.0558 104.155C29.5041 104.016 29.1695 103.389 28.7679 103.485Z" fill="black"/>
<path d="M31.5446 98.7199C30.9199 98.931 30.337 99.259 29.745 99.5507C29.4608 99.6902 29.766 100.149 30.0331 100.048C30.6545 99.8123 31.2916 99.6063 31.8784 99.2925C32.2027 99.1162 31.8504 98.615 31.5446 98.7199Z" fill="black"/>
<path d="M28.5131 97.1907C27.6714 97.4337 26.848 97.6953 26.031 98.015C25.6626 98.158 25.935 98.6485 26.2701 98.5735C27.1323 98.38 27.9651 98.1373 28.8062 97.8683C29.2532 97.7232 28.9216 97.0739 28.5131 97.1907Z" fill="black"/>
<path d="M42.3225 100.209C41.1393 99.5649 39.963 98.9031 38.7862 98.2472C38.4654 98.0673 38.3049 98.5405 38.598 98.7116C39.7654 99.3941 40.9348 100.075 42.0958 100.769C42.4695 100.993 42.6892 100.41 42.3225 100.209Z" fill="black"/>
<path d="M42.2858 100.821C39.7533 101.513 37.0476 99.8179 36.6048 97.224C36.5489 96.8996 36.0147 96.8697 36.0568 97.2414C36.4058 100.304 39.6454 102.448 42.5969 101.546C43.0785 101.399 42.7206 100.702 42.2858 100.821Z" fill="black"/>
<path d="M47.5203 99.7198C45.5898 99.481 43.9842 98.4857 43.2303 96.6391C43.1047 96.3319 42.6438 96.4437 42.7451 96.7858C43.3576 98.8524 45.349 100.494 47.543 100.465C48.0038 100.458 47.9285 99.7705 47.5203 99.7198Z" fill="black"/>
<path d="M51.287 98.6883C49.5383 98.4561 48.0842 97.2292 47.7648 95.4593C47.6967 95.0806 47.0773 95.0438 47.126 95.48C47.3613 97.6164 49.1539 99.3617 51.3113 99.4666C51.7935 99.491 51.7077 98.744 51.287 98.6883Z" fill="black"/>
<path d="M54.6942 97.7423C53.2802 97.8522 52.0081 97.243 51.1612 96.1118C50.9553 95.8362 50.4004 96.0158 50.6044 96.3703C51.4803 97.8818 53.0934 98.7439 54.8406 98.6532C55.4639 98.6219 55.2522 97.7002 54.6942 97.7423Z" fill="black"/>
<path d="M54.1529 102.242C52.5523 102.713 50.9642 102.23 50.0301 100.809C49.8347 100.514 49.2975 100.71 49.4733 101.069C50.3462 102.842 52.6326 103.874 54.5124 103.076C55.0413 102.849 54.6591 102.092 54.1529 102.242Z" fill="black"/>
<path d="M56.448 100.823C55.5317 101.397 54.0515 101.199 53.8351 99.9594C53.7515 99.4706 52.9574 99.4286 53.0128 99.9838C53.1943 101.752 55.853 103.031 57.1059 101.511C57.4253 101.122 56.8499 100.572 56.448 100.823Z" fill="black"/>
<path d="M47.7822 97.0374C46.5586 96.8281 45.8556 95.9082 45.7504 94.7006C45.7297 94.4615 45.2757 94.2938 45.1994 94.5799C45.0942 94.9763 45.1014 95.3743 45.1935 95.7496C44.883 95.4213 44.5567 95.1075 44.2215 94.798C43.7676 94.3809 43.3278 93.9185 42.8335 93.5484C42.5875 93.3652 42.2507 93.6126 42.4532 93.8886C42.818 94.3807 43.2772 94.8204 43.6907 95.271C44.0959 95.7128 44.4919 96.1556 44.9475 96.5453C45.1379 96.7075 45.384 96.643 45.5063 96.4894C45.9895 97.292 46.8694 97.8752 47.8079 97.9294C48.367 97.9607 48.2535 97.1176 47.7822 97.0374Z" fill="black"/>
<path d="M38.8702 96.0199C37.6918 96.0617 36.8036 94.9009 36.994 93.7753C37.0427 93.4875 36.5329 93.2655 36.4336 93.5818C35.9066 95.2433 37.3084 96.9676 39.0189 96.9399C39.6449 96.9294 39.434 96.0005 38.8702 96.0199Z" fill="black"/>
<path d="M43.6458 99.0407C42.3472 98.346 41.4881 97.1734 41.2808 95.7034C41.2338 95.3683 40.6 95.2249 40.5983 95.6406C40.5825 97.454 41.6141 99.1694 43.2913 99.9134C43.9232 100.193 44.2127 99.3444 43.6458 99.0407Z" fill="black"/>
<path d="M44.8848 104.089C43.7221 103.272 42.4573 102.58 41.2298 101.861C40.9417 101.694 40.7098 102.112 40.9666 102.305C42.1061 103.164 43.2389 104.064 44.4464 104.825C44.9111 105.118 45.3227 104.396 44.8848 104.089Z" fill="black"/>
<path d="M41.111 104.626C40.7586 104.3 40.2962 104.117 39.8735 103.9C39.4299 103.674 38.9865 103.448 38.5434 103.223C38.0408 102.965 37.821 103.667 38.2589 103.929C38.6884 104.184 39.1179 104.442 39.5486 104.7C39.9588 104.944 40.3482 105.222 40.814 105.346C41.2823 105.471 41.3974 104.888 41.111 104.626Z" fill="black"/>
<path d="M36.5016 103.795C35.4493 102.507 34.2711 101.308 33.1333 100.095C32.8958 99.84 32.4472 100.074 32.6935 100.381C33.7264 101.671 34.7408 102.998 35.8575 104.216C36.2035 104.593 36.865 104.238 36.5016 103.795Z" fill="black"/>
<path d="M34.8663 104.636C33.889 103.111 32.8138 101.648 31.7523 100.18C31.4401 99.7476 30.8119 100.13 31.1086 100.601C32.0734 102.132 33.0288 103.676 34.0775 105.151C34.4558 105.683 35.2347 105.211 34.8663 104.636Z" fill="black"/>
<path d="M34.3796 105.761C33.2728 104.862 32.1367 103.998 31.0423 103.085C30.8015 102.884 30.5275 103.216 30.7664 103.42C31.8486 104.349 32.8887 105.328 33.9603 106.271C34.3168 106.585 34.7494 106.061 34.3796 105.761Z" fill="black"/>
<path d="M37.8213 102.411C36.2326 101.451 35.4247 99.6239 35.828 97.8122C35.9171 97.4109 35.1826 97.107 35.0481 97.5415C34.3655 99.7509 35.3586 102.228 37.5105 103.174C38.0743 103.422 38.294 102.697 37.8213 102.411Z" fill="black"/>
<path d="M49.8205 103.595C48.7192 104.057 47.7666 103.816 46.8936 103.045C46.6108 102.797 46.2704 103.125 46.4627 103.431C47.2377 104.668 49.0264 104.986 50.2777 104.382C50.7247 104.169 50.2428 103.418 49.8205 103.595Z" fill="black"/>
<path d="M36.6673 67.2977C36.341 71.2492 35.6676 75.1713 34.5677 78.9833C33.4908 82.708 31.8988 86.1256 30.311 89.6442C30.2268 89.8326 30.5238 89.9777 30.6284 89.7997C32.6134 86.4082 33.9444 82.4794 34.9709 78.704C35.9814 74.9831 36.608 71.1814 36.8281 67.3329C36.8333 67.2382 36.6742 67.1912 36.6673 67.2977Z" fill="black"/>
<path d="M36.8086 74.1308C35.2416 79.8068 33.5292 85.4723 32.1536 91.1987C32.119 91.3473 32.3931 91.4588 32.4404 91.2983C34.1085 85.6519 35.4491 79.8871 36.9238 74.1864C36.9412 74.1186 36.828 74.0577 36.8086 74.1308Z" fill="black"/>
<path d="M37.3379 81.3516C36.2449 84.4481 35.1423 87.5405 34.0618 90.6406C34.0247 90.7471 34.1993 90.8396 34.2397 90.7275C35.3305 87.6296 36.4008 84.5226 37.4793 81.4194C37.5089 81.3361 37.3689 81.2625 37.3379 81.3516Z" fill="black"/>
<path d="M35.7181 61.4768C31.7282 56.0233 30.1154 49.1378 31.6058 42.5025C31.6249 42.4187 31.4821 42.3796 31.4611 42.471C29.8782 49.0606 31.2552 56.2666 35.451 61.6492C35.5855 61.8222 35.8562 61.6636 35.7181 61.4768Z" fill="black"/>
<path d="M35.1383 65.4633C34.8801 64.1545 34.5413 62.8035 34.0946 61.5467C34.0667 61.4701 33.941 61.4823 33.9518 61.5711C34.0858 62.8733 34.3653 64.2104 34.6936 65.4774C34.7581 65.7287 35.1978 65.7636 35.1383 65.4633Z" fill="black"/>
<path d="M34.938 61.8973C34.8805 61.8187 34.7302 61.8674 34.7811 61.9706C35.3236 63.0437 35.4719 63.983 35.4357 65.1767C35.4288 65.3511 35.692 65.4352 35.7338 65.2432C35.9693 64.1225 35.6084 62.8081 34.938 61.8973Z" fill="black"/>
<path d="M35.9902 61.218C35.9412 61.1275 35.7859 61.1549 35.833 61.2634C36.3115 62.4014 36.4422 63.508 36.2625 64.7263C36.2362 64.8993 36.5244 64.9796 36.5576 64.7894C36.7793 63.5744 36.5731 62.3037 35.9902 61.218Z" fill="black"/>
<path d="M37.7148 62.9722C37.6697 63.0004 37.6276 63.0334 37.5836 63.0647C37.5 62.4574 37.3603 61.8341 37.205 61.2424C37.1546 61.0506 36.8313 61.0177 36.8648 61.2529C36.9592 61.9269 36.929 62.6301 36.952 63.309C36.954 63.3982 37.1214 63.4281 37.1228 63.3248C37.1297 63.1469 37.1297 62.9672 37.1316 62.7857C37.1579 62.9008 37.1768 63.0195 37.205 63.1311C37.2241 63.2044 37.2764 63.2534 37.3376 63.2814C36.9429 63.6951 36.7511 64.2711 36.8665 64.8556C36.9011 65.0369 37.205 65.0546 37.1751 64.8451C37.0843 64.1908 37.3079 63.5429 37.823 63.1172C37.9066 63.0475 37.802 62.9182 37.7148 62.9722Z" fill="black"/>
<path d="M41.7887 65.9481C41.3678 65.25 40.5457 64.7283 39.7204 64.7198C39.4376 64.7159 39.4954 65.128 39.7326 65.1678C40.1862 65.2464 40.5635 65.3721 40.8948 65.5955C40.2576 65.4438 39.5826 65.4474 38.9837 65.725C38.8945 65.7665 38.9333 65.9135 39.0343 65.8996C39.9313 65.7668 40.7434 65.7737 41.562 66.2243C41.7555 66.3306 41.8828 66.1069 41.7887 65.9481Z" fill="black"/>
<path d="M37.8231 62.3493C37.734 62.1888 37.6435 62.0302 37.5505 61.873C37.5074 61.7944 37.4371 61.749 37.3637 61.7246C32.3722 55.1976 31.1887 46.3495 34.0649 38.668C34.1106 38.5457 33.9132 38.4391 33.8576 38.5676C30.4312 46.448 31.9147 55.9551 37.2976 62.5918C37.4966 62.8384 38.0169 62.6914 37.8231 62.3493Z" fill="black"/>
<path d="M30.4293 28.7028C30.2427 28.6425 30.124 28.886 30.2375 29.023C31.8555 30.9823 32.6252 33.4356 32.838 35.9348C32.7558 36.4147 32.6706 36.9173 32.7124 37.3862C32.714 37.4072 32.7279 37.4211 32.7436 37.4324C32.311 37.8487 31.8713 38.279 31.5029 38.752C31.4398 38.8315 31.5585 38.9596 31.6407 38.8968C32.1555 38.5024 32.6183 38.0275 33.0699 37.565C33.1873 37.4446 33.0005 37.2744 32.8662 37.3311C33.0686 36.7991 33.1142 36.1593 33.1945 35.6024C33.21 35.4978 33.1073 35.428 33.0179 35.433C32.8682 33.2197 32.0791 31.2117 30.9092 29.3258C33.3619 30.444 34.3326 33.1416 33.3965 35.7081C33.311 35.9456 33.6932 36.1532 33.8017 35.9035C35.107 32.921 33.4491 29.6853 30.4293 28.7028Z" fill="black"/>
<path d="M28.4206 69.7499C27.724 69.4565 26.9684 69.1581 26.1796 68.8473C26.2981 68.8285 26.4185 68.8108 26.5353 68.7881C26.7046 68.7568 26.5809 68.5105 26.4287 68.5384C26.1827 68.5838 25.9385 68.6223 25.6958 68.6555C25.1129 68.425 24.5176 68.1825 23.9173 67.9312C23.9225 67.9049 23.9156 67.8756 23.8932 67.8493C23.0554 66.8316 22.397 65.8194 22.0496 64.5314C22.0305 64.458 21.898 64.4511 21.919 64.5366C22.2052 65.6921 22.7252 66.8562 23.5229 67.7602C22.0898 67.1493 20.6484 66.4721 19.3356 65.6675C18.564 64.5554 18.0893 63.2917 18.0038 61.9358C17.9986 61.8713 17.8923 61.8677 17.8953 61.9394C17.9532 63.1907 18.2745 64.3376 18.9044 65.3954C16.1135 63.5854 14.0031 61.175 14.0031 57.6614C14.005 57.5924 13.8866 57.557 13.8846 57.6353C13.7941 59.9217 14.63 61.7493 15.9826 63.2574C14.7174 62.4246 13.7399 61.3549 13.1883 59.9121C13.1642 59.8487 13.0626 59.8719 13.087 59.9417C13.6214 61.4631 14.6737 62.8348 16.1293 63.5748C16.1904 63.6061 16.2341 63.5801 16.2496 63.5397C17.0824 64.3988 18.088 65.1491 19.1784 65.8194C19.1995 65.8474 19.2255 65.861 19.2534 65.8646C19.7422 66.1613 20.2448 66.446 20.7596 66.7126C19.2271 66.7618 17.8068 66.4665 16.4467 65.7372C16.3822 65.7024 16.349 65.7965 16.4085 65.83C17.7857 66.6082 19.3212 67.0062 20.906 66.9155C20.9653 66.9119 20.9844 66.8701 20.9844 66.8283C22.374 67.5371 23.8246 68.1496 25.1996 68.7134C23.746 68.8653 22.3057 68.8182 20.8343 68.5877C20.7173 68.5705 20.7104 68.7311 20.8166 68.7538C22.4382 69.0925 24.0753 69.1376 25.7055 68.9198C26.6357 69.3001 27.5208 69.656 28.3149 70.0089C28.5025 70.0903 28.5986 69.8232 28.4206 69.7499Z" fill="black"/>
<path d="M54.7622 56.3833C54.1143 56.9515 53.4514 57.4594 52.7631 57.9086C53.046 57.3501 53.2906 56.7708 53.5597 56.2062C53.5909 56.1417 53.4808 56.0839 53.4476 56.1511C53.1334 56.7813 52.7772 57.3966 52.493 58.0403C52.488 58.0545 52.4913 58.0666 52.493 58.0805C51.5556 58.665 50.5714 59.1427 49.5152 59.4951C50.3566 58.9044 50.9243 57.941 51.1141 56.9311C51.128 56.8569 51.0026 56.8212 50.9865 56.9031C50.7073 58.3011 49.7056 59.249 48.4281 59.776C48.3998 59.7865 48.3896 59.8048 48.3791 59.823C48.042 59.9044 47.6966 59.975 47.3442 60.0325C47.2449 60.0491 47.3038 60.2097 47.3932 60.1994C48.7369 60.0417 50.0793 59.6653 51.3308 59.0926C51.3391 59.0982 51.348 59.1042 51.3602 59.1051C52.4196 59.1383 53.3449 59.4225 54.3136 59.8319C54.4426 59.887 54.5023 59.717 54.3869 59.6556C53.5229 59.1939 52.5281 59.0071 51.5542 58.9908C52.8165 58.3833 53.9768 57.5709 54.9313 56.5621C55.0182 56.4697 54.8547 56.3011 54.7622 56.3833Z" fill="black"/>
<path d="M50.8227 61.7068C49.6112 60.8167 48.159 60.349 46.672 60.2161C46.5983 60.2092 46.6105 60.3279 46.6755 60.3351C48.1682 60.5341 49.4527 61.089 50.7106 61.8936C50.8299 61.9686 50.9325 61.7871 50.8227 61.7068Z" fill="black"/>
<path d="M30.1643 38.6745C26.9947 37.2046 24.3663 35.0477 22.4493 32.109C22.4092 32.0473 22.3207 32.1021 22.3608 32.1677C24.1794 35.1241 26.8655 37.5301 30.0874 38.8611C30.2235 38.9159 30.29 38.7327 30.1643 38.6745Z" fill="black"/>
<path d="M25.5705 33.0148C25.5528 32.9545 25.4449 32.9459 25.462 33.0184C25.71 34.0195 25.958 35.0206 26.2337 36.0145C26.26 36.1077 26.4274 36.1183 26.3995 36.0084C26.141 35.0054 25.8548 34.0107 25.5705 33.0148Z" fill="black"/>
<path d="M25.0084 34.9564C24.1604 34.97 23.3766 34.601 22.8911 33.8969C22.851 33.8399 22.7693 33.8908 22.8075 33.9509C23.2982 34.7145 24.1236 35.1773 25.038 35.1344C25.1603 35.1283 25.1166 34.9547 25.0084 34.9564Z" fill="black"/>
<path d="M27.5477 37.5277C26.7677 37.2012 25.9698 36.9125 25.1758 36.6252C25.0988 36.5981 25.0603 36.6985 25.1317 36.7298C25.9067 37.0686 26.6833 37.4079 27.4741 37.7074C27.6052 37.7564 27.6714 37.5801 27.5477 37.5277Z" fill="black"/>
<path d="M28.8828 35.847C28.8272 36.1437 28.7732 36.4396 28.722 36.7371C28.7029 36.8567 28.9005 36.9117 28.9265 36.7817C28.9858 36.4858 29.0381 36.1891 29.0904 35.8921C29.1098 35.772 28.9094 35.7155 28.8828 35.847Z" fill="black"/>
<path d="M45.1359 28.9095C42.9771 29.9557 40.9785 31.2692 39.1369 32.7773C39.5141 32.1159 39.8615 31.4369 40.221 30.7666C40.2592 30.6933 40.1319 30.6268 40.0901 30.7029C39.683 31.4281 39.2554 32.1471 38.8734 32.8864C38.856 32.9238 38.8734 32.9553 38.9011 32.9769C38.1441 33.609 37.4146 34.2738 36.711 34.966C36.8225 33.9223 37.189 32.9606 37.8505 32.1087C37.8995 32.0445 37.791 31.9551 37.7409 32.0179C37.011 32.929 36.5817 34.0026 36.5206 35.1562C35.8331 35.8437 35.1697 36.5583 34.5361 37.3006C34.4802 37.3659 34.5956 37.462 34.6516 37.3955C35.243 36.7019 35.8699 36.0471 36.5137 35.4136C36.5137 35.4518 36.5103 35.4902 36.5103 35.5287C36.5123 35.6223 36.6709 35.6701 36.6728 35.5647C36.6742 35.4548 36.6811 35.3474 36.6883 35.24C39.2263 32.7782 42.1304 30.7569 45.2757 29.0963C45.401 29.0299 45.2532 28.8527 45.1359 28.9095Z" fill="black"/>
<path d="M41.3292 33.3769C40.0901 33.7215 38.8579 34.1037 37.6343 34.5C37.5554 34.5255 37.6133 34.637 37.685 34.6179C38.9313 34.2844 40.1737 33.9354 41.4042 33.5504C41.5199 33.5139 41.4344 33.3481 41.3292 33.3769Z" fill="black"/>
<path d="M43.9961 30.2203C43.1376 30.4428 42.2843 30.6836 41.4288 30.9202C41.3505 30.9418 41.4078 31.052 41.4778 31.0354C42.3438 30.827 43.2112 30.6219 44.0733 30.3985C44.1935 30.3678 44.1046 30.1923 43.9961 30.2203Z" fill="black"/>
<path d="M59.0361 8.25372C41.6804 2.37014 22.0657 2.93725 4.87163 9.04944C4.54863 9.16485 4.78776 9.63951 5.08446 9.54513C22.8091 3.90954 41.2035 4.30034 58.8722 9.84709C59.9683 10.1911 59.9857 8.57588 59.0361 8.25372Z" fill="black"/>
<path d="M60.5705 12.1513C61.1675 11.5875 61.4047 10.6302 61.0955 9.85798C60.9978 9.61276 60.6106 9.64431 60.6314 9.93382C60.6613 10.3545 60.5232 10.714 60.2824 10.9933C60.2301 10.9462 60.1708 10.9061 60.1041 10.8782C59.1249 10.4652 58.0309 10.3573 56.9849 10.1912C55.9883 10.0343 54.9742 9.82394 53.9637 9.93271C53.7196 9.959 53.7509 10.2302 53.9219 10.3351C54.8209 10.8884 55.8507 11.1713 56.8507 11.4904C57.5473 11.7132 58.2506 11.9681 58.968 12.1286C58.9733 12.166 58.9749 12.2053 58.9888 12.2401C59.1094 12.5335 59.418 12.6547 59.7095 12.5999C59.8404 12.5753 59.9624 12.5335 60.0792 12.482C59.9381 12.6174 59.8108 12.7691 59.6762 12.9116C59.3953 13.2083 59.0898 13.4917 58.8888 13.8487C58.7128 14.1595 58.9677 14.5855 59.2259 14.7469C59.5174 14.9281 59.9104 14.9395 60.1512 14.6597C60.3934 14.3768 60.542 13.9816 60.7097 13.6481C60.8683 13.3359 61.0953 13.006 61.1218 12.6514C61.1412 12.3868 60.8534 12.0685 60.5705 12.1513Z" fill="black"/>
<path d="M6.03407 11.4782C4.82459 11.5139 3.47367 12.7176 3.91706 14.0115C3.97656 14.182 4.23451 14.2149 4.31505 14.0491C4.70945 13.2296 5.16861 12.4356 6.16664 12.3074C6.7307 12.2349 6.54195 11.4644 6.03407 11.4782Z" fill="black"/>
<path d="M31.2499 6.17234C23.8231 6.58832 16.3389 7.95612 9.25418 10.2068C9.00288 10.2865 9.19302 10.6206 9.41305 10.576C16.7173 9.08977 24.0063 7.98684 31.4207 7.23873C32.1467 7.16539 31.9026 6.1358 31.2499 6.17234Z" fill="black"/>
<path d="M3.57818 10.5925C3.30418 10.7275 3.02685 10.8551 2.76143 11.0079C2.54306 11.1344 2.23612 11.2714 2.22892 11.5567C2.22533 11.6613 2.28123 11.7618 2.37755 11.8072C2.66373 11.9398 2.92002 11.7773 3.17852 11.6467C3.46304 11.5025 3.73345 11.3306 4.00939 11.1665C4.38635 10.9406 3.93078 10.417 3.57818 10.5925Z" fill="black"/>
<path d="M63.1359 8.18831C61.5951 5.50309 57.6628 4.53246 54.9629 3.61552C47.091 0.942195 38.7165 -0.252622 30.4084 0.0443526C22.1319 0.339113 13.8066 2.08359 6.19294 5.36858C3.75626 6.4192 0.0334208 7.53292 0.000208386 10.7487C-0.0260848 13.4334 2.44021 14.9708 4.88216 14.3041C5.2295 14.2089 5.01833 13.7055 4.71277 13.7257C2.76154 13.8541 1.16098 11.9219 1.74912 10.1249C1.9304 9.56995 2.22904 9.21901 2.61126 8.9284C2.51356 9.06678 2.66163 9.30785 2.84679 9.23451C4.93585 8.39672 7.03238 7.61651 9.09515 6.71064C9.45302 6.55454 9.18427 6.00903 8.8527 6.14437C6.77416 6.98824 4.76508 7.94033 2.71948 8.85063C2.93619 8.69702 3.17698 8.55669 3.43686 8.40918C4.73879 7.66909 6.21702 7.12441 7.60668 6.57198C10.1602 5.55789 12.7657 4.67998 15.4224 3.9731C21.0688 2.46831 26.9003 1.72158 32.7418 1.69556C38.4408 1.6701 44.1323 2.35953 49.6567 3.7611C52.5102 4.48458 55.3205 5.38851 58.0433 6.50915C59.345 7.04608 60.7482 7.57638 61.459 8.86474C62.6352 10.9939 60.7942 12.6105 59.1953 13.8181C58.3312 14.4718 59.4324 15.8535 60.2827 15.2686C62.5671 13.6958 64.7578 11.013 63.1359 8.18831Z" fill="black"/>
</svg>
